<svg width="792" height="443" viewBox="0 0 792 443" fill="none" xmlns="http://www.w3.org/2000/svg">
<path d="M672.303 442.2C738.08 442.2 791.403 439.469 791.403 436.1C791.403 432.731 738.08 430 672.303 430C606.526 430 553.203 432.731 553.203 436.1C553.203 439.469 606.526 442.2 672.303 442.2Z" fill="#49376C" fill-opacity="0.32"/>
<path d="M513.302 438.201C517.554 438.201 521.002 436.992 521.002 435.501C521.002 434.01 517.554 432.801 513.302 432.801C509.049 432.801 505.602 434.01 505.602 435.501C505.602 436.992 509.049 438.201 513.302 438.201Z" fill="#49376C" fill-opacity="0.32"/>
<path d="M209.303 442.2C275.08 442.2 328.403 439.469 328.403 436.1C328.403 432.731 275.08 430 209.303 430C143.526 430 90.2031 432.731 90.2031 436.1C90.2031 439.469 143.526 442.2 209.303 442.2Z" fill="#49376C" fill-opacity="0.32"/>
<path d="M8.30154 438.201C12.5541 438.201 16.0016 436.992 16.0016 435.501C16.0016 434.01 12.5541 432.801 8.30154 432.801C4.04895 432.801 0.601562 434.01 0.601562 435.501C0.601562 436.992 4.04895 438.201 8.30154 438.201Z" fill="#49376C" fill-opacity="0.32"/>
<path d="M277.801 17.0001C279.301 6.70011 290.201 -0.699903 300.401 1.3001C394.801 15.9001 489.101 30.4001 583.501 45.0001C587.601 45.7001 592.001 45.9001 595.801 47.8001C601.301 50.6001 605.401 55.9001 606.401 62.0001C607.101 65.7001 606.301 69.4001 605.801 73.1001C604.101 84.0001 602.401 94.8001 600.801 105.7C596.701 132.2 592.601 158.7 588.501 185.2C587.201 185 586.301 184.3 585.701 183.2C590.401 155.9 594.301 128.4 598.601 101C490.801 84.4001 383.101 67.7001 275.301 51.1001C268.301 96.7001 261.201 142.3 254.201 187.9C253.601 193.7 251.401 199.6 253.201 205.4C255.001 211.4 260.301 216.2 266.501 217.1C279.301 219.2 292.101 221 304.901 223.1C310.101 224 315.201 224.8 320.401 225.5C398.701 237.7 477.101 249.7 555.401 261.8C558.501 262.3 561.701 262 564.801 261.4C563.801 262.6 562.801 263.7 561.801 264.9C550.701 264.6 539.901 261.9 528.901 260.5C467.401 251 405.901 241.5 344.501 232C344.001 231.6 342.901 230.8 342.401 230.4C339.601 230.2 336.801 230.1 334.101 230C328.901 229.9 323.801 228.7 318.601 228C301.201 225.2 283.801 222.6 266.501 219.9C262.701 219.4 259.301 217.5 256.201 215.3C252.701 211.8 250.101 207.2 249.801 202.2C249.601 197 251.001 191.9 251.601 186.8C260.301 130.1 269.001 73.5001 277.801 17.0001ZM280.501 18.0001C278.901 28.1001 277.401 38.2001 275.901 48.3001C383.601 64.9001 491.301 81.5001 599.001 98.2001C600.601 88.1001 602.201 78.0001 603.701 67.9001C605.301 59.0001 598.401 49.8001 589.401 48.7001C492.801 33.7001 396.101 18.8001 299.501 3.9001C290.701 2.4001 281.701 9.10011 280.501 18.0001Z" fill="white"/>
<path d="M652.999 113.5C653.799 113.7 654.599 113.9 655.399 114.2C654.499 114.8 653.799 116.4 652.599 115.7C651.199 115.5 651.799 113.6 652.999 113.5Z" fill="white"/>
<path d="M584.602 190C585.502 190.6 586.502 191.3 587.402 191.9C586.702 196.1 586.002 200.3 585.402 204.5C584.702 204.5 583.202 204.4 582.402 204.4C583.402 199.7 584.302 194.8 584.602 190Z" fill="white"/>
<path d="M581.102 215.2C582.002 215 582.902 214.7 583.902 214.5C582.302 224.9 580.602 235.3 579.102 245.7C577.902 246.9 576.802 248.1 575.602 249.3C577.602 237.9 579.002 226.5 581.102 215.2Z" fill="white"/>
<path d="M243 211.801C247.3 213.101 251.8 213.901 256.1 215.201C259.2 217.401 262.6 219.401 266.4 219.801C283.8 222.501 301.2 225.101 318.5 227.901C323.7 228.601 328.8 229.801 334 229.901C330.8 232.901 327 235.501 322.5 235.701C304.2 231.701 285.9 228.101 267.5 224.301C263.2 223.301 258.5 223.201 254.8 220.601C250.9 217.701 246.9 214.801 243 211.801Z" fill="#6A82C3"/>
<path d="M649.799 88.3991C653.499 83.3991 660.999 82.0991 666.199 85.2991C670.699 87.7991 672.199 93.1992 675.299 97.0992C684.299 109.199 696.099 118.899 708.899 126.699C717.199 131.799 723.999 139.099 729.199 147.299C732.699 152.599 735.499 158.499 736.099 164.899C737.899 181.499 736.999 198.299 736.199 214.999C735.599 227.699 733.799 240.299 734.099 252.999C734.099 264.799 731.499 276.899 724.799 286.799C719.699 292.399 712.999 296.599 705.399 297.599C690.499 299.899 675.999 294.399 662.199 289.599C643.499 282.299 625.399 273.599 607.899 263.799C603.399 272.899 596.399 280.499 588.599 286.899C573.399 299.699 555.699 309.799 536.699 315.699C533.899 313.599 530.999 311.599 528.199 309.599C535.499 299.699 542.399 289.599 549.999 279.899C553.899 274.799 557.899 269.799 561.999 264.799C562.999 263.599 563.999 262.499 564.999 261.299C568.499 257.199 571.999 253.099 575.799 249.199C576.999 247.999 578.099 246.799 579.299 245.599C587.599 237.499 596.599 228.599 608.599 226.899C622.999 224.599 637.499 227.099 651.699 229.899C658.899 231.399 666.099 233.199 673.199 235.299C672.399 232.899 671.699 230.499 670.899 228.099C678.499 226.599 686.199 225.599 693.399 222.699C699.799 220.499 706.199 217.099 709.499 210.899C716.399 198.299 716.199 183.299 715.199 169.399C713.499 175.399 712.699 181.599 709.999 187.299C706.199 196.199 699.199 203.899 690.099 207.399C682.199 210.399 673.699 210.999 665.399 211.799C643.699 213.199 621.899 212.199 600.299 210.999C599.499 208.599 598.699 206.199 597.899 203.699C605.999 201.599 614.099 199.199 622.099 196.899C634.199 193.599 646.299 190.099 658.399 186.699C657.599 182.599 656.699 178.599 656.099 174.599C654.999 166.699 655.099 158.599 657.099 150.899C658.799 144.199 661.999 137.799 666.299 132.299C668.299 130.299 667.599 127.399 667.599 124.799C662.299 124.899 655.899 126.099 651.699 121.999C649.399 118.099 649.899 113.299 648.899 108.999C653.099 108.899 657.399 109.399 661.599 109.099C666.299 107.699 666.599 100.399 662.099 98.5992C657.299 96.9992 652.299 99.2992 647.399 99.5992C647.099 95.8992 647.099 91.5991 649.799 88.3991ZM652.999 113.499C651.799 113.599 651.199 115.499 652.599 115.699C653.799 116.399 654.499 114.699 655.399 114.199C654.499 113.899 653.799 113.599 652.999 113.499Z" fill="#49376C"/>
<path d="M220.501 87.9998C227.601 84.5998 236.701 89.3998 238.301 96.9998C241.401 115.1 244.401 133.2 246.801 151.5C247.701 157.4 249.801 163 250.101 169C250.501 174.4 249.601 179.7 248.701 185C246.401 193 242.301 200.3 237.501 207.1C239.301 208.8 241.001 210.4 243.001 211.9C246.901 214.9 250.901 217.8 254.901 220.6C258.601 223.2 263.301 223.3 267.601 224.3C285.901 228.1 304.301 231.7 322.601 235.7C323.101 238.4 323.601 241.1 324.201 243.8C320.501 245 316.501 245.2 312.701 245.8C293.601 248.3 274.401 250.1 255.201 249.8C248.501 249.2 241.601 249 235.401 246.1C228.701 243 223.401 237.5 219.101 231.5C207.701 215.2 202.701 195.6 198.101 176.5C195.701 188.7 194.001 201.2 195.201 213.6C195.901 219.8 197.201 226.3 201.301 231.3C204.401 235.1 209.201 236.8 213.601 238.6C209.701 243.6 205.401 248.2 201.901 253.4C201.601 255.6 202.101 257.7 202.301 259.9C203.401 272 198.401 284.8 188.301 291.9C189.501 314.7 187.901 337.5 184.801 360.2C190.201 361.5 195.501 363.4 200.101 366.6C206.101 370.6 210.201 376.6 214.701 382.1C222.301 391.7 229.801 401.5 236.301 411.9C234.401 413.7 232.601 415.6 230.701 417.4C223.901 413.6 217.201 409.6 210.601 405.5C197.501 397.4 184.501 389 172.401 379.3C166.401 374.3 160.201 369 156.801 361.7C149.101 346.2 141.401 330.6 135.301 314.4C146.301 316.5 158.101 318.3 168.901 314.3C177.001 310.3 181.201 301.6 184.901 293.9C179.301 295.7 173.401 297 167.501 297.2C155.001 298 142.501 299.3 130.201 301.2C115.601 303.3 101.101 306 86.6008 309C85.6008 308.4 84.5008 307.7 83.5008 307.1C80.4008 321 71.7008 332.6 62.6008 343.2C57.0008 349.7 50.8008 355.6 44.2008 361C38.6008 365.6 32.7008 369.8 26.4008 373.5L25.5008 373.1C22.5008 371.7 19.4008 370.4 16.3008 369.2C22.7008 352.9 29.9008 337 37.6008 321.3C44.8008 307.4 52.0008 293.4 62.2008 281.5C66.9008 275.7 73.8008 272.6 79.9008 268.6C94.8008 260.1 111.101 254.3 127.501 249.4C130.701 248.4 133.601 246.6 136.401 244.9C142.201 225.7 150.501 207.4 160.301 189.9C168.901 174.8 178.001 159.6 191.101 147.9C199.401 140.3 209.501 133.4 221.201 133.3C218.201 131.1 214.801 128.8 213.701 125C212.401 120.4 213.301 115.6 213.001 111C217.101 112.1 221.301 112.8 225.501 113C228.201 112.3 229.101 109.2 230.401 107.1C229.301 105.2 228.601 102.8 226.401 102.1C222.001 100.7 217.301 101.7 212.801 101.7C212.801 95.9998 215.101 90.1998 220.501 87.9998Z" fill="#49376C"/>
<path d="M706.9 313.498C715.9 307.898 719.6 297.398 724.2 288.398C726.8 310.798 724.5 333.398 721.9 355.698C721.7 357.198 721.5 358.698 721.3 360.198C729.8 362.098 738 366.198 743.7 372.898C751.8 382.498 759.6 392.498 766.8 402.698C768.6 405.698 771.3 408.298 772.3 411.698C772.1 411.898 771.8 412.298 771.6 412.498C770.4 413.798 769.2 415.098 767.9 416.398C767.5 416.498 766.8 416.698 766.5 416.798C752.7 408.898 739.1 400.498 725.9 391.598C717.6 385.898 709.4 379.898 702 373.098C694.6 366.598 691.4 356.998 686.9 348.498C681.6 337.298 676.2 326.098 672 314.498C683.5 316.098 696 318.598 706.9 313.498Z" fill="#49376C"/>
<path d="M647.1 99.7993C652 99.4993 657 97.1993 661.8 98.7993C666.4 100.599 666 107.899 661.3 109.299C657.1 109.599 652.8 109.099 648.6 109.199C648.2 108.699 647.4 107.799 647 107.299C647.1 106.699 647.3 105.399 647.4 104.799C647.4 104.399 647.4 103.499 647.4 102.999C647.3 102.199 647.2 100.599 647.1 99.7993ZM650.5 101.099C650.6 101.899 650.8 103.399 650.9 104.199L651.9 103.399L651.6 104.299C652.3 104.399 653.7 104.499 654.4 104.599L654.2 104.199C655.7 103.799 657.2 103.499 658.7 103.199C658.6 102.399 658.4 100.899 658.2 100.099C655.6 99.9993 653 100.399 650.5 101.099Z" fill="#FAD8D0"/>
<path d="M212.701 101.5C217.201 101.6 221.901 100.6 226.301 101.9C228.601 102.6 229.301 105 230.301 106.9C228.901 109 228.101 112.2 225.401 112.8C221.201 112.6 217.001 111.8 212.901 110.8C212.501 110.5 211.701 109.9 211.301 109.6C211.601 108.4 212.001 107.3 212.301 106.1C212.301 105.6 212.401 104.7 212.401 104.3C212.501 103.6 212.601 102.2 212.701 101.5ZM216.101 102.9C216.101 103.9 216.101 104.9 216.101 105.9C216.901 107.3 217.901 107.6 219.301 106.6C220.901 106.3 223.201 106.9 223.901 105C223.401 101.5 218.501 103.5 216.101 102.9Z" fill="#FAD8D0"/>
<path d="M584.602 190C584.802 187.7 585.202 185.4 585.602 183.2C586.202 184.3 587.102 184.9 588.402 185.2C589.802 185.5 591.202 185.6 592.602 185.9C591.602 184.8 590.502 183.7 589.602 182.6C594.202 183.1 598.302 185.3 602.702 186.4C602.702 188.5 602.502 190.7 602.502 192.8H600.502C596.102 192.8 591.802 192.8 587.502 192C586.502 191.2 585.602 190.6 584.602 190Z" fill="#FAD8D0"/>
<path d="M585.402 204.499C589.502 204.799 593.702 204.699 597.702 203.799C598.502 206.199 599.302 208.599 600.102 211.099C594.402 210.599 589.302 213.099 583.902 214.499C583.002 214.699 582.102 214.999 581.102 215.199C580.002 213.899 578.902 212.699 577.802 211.499C577.402 210.699 577.002 209.899 576.602 209.199C578.302 208.599 579.902 208.099 581.602 207.499C581.802 206.699 582.202 205.199 582.402 204.499C583.202 204.499 584.702 204.499 585.402 204.499Z" fill="#FAD8D0"/>
<path d="M306.702 217C311.302 217.2 316.002 217.4 320.602 218.3C319.702 219 318.902 219.7 318.002 220.4C320.302 221.2 322.502 222.1 324.702 223.1C323.402 224.1 322.002 224.9 320.402 225.4C315.202 224.7 310.002 223.9 304.902 223C305.502 221 306.202 219 306.702 217Z" fill="#FAD8D0"/>
<path d="M334.002 229.898C336.802 229.998 339.602 230.098 342.302 230.298C342.802 230.698 343.902 231.498 344.402 231.898C343.602 232.398 342.002 233.198 341.202 233.698C341.802 233.698 343.002 233.598 343.702 233.598C343.202 234.698 342.602 235.798 342.102 236.898C336.402 240.098 329.702 240.698 324.002 243.798C323.402 241.098 322.902 238.398 322.402 235.698C327.102 235.498 330.902 232.998 334.002 229.898Z" fill="#FAD8D0"/>
<path d="M650.5 101.099C653 100.399 655.6 99.9992 658.2 100.099C658.3 100.899 658.5 102.399 658.7 103.199C657.2 103.499 655.7 103.799 654.2 104.199C654.1 103.799 653.8 103.099 653.7 102.699C653.4 102.599 652.7 102.399 652.4 102.299C652.3 102.599 652.1 103.199 651.9 103.499L650.9 104.299C650.8 103.399 650.6 101.899 650.5 101.099Z" fill="#F4ADAE"/>
<path d="M652.398 102.301C652.698 102.401 653.398 102.601 653.698 102.701C653.798 103.101 654.098 103.801 654.198 104.201L654.398 104.601C653.698 104.501 652.298 104.401 651.598 104.301L651.898 103.401C651.998 103.101 652.198 102.501 652.398 102.301Z" fill="#221D43"/>
<path d="M216.098 105.901C216.798 104.201 219.998 104.301 219.298 106.601C217.898 107.601 216.898 107.301 216.098 105.901Z" fill="#221D43"/>
<path d="M511 326.502C514.6 324.302 517.4 321.202 520.2 318.102C521.2 319.502 521.9 321.402 523.7 322.002C525.5 322.502 527.4 322.302 529.3 322.302C528.8 327.002 523.6 327.502 520.6 330.102C517.9 332.302 514.3 334.802 510.7 332.802C507.6 332.002 508.5 327.702 511 326.502Z" fill="#221D43"/>
<path d="M3.8992 388.502C6.7992 385.902 8.39921 382.302 10.4992 379.102C12.5992 382.602 16.4992 382.402 19.8992 381.202C20.5992 383.202 19.8992 385.402 17.9992 386.502C14.3992 388.702 12.5992 392.702 9.09921 394.902C6.79921 396.402 3.89922 395.402 1.69922 394.202C1.99922 392.102 2.1992 389.802 3.8992 388.502Z" fill="#221D43"/>
<path d="M241.2 415.701C243.1 417.201 244.9 418.901 246.3 420.901C245.5 423.201 244.7 425.401 243.9 427.701C242.7 430.301 241.5 433.101 239.1 434.801C235.7 436.301 231.9 435.601 228.5 434.801C228.9 431.101 232.5 431.001 235.4 430.501C235.4 429.901 235.5 428.801 235.6 428.301C235.7 426.401 235.8 424.601 235.8 422.701C238.6 421.101 240.5 418.701 241.2 415.701Z" fill="#221D43"/>
<path d="M777.501 416.201C780.301 416.901 783.501 419.701 782.301 422.901C781.301 426.301 780.001 429.601 778.101 432.601C775.301 436.601 770.101 435.401 766.001 435.101C765.801 434.401 765.501 433.001 765.301 432.201C767.401 431.201 769.701 430.601 772.101 430.201C772.401 427.501 772.601 424.901 773.001 422.201C775.201 421.001 777.101 419.001 777.501 416.201Z" fill="#221D43"/>
<path d="M216.102 102.899C218.502 103.499 223.402 101.499 223.902 104.999C223.202 106.999 220.902 106.299 219.302 106.599C220.102 104.299 216.902 104.099 216.102 105.899C216.102 104.899 216.102 103.899 216.102 102.899Z" fill="#F3A6A9"/>
<path d="M647.398 104.8C645.898 104.2 645.898 103.6 647.398 103C647.398 103.5 647.398 104.3 647.398 104.8Z" fill="#312E56"/>
<path d="M212.3 106.101C210.9 105.601 210.9 105.001 212.4 104.301C212.4 104.701 212.4 105.601 212.3 106.101Z" fill="#3A3B67"/>
<path d="M709.901 187.4C712.501 181.7 713.301 175.5 715.101 169.5C716.101 183.4 716.301 198.4 709.401 211C706.101 217.2 699.701 220.6 693.301 222.8C686.101 225.6 678.301 226.7 670.801 228.2C669.001 222.8 667.101 217.4 665.301 212C673.601 211.2 682.101 210.6 690.001 207.6C699.101 204 706.101 196.3 709.901 187.4Z" fill="#2B1E44"/>
<path d="M608.298 184.599C624.198 181.399 639.998 177.999 655.898 174.699C656.598 178.799 657.498 182.799 658.198 186.799C646.098 190.199 633.998 193.699 621.898 196.999C616.398 196.499 610.898 195.599 605.398 194.999C603.598 194.599 601.098 194.899 600.398 192.699H602.398C602.498 190.599 602.598 188.399 602.598 186.299C604.498 185.599 606.398 185.099 608.298 184.599Z" fill="#2B1E44"/>
<path d="M197.998 176.5C202.598 195.6 207.598 215.2 218.998 231.5C217.198 233.9 215.298 236.2 213.398 238.5C208.998 236.7 204.198 235.1 201.098 231.2C196.998 226.2 195.698 219.7 194.998 213.5C193.998 201.2 195.598 188.7 197.998 176.5Z" fill="#2B1E44"/>
<path d="M237.5 207C242.3 200.2 246.3 192.9 248.7 184.9C249.4 185.3 250.8 186.2 251.5 186.7C250.9 191.8 249.5 196.9 249.7 202.1C250 207.1 252.6 211.7 256.1 215.2C251.8 213.9 247.3 213.1 243 211.8C241.1 210.3 239.3 208.7 237.5 207Z" fill="#2B1E44"/>
<path d="M253.198 205.301C251.498 199.501 253.598 193.601 254.198 187.801C271.598 197.001 289.397 205.601 306.797 214.801C306.797 215.301 306.698 216.401 306.698 217.001C306.198 219.001 305.498 221.001 304.898 223.001C292.098 220.901 279.297 219.101 266.497 217.001C260.297 216.101 254.998 211.301 253.198 205.301Z" fill="#2B1E44"/>
<path d="M705.3 297.601C712.9 296.601 719.6 292.401 724.7 286.801C724.6 287.201 724.3 288.001 724.2 288.401C719.6 297.401 715.9 307.901 706.9 313.501C696 318.601 683.5 316.101 672 314.601C668.9 306.201 665.5 297.901 662 289.701C675.8 294.501 690.3 300.001 705.3 297.601Z" fill="#2B1E44"/>
<path d="M167.499 297.101C173.399 296.801 179.299 295.501 184.899 293.801C181.099 301.601 176.999 310.301 168.899 314.201C158.099 318.201 146.299 316.401 135.299 314.301C133.799 309.801 131.899 305.501 130.199 301.001C142.499 299.201 154.999 297.801 167.499 297.101Z" fill="#2B1E44"/>
<path d="M520.199 318.199C522.899 315.399 525.599 312.599 527.999 309.699C530.799 311.699 533.699 313.699 536.499 315.799C533.499 317.299 530.499 319.299 529.199 322.499C527.299 322.499 525.399 322.699 523.599 322.199C521.899 321.499 521.199 319.499 520.199 318.199Z" fill="#CCCCCC"/>
<path d="M10.5 378.998C12.6 375.698 14.3 372.198 16.3 368.898C19.4 370.098 22.5 371.398 25.5 372.798C23.2 375.198 20.9 377.798 19.9 381.098C16.6 382.298 12.6 382.498 10.5 378.998Z" fill="#CCCCCC"/>
<path d="M768 416.5C769.2 415.2 770.4 413.9 771.7 412.6L772.6 412.8C774.4 413.6 775.9 415.1 777.5 416.2C777.1 419 775.2 421 772.9 422.3C771.3 420.3 769.7 418.3 768 416.5Z" fill="#CCCCCC"/>
<path d="M241.202 415.701L236.202 411.801L230.602 417.301L235.802 422.601C235.802 422.601 237.402 422.001 239.202 420.301C241.002 418.601 241.202 415.701 241.202 415.701Z" fill="#CCCCCC"/>
<path fill-rule="evenodd" clip-rule="evenodd" d="M586.687 80.9966C587.201 80.6147 587.308 79.8886 586.926 79.3747L581.625 72.2396L588.753 66.9436C589.267 66.5618 589.374 65.8356 588.993 65.3217C588.611 64.8078 587.885 64.7007 587.371 65.0825L580.243 70.3785L574.943 63.2453C574.561 62.7314 573.835 62.6243 573.321 63.0061C572.807 63.388 572.7 64.1141 573.082 64.628L578.381 71.7612L571.241 77.066C570.727 77.4479 570.62 78.174 571.002 78.6879C571.384 79.2019 572.11 79.309 572.624 78.9271L579.764 73.6223L585.065 80.7574C585.447 81.2713 586.173 81.3784 586.687 80.9966Z" fill="white"/>
<path d="M342.823 197.836L344.563 198.107L345.38 192.858L348.524 193.347C351.871 193.867 353.696 192.067 354.092 189.526C354.487 186.986 353.29 184.744 349.914 184.219L345.058 183.464L342.823 197.836ZM345.62 191.314L346.558 185.278L349.618 185.754C351.955 186.118 352.648 187.533 352.379 189.26C352.111 190.986 351.016 192.153 348.708 191.794L345.62 191.314ZM358.275 200.498C360.156 200.791 361.296 199.933 361.742 199.284L361.826 199.297L361.599 200.756L363.255 201.014L364.36 193.912C364.892 190.487 362.343 189.688 360.967 189.474C359.339 189.221 357.399 189.494 356.251 191.328L357.736 192.134C358.223 191.405 359.218 190.697 360.797 190.943C362.319 191.18 362.945 192.103 362.73 193.486L362.721 193.542C362.597 194.342 361.793 194.145 359.789 194.092C357.749 194.041 355.497 194.144 355.113 196.614C354.786 198.719 356.226 200.18 358.275 200.498ZM358.759 199.05C357.44 198.845 356.577 198.107 356.756 196.956C356.953 195.693 358.165 195.479 359.482 195.511C360.197 195.536 362.109 195.632 362.442 195.339L362.206 196.855C361.996 198.202 360.724 199.355 358.759 199.05ZM369.966 206.428C372.548 206.829 374.809 205.973 375.241 203.194L376.966 192.106L375.366 191.857L375.099 193.57L374.931 193.543C374.653 192.925 374.18 191.529 372.075 191.202C369.352 190.778 367.135 192.647 366.62 195.96C366.096 199.328 367.764 201.543 370.375 201.949C372.48 202.276 373.346 201.146 373.803 200.613L373.943 200.635L373.602 202.825C373.323 204.621 371.933 205.239 370.193 204.968C368.235 204.664 367.707 203.525 367.358 202.86L365.895 203.581C366.393 204.816 367.559 206.053 369.966 206.428ZM370.831 200.496C368.754 200.173 367.931 198.435 368.281 196.189C368.621 194 369.935 192.393 372.04 192.72C374.061 193.034 374.875 194.828 374.512 197.158C374.141 199.545 372.824 200.806 370.831 200.496ZM382.806 204.285C384.995 204.625 386.766 203.779 387.524 202.23L385.994 201.532C385.398 202.589 384.335 202.999 383.037 202.797C381.093 202.494 379.948 201.03 380.23 198.709L388.055 199.926L388.164 199.224C388.788 195.21 386.616 193.463 384.37 193.114C381.451 192.66 379.156 194.661 378.641 197.973C378.126 201.285 379.69 203.8 382.806 204.285ZM380.453 197.277C380.826 195.617 382.244 194.307 384.139 194.602C385.936 194.881 386.877 196.408 386.593 198.232L380.453 197.277ZM398.046 199.783C398.339 197.903 399.67 197.017 401.256 197.264C402.793 197.503 403.57 198.652 403.307 200.343L402.259 207.08L403.915 207.338L404.981 200.488C405.408 197.737 404.147 196.19 401.964 195.85C400.336 195.597 399.212 196.17 398.536 197.186L398.396 197.164L398.658 195.48L397.058 195.231L395.382 206.01L397.038 206.268L398.046 199.783ZM411.286 208.714C414.205 209.168 416.515 207.256 417.035 203.915C417.559 200.547 415.939 198.024 413.019 197.57C410.1 197.115 407.79 199.028 407.266 202.396C406.746 205.737 408.367 208.26 411.286 208.714ZM411.517 207.226C409.3 206.881 408.586 204.815 408.922 202.654C409.258 200.492 410.57 198.712 412.788 199.057C415.006 199.402 415.715 201.496 415.379 203.658C415.043 205.819 413.735 207.571 411.517 207.226ZM425.098 199.592L422.796 199.234L423.198 196.651L421.542 196.394L421.14 198.976L419.512 198.723L419.293 200.127L420.922 200.38L419.874 207.117C419.581 208.998 420.958 210.132 422.361 210.35C422.979 210.446 423.389 210.395 423.627 210.346L423.521 208.806C423.377 208.812 423.143 208.833 422.778 208.776C422.049 208.663 421.382 208.329 421.6 206.925L422.578 200.637L424.88 200.995L425.098 199.592ZM437.948 201.59L435.534 201.215L435.704 200.12C435.87 199.053 436.406 198.562 437.501 198.732C437.978 198.806 438.242 198.962 438.401 199.044L439.101 197.687C438.866 197.535 438.387 197.288 437.573 197.162C436.029 196.922 434.397 197.617 434.109 199.469L433.877 200.957L432.137 200.687L431.919 202.09L433.659 202.361L432.201 211.737L433.857 211.994L435.315 202.618L437.73 202.994L437.948 201.59ZM442.493 213.567C445.412 214.021 447.722 212.109 448.242 208.769C448.766 205.4 447.146 202.877 444.226 202.423C441.307 201.969 438.997 203.881 438.473 207.25C437.953 210.59 439.573 213.113 442.493 213.567ZM442.724 212.08C440.507 211.735 439.793 209.669 440.129 207.507C440.465 205.346 441.777 203.566 443.995 203.911C446.212 204.256 446.922 206.35 446.586 208.511C446.249 210.673 444.942 212.424 442.724 212.08ZM457.419 211.145C457.105 213.166 455.417 213.852 454.182 213.66C452.806 213.446 451.981 212.283 452.225 210.711L453.273 203.974L451.617 203.716L450.552 210.566C450.124 213.317 451.378 214.863 453.4 215.177C455.028 215.431 456.23 214.726 456.905 213.71L457.018 213.727L456.734 215.552L458.39 215.81L460.067 205.03L458.41 204.773L457.419 211.145ZM464.088 210.055C464.381 208.174 465.712 207.288 467.298 207.535C468.835 207.774 469.612 208.923 469.349 210.614L468.301 217.351L469.957 217.609L471.023 210.759C471.45 208.008 470.189 206.461 468.006 206.121C466.378 205.868 465.254 206.441 464.578 207.457L464.438 207.435L464.7 205.751L463.1 205.502L461.424 216.281L463.08 216.539L464.088 210.055ZM477.019 218.937C479.097 219.26 479.999 218.078 480.456 217.545L480.652 217.576L480.395 219.232L481.995 219.481L484.23 205.108L482.574 204.851L481.749 210.156L481.608 210.134C481.331 209.516 480.886 208.124 478.781 207.797C476.058 207.373 473.841 209.242 473.312 212.639C472.78 216.064 474.324 218.518 477.019 218.937ZM477.475 217.484C475.398 217.161 474.615 215.17 474.973 212.869C475.327 210.595 476.64 208.988 478.746 209.315C480.767 209.63 481.58 211.424 481.205 213.838C480.825 216.28 479.468 217.794 477.475 217.484ZM486.448 220.288C487.142 220.396 487.799 219.916 487.907 219.222C488.015 218.527 487.535 217.87 486.841 217.762C486.146 217.654 485.489 218.134 485.381 218.829C485.273 219.523 485.753 220.18 486.448 220.288ZM491.89 221.135C492.585 221.243 493.242 220.763 493.35 220.068C493.458 219.373 492.978 218.716 492.283 218.608C491.588 218.5 490.931 218.98 490.823 219.675C490.715 220.37 491.195 221.027 491.89 221.135ZM497.332 221.981C498.027 222.089 498.684 221.609 498.792 220.914C498.9 220.22 498.42 219.563 497.725 219.455C497.031 219.347 496.374 219.827 496.266 220.521C496.158 221.216 496.638 221.873 497.332 221.981Z" fill="white"/>
<path d="M320.187 149.823L355.37 155.297L353.365 168.181L368.183 170.487L370.187 157.602L379.278 159.017L381.21 146.597L372.12 145.183L379.587 97.1869L360.188 94.1687L322.086 137.618L320.187 149.823ZM357.588 142.922L337.724 139.831L337.814 139.258L361.855 111.73L362.428 111.819L357.588 142.922ZM416.089 179.59C434.521 182.458 447.835 170.16 451.63 146.006C455.396 122.032 446.261 106.534 427.9 103.677C409.503 100.815 396.204 112.786 392.431 136.796C388.612 160.872 397.626 176.681 416.089 179.59ZM418.088 166.741C409.677 165.432 405.551 156.139 408.215 139.252C410.84 122.614 417.548 115.08 425.923 116.383C434.262 117.681 438.399 126.902 435.81 143.545C433.217 160.444 426.463 168.044 418.088 166.741ZM457.884 171.247L493.067 176.721L491.062 189.605L505.879 191.911L507.884 179.026L516.975 180.441L518.907 168.021L509.816 166.607L517.284 118.611L497.885 115.593L459.783 159.042L457.884 171.247ZM495.285 164.346L475.421 161.255L475.51 160.682L499.552 133.154L500.124 133.243L495.285 164.346Z" fill="white"/>
</svg>
