<svg width="26" height="26" viewBox="0 0 26 26" xmlns="http://www.w3.org/2000/svg">
<path fill-rule="evenodd" clip-rule="evenodd" d="M13 26C20.1794 26 26 20.1798 26 13C26 5.82064 20.1798 0 13 0C5.82064 0 0 5.82023 0 13C0 20.1794 5.82023 26 13 26ZM13 24.7419C6.5151 24.7419 1.25806 19.4849 1.25806 13C1.25806 6.5151 6.5151 1.25806 13 1.25806C19.4849 1.25806 24.7419 6.5151 24.7419 13C24.7419 19.4849 19.4849 24.7419 13 24.7419ZM10.1727 19.2945C9.5831 19.6627 9.10545 19.3956 9.10545 18.702V7.43852C9.10545 6.74281 9.58645 6.47945 10.1727 6.84597L19.063 12.4033C19.6526 12.7715 19.6493 13.3707 19.063 13.7372L10.1727 19.2945Z" />
</svg>
