<svg width="33" height="33" viewBox="0 0 33 33" fill="none" xmlns="http://www.w3.org/2000/svg">
<rect width="33" height="33" rx="16.5" fill="white"/>
<path d="M25.1104 10.9501C24.8294 10.6707 24.4492 10.5139 24.0529 10.5139C23.6566 10.5139 23.2765 10.6707 22.9954 10.9501L14.0704 19.5001L10.0504 15.6601C9.76399 15.3816 9.37867 15.2283 8.97921 15.234C8.57976 15.2396 8.1989 15.4037 7.92043 15.6901C7.64195 15.9765 7.48866 16.3619 7.49429 16.7613C7.49992 17.1608 7.66399 17.5416 7.95043 17.8201L13.0354 22.7401C13.3151 23.0105 13.6889 23.1616 14.0779 23.1616C14.4669 23.1616 14.8407 23.0105 15.1204 22.7401L25.0804 13.0801C25.223 12.9427 25.3369 12.7783 25.4157 12.5966C25.4944 12.4149 25.5364 12.2194 25.5392 12.0214C25.542 11.8233 25.5055 11.6267 25.4319 11.4429C25.3583 11.259 25.2491 11.0915 25.1104 10.9501Z" fill="#FAA338"/>
</svg>
