<svg width="11" height="11" viewBox="0 0 11 11" fill="none" xmlns="http://www.w3.org/2000/svg">
<path d="M10.7315 9.41943L6.80448 5.50163L10.7223 1.58383C10.8963 1.41107 10.9945 1.17625 10.9954 0.931056C10.9962 0.685857 10.8997 0.450357 10.7269 0.276363C10.5541 0.102369 10.3193 0.0041333 10.0741 0.00326687C9.82892 0.00240044 9.59342 0.0989742 9.41943 0.271743L5.50163 4.19878L1.58383 0.271743C1.40984 0.0977489 1.17385 0 0.927789 0C0.681724 0 0.445737 0.0977489 0.271743 0.271743C0.0977489 0.445737 0 0.681724 0 0.927789C0 1.17385 0.0977489 1.40984 0.271743 1.58383L4.19878 5.50163L0.271743 9.41943C0.120366 9.59619 0.0412654 9.82357 0.0502479 10.0561C0.0592303 10.2887 0.155634 10.5093 0.320195 10.6738C0.484756 10.8384 0.705353 10.9348 0.937904 10.9438C1.17045 10.9528 1.39783 10.8737 1.57459 10.7223L5.50163 6.80448L9.41943 10.7223C9.59219 10.8963 9.82701 10.9945 10.0722 10.9954C10.3174 10.9962 10.5529 10.8997 10.7269 10.7269C10.9009 10.5541 10.9991 10.3193 11 10.0741C11.0009 9.82892 10.9043 9.59342 10.7315 9.41943Z" fill="#7692AB"/>
</svg>
