<svg width="21" height="21" viewBox="0 0 21 21" fill="none" xmlns="http://www.w3.org/2000/svg">
<path d="M20.242 14.1523L16.942 11.0523C16.142 10.2523 14.842 10.3523 14.142 11.1523L13.442 11.9523C13.342 12.0523 13.142 12.1523 12.942 12.0523C12.342 11.7523 11.342 11.2523 10.242 10.2523C9.14199 9.25234 8.54199 8.35234 8.24199 7.75234C8.14199 7.55234 8.14199 7.35234 8.34199 7.25234L9.04199 6.45234C9.84199 5.65234 9.74199 4.35234 8.94199 3.65234L5.64199 0.552338C4.84199 -0.247662 3.54199 -0.147662 2.84199 0.652338L0.841993 2.85234C0.541993 3.15234 0.141994 3.65234 0.0419939 4.35234C-0.158006 6.05234 0.141994 9.85234 5.84199 15.1523C11.442 20.4523 15.342 20.4523 16.942 20.1523C17.542 20.0523 18.042 19.6523 18.342 19.2523L20.342 17.0523C21.042 16.1523 21.042 14.8523 20.242 14.1523ZM18.542 15.9523L16.842 17.7523C16.642 17.9523 16.542 17.9523 16.442 18.0523C15.542 18.2523 12.342 18.4523 7.04199 13.5523C1.74199 8.65234 1.74199 5.35234 1.94199 4.55234C1.94199 4.45234 2.04199 4.35234 2.14199 4.15234L3.84199 2.35234C4.04199 2.15234 4.34199 2.15234 4.54199 2.35234L7.14199 4.75234C7.34199 4.95234 7.34199 5.25234 7.14199 5.45234L6.54199 6.15234C6.14199 6.65234 5.84199 7.35234 6.14199 8.15234C6.44199 8.95234 7.24199 10.3523 8.84199 11.7523C10.442 13.2523 11.842 13.8523 12.642 14.1523C13.442 14.4523 14.142 14.1523 14.542 13.6523L15.242 12.9523C15.442 12.7523 15.742 12.7523 15.942 12.9523L18.542 15.3523C18.642 15.4523 18.642 15.7523 18.542 15.9523Z" fill="#E68D21"/>
</svg>
