<svg width="16" height="20" viewBox="0 0 16 20" fill="none" xmlns="http://www.w3.org/2000/svg">
<path d="M8 19.5C7.6 19.5 7.2 19.4 6.8 19.1C5.6 18.1 4 16.5 2.5 14.5C0.9 12.1 0 9.9 0 7.9C0 3.6 3.6 0 8 0C12.4 0 16 3.6 16 7.9C16 9.9 15.1 12.1 13.4 14.4C12 16.4 10.3 18 9.2 19C8.8 19.3 8.4 19.5 8 19.5ZM8 2C4.6 2 2 4.6 2 7.9C2 9.4 2.8 11.3 4.2 13.3C5.4 15 6.9 16.4 8 17.4C9.1 16.4 10.6 15 11.8 13.3C13.2 11.3 14 9.5 14 7.9C14 4.6 11.4 2 8 2Z" fill="#E68D21"/>
<path d="M8 10C9.10457 10 10 9.10457 10 8C10 6.89543 9.10457 6 8 6C6.89543 6 6 6.89543 6 8C6 9.10457 6.89543 10 8 10Z" fill="#E68D21"/>
</svg>
