<svg width="55" height="55" viewBox="0 0 55 55" fill="none" xmlns="http://www.w3.org/2000/svg">
<g filter="url(#filter0_d)">
<rect width="23" height="23" rx="11.5" transform="matrix(-1 0 0 1 39 12)" fill="white"/>
</g>
<circle r="16.5" transform="matrix(-1 0 0 1 28 18)" fill="white" stroke="#DFEFFB"/>
<path d="M26.4324 22.5405L31.0541 18L26.4324 13.3784C26.1081 13.0541 26.1081 12.5676 26.4324 12.2432C26.7568 11.9189 27.2432 11.9189 27.5676 12.2432L32.7568 17.4324C33.0811 17.7568 33.0811 18.2432 32.7568 18.5676L27.5676 23.7568C27.2432 24.0811 26.7568 24.0811 26.4324 23.7568C26.1081 23.3514 26.1081 22.8649 26.4324 22.5405Z" fill="#2E4F6B"/>
<defs>
<filter id="filter0_d" x="0" y="0" width="55" height="55" filterUnits="userSpaceOnUse" color-interpolation-filters="sRGB">
<feFlood flood-opacity="0" result="BackgroundImageFix"/>
<feColorMatrix in="SourceAlpha" type="matrix" values="0 0 0 0 0 0 0 0 0 0 0 0 0 0 0 0 0 0 127 0"/>
<feOffset dy="4"/>
<feGaussianBlur stdDeviation="8"/>
<feColorMatrix type="matrix" values="0 0 0 0 0.0431373 0 0 0 0 0.231373 0 0 0 0 0.396078 0 0 0 0.3 0"/>
<feBlend mode="normal" in2="BackgroundImageFix" result="effect1_dropShadow"/>
<feBlend mode="normal" in="SourceGraphic" in2="effect1_dropShadow" result="shape"/>
</filter>
</defs>
</svg>
