<svg width="22" height="22" viewBox="0 0 22 22" fill="none" xmlns="http://www.w3.org/2000/svg">
<rect width="22" height="22" rx="11" fill="white"/>
<path d="M16.7403 7.30007C16.5529 7.11382 16.2995 7.00928 16.0353 7.00928C15.7711 7.00928 15.5176 7.11382 15.3303 7.30007L9.38029 13.0001L6.70029 10.4401C6.50933 10.2544 6.25244 10.1522 5.98614 10.156C5.71984 10.1597 5.46594 10.2691 5.28029 10.4601C5.09463 10.651 4.99244 10.9079 4.99619 11.1742C4.99994 11.4405 5.10933 11.6944 5.30029 11.8801L8.69029 15.1601C8.87675 15.3403 9.12595 15.4411 9.38529 15.4411C9.64462 15.4411 9.89382 15.3403 10.0803 15.1601L16.7203 8.72007C16.8153 8.62843 16.8913 8.51888 16.9438 8.39774C16.9963 8.27659 17.0243 8.14625 17.0261 8.01424C17.028 7.88222 17.0037 7.75114 16.9546 7.62857C16.9056 7.50599 16.8327 7.39435 16.7403 7.30007V7.30007Z" fill="#FAA338"/>
</svg>
