<svg width="1920" height="286" viewBox="0 0 1920 286" fill="none" xmlns="http://www.w3.org/2000/svg">
<path d="M0 0H1920V286H0V0Z" fill="url(#paint0_linear)"/>
<g opacity="0.6">
<rect opacity="0.4" width="6" height="44" rx="3" transform="matrix(-1 0 0 1 1566 236)" fill="url(#paint1_linear)"/>
<rect opacity="0.6" width="6" height="67" rx="3" transform="matrix(-1 0 0 1 1578 213)" fill="url(#paint2_linear)"/>
<rect opacity="0.7" width="6" height="63" rx="3" transform="matrix(-1 0 0 1 1590 217)" fill="url(#paint3_linear)"/>
<rect opacity="0.8" width="6" height="84" rx="3" transform="matrix(-1 0 0 1 1602 196)" fill="url(#paint4_linear)"/>
<rect width="6" height="72" rx="3" transform="matrix(-1 0 0 1 1614 208)" fill="url(#paint5_linear)"/>
<rect width="6" height="88" rx="3" transform="matrix(-1 0 0 1 1626 192)" fill="url(#paint6_linear)"/>
<rect width="6" height="100" rx="3" transform="matrix(-1 0 0 1 1638 180)" fill="url(#paint7_linear)"/>
<rect width="6" height="131" rx="3" transform="matrix(-1 0 0 1 1650 149)" fill="url(#paint8_linear)"/>
<rect width="6" height="111" rx="3" transform="matrix(-1 0 0 1 1662 169)" fill="url(#paint9_linear)"/>
<rect width="6" height="120" rx="3" transform="matrix(-1 0 0 1 1674 160)" fill="url(#paint10_linear)"/>
<rect width="6" height="127" rx="3" transform="matrix(-1 0 0 1 1722 153)" fill="url(#paint11_linear)"/>
<rect width="6" height="94" rx="3" transform="matrix(-1 0 0 1 1686 186)" fill="url(#paint12_linear)"/>
<rect width="6" height="84" rx="3" transform="matrix(-1 0 0 1 1698 196)" fill="url(#paint13_linear)"/>
<rect width="6" height="98" rx="3" transform="matrix(-1 0 0 1 1710 182)" fill="url(#paint14_linear)"/>
<rect width="6" height="141" rx="3" transform="matrix(-1 0 0 1 1734 139)" fill="url(#paint15_linear)"/>
<rect width="6" height="131" rx="3" transform="matrix(-1 0 0 1 1746 149)" fill="url(#paint16_linear)"/>
<rect width="6" height="121" rx="3" transform="matrix(-1 0 0 1 1758 159)" fill="url(#paint17_linear)"/>
<rect width="6" height="120" rx="3" transform="matrix(-1 0 0 1 1770 160)" fill="url(#paint18_linear)"/>
<rect width="6" height="134" rx="3" transform="matrix(-1 0 0 1 1782 146)" fill="url(#paint19_linear)"/>
<rect width="6" height="149" rx="3" transform="matrix(-1 0 0 1 1794 131)" fill="url(#paint20_linear)"/>
<rect width="6" height="148" rx="3" transform="matrix(-1 0 0 1 1806 132)" fill="url(#paint21_linear)"/>
<rect width="6" height="127" rx="3" transform="matrix(-1 0 0 1 1818 153)" fill="url(#paint22_linear)"/>
<rect width="6" height="107" rx="3" transform="matrix(-1 0 0 1 1830 173)" fill="url(#paint23_linear)"/>
<rect width="6" height="88" rx="3" transform="matrix(-1 0 0 1 1842 192)" fill="url(#paint24_linear)"/>
<rect width="6" height="90" rx="3" transform="matrix(-1 0 0 1 1854 190)" fill="url(#paint25_linear)"/>
<rect width="6" height="100" rx="3" transform="matrix(-1 0 0 1 1866 180)" fill="url(#paint26_linear)"/>
<rect width="6" height="123" rx="3" transform="matrix(-1 0 0 1 1878 157)" fill="url(#paint27_linear)"/>
<rect width="6" height="100" rx="3" transform="matrix(-1 0 0 1 1890 180)" fill="url(#paint28_linear)"/>
<rect width="6" height="120" rx="3" transform="matrix(-1 0 0 1 1902 160)" fill="url(#paint29_linear)"/>
<rect width="6" height="129" rx="3" transform="matrix(-1 0 0 1 1914 151)" fill="url(#paint30_linear)"/>
</g>
<g opacity="0.6">
<rect opacity="0.4" x="354" y="236" width="6" height="44" rx="3" fill="url(#paint31_linear)"/>
<rect opacity="0.6" x="342" y="213" width="6" height="67" rx="3" fill="url(#paint32_linear)"/>
<rect opacity="0.7" x="330" y="217" width="6" height="63" rx="3" fill="url(#paint33_linear)"/>
<rect opacity="0.8" x="318" y="196" width="6" height="84" rx="3" fill="url(#paint34_linear)"/>
<rect x="306" y="208" width="6" height="72" rx="3" fill="url(#paint35_linear)"/>
<rect x="294" y="192" width="6" height="88" rx="3" fill="url(#paint36_linear)"/>
<rect x="282" y="180" width="6" height="100" rx="3" fill="url(#paint37_linear)"/>
<rect x="270" y="149" width="6" height="131" rx="3" fill="url(#paint38_linear)"/>
<rect x="258" y="169" width="6" height="111" rx="3" fill="url(#paint39_linear)"/>
<rect x="246" y="160" width="6" height="120" rx="3" fill="url(#paint40_linear)"/>
<rect x="198" y="153" width="6" height="127" rx="3" fill="url(#paint41_linear)"/>
<rect x="234" y="186" width="6" height="94" rx="3" fill="url(#paint42_linear)"/>
<rect x="222" y="196" width="6" height="84" rx="3" fill="url(#paint43_linear)"/>
<rect x="210" y="182" width="6" height="98" rx="3" fill="url(#paint44_linear)"/>
<rect x="186" y="139" width="6" height="141" rx="3" fill="url(#paint45_linear)"/>
<rect x="174" y="149" width="6" height="131" rx="3" fill="url(#paint46_linear)"/>
<rect x="162" y="159" width="6" height="121" rx="3" fill="url(#paint47_linear)"/>
<rect x="150" y="160" width="6" height="120" rx="3" fill="url(#paint48_linear)"/>
<rect x="138" y="146" width="6" height="134" rx="3" fill="url(#paint49_linear)"/>
<rect x="126" y="131" width="6" height="149" rx="3" fill="url(#paint50_linear)"/>
<rect x="114" y="132" width="6" height="148" rx="3" fill="url(#paint51_linear)"/>
<rect x="102" y="153" width="6" height="127" rx="3" fill="url(#paint52_linear)"/>
<rect x="90" y="173" width="6" height="107" rx="3" fill="url(#paint53_linear)"/>
<rect x="78" y="192" width="6" height="88" rx="3" fill="url(#paint54_linear)"/>
<rect x="66" y="190" width="6" height="90" rx="3" fill="url(#paint55_linear)"/>
<rect x="54" y="180" width="6" height="100" rx="3" fill="url(#paint56_linear)"/>
<rect x="42" y="157" width="6" height="123" rx="3" fill="url(#paint57_linear)"/>
<rect x="30" y="180" width="6" height="100" rx="3" fill="url(#paint58_linear)"/>
<rect x="18" y="160" width="6" height="120" rx="3" fill="url(#paint59_linear)"/>
<rect x="6" y="151" width="6" height="129" rx="3" fill="url(#paint60_linear)"/>
</g>
<g clip-path="url(#clip0)">
<path opacity="0.6" d="M965 614C1184.81 614 1363 435.809 1363 216C1363 -3.80934 1184.81 -182 965 -182C745.191 -182 567 -3.80934 567 216C567 435.809 745.191 614 965 614Z" fill="url(#paint61_radial)"/>
<g opacity="0.16">
<path d="M452.935 250.683C457.447 250.683 461.105 247.021 461.105 242.503C461.105 237.986 457.447 234.324 452.935 234.324C448.423 234.324 444.766 237.986 444.766 242.503C444.766 247.021 448.423 250.683 452.935 250.683Z" fill="url(#paint62_radial)"/>
<path d="M956.486 277.452C960.998 277.452 964.656 273.79 964.656 269.273C964.656 264.756 960.998 261.094 956.486 261.094C951.974 261.094 948.316 264.756 948.316 269.273C948.316 273.79 951.974 277.452 956.486 277.452Z" fill="url(#paint63_radial)"/>
<path d="M576.22 268.53C580.732 268.53 584.39 264.868 584.39 260.351C584.39 255.834 580.732 252.172 576.22 252.172C571.708 252.172 568.051 255.834 568.051 260.351C568.051 264.868 571.708 268.53 576.22 268.53Z" fill="url(#paint64_radial)"/>
<path d="M727.733 280.426C729.784 280.426 731.447 278.761 731.447 276.708C731.447 274.655 729.784 272.99 727.733 272.99C725.682 272.99 724.02 274.655 724.02 276.708C724.02 278.761 725.682 280.426 727.733 280.426Z" fill="url(#paint65_radial)"/>
<path d="M1425.87 272.991C1427.92 272.991 1429.59 271.327 1429.59 269.274C1429.59 267.22 1427.92 265.556 1425.87 265.556C1423.82 265.556 1422.16 267.22 1422.16 269.274C1422.16 271.327 1423.82 272.991 1425.87 272.991Z" fill="url(#paint66_radial)"/>
<path d="M1451.12 284.888C1453.17 284.888 1454.84 283.223 1454.84 281.17C1454.84 279.117 1453.17 277.452 1451.12 277.452C1449.07 277.452 1447.41 279.117 1447.41 281.17C1447.41 283.223 1449.07 284.888 1451.12 284.888Z" fill="url(#paint67_radial)"/>
<path d="M1243.17 277.452C1245.22 277.452 1246.88 275.788 1246.88 273.734C1246.88 271.681 1245.22 270.017 1243.17 270.017C1241.12 270.017 1239.46 271.681 1239.46 273.734C1239.46 275.788 1241.12 277.452 1243.17 277.452Z" fill="url(#paint68_radial)"/>
<path d="M879.241 292.325C881.292 292.325 882.954 290.661 882.954 288.608C882.954 286.554 881.292 284.89 879.241 284.89C877.19 284.89 875.527 286.554 875.527 288.608C875.527 290.661 877.19 292.325 879.241 292.325Z" fill="url(#paint69_radial)"/>
<path d="M1041.15 253.658C1043.21 253.658 1044.87 251.994 1044.87 249.94C1044.87 247.887 1043.21 246.223 1041.15 246.223C1039.1 246.223 1037.44 247.887 1037.44 249.94C1037.44 251.994 1039.1 253.658 1041.15 253.658Z" fill="url(#paint70_radial)"/>
<path d="M1145.13 275.964C1147.18 275.964 1148.85 274.299 1148.85 272.246C1148.85 270.193 1147.18 268.528 1145.13 268.528C1143.08 268.528 1141.42 270.193 1141.42 272.246C1141.42 274.299 1143.08 275.964 1145.13 275.964Z" fill="url(#paint71_radial)"/>
<path d="M654.952 246.22C657.003 246.22 658.665 244.555 658.665 242.502C658.665 240.449 657.003 238.784 654.952 238.784C652.901 238.784 651.238 240.449 651.238 242.502C651.238 244.555 652.901 246.22 654.952 246.22Z" fill="url(#paint72_radial)"/>
<path d="M684.659 289.349C686.71 289.349 688.372 287.684 688.372 285.631C688.372 283.578 686.71 281.913 684.659 281.913C682.608 281.913 680.945 283.578 680.945 285.631C680.945 287.684 682.608 289.349 684.659 289.349Z" fill="url(#paint73_radial)"/>
<path d="M540.573 258.119C542.624 258.119 544.286 256.455 544.286 254.401C544.286 252.348 542.624 250.684 540.573 250.684C538.522 250.684 536.859 252.348 536.859 254.401C536.859 256.455 538.522 258.119 540.573 258.119Z" fill="url(#paint74_radial)"/>
<path d="M533.151 280.426C535.202 280.426 536.865 278.761 536.865 276.708C536.865 274.655 535.202 272.99 533.151 272.99C531.1 272.99 529.438 274.655 529.438 276.708C529.438 278.761 531.1 280.426 533.151 280.426Z" fill="url(#paint75_radial)"/>
<path d="M1476.37 250.683C1480.88 250.683 1484.54 247.021 1484.54 242.503C1484.54 237.986 1480.88 234.324 1476.37 234.324C1471.86 234.324 1468.2 237.986 1468.2 242.503C1468.2 247.021 1471.86 250.683 1476.37 250.683Z" fill="url(#paint76_radial)"/>
<path d="M1370.92 274.476C1375.43 274.476 1379.09 270.814 1379.09 266.296C1379.09 261.779 1375.43 258.117 1370.92 258.117C1366.4 258.117 1362.75 261.779 1362.75 266.296C1362.75 270.814 1366.4 274.476 1370.92 274.476Z" fill="url(#paint77_radial)"/>
<path d="M646.037 293.811C650.549 293.811 654.207 290.149 654.207 285.631C654.207 281.114 650.549 277.452 646.037 277.452C641.525 277.452 637.867 281.114 637.867 285.631C637.867 290.149 641.525 293.811 646.037 293.811Z" fill="url(#paint78_radial)"/>
<path opacity="0.18" d="M802.746 308.681C811.77 308.681 819.085 301.357 819.085 292.322C819.085 283.288 811.77 275.964 802.746 275.964C793.722 275.964 786.406 283.288 786.406 292.322C786.406 301.357 793.722 308.681 802.746 308.681Z" fill="url(#paint79_radial)"/>
<path opacity="0.18" d="M931.98 255.145C941.004 255.145 948.319 247.821 948.319 238.786C948.319 229.752 941.004 222.428 931.98 222.428C922.956 222.428 915.641 229.752 915.641 238.786C915.641 247.821 922.956 255.145 931.98 255.145Z" fill="url(#paint80_radial)"/>
</g>
</g>
<defs>
<linearGradient id="paint0_linear" x1="0" y1="142.998" x2="1920" y2="142.998" gradientUnits="userSpaceOnUse">
<stop stop-color="#1E72A2"/>
<stop offset="1" stop-color="#0E4C83"/>
</linearGradient>
<linearGradient id="paint1_linear" x1="3" y1="0" x2="3" y2="44" gradientUnits="userSpaceOnUse">
<stop stop-color="#1E73A2"/>
<stop offset="1" stop-color="#1E72A2" stop-opacity="0"/>
</linearGradient>
<linearGradient id="paint2_linear" x1="3" y1="0" x2="3" y2="67" gradientUnits="userSpaceOnUse">
<stop stop-color="#1E73A2"/>
<stop offset="1" stop-color="#1E72A2" stop-opacity="0"/>
</linearGradient>
<linearGradient id="paint3_linear" x1="3" y1="0" x2="3" y2="63" gradientUnits="userSpaceOnUse">
<stop stop-color="#1E73A2"/>
<stop offset="1" stop-color="#1E72A2" stop-opacity="0"/>
</linearGradient>
<linearGradient id="paint4_linear" x1="3" y1="0" x2="3" y2="84" gradientUnits="userSpaceOnUse">
<stop stop-color="#1E73A2"/>
<stop offset="1" stop-color="#1E72A2" stop-opacity="0"/>
</linearGradient>
<linearGradient id="paint5_linear" x1="3" y1="0" x2="3" y2="72" gradientUnits="userSpaceOnUse">
<stop stop-color="#1E73A2"/>
<stop offset="1" stop-color="#1E72A2" stop-opacity="0"/>
</linearGradient>
<linearGradient id="paint6_linear" x1="3" y1="0" x2="3" y2="88" gradientUnits="userSpaceOnUse">
<stop stop-color="#1E73A2"/>
<stop offset="1" stop-color="#1E72A2" stop-opacity="0"/>
</linearGradient>
<linearGradient id="paint7_linear" x1="3" y1="0" x2="3" y2="100" gradientUnits="userSpaceOnUse">
<stop stop-color="#1E73A2"/>
<stop offset="1" stop-color="#1E72A2" stop-opacity="0"/>
</linearGradient>
<linearGradient id="paint8_linear" x1="3" y1="0" x2="3" y2="131" gradientUnits="userSpaceOnUse">
<stop stop-color="#1E73A2"/>
<stop offset="1" stop-color="#1E72A2" stop-opacity="0"/>
</linearGradient>
<linearGradient id="paint9_linear" x1="3" y1="0" x2="3" y2="111" gradientUnits="userSpaceOnUse">
<stop stop-color="#1E73A2"/>
<stop offset="1" stop-color="#1E72A2" stop-opacity="0"/>
</linearGradient>
<linearGradient id="paint10_linear" x1="3" y1="0" x2="3" y2="120" gradientUnits="userSpaceOnUse">
<stop stop-color="#1E73A2"/>
<stop offset="1" stop-color="#1E72A2" stop-opacity="0"/>
</linearGradient>
<linearGradient id="paint11_linear" x1="3" y1="0" x2="3" y2="127" gradientUnits="userSpaceOnUse">
<stop stop-color="#1E73A2"/>
<stop offset="1" stop-color="#1E72A2" stop-opacity="0"/>
</linearGradient>
<linearGradient id="paint12_linear" x1="3" y1="0" x2="3" y2="94" gradientUnits="userSpaceOnUse">
<stop stop-color="#1E73A2"/>
<stop offset="1" stop-color="#1E72A2" stop-opacity="0"/>
</linearGradient>
<linearGradient id="paint13_linear" x1="3" y1="0" x2="3" y2="84" gradientUnits="userSpaceOnUse">
<stop stop-color="#1E73A2"/>
<stop offset="1" stop-color="#1E72A2" stop-opacity="0"/>
</linearGradient>
<linearGradient id="paint14_linear" x1="3" y1="0" x2="3" y2="98" gradientUnits="userSpaceOnUse">
<stop stop-color="#1E73A2"/>
<stop offset="1" stop-color="#1E72A2" stop-opacity="0"/>
</linearGradient>
<linearGradient id="paint15_linear" x1="3" y1="0" x2="3" y2="141" gradientUnits="userSpaceOnUse">
<stop stop-color="#1E73A2"/>
<stop offset="1" stop-color="#1E72A2" stop-opacity="0"/>
</linearGradient>
<linearGradient id="paint16_linear" x1="3" y1="0" x2="3" y2="131" gradientUnits="userSpaceOnUse">
<stop stop-color="#1E73A2"/>
<stop offset="1" stop-color="#1E72A2" stop-opacity="0"/>
</linearGradient>
<linearGradient id="paint17_linear" x1="3" y1="0" x2="3" y2="121" gradientUnits="userSpaceOnUse">
<stop stop-color="#1E73A2"/>
<stop offset="1" stop-color="#1E72A2" stop-opacity="0"/>
</linearGradient>
<linearGradient id="paint18_linear" x1="3" y1="0" x2="3" y2="120" gradientUnits="userSpaceOnUse">
<stop stop-color="#1E73A2"/>
<stop offset="1" stop-color="#1E72A2" stop-opacity="0"/>
</linearGradient>
<linearGradient id="paint19_linear" x1="3" y1="0" x2="3" y2="134" gradientUnits="userSpaceOnUse">
<stop stop-color="#1E73A2"/>
<stop offset="1" stop-color="#1E72A2" stop-opacity="0"/>
</linearGradient>
<linearGradient id="paint20_linear" x1="3" y1="0" x2="3" y2="149" gradientUnits="userSpaceOnUse">
<stop stop-color="#1E73A2"/>
<stop offset="1" stop-color="#1E72A2" stop-opacity="0"/>
</linearGradient>
<linearGradient id="paint21_linear" x1="3" y1="0" x2="3" y2="148" gradientUnits="userSpaceOnUse">
<stop stop-color="#1E73A2"/>
<stop offset="1" stop-color="#1E72A2" stop-opacity="0"/>
</linearGradient>
<linearGradient id="paint22_linear" x1="3" y1="0" x2="3" y2="127" gradientUnits="userSpaceOnUse">
<stop stop-color="#1E73A2"/>
<stop offset="1" stop-color="#1E72A2" stop-opacity="0"/>
</linearGradient>
<linearGradient id="paint23_linear" x1="3" y1="0" x2="3" y2="107" gradientUnits="userSpaceOnUse">
<stop stop-color="#1E73A2"/>
<stop offset="1" stop-color="#1E72A2" stop-opacity="0"/>
</linearGradient>
<linearGradient id="paint24_linear" x1="3" y1="0" x2="3" y2="88" gradientUnits="userSpaceOnUse">
<stop stop-color="#1E73A2"/>
<stop offset="1" stop-color="#1E72A2" stop-opacity="0"/>
</linearGradient>
<linearGradient id="paint25_linear" x1="3" y1="0" x2="3" y2="90" gradientUnits="userSpaceOnUse">
<stop stop-color="#1E73A2"/>
<stop offset="1" stop-color="#1E72A2" stop-opacity="0"/>
</linearGradient>
<linearGradient id="paint26_linear" x1="3" y1="0" x2="3" y2="100" gradientUnits="userSpaceOnUse">
<stop stop-color="#1E73A2"/>
<stop offset="1" stop-color="#1E72A2" stop-opacity="0"/>
</linearGradient>
<linearGradient id="paint27_linear" x1="3" y1="0" x2="3" y2="123" gradientUnits="userSpaceOnUse">
<stop stop-color="#1E73A2"/>
<stop offset="1" stop-color="#1E72A2" stop-opacity="0"/>
</linearGradient>
<linearGradient id="paint28_linear" x1="3" y1="0" x2="3" y2="100" gradientUnits="userSpaceOnUse">
<stop stop-color="#1E73A2"/>
<stop offset="1" stop-color="#1E72A2" stop-opacity="0"/>
</linearGradient>
<linearGradient id="paint29_linear" x1="3" y1="0" x2="3" y2="120" gradientUnits="userSpaceOnUse">
<stop stop-color="#1E73A2"/>
<stop offset="1" stop-color="#1E72A2" stop-opacity="0"/>
</linearGradient>
<linearGradient id="paint30_linear" x1="3" y1="0" x2="3" y2="129" gradientUnits="userSpaceOnUse">
<stop stop-color="#1E73A2"/>
<stop offset="1" stop-color="#1E72A2" stop-opacity="0"/>
</linearGradient>
<linearGradient id="paint31_linear" x1="357" y1="236" x2="357" y2="280" gradientUnits="userSpaceOnUse">
<stop stop-color="#0F4E85"/>
<stop offset="1" stop-color="#0F4E85" stop-opacity="0"/>
</linearGradient>
<linearGradient id="paint32_linear" x1="345" y1="213" x2="345" y2="280" gradientUnits="userSpaceOnUse">
<stop stop-color="#0F4E85"/>
<stop offset="1" stop-color="#0F4E85" stop-opacity="0"/>
</linearGradient>
<linearGradient id="paint33_linear" x1="333" y1="217" x2="333" y2="280" gradientUnits="userSpaceOnUse">
<stop stop-color="#0F4E85"/>
<stop offset="1" stop-color="#0F4E85" stop-opacity="0"/>
</linearGradient>
<linearGradient id="paint34_linear" x1="321" y1="196" x2="321" y2="280" gradientUnits="userSpaceOnUse">
<stop stop-color="#0F4E85"/>
<stop offset="1" stop-color="#0F4E85" stop-opacity="0"/>
</linearGradient>
<linearGradient id="paint35_linear" x1="309" y1="208" x2="309" y2="280" gradientUnits="userSpaceOnUse">
<stop stop-color="#0F4E85"/>
<stop offset="1" stop-color="#0F4E85" stop-opacity="0"/>
</linearGradient>
<linearGradient id="paint36_linear" x1="297" y1="192" x2="297" y2="280" gradientUnits="userSpaceOnUse">
<stop stop-color="#0F4E85"/>
<stop offset="1" stop-color="#0F4E85" stop-opacity="0"/>
</linearGradient>
<linearGradient id="paint37_linear" x1="285" y1="180" x2="285" y2="280" gradientUnits="userSpaceOnUse">
<stop stop-color="#0F4E85"/>
<stop offset="1" stop-color="#0F4E85" stop-opacity="0"/>
</linearGradient>
<linearGradient id="paint38_linear" x1="273" y1="149" x2="273" y2="280" gradientUnits="userSpaceOnUse">
<stop stop-color="#0F4E85"/>
<stop offset="1" stop-color="#0F4E85" stop-opacity="0"/>
</linearGradient>
<linearGradient id="paint39_linear" x1="261" y1="169" x2="261" y2="280" gradientUnits="userSpaceOnUse">
<stop stop-color="#0F4E85"/>
<stop offset="1" stop-color="#0F4E85" stop-opacity="0"/>
</linearGradient>
<linearGradient id="paint40_linear" x1="249" y1="160" x2="249" y2="280" gradientUnits="userSpaceOnUse">
<stop stop-color="#0F4E85"/>
<stop offset="1" stop-color="#0F4E85" stop-opacity="0"/>
</linearGradient>
<linearGradient id="paint41_linear" x1="201" y1="153" x2="201" y2="280" gradientUnits="userSpaceOnUse">
<stop stop-color="#0F4E85"/>
<stop offset="1" stop-color="#0F4E85" stop-opacity="0"/>
</linearGradient>
<linearGradient id="paint42_linear" x1="237" y1="186" x2="237" y2="280" gradientUnits="userSpaceOnUse">
<stop stop-color="#0F4E85"/>
<stop offset="1" stop-color="#0F4E85" stop-opacity="0"/>
</linearGradient>
<linearGradient id="paint43_linear" x1="225" y1="196" x2="225" y2="280" gradientUnits="userSpaceOnUse">
<stop stop-color="#0F4E85"/>
<stop offset="1" stop-color="#0F4E85" stop-opacity="0"/>
</linearGradient>
<linearGradient id="paint44_linear" x1="213" y1="182" x2="213" y2="280" gradientUnits="userSpaceOnUse">
<stop stop-color="#0F4E85"/>
<stop offset="1" stop-color="#0F4E85" stop-opacity="0"/>
</linearGradient>
<linearGradient id="paint45_linear" x1="189" y1="139" x2="189" y2="280" gradientUnits="userSpaceOnUse">
<stop stop-color="#0F4E85"/>
<stop offset="1" stop-color="#0F4E85" stop-opacity="0"/>
</linearGradient>
<linearGradient id="paint46_linear" x1="177" y1="149" x2="177" y2="280" gradientUnits="userSpaceOnUse">
<stop stop-color="#0F4E85"/>
<stop offset="1" stop-color="#0F4E85" stop-opacity="0"/>
</linearGradient>
<linearGradient id="paint47_linear" x1="165" y1="159" x2="165" y2="280" gradientUnits="userSpaceOnUse">
<stop stop-color="#0F4E85"/>
<stop offset="1" stop-color="#0F4E85" stop-opacity="0"/>
</linearGradient>
<linearGradient id="paint48_linear" x1="153" y1="160" x2="153" y2="280" gradientUnits="userSpaceOnUse">
<stop stop-color="#0F4E85"/>
<stop offset="1" stop-color="#0F4E85" stop-opacity="0"/>
</linearGradient>
<linearGradient id="paint49_linear" x1="141" y1="146" x2="141" y2="280" gradientUnits="userSpaceOnUse">
<stop stop-color="#0F4E85"/>
<stop offset="1" stop-color="#0F4E85" stop-opacity="0"/>
</linearGradient>
<linearGradient id="paint50_linear" x1="129" y1="131" x2="129" y2="280" gradientUnits="userSpaceOnUse">
<stop stop-color="#0F4E85"/>
<stop offset="1" stop-color="#0F4E85" stop-opacity="0"/>
</linearGradient>
<linearGradient id="paint51_linear" x1="117" y1="132" x2="117" y2="280" gradientUnits="userSpaceOnUse">
<stop stop-color="#0F4E85"/>
<stop offset="1" stop-color="#0F4E85" stop-opacity="0"/>
</linearGradient>
<linearGradient id="paint52_linear" x1="105" y1="153" x2="105" y2="280" gradientUnits="userSpaceOnUse">
<stop stop-color="#0F4E85"/>
<stop offset="1" stop-color="#0F4E85" stop-opacity="0"/>
</linearGradient>
<linearGradient id="paint53_linear" x1="93" y1="173" x2="93" y2="280" gradientUnits="userSpaceOnUse">
<stop stop-color="#0F4E85"/>
<stop offset="1" stop-color="#0F4E85" stop-opacity="0"/>
</linearGradient>
<linearGradient id="paint54_linear" x1="81" y1="192" x2="81" y2="280" gradientUnits="userSpaceOnUse">
<stop stop-color="#0F4E85"/>
<stop offset="1" stop-color="#0F4E85" stop-opacity="0"/>
</linearGradient>
<linearGradient id="paint55_linear" x1="69" y1="190" x2="69" y2="280" gradientUnits="userSpaceOnUse">
<stop stop-color="#0F4E85"/>
<stop offset="1" stop-color="#0F4E85" stop-opacity="0"/>
</linearGradient>
<linearGradient id="paint56_linear" x1="57" y1="180" x2="57" y2="280" gradientUnits="userSpaceOnUse">
<stop stop-color="#0F4E85"/>
<stop offset="1" stop-color="#0F4E85" stop-opacity="0"/>
</linearGradient>
<linearGradient id="paint57_linear" x1="45" y1="157" x2="45" y2="280" gradientUnits="userSpaceOnUse">
<stop stop-color="#0F4E85"/>
<stop offset="1" stop-color="#0F4E85" stop-opacity="0"/>
</linearGradient>
<linearGradient id="paint58_linear" x1="33" y1="180" x2="33" y2="280" gradientUnits="userSpaceOnUse">
<stop stop-color="#0F4E85"/>
<stop offset="1" stop-color="#0F4E85" stop-opacity="0"/>
</linearGradient>
<linearGradient id="paint59_linear" x1="21" y1="160" x2="21" y2="280" gradientUnits="userSpaceOnUse">
<stop stop-color="#0F4E85"/>
<stop offset="1" stop-color="#0F4E85" stop-opacity="0"/>
</linearGradient>
<linearGradient id="paint60_linear" x1="9" y1="151" x2="9" y2="280" gradientUnits="userSpaceOnUse">
<stop stop-color="#0F4E85"/>
<stop offset="1" stop-color="#0F4E85" stop-opacity="0"/>
</linearGradient>
<radialGradient id="paint61_radial" cx="0" cy="0" r="1" gradientUnits="userSpaceOnUse" gradientTransform="translate(965 216) scale(398)">
<stop stop-color="#053C6C"/>
<stop offset="1" stop-color="#053C6C" stop-opacity="0"/>
</radialGradient>
<radialGradient id="paint62_radial" cx="0" cy="0" r="1" gradientUnits="userSpaceOnUse" gradientTransform="translate(452.935 242.503) scale(8.1697 8.17926)">
<stop stop-color="white"/>
<stop offset="0.1181" stop-color="white" stop-opacity="0.8819"/>
<stop offset="1" stop-color="white" stop-opacity="0"/>
</radialGradient>
<radialGradient id="paint63_radial" cx="0" cy="0" r="1" gradientUnits="userSpaceOnUse" gradientTransform="translate(956.486 269.273) scale(8.1697 8.17928)">
<stop stop-color="white"/>
<stop offset="0.1181" stop-color="white" stop-opacity="0.8819"/>
<stop offset="1" stop-color="white" stop-opacity="0"/>
</radialGradient>
<radialGradient id="paint64_radial" cx="0" cy="0" r="1" gradientUnits="userSpaceOnUse" gradientTransform="translate(576.22 260.351) scale(8.1697 8.17928)">
<stop stop-color="white"/>
<stop offset="0.1181" stop-color="white" stop-opacity="0.8819"/>
<stop offset="1" stop-color="white" stop-opacity="0"/>
</radialGradient>
<radialGradient id="paint65_radial" cx="0" cy="0" r="1" gradientUnits="userSpaceOnUse" gradientTransform="translate(727.733 276.708) scale(3.7135 3.71786)">
<stop stop-color="white"/>
<stop offset="0.1181" stop-color="white" stop-opacity="0.8819"/>
<stop offset="1" stop-color="white" stop-opacity="0"/>
</radialGradient>
<radialGradient id="paint66_radial" cx="0" cy="0" r="1" gradientUnits="userSpaceOnUse" gradientTransform="translate(1425.87 269.274) scale(3.71352 3.71784)">
<stop stop-color="white"/>
<stop offset="0.1181" stop-color="white" stop-opacity="0.8819"/>
<stop offset="1" stop-color="white" stop-opacity="0"/>
</radialGradient>
<radialGradient id="paint67_radial" cx="0" cy="0" r="1" gradientUnits="userSpaceOnUse" gradientTransform="translate(1451.12 281.17) scale(3.71348 3.71784)">
<stop stop-color="white"/>
<stop offset="0.1181" stop-color="white" stop-opacity="0.8819"/>
<stop offset="1" stop-color="white" stop-opacity="0"/>
</radialGradient>
<radialGradient id="paint68_radial" cx="0" cy="0" r="1" gradientUnits="userSpaceOnUse" gradientTransform="translate(1243.17 273.734) scale(3.71348 3.71786)">
<stop stop-color="white"/>
<stop offset="0.1181" stop-color="white" stop-opacity="0.8819"/>
<stop offset="1" stop-color="white" stop-opacity="0"/>
</radialGradient>
<radialGradient id="paint69_radial" cx="0" cy="0" r="1" gradientUnits="userSpaceOnUse" gradientTransform="translate(879.241 288.608) scale(3.7135 3.71788)">
<stop stop-color="white"/>
<stop offset="0.1181" stop-color="white" stop-opacity="0.8819"/>
<stop offset="1" stop-color="white" stop-opacity="0"/>
</radialGradient>
<radialGradient id="paint70_radial" cx="0" cy="0" r="1" gradientUnits="userSpaceOnUse" gradientTransform="translate(1041.15 249.94) scale(3.71352 3.71784)">
<stop stop-color="white"/>
<stop offset="0.1181" stop-color="white" stop-opacity="0.8819"/>
<stop offset="1" stop-color="white" stop-opacity="0"/>
</radialGradient>
<radialGradient id="paint71_radial" cx="0" cy="0" r="1" gradientUnits="userSpaceOnUse" gradientTransform="translate(1145.13 272.246) scale(3.71352 3.71786)">
<stop stop-color="white"/>
<stop offset="0.1181" stop-color="white" stop-opacity="0.8819"/>
<stop offset="1" stop-color="white" stop-opacity="0"/>
</radialGradient>
<radialGradient id="paint72_radial" cx="0" cy="0" r="1" gradientUnits="userSpaceOnUse" gradientTransform="translate(654.952 242.502) scale(3.7135 3.71786)">
<stop stop-color="white"/>
<stop offset="0.1181" stop-color="white" stop-opacity="0.8819"/>
<stop offset="1" stop-color="white" stop-opacity="0"/>
</radialGradient>
<radialGradient id="paint73_radial" cx="0" cy="0" r="1" gradientUnits="userSpaceOnUse" gradientTransform="translate(684.659 285.631) scale(3.7135 3.71784)">
<stop stop-color="white"/>
<stop offset="0.1181" stop-color="white" stop-opacity="0.8819"/>
<stop offset="1" stop-color="white" stop-opacity="0"/>
</radialGradient>
<radialGradient id="paint74_radial" cx="0" cy="0" r="1" gradientUnits="userSpaceOnUse" gradientTransform="translate(540.573 254.401) scale(3.7135 3.71788)">
<stop stop-color="white"/>
<stop offset="0.1181" stop-color="white" stop-opacity="0.8819"/>
<stop offset="1" stop-color="white" stop-opacity="0"/>
</radialGradient>
<radialGradient id="paint75_radial" cx="0" cy="0" r="1" gradientUnits="userSpaceOnUse" gradientTransform="translate(533.151 276.708) scale(3.7135 3.71786)">
<stop stop-color="white"/>
<stop offset="0.1181" stop-color="white" stop-opacity="0.8819"/>
<stop offset="1" stop-color="white" stop-opacity="0"/>
</radialGradient>
<radialGradient id="paint76_radial" cx="0" cy="0" r="1" gradientUnits="userSpaceOnUse" gradientTransform="translate(1476.37 242.503) scale(8.1697 8.17926)">
<stop stop-color="white"/>
<stop offset="0.1181" stop-color="white" stop-opacity="0.8819"/>
<stop offset="1" stop-color="white" stop-opacity="0"/>
</radialGradient>
<radialGradient id="paint77_radial" cx="0" cy="0" r="1" gradientUnits="userSpaceOnUse" gradientTransform="translate(1370.92 266.296) scale(8.16966 8.17924)">
<stop stop-color="white"/>
<stop offset="0.1181" stop-color="white" stop-opacity="0.8819"/>
<stop offset="1" stop-color="white" stop-opacity="0"/>
</radialGradient>
<radialGradient id="paint78_radial" cx="0" cy="0" r="1" gradientUnits="userSpaceOnUse" gradientTransform="translate(646.037 285.631) scale(8.1697 8.17928)">
<stop stop-color="white"/>
<stop offset="0.1181" stop-color="white" stop-opacity="0.8819"/>
<stop offset="1" stop-color="white" stop-opacity="0"/>
</radialGradient>
<radialGradient id="paint79_radial" cx="0" cy="0" r="1" gradientUnits="userSpaceOnUse" gradientTransform="translate(802.746 292.322) scale(16.3394 16.3585)">
<stop stop-color="white"/>
<stop offset="0.1181" stop-color="white" stop-opacity="0.8819"/>
<stop offset="1" stop-color="white" stop-opacity="0"/>
</radialGradient>
<radialGradient id="paint80_radial" cx="0" cy="0" r="1" gradientUnits="userSpaceOnUse" gradientTransform="translate(931.98 238.786) scale(16.3394 16.3586)">
<stop stop-color="white"/>
<stop offset="0.1181" stop-color="white" stop-opacity="0.8819"/>
<stop offset="1" stop-color="white" stop-opacity="0"/>
</radialGradient>
<clipPath id="clip0">
<rect width="1920" height="285" fill="white"/>
</clipPath>
</defs>
</svg>
