<svg width="12" height="15" viewBox="0 0 12 15" fill="none" xmlns="http://www.w3.org/2000/svg">
<path fill-rule="evenodd" clip-rule="evenodd" d="M0.5 11.5C0.5 11.2239 0.723858 11 1 11C1.27614 11 1.5 11.2239 1.5 11.5V14H10.5V11.5C10.5 11.2239 10.7239 11 11 11C11.2761 11 11.5 11.2239 11.5 11.5V14C11.5 14.5523 11.0523 15 10.5 15H1.5C0.947715 15 0.5 14.5523 0.5 14V11.5Z" fill="#E68D21"/>
<path fill-rule="evenodd" clip-rule="evenodd" d="M9.53715 7.17157L6.35517 10.3536C6.1599 10.5488 5.84332 10.5488 5.64806 10.3536L2.46608 7.17157C2.27082 6.97631 2.27082 6.65973 2.46608 6.46447C2.66134 6.2692 2.97792 6.2692 3.17319 6.46447L5.50161 8.79289L5.50161 1.828e-07L6.50161 1.39089e-07L6.50161 8.79289L8.83004 6.46447C9.0253 6.2692 9.34189 6.2692 9.53715 6.46447C9.73241 6.65973 9.73241 6.97631 9.53715 7.17157Z" fill="#E68D21"/>
</svg>
