<svg width="40" height="41" viewBox="0 0 40 41" fill="none" xmlns="http://www.w3.org/2000/svg">
<path d="M39.5 20.3376C39.5 31.3015 30.7617 40.1752 20 40.1752C9.2383 40.1752 0.5 31.3015 0.5 20.3376C0.5 9.37366 9.2383 0.5 20 0.5C30.7617 0.5 39.5 9.37366 39.5 20.3376Z" stroke="#fff"/>
<path d="M23.971 21.4814L24.4685 18.1689H21.3562V16.0201C21.3562 15.1139 21.791 14.2296 23.185 14.2296H24.6V11.4094C24.6 11.4094 23.3158 11.1855 22.088 11.1855C19.5247 11.1855 17.8493 12.772 17.8493 15.6442V18.1689H15V21.4814H17.8493V29.4894H21.3562V21.4814H23.971Z" fill="#fff"/>
</svg>
