<svg width="16" height="16" viewBox="0 0 16 16" fill="none" xmlns="http://www.w3.org/2000/svg">
<path d="M6.47547 4.19545C7.22026 3.89607 8.03661 3.82214 8.82306 3.98287C9.60951 4.1436 10.3314 4.53189 10.899 5.09949C11.4666 5.66709 11.8549 6.38897 12.0156 7.17542C12.1763 7.96187 12.1024 8.77822 11.803 9.52301L13.1119 10.8319C14.2653 9.85901 14.9986 8.78212 14.9986 8.1599C14.9986 7.10923 13.1257 4.89723 10.9377 3.81323C10.0271 3.34715 9.02139 3.09728 7.99858 3.08301C7.2405 3.08962 6.48966 3.23124 5.78125 3.50123L6.47547 4.19545Z" fill="#7692AB"/>
<path d="M15.0204 14.2479L9.92437 9.15192C10.136 8.80479 10.2488 8.40646 10.2506 7.99992C10.2479 7.81955 10.2219 7.64029 10.1733 7.46658C10.071 7.63771 9.92653 7.77978 9.75372 7.87921C9.58091 7.97865 9.38551 8.03214 9.18615 8.03458C8.87224 8.03458 8.57115 7.91007 8.34893 7.68835C8.12672 7.46663 8.00152 7.16582 8.00082 6.85192C8.00307 6.6458 8.05975 6.44393 8.16511 6.26677C8.27048 6.0896 8.42078 5.94342 8.60082 5.84303C8.40608 5.78446 8.20415 5.75319 8.00082 5.75014C7.59427 5.75194 7.19594 5.86473 6.84882 6.07636L1.75282 0.980361C1.68458 0.912266 1.59211 0.874023 1.49571 0.874023C1.3993 0.874023 1.30684 0.912266 1.23859 0.980361L0.981706 1.23769C0.947882 1.27143 0.921046 1.3115 0.902736 1.35562C0.884425 1.39974 0.875 1.44704 0.875 1.49481C0.875 1.54257 0.884425 1.58987 0.902736 1.63399C0.921046 1.67811 0.947882 1.71819 0.981706 1.75192L3.80215 4.57236C2.10615 5.79014 1.00215 7.42481 1.00215 8.15992C1.00215 9.49325 4.31682 12.9155 7.97371 12.9155C9.12945 12.8924 10.2633 12.5957 11.2822 12.0497L14.2506 15.0181C14.2843 15.052 14.3244 15.0788 14.3685 15.0971C14.4126 15.1154 14.4599 15.1248 14.5077 15.1248C14.5555 15.1248 14.6028 15.1154 14.6469 15.0971C14.691 15.0788 14.7311 15.052 14.7648 15.0181L15.0217 14.7613C15.0895 14.6929 15.1274 14.6005 15.1271 14.5043C15.1269 14.4081 15.0885 14.3159 15.0204 14.2479ZM8.00082 12.0999C7.23601 12.1024 6.48583 11.8904 5.8355 11.4879C5.18517 11.0854 4.66077 10.5085 4.32187 9.82291C3.98296 9.13728 3.84315 8.37035 3.91831 7.60924C3.99347 6.84812 4.28058 6.12335 4.74704 5.51725L6.07771 6.84792C5.86563 7.19487 5.75265 7.59329 5.75104 7.99992C5.75098 8.2954 5.80913 8.588 5.92217 8.86101C6.0352 9.13401 6.20091 9.38208 6.40983 9.59104C6.61874 9.8 6.86678 9.96575 7.13976 10.0788C7.41275 10.1919 7.70533 10.2501 8.00082 10.2501C8.40749 10.2484 8.8059 10.1352 9.15282 9.92303L10.4835 11.2537C9.7722 11.8024 8.89916 12.1 8.00082 12.0999Z" fill="#7692AB"/>
</svg>
