<svg width="40" height="41" viewBox="0 0 40 41" fill="none" xmlns="http://www.w3.org/2000/svg">
<path d="M39.5 20.3376C39.5 31.3015 30.7617 40.1752 20 40.1752C9.2383 40.1752 0.5 31.3015 0.5 20.3376C0.5 9.37366 9.2383 0.5 20 0.5C30.7617 0.5 39.5 9.37366 39.5 20.3376Z" stroke="#fff"/>
<path d="M16.9961 20.3338C16.9961 22.019 18.339 23.3845 19.9961 23.3845C21.6533 23.3845 22.9961 22.019 22.9961 20.3338C22.9961 18.6488 21.6533 17.2832 19.9961 17.2832C18.339 17.2832 16.9961 18.6488 16.9961 20.3338Z" fill="#fff"/>
<path fill-rule="evenodd" clip-rule="evenodd" d="M16.2857 11.2401C17.2464 11.1964 17.5535 11.1855 19.9964 11.1855C22.4393 11.1855 22.7464 11.1964 23.7107 11.2364C24.6714 11.28 25.325 11.4361 25.8964 11.6613C26.4857 11.8974 26.9893 12.2096 27.4893 12.7181C27.9893 13.2265 28.3 13.735 28.5286 14.3379C28.75 14.9226 28.9036 15.5872 28.9464 16.5605C28.9893 17.5374 29 17.8461 29 20.3338C29 22.8216 28.9893 23.1302 28.9464 24.1072C28.9036 25.084 28.75 25.7487 28.5286 26.3298C28.2965 26.929 27.9893 27.4411 27.4893 27.9495C26.9893 28.458 26.4893 28.774 25.8964 29.0064C25.3214 29.2316 24.6678 29.3877 23.7107 29.4312C22.75 29.4748 22.4465 29.4857 20 29.4857C17.5535 29.4857 17.25 29.4748 16.2893 29.4312C15.3286 29.3877 14.675 29.2316 14.1036 29.0064C13.5143 28.7703 13.0107 28.458 12.5107 27.9495C12.0107 27.4411 11.7 26.9326 11.4714 26.3298C11.25 25.745 11.0964 25.0805 11.0536 24.1072C11.0107 23.1302 11 22.8179 11 20.3338C11 17.8497 11.0107 17.5374 11.0536 16.5641C11.0964 15.5872 11.25 14.9226 11.4714 14.3415C11.7036 13.7423 12.0107 13.2302 12.5107 12.7217C13.0107 12.2133 13.5107 11.8974 14.1036 11.6649C14.675 11.4398 15.3286 11.2836 16.2857 11.2401ZM25.8785 15.4492C25.8785 16.0549 25.3957 16.5459 24.8 16.5459C24.2043 16.5459 23.7214 16.0549 23.7214 15.4492C23.7214 14.8435 24.2043 14.3524 24.8 14.3524C25.3957 14.3524 25.8785 14.8435 25.8785 15.4492ZM15.375 20.3375C15.375 17.7408 17.4464 15.6381 19.9964 15.6381C22.55 15.6381 24.6178 17.7408 24.6178 20.3375C24.6178 22.9342 22.55 25.0369 19.9964 25.0369C17.4428 25.0369 15.375 22.9342 15.375 20.3375Z" fill="#fff"/>
</svg>
