<svg width="56" height="56" viewBox="0 0 56 56" fill="none" xmlns="http://www.w3.org/2000/svg">
<circle cx="28" cy="28" r="27.5" fill="white" stroke="#32B383"/>
<path d="M38.7625 20.5708C38.4112 20.2277 37.936 20.0352 37.4407 20.0352C36.9453 20.0352 36.4701 20.2277 36.1188 20.5708L24.9625 31.0708L19.9375 26.355C19.5795 26.013 19.0978 25.8248 18.5985 25.8317C18.0992 25.8386 17.6231 26.0401 17.275 26.3919C16.9269 26.7436 16.7353 27.2169 16.7424 27.7074C16.7494 28.198 16.9545 28.6657 17.3125 29.0077L23.6688 35.0498C24.0184 35.3818 24.4857 35.5674 24.9719 35.5674C25.4582 35.5674 25.9254 35.3818 26.275 35.0498L38.725 23.1866C38.9033 23.0178 39.0457 22.816 39.1441 22.5928C39.2425 22.3697 39.295 22.1296 39.2985 21.8864C39.302 21.6432 39.2564 21.4018 39.1644 21.176C39.0724 20.9502 38.9359 20.7445 38.7625 20.5708Z" fill="#32B383"/>
</svg>
