<svg width="40" height="41" viewBox="0 0 40 41" fill="none" xmlns="http://www.w3.org/2000/svg">
<path d="M39.5 20.3376C39.5 31.3015 30.7617 40.1752 20 40.1752C9.2383 40.1752 0.5 31.3015 0.5 20.3376C0.5 9.37366 9.2383 0.5 20 0.5C30.7617 0.5 39.5 9.37366 39.5 20.3376Z" stroke="#fff"/>
<path d="M29.5835 15.4556C29.4694 15.0225 29.246 14.6276 28.9357 14.3103C28.6254 13.9931 28.239 13.7648 27.8153 13.6482C26.2545 13.2207 20 13.2207 20 13.2207C20 13.2207 13.7438 13.2207 12.1864 13.6482C11.7626 13.7648 11.3763 13.9931 11.0659 14.3103C10.7556 14.6276 10.5323 15.0225 10.4182 15.4556C10 17.0494 10 20.3765 10 20.3765C10 20.3765 10 23.7037 10.4182 25.2974C10.5323 25.7306 10.7556 26.1255 11.0659 26.4427C11.3763 26.7599 11.7626 26.9882 12.1864 27.1049C13.7455 27.5257 20 27.5257 20 27.5257C20 27.5257 26.2562 27.5257 27.8136 27.0982C28.2374 26.9815 28.6237 26.7532 28.9341 26.436C29.2444 26.1188 29.4677 25.7238 29.5818 25.2907C30 23.6969 30 20.3698 30 20.3698C30 20.3698 30 17.0494 29.5835 15.4556ZM17.9997 23.4428V17.3102L23.1972 20.3765L17.9997 23.4428Z" fill="#fff"/>
</svg>
