<svg width="696" height="501" viewBox="0 0 696 501" fill="none" xmlns="http://www.w3.org/2000/svg">
<g filter="url(#filter0_d)">
<path d="M60 86C60 69.4315 73.4315 56 90 56H606C622.569 56 636 69.4315 636 86V407C636 423.569 622.569 437 606 437H90C73.4314 437 60 423.569 60 407V86Z" fill="url(#paint0_linear)"/>
</g>
<path opacity="0.6" d="M385.5 268.4L267.7 190.9C212.3 154.5 137.9 169.9 101.5 225.3L60 288.4V407C60 423.6 73.4 437 90 437H418.3L419.9 434.6C456.3 379.2 440.9 304.8 385.5 268.4Z" fill="url(#paint1_linear)"/>
<mask id="mask0" mask-type="alpha" maskUnits="userSpaceOnUse" x="60" y="56" width="576" height="381">
<path d="M60 86C60 69.4315 73.4315 56 90 56H606C622.569 56 636 69.4315 636 86V407C636 423.569 622.569 437 606 437H90C73.4314 437 60 423.569 60 407V86Z" fill="url(#paint2_linear)"/>
</mask>
<g mask="url(#mask0)">
<path d="M147.125 455.187C186.266 455.187 213.844 435.266 213.688 407.062C213.844 387.453 200.719 373.625 174.938 370.812V369.562C194 367.531 207.906 355.266 207.75 337.375C207.906 310.422 182.906 290.812 147.438 290.812C111.188 290.812 85.4063 311.516 85.25 340.812H126.813C126.969 331.125 135.484 324.25 147.438 324.25C158.375 324.25 166.031 330.891 165.875 340.187C166.031 349.875 156.969 356.75 144 356.75H127.75V386.75H144C158.063 386.75 167.906 393.625 167.75 403.312C167.906 413.234 159.469 420.187 147.438 420.187C134.938 420.187 126.031 413.547 125.875 404.25H82.125C82.2813 434.094 109.234 455.187 147.125 455.187ZM252.535 455.5C264.02 455.5 274.254 445.812 274.41 433.625C274.254 421.75 264.02 412.062 252.535 412.062C240.426 412.062 230.504 421.75 230.66 433.625C230.504 445.812 240.426 455.5 252.535 455.5ZM357.32 455.187C395.133 455.187 421.539 432.453 421.383 398C421.539 368.703 401.93 347.375 372.945 347.375C354.664 347.375 338.102 356.125 332.008 370.812H331.07C331.227 344.328 339.352 327.062 357.633 327.062C366.773 327.062 374.742 331.125 376.695 340.812H419.508C416.773 312.844 392.945 290.188 357.633 290.188C315.68 290.188 288.102 322.375 287.945 374.875C288.102 433 319.977 455.187 357.32 455.187ZM357.008 422.375C344.352 422.375 334.977 412.766 334.82 399.562C334.977 386.359 344.352 376.75 357.008 376.75C369.977 376.75 379.352 386.359 379.195 399.562C379.352 412.766 369.977 422.375 357.008 422.375ZM532.613 423C532.77 443.312 545.895 460.812 570.426 460.812C594.957 460.812 608.707 443.312 608.551 423V414.562C608.707 393.938 595.27 376.75 570.426 376.75C546.207 376.75 532.77 394.25 532.613 414.562V423ZM448.863 331.438C449.02 351.75 462.145 368.937 486.676 368.937C511.207 368.937 524.957 352.062 524.801 331.438V323C524.957 302.375 511.52 285.187 486.676 285.187C462.77 285.187 449.02 302.375 448.863 323V331.438ZM457.613 453H479.801L589.801 293H567.613L457.613 453ZM559.801 414.562C559.957 408.312 562.145 401.125 570.426 401.125C579.332 401.125 581.207 408.312 581.051 414.562V423C581.207 429.25 579.02 436.125 570.426 436.125C562.145 436.125 559.957 428.938 559.801 423V414.562ZM476.363 323C476.52 317.062 478.395 309.562 486.676 309.562C495.582 309.562 497.457 316.75 497.301 323V331.438C497.457 337.687 495.27 344.562 486.676 344.562C478.707 344.562 476.52 337.687 476.363 331.438V323Z" fill="white" fill-opacity="0.16"/>
</g>
<path d="M379.119 230H380.655V226.147H382.743C382.778 226.147 382.808 226.147 382.842 226.147L384.911 230H386.661L384.403 225.879C385.651 225.416 386.273 224.377 386.273 223.01C386.273 221.136 385.109 219.818 382.748 219.818H379.119V230ZM380.655 224.825V221.136H382.584C384.1 221.136 384.727 221.857 384.727 223.01C384.727 224.158 384.1 224.825 382.604 224.825H380.655ZM391.218 230.154C392.884 230.154 394.062 229.334 394.4 228.091L392.993 227.837C392.725 228.558 392.078 228.926 391.233 228.926C389.96 228.926 389.105 228.101 389.066 226.629H394.494V226.102C394.494 223.343 392.844 222.264 391.114 222.264C388.986 222.264 387.584 223.885 387.584 226.232C387.584 228.603 388.966 230.154 391.218 230.154ZM389.07 225.516C389.13 224.432 389.916 223.492 391.124 223.492C392.277 223.492 393.033 224.347 393.038 225.516H389.07ZM401.866 224.228C401.558 223.04 400.628 222.264 398.978 222.264C397.252 222.264 396.029 223.174 396.029 224.526C396.029 225.61 396.686 226.331 398.118 226.649L399.41 226.933C400.146 227.097 400.489 227.425 400.489 227.902C400.489 228.494 399.858 228.956 398.883 228.956C397.993 228.956 397.422 228.573 397.243 227.822L395.806 228.041C396.054 229.393 397.178 230.154 398.893 230.154C400.738 230.154 402.015 229.175 402.015 227.793C402.015 226.714 401.329 226.048 399.927 225.724L398.714 225.446C397.874 225.247 397.511 224.964 397.516 224.447C397.511 223.86 398.147 223.442 398.993 223.442C399.917 223.442 400.345 223.955 400.519 224.467L401.866 224.228ZM403.65 232.864H405.136V228.812H405.226C405.494 229.299 406.041 230.149 407.433 230.149C409.282 230.149 410.625 228.668 410.625 226.197C410.625 223.721 409.263 222.264 407.418 222.264C406.001 222.264 405.489 223.129 405.226 223.602H405.101V222.364H403.65V232.864ZM405.106 226.182C405.106 224.586 405.802 223.527 407.1 223.527C408.447 223.527 409.123 224.665 409.123 226.182C409.123 227.713 408.427 228.881 407.1 228.881C405.822 228.881 405.106 227.788 405.106 226.182ZM415.507 230.154C417.66 230.154 419.067 228.578 419.067 226.217C419.067 223.84 417.66 222.264 415.507 222.264C413.354 222.264 411.947 223.84 411.947 226.217C411.947 228.578 413.354 230.154 415.507 230.154ZM415.512 228.906C414.105 228.906 413.449 227.678 413.449 226.212C413.449 224.75 414.105 223.507 415.512 223.507C416.909 223.507 417.565 224.75 417.565 226.212C417.565 227.678 416.909 228.906 415.512 228.906ZM422.212 225.466C422.212 224.248 422.958 223.552 423.992 223.552C425.001 223.552 425.613 224.213 425.613 225.322V230H427.099V225.143C427.099 223.254 426.06 222.264 424.499 222.264C423.351 222.264 422.6 222.796 422.247 223.607H422.153V222.364H420.726V230H422.212V225.466ZM434.815 224.228C434.507 223.04 433.577 222.264 431.927 222.264C430.202 222.264 428.979 223.174 428.979 224.526C428.979 225.61 429.635 226.331 431.067 226.649L432.359 226.933C433.095 227.097 433.438 227.425 433.438 227.902C433.438 228.494 432.807 228.956 431.832 228.956C430.942 228.956 430.371 228.573 430.192 227.822L428.755 228.041C429.004 229.393 430.127 230.154 431.842 230.154C433.687 230.154 434.964 229.175 434.964 227.793C434.964 226.714 434.278 226.048 432.876 225.724L431.663 225.446C430.823 225.247 430.46 224.964 430.465 224.447C430.46 223.86 431.097 223.442 431.942 223.442C432.866 223.442 433.294 223.955 433.468 224.467L434.815 224.228ZM436.599 230H438.085V222.364H436.599V230ZM437.35 221.185C437.862 221.185 438.289 220.788 438.289 220.3C438.289 219.813 437.862 219.411 437.35 219.411C436.833 219.411 436.41 219.813 436.41 220.3C436.41 220.788 436.833 221.185 437.35 221.185ZM446.618 222.364H445.022L443.093 228.24H443.013L441.08 222.364H439.484L442.258 230H443.849L446.618 222.364ZM451.033 230.154C452.698 230.154 453.876 229.334 454.214 228.091L452.808 227.837C452.539 228.558 451.893 228.926 451.048 228.926C449.775 228.926 448.92 228.101 448.88 226.629H454.309V226.102C454.309 223.343 452.658 222.264 450.928 222.264C448.8 222.264 447.398 223.885 447.398 226.232C447.398 228.603 448.781 230.154 451.033 230.154ZM448.885 225.516C448.945 224.432 449.73 223.492 450.938 223.492C452.092 223.492 452.847 224.347 452.852 225.516H448.885Z" fill="white"/>
<rect x="346" y="213" width="22" height="22" rx="11" fill="white"/>
<path d="M362.74 220.301C362.553 220.114 362.299 220.01 362.035 220.01C361.771 220.01 361.518 220.114 361.33 220.301L355.38 226.001L352.7 223.441C352.509 223.255 352.252 223.153 351.986 223.156C351.72 223.16 351.466 223.27 351.28 223.461C351.095 223.652 350.992 223.908 350.996 224.175C351 224.441 351.109 224.695 351.3 224.881L354.69 228.161C354.877 228.341 355.126 228.442 355.385 228.442C355.645 228.442 355.894 228.341 356.08 228.161L362.72 221.721C362.815 221.629 362.891 221.519 362.944 221.398C362.996 221.277 363.024 221.147 363.026 221.015C363.028 220.883 363.004 220.752 362.955 220.629C362.906 220.506 362.833 220.395 362.74 220.301Z" fill="#FAA338"/>
<path d="M264.119 230H265.655V226.147H267.743C267.778 226.147 267.808 226.147 267.842 226.147L269.911 230H271.661L269.403 225.879C270.651 225.416 271.273 224.377 271.273 223.01C271.273 221.136 270.109 219.818 267.748 219.818H264.119V230ZM265.655 224.825V221.136H267.584C269.1 221.136 269.727 221.857 269.727 223.01C269.727 224.158 269.1 224.825 267.604 224.825H265.655ZM276.218 230.154C277.884 230.154 279.062 229.334 279.4 228.091L277.993 227.837C277.725 228.558 277.078 228.926 276.233 228.926C274.96 228.926 274.105 228.101 274.066 226.629H279.494V226.102C279.494 223.343 277.844 222.264 276.114 222.264C273.986 222.264 272.584 223.885 272.584 226.232C272.584 228.603 273.966 230.154 276.218 230.154ZM274.07 225.516C274.13 224.432 274.916 223.492 276.124 223.492C277.277 223.492 278.033 224.347 278.038 225.516H274.07ZM282.63 219.818H281.144V230H282.63V219.818ZM284.63 230H286.117V222.364H284.63V230ZM285.381 221.185C285.893 221.185 286.32 220.788 286.32 220.3C286.32 219.813 285.893 219.411 285.381 219.411C284.864 219.411 284.441 219.813 284.441 220.3C284.441 220.788 284.864 221.185 285.381 221.185ZM290.339 230.169C291.602 230.169 292.312 229.528 292.596 228.956H292.656V230H294.107V224.929C294.107 222.707 292.357 222.264 291.144 222.264C289.762 222.264 288.489 222.821 287.992 224.213L289.389 224.531C289.608 223.989 290.165 223.467 291.164 223.467C292.124 223.467 292.616 223.969 292.616 224.835V224.869C292.616 225.411 292.059 225.401 290.687 225.56C289.24 225.729 287.759 226.107 287.759 227.842C287.759 229.344 288.887 230.169 290.339 230.169ZM290.662 228.976C289.822 228.976 289.215 228.598 289.215 227.862C289.215 227.067 289.921 226.783 290.781 226.669C291.263 226.604 292.407 226.475 292.621 226.261V227.246C292.621 228.151 291.9 228.976 290.662 228.976ZM296.206 230H297.658V228.812H297.782C298.051 229.299 298.598 230.149 299.99 230.149C301.839 230.149 303.182 228.668 303.182 226.197C303.182 223.721 301.819 222.264 299.975 222.264C298.558 222.264 298.046 223.129 297.782 223.602H297.693V219.818H296.206V230ZM297.663 226.182C297.663 224.586 298.359 223.527 299.657 223.527C301.004 223.527 301.68 224.665 301.68 226.182C301.68 227.713 300.984 228.881 299.657 228.881C298.379 228.881 297.663 227.788 297.663 226.182ZM306.337 219.818H304.851V230H306.337V219.818ZM311.628 230.154C313.294 230.154 314.472 229.334 314.81 228.091L313.403 227.837C313.135 228.558 312.488 228.926 311.643 228.926C310.371 228.926 309.515 228.101 309.476 226.629H314.905V226.102C314.905 223.343 313.254 222.264 311.524 222.264C309.396 222.264 307.994 223.885 307.994 226.232C307.994 228.603 309.376 230.154 311.628 230.154ZM309.481 225.516C309.54 224.432 310.326 223.492 311.534 223.492C312.687 223.492 313.443 224.347 313.448 225.516H309.481Z" fill="white"/>
<rect x="231" y="213" width="22" height="22" rx="11" fill="white"/>
<path d="M247.74 220.301C247.553 220.114 247.299 220.01 247.035 220.01C246.771 220.01 246.518 220.114 246.33 220.301L240.38 226.001L237.7 223.441C237.509 223.255 237.252 223.153 236.986 223.156C236.72 223.16 236.466 223.27 236.28 223.461C236.095 223.652 235.992 223.908 235.996 224.175C236 224.441 236.109 224.695 236.3 224.881L239.69 228.161C239.877 228.341 240.126 228.442 240.385 228.442C240.645 228.442 240.894 228.341 241.08 228.161L247.72 221.721C247.815 221.629 247.891 221.519 247.944 221.398C247.996 221.277 248.024 221.147 248.026 221.015C248.028 220.883 248.004 220.752 247.955 220.629C247.906 220.506 247.833 220.395 247.74 220.301Z" fill="#FAA338"/>
<path d="M130.119 230H131.655V225.56H136.731V230H138.272V219.818H136.731V224.243H131.655V219.818H130.119V230ZM140.39 230H141.876V222.364H140.39V230ZM141.141 221.185C141.653 221.185 142.08 220.788 142.08 220.3C142.08 219.813 141.653 219.411 141.141 219.411C140.624 219.411 140.201 219.813 140.201 220.3C140.201 220.788 140.624 221.185 141.141 221.185ZM147.078 233.008C149.022 233.008 150.523 232.118 150.523 230.169V222.364H149.067V223.602H148.957C148.694 223.129 148.167 222.264 146.745 222.264C144.9 222.264 143.543 223.721 143.543 226.152C143.543 228.588 144.93 229.886 146.735 229.886C148.137 229.886 148.679 229.095 148.947 228.608H149.042V230.109C149.042 231.288 148.221 231.81 147.093 231.81C145.855 231.81 145.373 231.188 145.109 230.766L143.831 231.293C144.234 232.212 145.253 233.008 147.078 233.008ZM147.063 228.653C145.736 228.653 145.045 227.634 145.045 226.132C145.045 224.665 145.721 223.527 147.063 223.527C148.361 223.527 149.057 224.586 149.057 226.132C149.057 227.708 148.346 228.653 147.063 228.653ZM154.003 225.466C154.003 224.248 154.774 223.552 155.833 223.552C156.857 223.552 157.469 224.203 157.469 225.322V230H158.955V225.143C158.955 223.239 157.911 222.264 156.34 222.264C155.152 222.264 154.436 222.781 154.078 223.607H153.983V219.818H152.517V230H154.003V225.466ZM164.644 232.864H166.13V228.812H166.22C166.488 229.299 167.035 230.149 168.427 230.149C170.277 230.149 171.619 228.668 171.619 226.197C171.619 223.721 170.257 222.264 168.412 222.264C166.995 222.264 166.483 223.129 166.22 223.602H166.096V222.364H164.644V232.864ZM166.1 226.182C166.1 224.586 166.797 223.527 168.094 223.527C169.441 223.527 170.118 224.665 170.118 226.182C170.118 227.713 169.422 228.881 168.094 228.881C166.816 228.881 166.1 227.788 166.1 226.182ZM173.284 230H174.771V225.337C174.771 224.337 175.542 223.616 176.596 223.616C176.904 223.616 177.252 223.671 177.371 223.706V222.284C177.222 222.264 176.929 222.249 176.74 222.249C175.845 222.249 175.079 222.756 174.801 223.577H174.721V222.364H173.284V230ZM181.601 230.154C183.753 230.154 185.16 228.578 185.16 226.217C185.16 223.84 183.753 222.264 181.601 222.264C179.448 222.264 178.041 223.84 178.041 226.217C178.041 228.578 179.448 230.154 181.601 230.154ZM181.606 228.906C180.199 228.906 179.542 227.678 179.542 226.212C179.542 224.75 180.199 223.507 181.606 223.507C183.003 223.507 183.659 224.75 183.659 226.212C183.659 227.678 183.003 228.906 181.606 228.906ZM190.454 222.364H188.808V221.678C188.808 221.001 189.087 220.634 189.812 220.634C190.121 220.634 190.339 220.703 190.479 220.748L190.827 219.545C190.618 219.465 190.185 219.341 189.584 219.341C188.376 219.341 187.317 220.047 187.317 221.479V222.364H186.138V223.557H187.317V230H188.808V223.557H190.454V222.364ZM191.988 230H193.474V222.364H191.988V230ZM192.738 221.185C193.25 221.185 193.678 220.788 193.678 220.3C193.678 219.813 193.25 219.411 192.738 219.411C192.221 219.411 191.799 219.813 191.799 220.3C191.799 220.788 192.221 221.185 192.738 221.185ZM199.039 222.364H197.472V220.534H195.986V222.364H194.867V223.557H195.986V228.066C195.981 229.453 197.04 230.124 198.213 230.099C198.686 230.094 199.004 230.005 199.178 229.94L198.909 228.712C198.81 228.732 198.626 228.777 198.387 228.777C197.905 228.777 197.472 228.618 197.472 227.758V223.557H199.039V222.364Z" fill="white"/>
<rect x="97" y="213" width="22" height="22" rx="11" fill="white"/>
<path d="M113.74 220.301C113.553 220.114 113.299 220.01 113.035 220.01C112.771 220.01 112.518 220.114 112.33 220.301L106.38 226.001L103.7 223.441C103.509 223.255 103.252 223.153 102.986 223.156C102.72 223.16 102.466 223.27 102.28 223.461C102.095 223.652 101.992 223.908 101.996 224.175C102 224.441 102.109 224.695 102.3 224.881L105.69 228.161C105.877 228.341 106.126 228.442 106.385 228.442C106.645 228.442 106.894 228.341 107.08 228.161L113.72 221.721C113.815 221.629 113.891 221.519 113.944 221.398C113.996 221.277 114.024 221.147 114.026 221.015C114.028 220.883 114.004 220.752 113.955 220.629C113.906 220.506 113.833 220.395 113.74 220.301Z" fill="#FAA338"/>
<path d="M309.099 172C311.98 172 313.647 170.213 313.647 167.259C313.647 164.318 311.98 162.545 309.196 162.545H306.039V172H309.099ZM307.465 170.754V163.792H309.109C311.177 163.792 312.243 165.029 312.243 167.259C312.243 169.498 311.177 170.754 309.021 170.754H307.465ZM316.009 172L316.877 169.498H320.571L321.434 172H322.948L319.546 162.545H317.898L314.495 172H316.009ZM317.293 168.298L318.687 164.263H318.761L320.155 168.298H317.293ZM326 162.545H324.573V172H326V162.545ZM328.337 172H334.048V170.772H329.764V162.545H328.337V172ZM334.508 162.545L337.938 168.288V172H339.359V168.288L342.789 162.545H341.169L338.699 166.843H338.598L336.128 162.545H334.508ZM348.097 172H349.523V168.676H351.462C353.655 168.676 354.74 167.351 354.74 165.606C354.74 163.866 353.664 162.545 351.467 162.545H348.097V172ZM349.523 167.467V163.769H351.314C352.727 163.769 353.304 164.535 353.304 165.606C353.304 166.677 352.727 167.467 351.333 167.467H349.523ZM356.672 172H358.099V168.422H360.038C360.07 168.422 360.098 168.422 360.13 168.422L362.05 172H363.675L361.579 168.173C362.738 167.744 363.315 166.779 363.315 165.509C363.315 163.769 362.235 162.545 360.042 162.545H356.672V172ZM358.099 167.194V163.769H359.89C361.298 163.769 361.88 164.438 361.88 165.509C361.88 166.576 361.298 167.194 359.908 167.194H358.099ZM373.524 167.273C373.524 164.249 371.714 162.416 369.267 162.416C366.811 162.416 365.006 164.249 365.006 167.273C365.006 170.292 366.811 172.129 369.267 172.129C371.714 172.129 373.524 170.297 373.524 167.273ZM372.111 167.273C372.111 169.576 370.892 170.827 369.267 170.827C367.638 170.827 366.424 169.576 366.424 167.273C366.424 164.969 367.638 163.718 369.267 163.718C370.892 163.718 372.111 164.969 372.111 167.273ZM375.562 172H376.989V167.877H381.005V166.654H376.989V163.773H381.425V162.545H375.562V172ZM384.866 162.545H383.439V172H384.866V162.545ZM386.737 163.773H389.682V172H391.104V163.773H394.054V162.545H386.737V163.773Z" fill="white"/>
<path d="M319.328 148.437C326.172 148.437 331.156 144.516 331.141 139.109C331.156 135.109 328.656 132.234 324.172 131.594V131.344C327.641 130.594 329.969 128.016 329.953 124.422C329.969 119.547 325.813 115.562 319.422 115.562C313.203 115.562 308.391 119.266 308.266 124.625H313.844C313.938 121.937 316.438 120.266 319.391 120.266C322.375 120.266 324.359 122.078 324.344 124.766C324.359 127.562 322.047 129.422 318.734 129.422H315.906V133.891H318.734C322.781 133.891 325.188 135.922 325.172 138.812C325.188 141.641 322.734 143.578 319.313 143.578C316.094 143.578 313.609 141.906 313.469 139.297H307.594C307.75 144.703 312.578 148.437 319.328 148.437ZM339.105 148.344C340.949 148.344 342.527 146.812 342.543 144.906C342.527 143.031 340.949 141.5 339.105 141.5C337.199 141.5 335.652 143.031 335.668 144.906C335.652 146.812 337.199 148.344 339.105 148.344ZM358.793 148.437C365.699 148.484 370.34 143.734 370.324 137.406C370.34 131.359 366.027 126.984 360.418 126.984C356.98 126.984 353.949 128.656 352.418 131.406H352.199C352.215 124.578 354.684 120.484 359.121 120.484C361.871 120.484 363.73 122.094 364.324 124.625H370.027C369.34 119.375 365.168 115.469 359.121 115.469C351.434 115.469 346.574 121.875 346.574 132.906C346.574 144.641 352.652 148.406 358.793 148.437ZM358.762 143.75C355.34 143.75 352.84 140.922 352.824 137.578C352.855 134.219 355.449 131.406 358.84 131.406C362.23 131.406 364.715 134.094 364.699 137.531C364.715 141.031 362.152 143.75 358.762 143.75ZM392.715 142C392.73 145.719 395.09 148.891 399.48 148.891C403.855 148.891 406.262 145.719 406.246 142V140.312C406.262 136.562 403.918 133.422 399.48 133.422C395.152 133.422 392.73 136.594 392.715 140.312V142ZM376.449 123.688C376.465 127.406 378.824 130.547 383.23 130.547C387.59 130.547 389.996 127.437 389.98 123.688V122C389.996 118.25 387.652 115.109 383.23 115.109C378.918 115.109 376.465 118.25 376.449 122V123.688ZM377.855 148H381.777L403.777 116H399.855L377.855 148ZM396.793 140.312C396.809 138.656 397.512 136.984 399.48 136.984C401.543 136.984 402.152 138.656 402.137 140.312V142C402.152 143.656 401.48 145.297 399.48 145.297C397.48 145.297 396.809 143.641 396.793 142V140.312ZM380.559 122C380.574 120.359 381.246 118.672 383.23 118.672C385.293 118.672 385.887 120.344 385.871 122V123.688C385.887 125.344 385.23 126.984 383.23 126.984C381.23 126.984 380.574 125.344 380.559 123.688V122Z" fill="white"/>
<g clip-path="url(#clip0)">
<path fill-rule="evenodd" clip-rule="evenodd" d="M287.172 137.465L290.354 140.647C290.549 140.842 290.549 141.159 290.354 141.354L287.172 144.536C286.976 144.731 286.66 144.731 286.464 144.536C286.269 144.341 286.269 144.024 286.464 143.829L288.793 141.5H220V140.5H288.793L286.464 138.172C286.269 137.977 286.269 137.66 286.464 137.465C286.66 137.27 286.976 137.27 287.172 137.465Z" fill="white"/>
</g>
<path d="M96.0387 172H97.4652V167.877H102.179V172H103.61V162.545H102.179V166.654H97.4652V162.545H96.0387V172ZM114.16 167.273C114.16 164.249 112.35 162.416 109.903 162.416C107.448 162.416 105.642 164.249 105.642 167.273C105.642 170.292 107.448 172.129 109.903 172.129C112.35 172.129 114.16 170.297 114.16 167.273ZM112.747 167.273C112.747 169.576 111.528 170.827 109.903 170.827C108.274 170.827 107.06 169.576 107.06 167.273C107.06 164.969 108.274 163.718 109.903 163.718C111.528 163.718 112.747 164.969 112.747 167.273ZM122.278 162.545V168.648C122.278 169.932 121.392 170.855 119.952 170.855C118.516 170.855 117.625 169.932 117.625 168.648V162.545H116.198V168.764C116.198 170.749 117.685 172.157 119.952 172.157C122.218 172.157 123.709 170.749 123.709 168.764V162.545H122.278ZM126.043 172H127.47V168.422H129.409C129.441 168.422 129.469 168.422 129.501 168.422L131.422 172H133.047L130.951 168.173C132.109 167.744 132.686 166.779 132.686 165.509C132.686 163.769 131.606 162.545 129.413 162.545H126.043V172ZM127.47 167.194V163.769H129.261C130.669 163.769 131.251 164.438 131.251 165.509C131.251 166.576 130.669 167.194 129.279 167.194H127.47ZM134.682 172H140.393V170.772H136.109V162.545H134.682V172ZM140.852 162.545L144.283 168.288V172H145.704V168.288L149.134 162.545H147.514L145.044 166.843H144.943L142.473 162.545H140.852ZM154.442 172H155.868V168.676H157.807C160 168.676 161.085 167.351 161.085 165.606C161.085 163.866 160.009 162.545 157.812 162.545H154.442V172ZM155.868 167.467V163.769H157.659C159.072 163.769 159.649 164.535 159.649 165.606C159.649 166.677 159.072 167.467 157.678 167.467H155.868ZM163.017 172H164.444V168.422H166.383C166.415 168.422 166.443 168.422 166.475 168.422L168.395 172H170.02L167.924 168.173C169.083 167.744 169.66 166.779 169.66 165.509C169.66 163.769 168.58 162.545 166.387 162.545H163.017V172ZM164.444 167.194V163.769H166.235C167.643 163.769 168.225 164.438 168.225 165.509C168.225 166.576 167.643 167.194 166.253 167.194H164.444ZM179.869 167.273C179.869 164.249 178.059 162.416 175.612 162.416C173.156 162.416 171.351 164.249 171.351 167.273C171.351 170.292 173.156 172.129 175.612 172.129C178.059 172.129 179.869 170.297 179.869 167.273ZM178.456 167.273C178.456 169.576 177.237 170.827 175.612 170.827C173.983 170.827 172.769 169.576 172.769 167.273C172.769 164.969 173.983 163.718 175.612 163.718C177.237 163.718 178.456 164.969 178.456 167.273ZM181.907 172H183.334V167.877H187.35V166.654H183.334V163.773H187.77V162.545H181.907V172ZM191.211 162.545H189.784V172H191.211V162.545ZM193.082 163.773H196.027V172H197.449V163.773H200.399V162.545H193.082V163.773Z" fill="white"/>
<path d="M109.328 148.437C116.172 148.437 121.156 144.516 121.141 139.109C121.156 135.109 118.656 132.234 114.172 131.594V131.344C117.641 130.594 119.969 128.016 119.953 124.422C119.969 119.547 115.813 115.562 109.422 115.562C103.203 115.562 98.3906 119.266 98.2656 124.625H103.844C103.938 121.937 106.438 120.266 109.391 120.266C112.375 120.266 114.359 122.078 114.344 124.766C114.359 127.562 112.047 129.422 108.734 129.422H105.906V133.891H108.734C112.781 133.891 115.188 135.922 115.172 138.812C115.188 141.641 112.734 143.578 109.313 143.578C106.094 143.578 103.609 141.906 103.469 139.297H97.5938C97.75 144.703 102.578 148.437 109.328 148.437ZM129.105 148.344C130.949 148.344 132.527 146.812 132.543 144.906C132.527 143.031 130.949 141.5 129.105 141.5C127.199 141.5 125.652 143.031 125.668 144.906C125.652 146.812 127.199 148.344 129.105 148.344ZM148.793 148.437C155.699 148.484 160.34 143.734 160.324 137.406C160.34 131.359 156.027 126.984 150.418 126.984C146.98 126.984 143.949 128.656 142.418 131.406H142.199C142.215 124.578 144.684 120.484 149.121 120.484C151.871 120.484 153.73 122.094 154.324 124.625H160.027C159.34 119.375 155.168 115.469 149.121 115.469C141.434 115.469 136.574 121.875 136.574 132.906C136.574 144.641 142.652 148.406 148.793 148.437ZM148.762 143.75C145.34 143.75 142.84 140.922 142.824 137.578C142.855 134.219 145.449 131.406 148.84 131.406C152.23 131.406 154.715 134.094 154.699 137.531C154.715 141.031 152.152 143.75 148.762 143.75ZM182.715 142C182.73 145.719 185.09 148.891 189.48 148.891C193.855 148.891 196.262 145.719 196.246 142V140.312C196.262 136.562 193.918 133.422 189.48 133.422C185.152 133.422 182.73 136.594 182.715 140.312V142ZM166.449 123.688C166.465 127.406 168.824 130.547 173.23 130.547C177.59 130.547 179.996 127.437 179.98 123.688V122C179.996 118.25 177.652 115.109 173.23 115.109C168.918 115.109 166.465 118.25 166.449 122V123.688ZM167.855 148H171.777L193.777 116H189.855L167.855 148ZM186.793 140.312C186.809 138.656 187.512 136.984 189.48 136.984C191.543 136.984 192.152 138.656 192.137 140.312V142C192.152 143.656 191.48 145.297 189.48 145.297C187.48 145.297 186.809 143.641 186.793 142V140.312ZM170.559 122C170.574 120.359 171.246 118.672 173.23 118.672C175.293 118.672 175.887 120.344 175.871 122V123.688C175.887 125.344 175.23 126.984 173.23 126.984C171.23 126.984 170.574 125.344 170.559 123.688V122Z" fill="white"/>
<path fill-rule="evenodd" clip-rule="evenodd" d="M616.935 87.246L597.701 121.275C593.974 127.87 585.283 129.66 579.252 125.074L564.666 113.98C559.457 110.018 551.997 111.196 548.262 116.569L536.023 134.176C531.273 141.009 521.296 141.379 516.053 134.916L512.733 130.825C508.528 125.642 500.807 125.116 495.938 129.681L487.544 137.551C483.673 141.179 477.934 141.969 473.227 139.522L462.701 134.048C458.663 131.948 453.766 132.428 450.212 135.271L444.599 139.761C442.383 141.534 439.629 142.5 436.791 142.5H423.5V141.5H436.791C439.402 141.5 441.936 140.611 443.975 138.98L449.587 134.49C453.45 131.399 458.773 130.878 463.162 133.161L473.689 138.635C478.019 140.886 483.299 140.159 486.86 136.821L495.254 128.952C500.547 123.989 508.939 124.561 513.51 130.195L516.829 134.286C521.653 140.232 530.832 139.892 535.202 133.605L547.441 115.999C551.501 110.158 559.61 108.878 565.272 113.184L579.858 124.278C585.405 128.497 593.401 126.851 596.831 120.783L616.065 86.7539L616.935 87.246Z" fill="white"/>
<circle cx="616" cy="88" r="7" fill="white" fill-opacity="0.2"/>
<circle cx="616" cy="88" r="3" fill="white"/>
<defs>
<filter id="filter0_d" x="0" y="0" width="696" height="501" filterUnits="userSpaceOnUse" color-interpolation-filters="sRGB">
<feFlood flood-opacity="0" result="BackgroundImageFix"/>
<feColorMatrix in="SourceAlpha" type="matrix" values="0 0 0 0 0 0 0 0 0 0 0 0 0 0 0 0 0 0 127 0"/>
<feOffset dy="4"/>
<feGaussianBlur stdDeviation="30"/>
<feColorMatrix type="matrix" values="0 0 0 0 0.980392 0 0 0 0 0.639216 0 0 0 0 0.219608 0 0 0 0.3 0"/>
<feBlend mode="normal" in2="BackgroundImageFix" result="effect1_dropShadow"/>
<feBlend mode="normal" in="SourceGraphic" in2="effect1_dropShadow" result="shape"/>
</filter>
<linearGradient id="paint0_linear" x1="60" y1="246.497" x2="636" y2="246.497" gradientUnits="userSpaceOnUse">
<stop stop-color="#FFD364"/>
<stop offset="1" stop-color="#FAA136"/>
</linearGradient>
<linearGradient id="paint1_linear" x1="115.5" y1="193" x2="440" y2="437" gradientUnits="userSpaceOnUse">
<stop stop-color="#FCB448"/>
<stop offset="1" stop-color="#FCB246"/>
</linearGradient>
<linearGradient id="paint2_linear" x1="60" y1="246.497" x2="636" y2="246.497" gradientUnits="userSpaceOnUse">
<stop stop-color="#FFD364"/>
<stop offset="1" stop-color="#FAA136"/>
</linearGradient>
<clipPath id="clip0">
<rect x="220" y="137.318" width="70.5" height="7.36396" fill="white"/>
</clipPath>
</defs>
</svg>
