<svg width="627" height="516" viewBox="0 0 627 516" fill="none" xmlns="http://www.w3.org/2000/svg">
<g filter="url(#filter0_d)">
<path fill-rule="evenodd" clip-rule="evenodd" d="M103.102 91C86.5016 91 73.1016 104.4 73.1016 121V268C73.1016 284.6 86.5016 298 103.102 298H264.102V387C264.102 403.6 277.502 417 294.102 417H524.002C540.602 417 554.002 403.6 554.002 387V240C554.002 223.4 540.602 210 524.002 210H363.002V121C363.002 104.4 349.602 91 333.002 91H103.102Z" fill="url(#paint0_linear)"/>
</g>
<path d="M526.501 416.9L340.101 232.2C316.601 208.9 278.601 209.1 255.201 232.6L217.201 270.9C209.501 278.7 204.401 288 201.801 297.9H264.001V386.9C264.001 403.5 277.401 416.9 294.001 416.9H523.901C524.801 417 525.601 417 526.501 416.9Z" fill="url(#paint1_linear)"/>
<path d="M190.1 192.2C166.6 168.9 128.6 169.1 105.2 192.6L73 225.1V267.9C73 284.5 86.4 297.9 103 297.9H264V386.9C264 403.5 277.4 416.9 294 416.9H417L190.1 192.2Z" fill="url(#paint2_linear)"/>
<g clip-path="url(#clip0)">
<path fill-rule="evenodd" clip-rule="evenodd" d="M380.981 312.53C383.441 313.48 385.791 314.74 387.971 316.26C388.062 316.323 388.147 316.392 388.226 316.467C390.564 314.842 393.121 313.491 395.841 312.47L398.361 311.53L396.381 309.71C392.861 306.47 390.841 301.88 390.841 297.11C390.841 287.68 398.521 280 407.961 280C414.991 280 421.221 284.22 423.851 290.74C423.851 290.74 424.401 292.15 424.541 292.66C424.601 292.86 424.721 293.28 424.781 293.5C425.081 294.6 425.121 296.81 425.081 297.88C425.071 298.04 425.031 298.5 425.031 298.5C424.681 302.83 422.701 306.83 419.471 309.77L417.501 311.56L419.981 312.53C422.441 313.48 424.791 314.74 426.971 316.26C427.062 316.323 427.147 316.392 427.226 316.467C429.564 314.842 432.121 313.491 434.841 312.47L437.315 311.547L435.371 309.78C432.141 306.84 430.161 302.84 429.811 298.51C429.811 298.51 429.771 298.05 429.761 297.89C429.721 296.82 429.751 294.61 430.061 293.51C430.131 293.28 430.251 292.86 430.301 292.67C430.431 292.15 430.991 290.75 430.991 290.75C433.621 284.22 439.851 280 446.881 280C446.894 280 446.907 280 446.921 280C446.934 280 446.948 280 446.961 280C453.991 280 460.221 284.22 462.851 290.74C462.851 290.74 463.401 292.15 463.541 292.66C463.601 292.86 463.721 293.28 463.781 293.5C464.081 294.6 464.121 296.81 464.081 297.88C464.071 298.04 464.031 298.5 464.031 298.5C463.681 302.83 461.701 306.83 458.471 309.77L456.519 311.544L459.001 312.47C468.701 316.11 476.321 323.95 479.381 333.44C480.311 336.33 479.821 339.39 478.031 341.85C476.241 344.3 473.481 345.71 470.441 345.71H455.411H438.431H423.401C421.568 345.71 419.837 345.197 418.359 344.253C418.111 345.095 417.332 345.71 416.411 345.71H384.401C382.568 345.71 380.837 345.197 379.359 344.253C379.111 345.095 378.332 345.71 377.411 345.71H345.401C342.361 345.71 339.601 344.3 337.811 341.85C336.021 339.39 335.531 336.33 336.461 333.44C339.521 323.95 347.141 316.11 356.841 312.47L359.361 311.53L357.381 309.71C353.861 306.47 351.841 301.88 351.841 297.11C351.841 287.68 359.521 280 368.961 280C375.991 280 382.221 284.22 384.851 290.74C384.851 290.74 385.401 292.15 385.541 292.66C385.601 292.86 385.721 293.28 385.781 293.5C386.081 294.6 386.121 296.81 386.081 297.88C386.071 298.04 386.031 298.5 386.031 298.5C385.681 302.83 383.701 306.83 380.471 309.77L378.501 311.56L380.981 312.53ZM438.431 341.65H455.411H470.431C472.151 341.65 473.721 340.85 474.741 339.46C475.751 338.07 476.031 336.33 475.511 334.69C473.572 328.659 469.635 323.543 464.549 319.949C464.228 319.909 463.921 319.79 463.651 319.6C458.735 316.169 452.953 314.35 446.921 314.34C440.889 314.35 435.107 316.169 430.191 319.6C429.921 319.79 429.614 319.909 429.292 319.949C424.207 323.543 420.269 328.659 418.331 334.69C417.811 336.33 418.091 338.07 419.101 339.46C420.121 340.85 421.691 341.65 423.411 341.65H438.431ZM407.871 314.34C413.617 314.34 419.137 315.981 423.9 319.093C419.543 322.989 416.235 327.937 414.461 333.44C413.556 336.252 413.996 339.225 415.669 341.65H384.411C382.691 341.65 381.121 340.85 380.101 339.46C379.091 338.07 378.811 336.33 379.331 334.69C383.181 322.71 394.921 314.34 407.871 314.34ZM376.669 341.65C374.996 339.225 374.556 336.252 375.461 333.44C377.235 327.937 380.543 322.989 384.9 319.093C380.137 315.981 374.617 314.34 368.871 314.34C355.921 314.34 344.181 322.71 340.331 334.69C339.811 336.33 340.091 338.07 341.101 339.46C342.121 340.85 343.691 341.65 345.411 341.65H376.669ZM355.911 297.12C355.911 304.32 361.761 310.17 368.961 310.17C376.161 310.17 382.031 304.32 382.031 297.12C382.031 289.92 376.171 284.06 368.971 284.06C361.771 284.06 355.911 289.92 355.911 297.12ZM394.911 297.12C394.911 304.32 400.761 310.17 407.961 310.17C415.161 310.17 421.031 304.32 421.031 297.12C421.031 289.92 415.171 284.06 407.971 284.06C400.771 284.06 394.911 289.92 394.911 297.12ZM446.921 310.17C439.739 310.148 433.911 304.307 433.911 297.12C433.911 289.937 439.744 284.087 446.921 284.06C454.098 284.087 459.931 289.937 459.931 297.12C459.931 304.307 454.102 310.148 446.921 310.17Z" fill="white"/>
</g>
<g clip-path="url(#clip1)">
<path d="M260.351 220.721C260.351 219.601 259.441 218.691 258.321 218.691H246.551V206.921C246.551 205.801 245.641 204.891 244.521 204.891C243.401 204.891 242.491 205.801 242.491 206.921V218.691H230.721C229.601 218.691 228.691 219.601 228.691 220.721C228.691 221.841 229.601 222.751 230.721 222.751H242.491V234.521C242.491 235.641 243.401 236.551 244.521 236.551C245.641 236.551 246.551 235.641 246.551 234.521V222.751H258.321C259.441 222.751 260.351 221.831 260.351 220.721Z" fill="white"/>
<path d="M219.081 210.43C219.521 210.74 220.061 210.86 220.601 210.76C221.131 210.67 221.601 210.37 221.911 209.92C222.221 209.48 222.341 208.94 222.241 208.4C222.151 207.87 221.851 207.4 221.401 207.09C219.221 205.57 216.871 204.31 214.411 203.36L211.931 202.39L213.901 200.6C217.131 197.66 219.111 193.66 219.461 189.33L219.511 188.71L219.951 188.28C225.451 182.93 232.711 179.98 240.401 179.98C246.441 179.98 252.231 181.8 257.161 185.24C257.601 185.55 258.141 185.67 258.681 185.57C259.211 185.47 259.681 185.18 259.991 184.73C260.301 184.28 260.421 183.75 260.321 183.21C260.231 182.68 259.931 182.21 259.481 181.9C257.301 180.38 254.951 179.13 252.481 178.17L250.001 177.22L251.971 175.43C255.541 172.19 257.581 167.57 257.581 162.77C257.581 153.33 249.901 145.65 240.461 145.65C231.021 145.65 223.361 153.33 223.361 162.77C223.361 167.55 225.391 172.15 228.931 175.39L230.901 177.19L228.411 178.15C227.921 178.34 227.431 178.54 226.951 178.75C224.771 179.71 222.701 180.9 220.781 182.3L219.071 183.54L218.281 181.58C215.651 175.05 209.421 170.83 202.391 170.83C192.951 170.83 185.271 178.51 185.271 187.94C185.271 192.71 187.291 197.3 190.811 200.54L192.791 202.36L190.271 203.3C180.571 206.94 172.951 214.78 169.891 224.27C168.961 227.16 169.451 230.22 171.241 232.68C173.031 235.13 175.791 236.54 178.831 236.54H210.841C211.961 236.54 212.871 235.63 212.871 234.51C212.871 233.39 211.961 232.48 210.841 232.48H178.841C177.121 232.48 175.551 231.68 174.531 230.29C173.521 228.9 173.241 227.16 173.761 225.52C177.611 213.54 189.351 205.17 202.301 205.17C208.351 205.17 214.151 206.99 219.081 210.43ZM227.421 162.77C227.421 155.57 233.281 149.71 240.481 149.71C247.681 149.71 253.541 155.57 253.541 162.77C253.541 169.97 247.681 175.83 240.481 175.83C233.281 175.83 227.421 169.96 227.421 162.77ZM189.341 187.95C189.341 180.75 195.201 174.89 202.401 174.89C209.601 174.89 215.461 180.75 215.461 187.95C215.461 195.15 209.591 201 202.391 201C195.191 201 189.341 195.15 189.341 187.95Z" fill="white"/>
</g>
<g filter="url(#filter1_d)">
<path d="M393.031 85.99C393.037 69.4254 406.467 56 423.031 56H536.99C553.562 56 566.996 69.4376 566.99 86.01L566.969 150.01C566.963 166.575 553.533 180 536.969 180H423.01C406.438 180 393.004 166.562 393.01 149.99L393.031 85.99Z" fill="url(#paint3_linear)"/>
</g>
<path d="M501 124C512 124 521 133 521 144C521 155 512 164 501 164C490 164 481 155 481 144C481 133 490 124 501 124Z" fill="white"/>
<path d="M500.999 149.166L492.832 144.333L500.999 130.666L509.165 144.166L500.999 149.166Z" fill="#FAA338"/>
<path d="M500.999 157.333L509.165 145.833L500.999 150.666L492.832 145.833L500.999 157.333Z" fill="#FAA338"/>
<path d="M511 79C518.15 79 524 84.85 524 92C524 99.15 518.15 105 511 105C503.85 105 498 99.15 498 92C498 84.85 503.85 79 511 79Z" fill="white"/>
<path d="M511 95.358L505.691 92.2163L511 83.333L516.308 92.108L511 95.358Z" fill="#FAA338"/>
<path d="M511 100.666L516.308 93.1914L511 96.3331L505.691 93.1914L511 100.666Z" fill="#FAA338"/>
<path d="M457 71C468 71 477 80 477 91C477 102 468 111 457 111C446 111 437 102 437 91C437 80 446 71 457 71Z" fill="white"/>
<path d="M466.167 88.4993C466.5 85.666 464.5 84.166 461.5 83.166L462.5 79.3327L460.167 78.8327L459.167 82.4993C458.5 82.3327 457.833 82.166 457.333 81.9993L458.333 78.166L456 77.666L455 81.4993C454.5 81.3327 450.333 80.3327 450.333 80.3327L449.833 82.8327L451.5 83.166C452.5 83.4993 452.667 83.9993 452.5 84.4993L450 94.9993C449.833 95.3327 449.667 95.666 449 95.4993L447.333 95.166L446 97.666C446 97.666 450.167 98.666 450.667 98.8327L449.667 102.666L452 103.333L453 99.4993C453.667 99.666 454.333 99.8327 454.833 99.9993L453.833 103.833L456.167 104.499L457.167 100.666C461.167 101.333 464.167 101.166 465.333 97.4993C466.333 94.666 465.333 92.9993 463.167 91.8327C464.667 91.666 465.833 90.666 466.167 88.4993ZM460.833 95.9993C460.167 98.8327 455.333 97.3327 453.667 96.9993L455 91.8327C456.667 92.166 461.667 92.9993 460.833 95.9993ZM461.667 88.4993C461 91.166 457 89.8327 455.667 89.4993L456.833 84.8327C458 85.166 462.333 85.666 461.667 88.4993Z" fill="#FAA338"/>
<path d="M448 130C455.15 130 461 135.85 461 143C461 150.15 455.15 156 448 156C440.85 156 435 150.15 435 143C435 135.85 440.85 130 448 130Z" fill="white"/>
<path d="M453.96 141.375C454.177 139.533 452.877 138.558 450.927 137.908L451.577 135.416L450.06 135.091L449.41 137.475C448.977 137.366 448.543 137.258 448.218 137.15L448.868 134.658L447.352 134.333L446.702 136.825C446.377 136.716 443.668 136.066 443.668 136.066L443.343 137.691L444.427 137.908C445.077 138.125 445.185 138.45 445.077 138.775L443.452 145.6C443.343 145.816 443.235 146.033 442.802 145.925L441.718 145.708L440.852 147.333C440.852 147.333 443.56 147.983 443.885 148.091L443.235 150.583L444.752 151.016L445.402 148.525C445.835 148.633 446.268 148.741 446.593 148.85L445.943 151.341L447.46 151.775L448.11 149.283C450.71 149.716 452.66 149.608 453.418 147.225C454.068 145.383 453.418 144.3 452.01 143.541C452.985 143.433 453.743 142.783 453.96 141.375ZM450.493 146.25C450.06 148.091 446.918 147.116 445.835 146.9L446.702 143.541C447.785 143.758 451.035 144.3 450.493 146.25ZM451.035 141.375C450.602 143.108 448.002 142.241 447.135 142.025L447.893 138.991C448.652 139.208 451.468 139.533 451.035 141.375Z" fill="#FAA338"/>
<g filter="url(#filter2_d)">
<path d="M60.0314 357.99C60.0369 341.425 73.4667 328 90.0314 328H203.99C220.562 328 233.996 341.438 233.99 358.01L233.969 422.01C233.963 438.575 220.533 452 203.969 452H90.01C73.4376 452 60.0045 438.562 60.01 421.99L60.0314 357.99Z" fill="url(#paint4_linear)"/>
</g>
<path d="M169 397C180 397 189 406 189 417C189 428 180 437 169 437C158 437 149 428 149 417C149 406 158 397 169 397Z" fill="white"/>
<path d="M168.999 422.166L160.832 417.333L168.999 403.666L177.165 417.166L168.999 422.166Z" fill="#FAA338"/>
<path d="M168.999 430.333L177.165 418.833L168.999 423.666L160.832 418.833L168.999 430.333Z" fill="#FAA338"/>
<path d="M179 352C186.15 352 192 357.85 192 365C192 372.15 186.15 378 179 378C171.85 378 166 372.15 166 365C166 357.85 171.85 352 179 352Z" fill="white"/>
<path d="M179 368.358L173.691 365.216L179 356.333L184.308 365.108L179 368.358Z" fill="#FAA338"/>
<path d="M179 373.666L184.308 366.191L179 369.333L173.691 366.191L179 373.666Z" fill="#FAA338"/>
<path d="M125 344C136 344 145 353 145 364C145 375 136 384 125 384C114 384 105 375 105 364C105 353 114 344 125 344Z" fill="white"/>
<path d="M134.167 361.499C134.5 358.666 132.5 357.166 129.5 356.166L130.5 352.333L128.167 351.833L127.167 355.499C126.5 355.333 125.833 355.166 125.333 354.999L126.333 351.166L124 350.666L123 354.499C122.5 354.333 118.333 353.333 118.333 353.333L117.833 355.833L119.5 356.166C120.5 356.499 120.667 356.999 120.5 357.499L118 367.999C117.833 368.333 117.667 368.666 117 368.499L115.333 368.166L114 370.666C114 370.666 118.167 371.666 118.667 371.833L117.667 375.666L120 376.333L121 372.499C121.667 372.666 122.333 372.833 122.833 372.999L121.833 376.833L124.167 377.499L125.167 373.666C129.167 374.333 132.167 374.166 133.333 370.499C134.333 367.666 133.333 365.999 131.167 364.833C132.667 364.666 133.833 363.666 134.167 361.499ZM128.833 368.999C128.167 371.833 123.333 370.333 121.667 369.999L123 364.833C124.667 365.166 129.667 365.999 128.833 368.999ZM129.667 361.499C129 364.166 125 362.833 123.667 362.499L124.833 357.833C126 358.166 130.333 358.666 129.667 361.499Z" fill="#FAA338"/>
<path d="M116 403C123.15 403 129 408.85 129 416C129 423.15 123.15 429 116 429C108.85 429 103 423.15 103 416C103 408.85 108.85 403 116 403Z" fill="white"/>
<path d="M121.96 414.375C122.177 412.533 120.877 411.558 118.927 410.908L119.577 408.416L118.06 408.091L117.41 410.475C116.977 410.366 116.543 410.258 116.218 410.15L116.868 407.658L115.352 407.333L114.702 409.825C114.377 409.716 111.668 409.066 111.668 409.066L111.343 410.691L112.427 410.908C113.077 411.125 113.185 411.45 113.077 411.775L111.452 418.6C111.343 418.816 111.235 419.033 110.802 418.925L109.718 418.708L108.852 420.333C108.852 420.333 111.56 420.983 111.885 421.091L111.235 423.583L112.752 424.016L113.402 421.525C113.835 421.633 114.268 421.741 114.593 421.85L113.943 424.341L115.46 424.775L116.11 422.283C118.71 422.716 120.66 422.608 121.418 420.225C122.068 418.383 121.418 417.3 120.01 416.541C120.985 416.433 121.743 415.783 121.96 414.375ZM118.493 419.25C118.06 421.091 114.918 420.116 113.835 419.9L114.702 416.541C115.785 416.758 119.035 417.3 118.493 419.25ZM119.035 414.375C118.602 416.108 116.002 415.241 115.135 415.025L115.893 411.991C116.652 412.208 119.468 412.533 119.035 414.375Z" fill="#FAA338"/>
<defs>
<filter id="filter0_d" x="13.1016" y="35" width="600.9" height="446" filterUnits="userSpaceOnUse" color-interpolation-filters="sRGB">
<feFlood flood-opacity="0" result="BackgroundImageFix"/>
<feColorMatrix in="SourceAlpha" type="matrix" values="0 0 0 0 0 0 0 0 0 0 0 0 0 0 0 0 0 0 127 0"/>
<feOffset dy="4"/>
<feGaussianBlur stdDeviation="30"/>
<feColorMatrix type="matrix" values="0 0 0 0 0.980392 0 0 0 0 0.639216 0 0 0 0 0.219608 0 0 0 0.3 0"/>
<feBlend mode="normal" in2="BackgroundImageFix" result="effect1_dropShadow"/>
<feBlend mode="normal" in="SourceGraphic" in2="effect1_dropShadow" result="shape"/>
</filter>
<filter id="filter1_d" x="333.012" y="0" width="293.98" height="244" filterUnits="userSpaceOnUse" color-interpolation-filters="sRGB">
<feFlood flood-opacity="0" result="BackgroundImageFix"/>
<feColorMatrix in="SourceAlpha" type="matrix" values="0 0 0 0 0 0 0 0 0 0 0 0 0 0 0 0 0 0 127 0"/>
<feOffset dy="4"/>
<feGaussianBlur stdDeviation="30"/>
<feColorMatrix type="matrix" values="0 0 0 0 0.980392 0 0 0 0 0.639216 0 0 0 0 0.219608 0 0 0 0.3 0"/>
<feBlend mode="normal" in2="BackgroundImageFix" result="effect1_dropShadow"/>
<feBlend mode="normal" in="SourceGraphic" in2="effect1_dropShadow" result="shape"/>
</filter>
<filter id="filter2_d" x="0.0117188" y="272" width="293.98" height="244" filterUnits="userSpaceOnUse" color-interpolation-filters="sRGB">
<feFlood flood-opacity="0" result="BackgroundImageFix"/>
<feColorMatrix in="SourceAlpha" type="matrix" values="0 0 0 0 0 0 0 0 0 0 0 0 0 0 0 0 0 0 127 0"/>
<feOffset dy="4"/>
<feGaussianBlur stdDeviation="30"/>
<feColorMatrix type="matrix" values="0 0 0 0 0.980392 0 0 0 0 0.639216 0 0 0 0 0.219608 0 0 0 0.3 0"/>
<feBlend mode="normal" in2="BackgroundImageFix" result="effect1_dropShadow"/>
<feBlend mode="normal" in="SourceGraphic" in2="effect1_dropShadow" result="shape"/>
</filter>
<linearGradient id="paint0_linear" x1="73.0094" y1="254" x2="553.99" y2="254" gradientUnits="userSpaceOnUse">
<stop stop-color="#FFD364"/>
<stop offset="1" stop-color="#FAA136"/>
</linearGradient>
<linearGradient id="paint1_linear" x1="207" y1="381" x2="416" y2="220" gradientUnits="userSpaceOnUse">
<stop stop-color="#FFD364"/>
<stop offset="1" stop-color="#FAA136"/>
</linearGradient>
<linearGradient id="paint2_linear" x1="58" y1="212" x2="359" y2="321" gradientUnits="userSpaceOnUse">
<stop stop-color="#FECB5D"/>
<stop offset="1" stop-color="#F7AA42"/>
</linearGradient>
<linearGradient id="paint3_linear" x1="393" y1="117.999" x2="567" y2="117.999" gradientUnits="userSpaceOnUse">
<stop stop-color="#FFD364"/>
<stop offset="1" stop-color="#FAA136"/>
</linearGradient>
<linearGradient id="paint4_linear" x1="60" y1="389.999" x2="234" y2="389.999" gradientUnits="userSpaceOnUse">
<stop stop-color="#FFD364"/>
<stop offset="1" stop-color="#FAA136"/>
</linearGradient>
<clipPath id="clip0">
<rect x="336" y="280" width="143.842" height="65.71" fill="white"/>
</clipPath>
<clipPath id="clip1">
<rect x="169.43" y="145.65" width="90.9256" height="90.9" fill="white"/>
</clipPath>
</defs>
</svg>
