<svg width="18" height="18" viewBox="0 0 18 18" fill="none" xmlns="http://www.w3.org/2000/svg">
<path d="M9 0C4.0372 0 0 4.0372 0 9C0 13.9628 4.0372 18 9 18C13.9628 18 18 13.9628 18 9C18 4.0372 13.9628 0 9 0ZM9 14.25C8.58595 14.25 8.25005 13.914 8.25005 13.5C8.25005 13.086 8.58595 12.75 9 12.75C9.41405 12.75 9.74995 13.086 9.74995 13.5C9.74995 13.914 9.41405 14.25 9 14.25ZM9.74995 10.5C9.74995 10.914 9.41405 11.25 9 11.25C8.58595 11.25 8.25005 10.914 8.25005 10.5V4.5C8.25005 4.08595 8.58595 3.75005 9 3.75005C9.41405 3.75005 9.74995 4.08595 9.74995 4.5V10.5Z" fill="#E68D21"/>
</svg>
