<svg width="88" height="84" viewBox="0 0 88 84" fill="none" xmlns="http://www.w3.org/2000/svg">
<path d="M43.941 75.4261C63.0761 75.4261 78.5881 60.3323 78.5881 41.7131C78.5881 23.0938 63.0761 8 43.941 8C24.806 8 9.29395 23.0938 9.29395 41.7131C9.29395 60.3323 24.806 75.4261 43.941 75.4261Z" fill="#FAA136"/>
<g clip-path="url(#clip0)">
<path d="M56.125 40.375V38.5H58C60.4375 38.5 62.375 36.5625 62.375 34.125V33.5H59.25C58 33.5 56.9375 34 56.125 34.8125V32.875H54.875V37.3125C54.0625 36.5 53 36 51.75 36H48.625V36.625C48.625 39.0625 50.5625 41 53 41H54.875V44.8125C54.0625 44 53 43.5 51.75 43.5H48.625V44.125C48.625 46.5625 50.5625 48.5 53 48.5H54.875V52.875H46.3125L43.8125 59.125H42.375V60.375H62.375V59.125H60.9375L58.4375 52.875H56.125V48.5V47.875V46H58C60.4375 46 62.375 44.0625 62.375 41.625V41H59.25C58 41 56.9375 41.5 56.125 42.3125V41V40.375ZM59.25 34.75H61.0625C60.75 36.1875 59.5 37.25 58 37.25H56.1875C56.5 35.8125 57.75 34.75 59.25 34.75ZM53 39.75C51.5 39.75 50.25 38.6875 49.9375 37.25H51.75C53.25 37.25 54.5 38.3125 54.8125 39.75H53ZM53 47.25C51.5 47.25 50.25 46.1875 49.9375 44.75H51.75C53.25 44.75 54.5 45.8125 54.8125 47.25H53ZM59.5625 59.125H45.1875L47.1875 54.125H57.5625L59.5625 59.125ZM59.25 42.25H61.0625C60.75 43.6875 59.5 44.75 58 44.75H56.1875C56.5 43.3125 57.75 42.25 59.25 42.25Z" fill="white" fill-opacity="0.8819"/>
<path d="M56.75 29.125H54.25C53.875 29.125 53.625 28.875 53.625 28.5H52.375C52.375 29.5625 53.1875 30.375 54.25 30.375H54.875V31.625H56.125V30.375H56.75C57.8125 30.375 58.625 29.5625 58.625 28.5V27.875C58.625 26.8125 57.8125 26 56.75 26H54.25C53.875 26 53.625 25.75 53.625 25.375V24.75C53.625 24.375 53.875 24.125 54.25 24.125H56.75C57.125 24.125 57.375 24.375 57.375 24.75H58.625C58.625 23.6875 57.8125 22.875 56.75 22.875H56.125V21.625H54.875V22.875H54.25C53.1875 22.875 52.375 23.6875 52.375 24.75V25.375C52.375 26.4375 53.1875 27.25 54.25 27.25H56.75C57.125 27.25 57.375 27.5 57.375 27.875V28.5C57.375 28.875 57.125 29.125 56.75 29.125Z" fill="white" fill-opacity="0.8819"/>
<path d="M34.25 42.875C38.9375 42.875 43.0625 39.8125 44.375 35.375H46.125V34.125H38.625V35.375H43.0625C41.8125 38.875 38.5625 41.375 34.875 41.625V22.875C38.625 23.125 41.875 25.5625 43.0625 29.125H38.625V30.375H46.125V29.125H44.375C43.0625 24.6875 38.9375 21.625 34.25 21.625C28.375 21.625 23.625 26.375 23.625 32.25C23.625 38.125 28.375 42.875 34.25 42.875ZM24.9375 32.875H33.625V41.5625C28.9375 41.3125 25.1875 37.5625 24.9375 32.875ZM33.625 22.9375V31.625H24.9375C25.1875 26.9375 28.9375 23.1875 33.625 22.9375Z" fill="white" fill-opacity="0.8819"/>
<path d="M49.25 55.375H48V56.625H49.25V55.375Z" fill="white" fill-opacity="0.8819"/>
<path d="M51.75 56.625H50.5V57.875H51.75V56.625Z" fill="white" fill-opacity="0.8819"/>
<path d="M54.25 55.375H53V56.625H54.25V55.375Z" fill="white" fill-opacity="0.8819"/>
<path d="M56.75 56.625H55.5V57.875H56.75V56.625Z" fill="white" fill-opacity="0.8819"/>
<path d="M46.125 31.625H38.625V32.875H46.125V31.625Z" fill="white" fill-opacity="0.8819"/>
<path d="M37.375 31.625H36.125V32.875H37.375V31.625Z" fill="white" fill-opacity="0.8819"/>
<path d="M37.375 34.125H36.125V35.375H37.375V34.125Z" fill="white" fill-opacity="0.8819"/>
<path d="M37.375 29.125H36.125V30.375H37.375V29.125Z" fill="white" fill-opacity="0.8819"/>
<path d="M42 51.8125L44.75 48.375C45 48.5 45.25 48.5 45.5 48.5C46.5625 48.5 47.375 47.6875 47.375 46.625C47.375 45.5625 46.5625 44.75 45.5 44.75C44.4375 44.75 43.625 45.5625 43.625 46.625C43.625 46.9375 43.6875 47.25 43.875 47.5L41 51.0625C40.8125 51 40.6875 51 40.5 51C40.3125 51 40.0625 51.0625 39.875 51.125L37.0625 47.625C37.25 47.3125 37.375 47 37.375 46.625C37.375 45.5625 36.5625 44.75 35.5 44.75C34.4375 44.75 33.625 45.5625 33.625 46.625C33.625 47 33.75 47.3125 33.9375 47.625L31.125 51.125C30.9375 51.0625 30.75 51 30.5 51C30.25 51 30.0625 51.0625 29.875 51.125L27.0625 47.625C27.25 47.3125 27.375 47 27.375 46.625C27.375 45.5625 26.5625 44.75 25.5 44.75C24.4375 44.75 23.625 45.5625 23.625 46.625C23.625 47.6875 24.4375 48.5 25.5 48.5C25.6875 48.5 25.9375 48.4375 26.125 48.375L28.9375 51.875C28.75 52.1875 28.625 52.5 28.625 52.875C28.625 53.9375 29.4375 54.75 30.5 54.75C31.5625 54.75 32.375 53.9375 32.375 52.875C32.375 52.5 32.25 52.1875 32.0625 51.875L34.875 48.375C35.0625 48.4375 35.25 48.5 35.5 48.5C35.75 48.5 35.9375 48.4375 36.125 48.375L38.9375 51.875C38.75 52.1875 38.625 52.5 38.625 52.875C38.625 53.9375 39.4375 54.75 40.5 54.75C41.5625 54.75 42.375 53.9375 42.375 52.875C42.375 52.4375 42.25 52.0625 42 51.8125ZM45.5 46C45.875 46 46.125 46.25 46.125 46.625C46.125 47 45.875 47.25 45.5 47.25C45.125 47.25 44.875 47 44.875 46.625C44.875 46.25 45.125 46 45.5 46ZM24.875 46.625C24.875 46.25 25.125 46 25.5 46C25.875 46 26.125 46.25 26.125 46.625C26.125 47 25.875 47.25 25.5 47.25C25.125 47.25 24.875 47 24.875 46.625ZM30.5 53.5C30.125 53.5 29.875 53.25 29.875 52.875C29.875 52.5 30.125 52.25 30.5 52.25C30.875 52.25 31.125 52.5 31.125 52.875C31.125 53.25 30.875 53.5 30.5 53.5ZM34.875 46.625C34.875 46.25 35.125 46 35.5 46C35.875 46 36.125 46.25 36.125 46.625C36.125 47 35.875 47.25 35.5 47.25C35.125 47.25 34.875 47 34.875 46.625ZM40.5 53.5C40.125 53.5 39.875 53.25 39.875 52.875C39.875 52.5 40.125 52.25 40.5 52.25C40.875 52.25 41.125 52.5 41.125 52.875C41.125 53.25 40.875 53.5 40.5 53.5Z" fill="white" fill-opacity="0.8819"/>
<path d="M41.125 59.125H39.875V60.375H41.125V59.125Z" fill="white" fill-opacity="0.8819"/>
<path d="M38.625 59.125H37.375V60.375H38.625V59.125Z" fill="white" fill-opacity="0.8819"/>
<path d="M36.125 59.125H34.875V60.375H36.125V59.125Z" fill="white" fill-opacity="0.8819"/>
</g>
<path d="M86.6078 41.7764C86.6078 64.557 67.5033 83.0529 43.9008 83.0529C20.2984 83.0529 1.19385 64.557 1.19385 41.7764C1.19385 18.9958 20.2984 0.5 43.9008 0.5C67.5033 0.5 86.6078 18.9958 86.6078 41.7764Z" stroke="#FAA136"/>
<defs>
<clipPath id="clip0">
<rect width="40" height="39.375" fill="white" transform="translate(23 21)"/>
</clipPath>
</defs>
</svg>
