<svg width="87" height="84" viewBox="0 0 87 84" fill="none" xmlns="http://www.w3.org/2000/svg">
<path d="M43.3574 75.4261C62.4925 75.4261 78.0046 60.3323 78.0046 41.7131C78.0046 23.0938 62.4925 8 43.3574 8C24.2223 8 8.71021 23.0938 8.71021 41.7131C8.71021 60.3323 24.2223 75.4261 43.3574 75.4261Z" fill="#FAA136"/>
<path d="M63.3333 46H59.4667L55.8667 44.8L54.6667 41.8667V39.6667C54.6667 38.1333 53.5333 36.8667 52 36.6667C52 36.6 52 36.4667 52 36.4V26.6667C52 26.4 51.8 26.1333 51.5333 26L38.2 22C38.0667 22 37.9333 22 37.8 22L24.4667 26C24.2 26.1333 24 26.4 24 26.6667V36.4C24 36.7333 24 37 24 37.3333C24 37.8 24.0667 38.2 24.0667 38.6667C24.0667 38.7333 24.0667 38.8 24.0667 38.8667C24.8667 47.3333 30 54.8 37.6 58.5333C37.8 58.6 38 58.6 38.2 58.5333C39.2 58 40.1333 57.4667 41.0667 56.8667C41.2667 57.1333 41.5333 57.4 41.8667 57.6C40.9333 58.7333 41.0667 60.4 42.2 61.3333C42.6667 61.7333 43.2667 61.9333 43.9333 61.9333H55.2667C55.4 61.9333 55.5333 61.8667 55.6667 61.8L59.4667 59.2667H63.3333C63.7333 59.2667 64 59 64 58.6V46.6667C64 46.2667 63.7333 46 63.3333 46ZM48.9333 42.7333L49.7333 44.6667H45.8667C47.2667 42.1333 48.0667 39.2667 48.0667 36.3333L50.7333 35.5333V36.4C50.7333 36.5333 50.7333 36.6667 50.7333 36.8C49.5333 37.2 48.7333 38.3333 48.7333 39.6V41.4C48.6667 41.9333 48.7333 42.3333 48.9333 42.7333ZM39.3333 47.3333C39.3333 48 39.6 48.6667 40.0667 49.1333C39.8 49.3333 39.6 49.4667 39.3333 49.6667L38 50.5333L36.6667 49.6667C33.7333 47.8 31.4667 44.9333 30.2667 41.6667L46.6667 36.8C46.6 39.6 45.7333 42.3333 44.2667 44.6667H42C40.5333 44.6667 39.3333 45.8667 39.3333 47.3333ZM25.6667 40.4667V40.4L28.3333 39.6C28.4 40 28.5333 40.4 28.6 40.8L25.9333 41.6C25.8667 41.2 25.7333 40.8667 25.6667 40.4667ZM25.4 37.8L28.0667 37C28.0667 37.4 28.1333 37.8667 28.1333 38.2667L25.5333 39.0667C25.5333 39 25.5333 38.9333 25.5333 38.8667C25.4667 38.5333 25.4 38.2 25.4 37.8ZM46.6667 30.0667L29.3333 35.2667V30.4667L38 27.3333L46.6667 29.8V30.0667ZM46.6667 31.4V32.6667L29.4 37.8667C29.4 37.4667 29.3333 37.0667 29.3333 36.6L46.6667 31.4ZM50.6667 32.8667V34.1333L48 34.9333V33.6667L50.6667 32.8667ZM50.6667 31.5333L48 32.3333V31.0667L50.6667 30.2667V31.5333ZM29.6 39.2L40.4667 35.9333L46.6667 34.0667V35.3333L29.8667 40.4C29.8 40 29.6667 39.6 29.6 39.2ZM25.3333 27.1333L38 23.3333L50.6667 27.1333V28.8L48 29.6V29.3333C48 29.0667 47.8 28.8 47.5333 28.6667L38.2 26C38.0667 25.9333 37.9333 25.9333 37.8 26L28.4667 29.3333C28.2 29.4667 28 29.7333 28 30V35.6667L25.3333 36.4667V27.1333ZM38 57.2667C32.2667 54.3333 28 49.1333 26.2 42.8667L29 42C30.2667 45.6 32.7333 48.6667 35.9333 50.7333L37.6 51.8C37.8 51.9333 38.1333 51.9333 38.3333 51.8L40 50.7333C39.7333 51.8667 40.2667 53 41.2667 53.5333C40.8667 54.0667 40.6667 54.7333 40.6667 55.3333C40.6667 55.4 40.6667 55.5333 40.6667 55.6C39.8 56.2 38.9333 56.7333 38 57.2667ZM55.1333 60.6667H44C43.2667 60.6667 42.6667 60.0667 42.6667 59.3333C42.6667 58.6667 43.2 58.0667 43.8667 58C44.2 57.9333 44.4667 57.6667 44.4667 57.2667C44.4667 56.9333 44.1333 56.6 43.8 56.6H43.3333C42.6 56.6 42 56 42 55.2667C42 54.5333 42.6 53.9333 43.3333 53.9333C43.7333 53.9333 44 53.6667 44 53.2667C44 52.8667 43.7333 52.6 43.3333 52.6H42.6667C41.9333 52.6 41.3333 52 41.3333 51.2667C41.3333 50.5333 41.9333 49.9333 42.6667 49.9333C43.0667 49.9333 43.3333 49.6667 43.3333 49.2667C43.3333 48.8667 43.0667 48.6 42.6667 48.6H42C41.2667 48.6 40.6667 48 40.6667 47.2667C40.6667 46.5333 41.2667 45.9333 42 45.9333H50.6667C51.0667 45.9333 51.3333 45.6667 51.3333 45.2667C51.3333 45.2 51.3333 45.0667 51.2667 45L50.1333 42.1333C50.0667 42 50 41.7333 50 41.4667V39.6667C50 38.7333 50.7333 38 51.6667 38C52.6 38 53.3333 38.7333 53.3333 39.6667V42C53.3333 42.0667 53.3333 42.2 53.4 42.2667L54.7333 45.6C54.8 45.8 54.9333 45.9333 55.1333 46L58.6667 47.2V58.3333L55.1333 60.6667ZM62.6667 58H60V47.3333H62.6667V58Z" fill="white" fill-opacity="0.8819"/>
<path d="M59.0667 30.5333L58.1333 31.5333C58.4667 31.8 58.7333 32.1333 59 32.4667L60 31.6C59.7333 31.2 59.4 30.8667 59.0667 30.5333Z" fill="white" fill-opacity="0.8819"/>
<path d="M62.6667 38.8C62.6667 38.5333 62.6667 38.2667 62.6667 38L61.3333 38.0667C61.3333 38.2667 61.3333 38.5333 61.3333 38.7333C61.3333 38.9333 61.3333 39.1333 61.3333 39.2667L62.6667 39.3333C62.6667 39.2667 62.6667 39.0667 62.6667 38.8Z" fill="white" fill-opacity="0.8819"/>
<path d="M58 29.6667C57.6 29.4 57.2 29.1333 56.8 28.9333L56.1333 30.1334C56.4667 30.3334 56.8667 30.5334 57.2 30.8L58 29.6667Z" fill="white" fill-opacity="0.8819"/>
<path d="M62.4667 40.8666L61.1333 40.6C61.0667 41 60.9333 41.4 60.8 41.8L62.0667 42.2C62.2667 41.8 62.4 41.3333 62.4667 40.8666Z" fill="white" fill-opacity="0.8819"/>
<path d="M55.5333 28.2667C55.0667 28.0667 54.6667 27.9334 54.2 27.8L53.8667 29.0667C54.2667 29.2 54.6667 29.2667 55.0667 29.4667L55.5333 28.2667Z" fill="white" fill-opacity="0.8819"/>
<path d="M60.0667 43.6667L61.2667 44.3333C61.4 44.0667 61.5333 43.8667 61.6667 43.6L60.4667 43.0667C60.3333 43.2667 60.2 43.4667 60.0667 43.6667Z" fill="white" fill-opacity="0.8819"/>
<path d="M59.7333 33.4666C59.9333 33.8 60.1333 34.2 60.3333 34.5333L61.5333 33.9333C61.3333 33.5333 61.1333 33.0666 60.8667 32.6666L59.7333 33.4666Z" fill="white" fill-opacity="0.8819"/>
<path d="M60.8667 35.6666C61 36.0666 61.1333 36.4666 61.2 36.8666L62.5333 36.6C62.4667 36.1333 62.3333 35.6666 62.2 35.2L60.8667 35.6666Z" fill="white" fill-opacity="0.8819"/>
<path d="M54 34.7334C55.6 35.4 56.6667 36.9334 56.6667 38.6667H58C58 36.4 56.6 34.3334 54.4667 33.4667L54.2 33.4L53.7333 34.6667L54 34.7334Z" fill="white" fill-opacity="0.8819"/>
<path d="M86.0243 41.7764C86.0243 64.557 66.9197 83.0529 43.3172 83.0529C19.7147 83.0529 0.610168 64.557 0.610168 41.7764C0.610168 18.9958 19.7147 0.5 43.3172 0.5C66.9197 0.5 86.0243 18.9958 86.0243 41.7764Z" stroke="#FAA136"/>
</svg>
