<svg width="88" height="84" viewBox="0 0 88 84" fill="none" xmlns="http://www.w3.org/2000/svg">
<path d="M44.1492 75.4261C63.2843 75.4261 78.7964 60.3323 78.7964 41.7131C78.7964 23.0938 63.2843 8 44.1492 8C25.0141 8 9.50201 23.0938 9.50201 41.7131C9.50201 60.3323 25.0141 75.4261 44.1492 75.4261Z" fill="#FAA136"/>
<g clip-path="url(#clip0)">
<path d="M29.0789 59.223H29.6053L28.9474 60.7362C28.75 61.2625 29.2105 61.7888 29.7368 61.5914L31.4474 60.9993L32.4342 62.7099C32.6974 63.1704 33.4211 63.1046 33.6184 62.6441L35 59.1572H37.3684L38.75 62.6441C38.9474 63.1704 39.6711 63.1704 39.9342 62.7099L40.9211 60.9993L42.6316 61.5914C43.1579 61.7888 43.6842 61.2625 43.4211 60.7362L42.7632 59.223H50.7895C53.0921 59.223 54.9342 57.3809 54.9342 55.0783C54.8684 26.9862 55.0658 28.4335 54.7368 28.1046C48.4868 20.7362 48.8158 20.9993 48.4211 20.9993H29.0789C26.8421 20.9993 25 22.8414 25 25.1441V55.1441C25 57.3809 26.8421 59.223 29.0789 59.223ZM33.0263 60.9993L32.4342 60.0125C32.3026 59.7493 31.9737 59.6178 31.6447 59.7493L30.7895 60.0125L33.0921 54.4204C33.8158 54.7493 34.6053 55.0125 35.4605 55.0783C35.3289 55.3414 32.8947 61.1309 33.0263 60.9993ZM36.3158 53.7625C32.8289 53.7625 29.9342 50.9335 29.9342 47.3809C29.9342 43.8283 32.7632 40.9993 36.3158 40.9993C39.8684 40.9993 42.6974 43.8283 42.6974 47.3809C42.6974 50.9335 39.8026 53.7625 36.3158 53.7625ZM35.6579 57.9072L36.3158 56.2625L36.9737 57.9072H35.6579ZM40.9868 59.6835C40.7237 59.6178 40.3947 59.6835 40.1974 59.9467L39.6053 60.9335C39.4079 60.5388 37.0395 54.6835 37.1711 55.0125C38.0263 54.8809 38.8158 54.6835 39.5395 54.3546L41.8421 59.9467L40.9868 59.6835ZM49.0789 23.3678L53.0921 27.9072H49.0789V23.3678ZM26.3158 25.1441C26.3158 23.5651 27.5658 22.3151 29.0789 22.3151H47.6974V28.5651C47.6974 28.9599 47.9605 29.223 48.3553 29.223H53.8158V55.0783C53.8158 56.6572 52.5658 57.9072 50.9868 57.9072H42.4342L40.7237 53.6967C42.6974 52.3151 43.9474 50.0125 43.9474 47.4467C43.9474 43.2362 40.5263 39.7493 36.25 39.7493C31.9737 39.7493 28.6184 43.2362 28.6184 47.4467C28.6184 50.0125 29.9342 52.3151 31.8421 53.6967L30.1316 57.9072H29.0789C27.5 57.9072 26.25 56.6572 26.25 55.0783L26.3158 25.1441Z" fill="white" fill-opacity="0.8819"/>
<path d="M36.3158 43.0394C33.8816 43.0394 31.9079 45.0131 31.9079 47.4473C31.9079 49.8815 33.8816 51.8552 36.3158 51.8552C38.75 51.8552 40.7237 49.8815 40.7237 47.4473C40.7237 45.0131 38.75 43.0394 36.3158 43.0394ZM36.3158 50.4736C34.6053 50.4736 33.2237 49.0921 33.2237 47.3815C33.2237 45.671 34.6053 44.2894 36.3158 44.2894C38.0263 44.2894 39.4079 45.671 39.4079 47.3815C39.4079 49.1578 38.0263 50.4736 36.3158 50.4736Z" fill="white" fill-opacity="0.8819"/>
<path d="M29.2763 28.1052H44.7368C45.1316 28.1052 45.3947 27.8421 45.3947 27.4473C45.3947 27.0526 45.1316 26.7894 44.7368 26.7894H29.2763C28.8816 26.7894 28.6184 27.0526 28.6184 27.4473C28.6184 27.8421 28.9474 28.1052 29.2763 28.1052Z" fill="white" fill-opacity="0.8819"/>
<path d="M29.2763 32.9078H52.2368C52.6316 32.9078 52.8947 32.6447 52.8947 32.2499C52.8947 31.8552 52.6316 31.592 52.2368 31.592H29.2763C28.8816 31.592 28.6184 31.8552 28.6184 32.2499C28.6184 32.5789 28.9474 32.9078 29.2763 32.9078Z" fill="white" fill-opacity="0.8819"/>
<path d="M29.2763 37.6446H52.2368C52.6316 37.6446 52.8947 37.3815 52.8947 36.9868C52.8947 36.592 52.6316 36.3289 52.2368 36.3289H29.2763C28.8816 36.3289 28.6184 36.592 28.6184 36.9868C28.6184 37.3815 28.9474 37.6446 29.2763 37.6446Z" fill="white" fill-opacity="0.8819"/>
<path d="M51.1842 50.4737L49.6711 52.6447C49.4737 52.9079 49.0789 52.9079 48.9474 52.6447C48.2237 51.4605 46.5132 51.5263 45.8553 52.7105L45.1316 54.1579C44.9342 54.4868 45.0658 54.8816 45.3947 55.0131C45.7237 55.1447 46.1184 55.0789 46.25 54.75L46.9737 53.3026C47.1053 52.9737 47.5658 52.9737 47.7632 53.3026C48.4211 54.421 50 54.4868 50.7237 53.3684L52.2368 51.1974C52.4342 50.8684 52.3684 50.4737 52.0395 50.2763C51.7763 50.0789 51.3816 50.1447 51.1842 50.4737Z" fill="white" fill-opacity="0.8819"/>
<path d="M61.1184 60.671C61.3816 60.9999 61.8421 60.9999 62.1053 60.671C64.7368 57.3815 65 57.3815 65 56.9868V28.5657C65 26.7236 63.4868 25.2104 61.6447 25.2104C59.8026 25.2104 58.2895 26.7236 58.2895 28.5657C58.3553 58.6973 58.1579 56.9868 58.4211 57.3815L61.1184 60.671ZM63.6842 31.6578V53.7631H62.3026V31.6578H63.6842ZM60.9868 53.7631H59.6053V31.6578H60.9868V53.7631ZM61.6447 59.2236L59.6053 56.7236V55.1447H63.75V56.7236L61.6447 59.2236ZM61.6447 26.5262C62.7632 26.5262 63.6842 27.4473 63.6842 28.5657V30.342H59.5395V28.5657C59.6053 27.4473 60.5263 26.5262 61.6447 26.5262Z" fill="white" fill-opacity="0.8819"/>
</g>
<path d="M86.816 41.7764C86.816 64.557 67.7115 83.0529 44.109 83.0529C20.5065 83.0529 1.40198 64.557 1.40198 41.7764C1.40198 18.9958 20.5065 0.5 44.109 0.5C67.7115 0.5 86.816 18.9958 86.816 41.7764Z" stroke="#FAA136"/>
<defs>
<clipPath id="clip0">
<rect width="40" height="42.0395" fill="white" transform="translate(25 21)"/>
</clipPath>
</defs>
</svg>
