<svg width="23" height="16" viewBox="0 0 23 16" fill="none" xmlns="http://www.w3.org/2000/svg">
<rect width="22.4" height="16" rx="2" fill="white"/>
<mask id="mask0" mask-type="alpha" maskUnits="userSpaceOnUse" x="0" y="0" width="23" height="16">
<rect width="22.4" height="16" rx="2" fill="white"/>
</mask>
<g mask="url(#mask0)">
<path fill-rule="evenodd" clip-rule="evenodd" d="M22.4 0H0V1.06667H22.4V0ZM22.4 2.13327H0V3.19993H22.4V2.13327ZM0 4.26673H22.4V5.3334H0V4.26673ZM22.4 6.4H0V7.46667H22.4V6.4ZM0 8.53327H22.4V9.59993H0V8.53327ZM22.4 10.6667H0V11.7334H22.4V10.6667ZM0 12.8H22.4V13.8667H0V12.8ZM22.4 14.9333H0V15.9999H22.4V14.9333Z" fill="#D02F44"/>
<rect width="9.6" height="7.46667" fill="#46467F"/>
<g filter="url(#filter0_d)">
<path fill-rule="evenodd" clip-rule="evenodd" d="M2.13307 1.59974C2.13307 1.89429 1.89429 2.13307 1.59974 2.13307C1.30519 2.13307 1.06641 1.89429 1.06641 1.59974C1.06641 1.30519 1.30519 1.06641 1.59974 1.06641C1.89429 1.06641 2.13307 1.30519 2.13307 1.59974ZM4.26615 1.59974C4.26615 1.89429 4.02736 2.13307 3.73281 2.13307C3.43826 2.13307 3.19948 1.89429 3.19948 1.59974C3.19948 1.30519 3.43826 1.06641 3.73281 1.06641C4.02736 1.06641 4.26615 1.30519 4.26615 1.59974ZM5.86537 2.13307C6.15992 2.13307 6.3987 1.89429 6.3987 1.59974C6.3987 1.30519 6.15992 1.06641 5.86537 1.06641C5.57081 1.06641 5.33203 1.30519 5.33203 1.59974C5.33203 1.89429 5.57081 2.13307 5.86537 2.13307ZM8.53151 1.59974C8.53151 1.89429 8.29273 2.13307 7.99818 2.13307C7.70363 2.13307 7.46484 1.89429 7.46484 1.59974C7.46484 1.30519 7.70363 1.06641 7.99818 1.06641C8.29273 1.06641 8.53151 1.30519 8.53151 1.59974ZM2.66667 3.1998C2.96122 3.1998 3.2 2.96102 3.2 2.66647C3.2 2.37192 2.96122 2.13314 2.66667 2.13314C2.37211 2.13314 2.13333 2.37192 2.13333 2.66647C2.13333 2.96102 2.37211 3.1998 2.66667 3.1998ZM5.33307 2.66647C5.33307 2.96102 5.09429 3.1998 4.79974 3.1998C4.50519 3.1998 4.26641 2.96102 4.26641 2.66647C4.26641 2.37192 4.50519 2.13314 4.79974 2.13314C5.09429 2.13314 5.33307 2.37192 5.33307 2.66647ZM6.93177 3.19948C7.22632 3.19948 7.4651 2.9607 7.4651 2.66615C7.4651 2.37159 7.22632 2.13281 6.93177 2.13281C6.63722 2.13281 6.39844 2.37159 6.39844 2.66615C6.39844 2.9607 6.63722 3.19948 6.93177 3.19948ZM8.53151 3.73255C8.53151 4.0271 8.29273 4.26589 7.99818 4.26589C7.70363 4.26589 7.46484 4.0271 7.46484 3.73255C7.46484 3.438 7.70363 3.19922 7.99818 3.19922C8.29273 3.19922 8.53151 3.438 8.53151 3.73255ZM5.86537 4.26589C6.15992 4.26589 6.3987 4.0271 6.3987 3.73255C6.3987 3.438 6.15992 3.19922 5.86537 3.19922C5.57081 3.19922 5.33203 3.438 5.33203 3.73255C5.33203 4.0271 5.57081 4.26589 5.86537 4.26589ZM4.26615 3.73301C4.26615 4.02756 4.02736 4.26634 3.73281 4.26634C3.43826 4.26634 3.19948 4.02756 3.19948 3.73301C3.19948 3.43846 3.43826 3.19967 3.73281 3.19967C4.02736 3.19967 4.26615 3.43846 4.26615 3.73301ZM1.59974 4.26634C1.89429 4.26634 2.13307 4.02756 2.13307 3.73301C2.13307 3.43846 1.89429 3.19967 1.59974 3.19967C1.30519 3.19967 1.06641 3.43846 1.06641 3.73301C1.06641 4.02756 1.30519 4.26634 1.59974 4.26634ZM3.2 4.79974C3.2 5.09429 2.96122 5.33307 2.66667 5.33307C2.37211 5.33307 2.13333 5.09429 2.13333 4.79974C2.13333 4.50519 2.37211 4.26641 2.66667 4.26641C2.96122 4.26641 3.2 4.50519 3.2 4.79974ZM4.79974 5.33307C5.09429 5.33307 5.33307 5.09429 5.33307 4.79974C5.33307 4.50519 5.09429 4.26641 4.79974 4.26641C4.50519 4.26641 4.26641 4.50519 4.26641 4.79974C4.26641 5.09429 4.50519 5.33307 4.79974 5.33307ZM7.4651 4.79994C7.4651 5.09449 7.22632 5.33327 6.93177 5.33327C6.63722 5.33327 6.39844 5.09449 6.39844 4.79994C6.39844 4.50538 6.63722 4.2666 6.93177 4.2666C7.22632 4.2666 7.4651 4.50538 7.4651 4.79994ZM7.99818 6.39967C8.29273 6.39967 8.53151 6.16089 8.53151 5.86634C8.53151 5.57179 8.29273 5.33301 7.99818 5.33301C7.70363 5.33301 7.46484 5.57179 7.46484 5.86634C7.46484 6.16089 7.70363 6.39967 7.99818 6.39967ZM6.3987 5.86634C6.3987 6.16089 6.15992 6.39967 5.86537 6.39967C5.57081 6.39967 5.33203 6.16089 5.33203 5.86634C5.33203 5.57179 5.57081 5.33301 5.86537 5.33301C6.15992 5.33301 6.3987 5.57179 6.3987 5.86634ZM3.73281 6.3998C4.02736 6.3998 4.26615 6.16102 4.26615 5.86647C4.26615 5.57192 4.02736 5.33314 3.73281 5.33314C3.43826 5.33314 3.19948 5.57192 3.19948 5.86647C3.19948 6.16102 3.43826 6.3998 3.73281 6.3998ZM2.13307 5.86647C2.13307 6.16102 1.89429 6.3998 1.59974 6.3998C1.30519 6.3998 1.06641 6.16102 1.06641 5.86647C1.06641 5.57192 1.30519 5.33314 1.59974 5.33314C1.89429 5.33314 2.13307 5.57192 2.13307 5.86647Z" fill="url(#paint0_linear)"/>
</g>
</g>
<defs>
<filter id="filter0_d" x="1.06641" y="1.06641" width="7.4651" height="6.3334" filterUnits="userSpaceOnUse" color-interpolation-filters="sRGB">
<feFlood flood-opacity="0" result="BackgroundImageFix"/>
<feColorMatrix in="SourceAlpha" type="matrix" values="0 0 0 0 0 0 0 0 0 0 0 0 0 0 0 0 0 0 127 0"/>
<feOffset dy="1"/>
<feColorMatrix type="matrix" values="0 0 0 0 0 0 0 0 0 0 0 0 0 0 0 0 0 0 0.06 0"/>
<feBlend mode="normal" in2="BackgroundImageFix" result="effect1_dropShadow"/>
<feBlend mode="normal" in="SourceGraphic" in2="effect1_dropShadow" result="shape"/>
</filter>
<linearGradient id="paint0_linear" x1="1.06641" y1="1.06641" x2="1.06641" y2="6.3998" gradientUnits="userSpaceOnUse">
<stop stop-color="white"/>
<stop offset="1" stop-color="#F0F0F0"/>
</linearGradient>
</defs>
</svg>
