<svg width="340" height="357" viewBox="0 0 340 357" fill="none" xmlns="http://www.w3.org/2000/svg">
<circle cx="170.5" cy="178.5" r="146.5" fill="white"/>
<g filter="url(#filter0_d)">
<rect x="102" y="258" width="136" height="35" rx="14" fill="white"/>
</g>
<g filter="url(#filter1_d)">
<rect x="60" y="56" width="220" height="236" rx="100" fill="#C4C4C4"/>
</g>
<circle cx="170.5" cy="178.5" r="131.5" fill="url(#paint0_linear)"/>
<g opacity="0.8">
<path d="M168.348 78.0103H168.989C169.79 78.0103 170.431 78.576 170.431 79.3034V87.7893C170.431 88.4359 169.79 89.0824 168.989 89.0824H168.348V116.722V117.934H167.707V126.986H173.074V117.934H172.434V116.722V70.7366L175.558 65.3218C174.356 65.3218 173.074 65.1602 171.873 65.1602L168.588 70.9791L168.348 78.0103Z" fill="white"/>
<path d="M163.315 113.572V114.38V114.784C161.232 115.027 159.229 115.35 157.227 115.754H167.08V88.9223H166.119C165.318 88.9223 164.677 88.3566 164.677 87.6292V79.0624C164.677 78.4159 165.318 77.7693 166.119 77.7693H167.08V70.5765L170.205 65C169.003 65 167.801 65 166.76 65L163.235 71.1422L163.315 113.572Z" fill="white"/>
<path d="M149.538 105.655V106.301V106.948C137.682 110.504 127.027 117.05 118.455 125.536C105.156 138.952 96.9844 157.459 96.9844 177.906C96.9844 198.353 105.156 216.861 118.455 230.277C127.507 239.409 139.124 246.198 152.022 249.511V239.894H150.34V228.741H138.883C142.328 230.842 145.853 232.701 149.699 234.156V234.56V235.53V237.954V238.359V239.167C140.326 236.015 131.914 230.681 125.184 223.73C122.781 221.306 120.698 218.801 118.695 216.134L118.455 216.295C118.054 216.537 117.413 216.457 117.173 216.134L114.128 211.365C113.888 210.961 113.968 210.395 114.529 210.153L114.769 209.991C109.482 200.536 106.438 189.706 106.438 178.149C106.438 166.43 109.482 155.439 114.85 145.983L114.449 145.74C114.048 145.498 113.808 144.932 114.048 144.528L117.093 139.76C117.333 139.356 117.894 139.194 118.375 139.598L118.935 139.841C120.778 137.174 122.861 134.83 125.264 132.567C132.234 125.536 140.806 120.121 150.42 116.889V116.242H152.503C155.627 115.272 158.992 114.625 162.276 114.141V71.4684L163.478 69.3671L165.561 65.6494C164.359 65.6494 163.318 65.8111 162.276 65.8111L158.751 72.0341V78.2571H159.793C160.594 78.2571 161.235 78.8228 161.235 79.5502V88.0361C161.235 88.6827 160.594 89.3292 159.793 89.3292H158.751V111.15V112.363V112.524C145.212 115.03 133.115 121.576 123.742 130.951C111.725 143.073 104.355 159.803 104.355 178.23C104.355 196.656 111.725 213.467 123.742 225.509C130.952 232.782 139.845 238.359 149.699 241.753H149.859V243.046V245.471V246.036V246.683C138.643 243.208 128.549 236.985 120.538 228.903C117.734 226.074 115.17 223.084 112.927 219.77L112.687 219.932C112.286 220.175 111.645 220.094 111.405 219.689L108.521 214.921C108.281 214.517 108.361 213.951 108.921 213.709L109.162 213.547C103.394 203.203 99.9486 191.08 99.9486 178.311C99.9486 165.46 103.394 153.338 109.322 142.831L108.921 142.589C108.521 142.346 108.281 141.78 108.521 141.376L111.405 136.608C111.645 136.204 112.206 136.042 112.687 136.366L113.087 136.608C115.33 133.456 117.814 130.466 120.618 127.718C129.43 118.828 140.646 112.201 152.983 108.968V72.4382L154.185 70.3369L156.268 66.6192C155.306 66.7809 154.425 66.8617 153.464 67.0233L149.779 73.408L149.538 105.655Z" fill="white"/>
<path d="M145.524 103.147V103.955V104.359C134.229 108.238 124.215 114.704 115.883 122.947C112.758 126.099 109.954 129.494 107.471 133.211C107.871 133.454 108.112 134.019 107.871 134.424L104.827 139.192C104.587 139.596 104.026 139.758 103.545 139.434C97.0564 150.749 93.3711 163.841 93.3711 177.985C93.3711 191.966 97.0564 204.978 103.385 216.212L103.625 216.05C104.026 215.808 104.667 215.889 104.907 216.293L107.951 221.061C108.192 221.465 108.112 222.031 107.551 222.273L107.311 222.435C109.954 226.153 112.838 229.628 115.963 232.78C126.618 243.529 140.317 251.126 155.619 254.035V239.811H153.215V249.752V250.398V251.045C139.596 247.893 127.419 240.7 117.805 231.002C104.347 217.424 95.9347 198.594 95.9347 177.904C95.9347 157.215 104.266 138.303 117.805 124.806C126.217 116.32 136.792 109.774 148.489 106.056V72.6783L149.69 70.577L151.773 66.8594C150.972 67.021 150.171 67.1018 149.37 67.2635L145.524 73.8906V103.147Z" fill="white"/>
<path d="M173.486 115.833H183.34C181.337 115.429 179.255 115.025 177.252 114.864V114.459V113.651V89.0824H176.451C175.649 89.0824 175.009 88.5167 175.009 87.7893V79.3034C175.009 78.6568 175.649 78.0103 176.451 78.0103H177.252V71.3831L178.453 69.2819L180.536 65.7259C179.255 65.5642 178.053 65.4834 176.691 65.4834L173.406 71.2215V115.833H173.486Z" fill="white"/>
<path d="M153.855 108.317V109.126V109.53C141.197 112.601 129.901 119.228 121.089 128.118C118.445 130.785 115.962 133.695 113.879 136.765L114.039 136.927C114.44 137.17 114.68 137.735 114.44 138.139L111.556 142.908C111.315 143.312 110.754 143.473 110.274 143.15L110.033 142.988C104.265 153.253 100.82 165.133 100.82 177.821C100.82 190.51 104.105 202.148 109.793 212.331L110.194 212.089C110.594 211.846 111.235 211.927 111.475 212.331L114.36 217.099C114.6 217.503 114.52 218.069 113.959 218.311L113.558 218.554C115.801 221.706 118.285 224.696 121.089 227.444C128.7 235.122 138.073 241.022 148.487 244.416V241.991C138.714 238.516 129.901 232.94 122.691 225.747C110.434 213.382 102.903 196.41 102.903 177.66C102.903 158.91 110.434 141.938 122.691 129.573C132.064 120.117 144.001 113.49 157.3 110.984V88.921H156.659C155.858 88.921 155.217 88.3553 155.217 87.6279V79.142C155.217 78.4954 155.858 77.8489 156.659 77.8489H157.3V71.2217L158.502 69.1204L160.584 65.5645C159.543 65.7261 158.502 65.7261 157.46 65.8069L153.775 72.1916L153.855 108.317Z" fill="white"/>
<path d="M131.183 132.725C130.141 133.694 129.18 134.422 128.299 135.553C117.483 146.464 110.914 161.334 110.914 177.902C110.914 194.47 117.483 209.421 128.299 220.251C129.26 221.221 130.141 222.11 131.183 223.08V211.523H125.815V180.812H125.014C124.213 180.812 123.572 180.246 123.572 179.519V171.033C123.572 170.386 124.213 169.74 125.014 169.74H125.815V155.273V154.061H127.017H133.586V149.292H131.183V132.725Z" fill="white"/>
<path d="M198.632 99.9131H196.229V103.469C207.445 107.429 217.459 113.814 225.55 122.057C228.675 125.209 231.639 128.684 234.202 132.402L234.763 131.998C235.164 131.756 235.805 131.836 236.045 132.241L239.089 137.009C239.329 137.413 239.249 137.979 238.689 138.221L238.128 138.625C244.697 150.182 248.382 163.437 248.382 177.822C248.382 191.885 244.697 205.22 238.208 216.777L238.609 217.019C239.009 217.262 239.249 217.827 239.009 218.231L235.965 223C235.724 223.404 235.164 223.565 234.683 223.242L234.282 223C231.639 226.879 228.755 230.273 225.47 233.587C214.415 244.74 199.914 252.741 183.731 255.489V254.681V254.115V239.648H181.328V258.479C199.273 255.974 215.135 247.568 227.312 235.365C241.893 220.656 251.026 200.29 251.026 177.741C251.026 155.274 241.973 134.827 227.312 120.118C219.301 112.036 209.368 105.49 198.632 101.368V101.206V100.156V99.9131Z" fill="white"/>
<path d="M141.831 101.371V101.532C130.936 105.654 121.162 112.039 113.151 120.282C98.5704 134.991 89.4375 155.357 89.4375 177.906C89.4375 200.373 98.4903 220.82 113.151 235.529C125.248 247.733 141.35 256.138 159.135 258.643V239.893H156.732V254.36V254.926V255.734C140.549 252.905 126.049 244.985 114.993 233.832C111.709 230.519 108.825 227.043 106.181 223.245L105.78 223.487C105.38 223.73 104.739 223.649 104.499 223.245L101.455 218.477C101.214 218.072 101.294 217.507 101.855 217.264L102.255 217.022C95.7664 205.627 92.0812 192.291 92.0812 178.067C92.0812 163.843 95.7664 150.427 102.336 138.87L101.775 138.466C101.374 138.224 101.134 137.658 101.374 137.254L104.419 132.485C104.659 132.082 105.22 131.92 105.7 132.243L106.261 132.647C108.905 128.93 111.789 125.454 114.913 122.302C123.085 114.059 133.099 107.674 144.154 103.714V73.7306L145.356 71.6293L147.599 67.75C146.798 67.9116 145.997 68.1541 145.196 68.3157L141.751 74.4579L141.831 101.371Z" fill="white"/>
<path d="M148.482 237.226V234.801C144.236 233.185 140.311 231.083 136.626 228.578H131.258H132.86C137.507 232.215 142.794 235.124 148.482 237.226Z" fill="white"/>
<path d="M192.312 80.9236H195.117V73.4883L196.318 71.3871L197.921 68.72C197.119 68.5584 196.479 68.3159 195.677 68.1543L192.393 73.8924L192.312 80.9236Z" fill="white"/>
<path d="M183.332 111.066C196.791 113.733 208.728 120.36 218.101 129.816C230.358 142.181 237.889 159.153 237.889 177.903C237.889 196.652 230.358 213.625 218.101 225.99C210.971 233.183 202.159 238.84 192.305 242.234V244.659C202.719 241.183 212.093 235.203 219.703 227.687C222.507 224.858 224.991 221.949 227.234 218.797L226.833 218.555C226.433 218.312 226.192 217.746 226.433 217.342L229.317 212.574C229.557 212.17 230.118 212.008 230.598 212.332L230.999 212.574C236.767 202.31 239.972 190.51 239.972 178.064C239.972 165.457 236.687 153.496 230.759 143.232L230.518 143.393C230.118 143.636 229.477 143.555 229.237 143.151L226.353 138.383C226.112 137.978 226.192 137.413 226.753 137.17L226.913 137.009C224.67 133.937 222.267 131.028 219.703 128.361C210.73 119.309 199.595 112.844 186.937 109.773V109.369V108.561V73.0004L188.139 70.8991L190.142 67.3431C189.1 67.1814 187.899 66.939 186.857 66.7773L183.412 72.7579L183.332 111.066Z" fill="white"/>
<path d="M178.453 78.0105H179.414C180.216 78.0105 180.857 78.5763 180.857 79.3036V87.7896C180.857 88.4361 180.216 89.0827 179.414 89.0827H178.453V113.813C181.898 114.217 185.023 115.026 188.307 115.914H190.39V116.561C200.004 119.713 208.575 125.209 215.545 132.24C217.788 134.503 219.871 137.008 221.874 139.513L222.435 139.271C222.835 139.028 223.476 139.109 223.717 139.433L226.761 144.201C227.002 144.605 226.921 145.171 226.361 145.413L225.96 145.656C231.328 155.111 234.372 166.103 234.372 177.822C234.372 189.378 231.328 200.289 226.04 209.664L226.28 209.825C226.681 210.068 226.921 210.634 226.681 211.038L223.637 215.806C223.396 216.21 222.835 216.372 222.355 215.968L222.115 215.806C220.112 218.473 218.029 220.979 215.625 223.403C208.816 230.273 200.484 235.606 191.111 238.839V238.031V237.627V235.203V234.233V233.829C194.957 232.374 198.481 230.677 201.926 228.414H190.47V239.567H188.788V249.103C201.686 245.79 213.142 239.001 222.355 229.869C235.654 216.453 243.825 198.026 243.825 177.498C243.825 156.97 235.654 138.544 222.355 125.128C213.783 116.48 203.128 110.015 191.271 106.539V105.893V105.246V99.4274C190.63 99.185 190.23 98.6193 190.23 97.8111V82.2939C190.23 81.6474 190.791 81.0008 191.271 80.6776V73.0806L192.473 70.9793L194.476 67.4233C193.434 67.1809 192.473 67.0192 191.431 66.7768L188.147 72.5149V108.075C200.644 111.227 211.86 117.935 220.672 126.825C223.476 129.653 225.96 132.563 228.203 135.715L228.604 135.472C229.004 135.23 229.645 135.311 229.885 135.715L232.769 140.483C233.01 140.887 232.93 141.453 232.369 141.695L231.969 141.938C237.897 152.444 241.342 164.486 241.342 177.417C241.342 190.187 238.057 202.229 232.129 212.654L232.289 212.816C232.689 213.058 232.93 213.624 232.689 214.028L229.805 218.796C229.565 219.2 229.004 219.362 228.524 219.039L228.283 218.877C226.04 222.191 223.396 225.262 220.672 228.01C212.501 236.253 202.487 242.314 191.351 245.79V245.143V244.578V242.153V240.86H191.511C201.365 237.546 210.338 231.97 217.468 224.615C229.485 212.492 236.855 195.763 236.855 177.336C236.855 158.91 229.485 142.1 217.468 130.058C208.095 120.602 195.998 113.975 182.459 111.631V111.469V110.257V71.4642L183.66 69.363L185.743 65.6453C184.542 65.4837 183.34 65.4028 182.219 65.2412L178.774 71.0601L178.453 78.0105Z" fill="white"/>
<path d="M187.411 249.752V239.812H185.008V254.036C200.39 250.964 214.089 243.448 224.664 232.78C227.788 229.629 230.752 226.153 233.316 222.436L233.075 222.274C232.675 222.031 232.435 221.466 232.675 221.062L235.719 216.294C235.959 215.889 236.52 215.728 237.001 216.051L237.241 216.213C243.57 204.898 247.255 191.886 247.255 177.985C247.255 164.085 243.57 150.911 237.081 139.435C236.681 139.677 236.04 139.597 235.799 139.193L232.755 134.424C232.515 134.02 232.595 133.454 233.155 133.212C230.672 129.656 227.788 126.181 224.744 122.948C216.412 114.543 206.318 108.239 195.102 104.36V103.956V102.986V99.834H192.298V105.976C203.995 109.532 214.57 116.078 222.981 124.726C236.44 138.303 244.852 157.134 244.852 177.824C244.852 198.513 236.52 217.425 222.981 230.922C213.368 240.62 201.11 247.651 187.411 250.964V249.995V249.752Z" fill="white"/>
<path d="M63.8832 186.795C64.0434 186.795 64.2838 186.795 64.5241 186.795L66.1264 186.633C66.3667 186.633 66.6871 186.633 66.7673 186.472C66.9275 186.472 67.0076 186.31 67.1678 186.229C67.3281 186.067 67.3281 185.987 67.3281 185.825C67.3281 185.663 67.3281 185.421 67.3281 185.179L67.1678 182.915C67.1678 182.673 67.1678 182.35 67.0076 182.269C67.0076 182.107 66.8474 182.027 66.7673 181.865C66.6071 181.703 66.5269 181.703 66.3667 181.703C66.2065 181.703 65.9661 181.703 65.7258 181.703L64.1236 181.865C63.8832 181.865 63.5628 181.865 63.4826 182.027C63.3224 182.027 63.2423 182.188 63.0821 182.269C62.9219 182.431 62.9219 182.512 62.9219 182.673C62.9219 182.835 62.9219 183.077 62.9219 183.32L63.0821 185.582C63.0821 185.825 63.0821 186.148 63.2423 186.229C63.2423 186.391 63.4026 186.472 63.4826 186.633C63.6429 186.795 63.8031 186.795 63.8832 186.795Z" fill="white"/>
<path d="M78.7959 122.38C78.9562 122.542 79.0363 122.623 79.3567 122.785L80.6385 123.754C80.8789 123.916 81.0391 123.997 81.1993 123.997C81.3595 123.997 81.4396 124.159 81.5999 123.997C81.7601 123.997 81.8402 123.835 82.0004 123.754C82.1607 123.593 82.2407 123.512 82.401 123.189L83.6828 121.33C83.843 121.087 83.9231 120.926 83.9231 120.764C83.9231 120.603 84.0834 120.522 83.9231 120.36C83.9231 120.198 83.7629 120.118 83.6828 119.956C83.5226 119.794 83.4424 119.713 83.122 119.552L81.8402 118.582C81.5999 118.42 81.4396 118.339 81.2794 118.339C81.1192 118.339 81.0391 118.178 80.8789 118.339C80.7186 118.339 80.6385 118.501 80.4783 118.582C80.318 118.744 80.2379 118.824 80.0777 119.148L78.7959 121.006C78.6357 121.249 78.5556 121.411 78.5556 121.572C78.5556 121.734 78.3954 121.815 78.5556 121.977C78.5556 122.138 78.7158 122.219 78.7959 122.38Z" fill="white"/>
<path d="M76.9524 222.113C76.9524 221.951 76.7922 221.709 76.712 221.466L75.7507 219.365C75.5905 219.123 75.5104 218.961 75.5104 218.799C75.3502 218.638 75.27 218.557 75.1098 218.557C74.9496 218.557 74.8695 218.557 74.549 218.557C74.3888 218.557 74.1485 218.718 73.9081 218.799L72.4661 219.446C72.2258 219.607 72.0655 219.688 71.9053 219.688C71.7451 219.85 71.665 219.931 71.665 220.092C71.665 220.254 71.5047 220.335 71.665 220.497C71.665 220.658 71.8252 220.9 71.9053 221.143L72.8667 223.244C73.0269 223.487 73.107 223.648 73.107 223.81C73.2672 223.972 73.3473 224.053 73.5075 224.053C73.6678 224.053 73.7479 224.053 74.0683 224.053C74.2286 224.053 74.4689 223.891 74.7092 223.81L76.1513 223.163C76.3916 223.002 76.5518 222.921 76.712 222.921C76.8723 222.759 76.9524 222.679 76.9524 222.517C76.9524 222.517 76.9524 222.274 76.9524 222.113Z" fill="white"/>
<path d="M64.1975 166.75C64.3578 166.75 64.5981 166.911 64.8384 166.911L66.4407 167.154C66.681 167.154 67.0015 167.154 67.0816 167.154C67.2418 167.154 67.3219 166.992 67.4821 166.992C67.6424 166.831 67.7225 166.75 67.7225 166.588C67.7225 166.426 67.8827 166.184 67.8827 165.941L68.123 163.678C68.123 163.436 68.123 163.113 68.123 163.032C68.123 162.87 67.9628 162.79 67.9628 162.628C67.8026 162.466 67.7225 162.466 67.5623 162.385C67.402 162.385 67.1617 162.224 66.9213 162.224L65.3191 161.981C65.0788 161.981 64.7583 161.981 64.6782 161.981C64.518 161.981 64.4378 162.143 64.2776 162.143C64.1174 162.305 64.0373 162.385 64.0373 162.547C63.8771 162.709 63.8771 162.951 63.8771 163.193L63.6367 165.457C63.6367 165.699 63.6367 166.022 63.6367 166.103C63.6367 166.265 63.797 166.346 63.797 166.507C63.8771 166.588 64.0373 166.75 64.1975 166.75Z" fill="white"/>
<path d="M138.15 97.2477V97.8943V98.5408C127.655 102.905 118.121 109.29 110.271 117.291C106.746 120.847 103.461 124.888 100.497 129.09L100.657 129.252C101.057 129.494 101.298 130.06 101.057 130.464L98.0131 135.232C97.7729 135.636 97.2123 135.798 96.7314 135.475L96.5713 135.313C89.4412 147.759 85.3555 162.307 85.3555 177.824C85.3555 193.099 89.281 207.565 96.411 220.092L96.6514 219.93C97.0518 219.688 97.6928 219.769 97.9331 220.173L100.977 224.941C101.218 225.345 101.137 225.911 100.577 226.153L100.337 226.315C103.221 230.679 106.665 234.72 110.351 238.438C124.05 252.257 142.476 261.39 162.904 263.168V239.892H160.501V258.723V259.289V259.936C141.835 257.672 125.091 249.025 112.434 236.256C97.5326 221.223 88.4799 200.695 88.4799 177.824C88.4799 154.952 97.6928 134.262 112.434 119.392C120.445 111.31 130.058 104.926 140.713 100.642V73.8104L141.915 71.7091L143.758 68.3955C142.956 68.5571 142.155 68.7996 141.354 69.0421L138.069 74.7802V97.2477H138.15Z" fill="white"/>
<path d="M67.8784 199.24C68.1188 199.24 68.4392 199.079 68.5193 199.079C68.5994 199.079 68.7597 198.917 68.9199 198.836C69.0801 198.675 69.0801 198.594 69.0801 198.432C69.0801 198.271 69.0801 198.028 69.0801 197.786L68.6795 195.523C68.6795 195.28 68.5193 195.119 68.5193 194.876C68.3591 194.714 68.3591 194.634 68.279 194.472C68.1188 194.311 68.0387 194.311 67.8784 194.311C67.7182 194.311 67.4779 194.311 67.2375 194.311L65.6353 194.553C65.3949 194.553 65.0745 194.714 64.9944 194.714C64.8342 194.876 64.754 194.876 64.5938 194.957C64.4336 195.119 64.4336 195.199 64.4336 195.361C64.4336 195.523 64.4336 195.765 64.4336 196.008L64.8342 198.271C64.8342 198.513 64.9944 198.675 64.9944 198.917C65.1546 199.079 65.1546 199.16 65.2347 199.321C65.3949 199.483 65.475 199.483 65.6353 199.483C65.7955 199.483 66.0358 199.483 66.2762 199.483L67.8784 199.24Z" fill="white"/>
<path d="M71.9767 210.958C72.1369 210.797 72.1369 210.716 72.1369 210.554C72.1369 210.393 72.1369 210.15 71.9767 209.908L71.4159 207.645C71.4159 207.402 71.2557 207.241 71.1756 206.998C71.0154 206.836 71.0154 206.756 70.9352 206.594C70.775 206.433 70.6949 206.433 70.5347 206.433C70.3745 206.433 70.1341 206.433 69.8938 206.594L68.2915 206.998C68.0512 206.998 67.891 207.16 67.6506 207.241C67.4904 207.402 67.4103 207.402 67.2501 207.483C67.0898 207.645 67.0898 207.726 67.0898 207.887C67.0898 208.049 67.0898 208.291 67.2501 208.534L67.8108 210.797C67.9711 211.039 67.9711 211.201 68.0512 211.443C68.2114 211.605 68.2114 211.686 68.2915 211.847C68.4517 212.009 68.5319 212.009 68.6921 212.009C68.8523 212.009 69.0927 212.009 69.333 211.847L70.9352 211.443C71.1756 211.282 71.496 211.282 71.5762 211.201C71.8165 211.201 71.8165 211.12 71.9767 210.958Z" fill="white"/>
<path d="M231.799 88.9218L229.957 87.6288C229.716 87.4671 229.556 87.3863 229.396 87.3863C229.236 87.3863 229.156 87.2247 228.995 87.3863C228.835 87.3863 228.755 87.5479 228.595 87.6288C228.434 87.7904 228.354 87.8712 228.194 88.1945L227.233 89.4875C227.073 89.73 226.993 89.8916 226.832 90.0533C226.672 90.2149 226.672 90.2957 226.672 90.4574C226.672 90.619 226.832 90.6998 226.912 90.8615C227.073 91.0231 227.153 91.1039 227.473 91.2656L229.316 92.5587C229.556 92.7203 229.716 92.8011 229.877 92.8011C230.037 92.8011 230.117 92.9628 230.277 92.8011C230.437 92.8011 230.517 92.6395 230.678 92.5587C230.838 92.397 230.918 92.3162 231.078 91.9929L232.04 90.6998C232.2 90.4574 232.28 90.2957 232.44 90.1341C232.44 89.9725 232.6 89.8916 232.6 89.73C232.6 89.5684 232.44 89.4876 232.36 89.3259C232.2 89.3259 232.04 89.1643 231.799 88.9218Z" fill="white"/>
<path d="M215.063 79.3063C214.903 79.1447 214.822 79.0638 214.502 79.0638L212.419 78.094C212.179 77.9324 212.019 77.9324 211.778 77.8516C211.618 77.8516 211.538 77.8516 211.378 77.8516C211.218 77.8516 211.138 78.0132 210.977 78.094C210.817 78.2557 210.737 78.3365 210.737 78.6598L210.096 80.1145C209.936 80.3569 209.936 80.5186 209.855 80.761C209.855 80.9226 209.855 81.0035 209.855 81.1651C209.855 81.3267 210.016 81.4076 210.096 81.5692C210.256 81.7308 210.336 81.8117 210.657 81.8117L212.74 82.7815C212.98 82.9431 213.14 82.9431 213.381 83.0239C213.541 83.0239 213.621 83.0239 213.781 83.0239C213.942 83.0239 214.022 82.8623 214.182 82.7815C214.342 82.6198 214.422 82.3774 214.422 82.2158L215.063 80.761C215.223 80.5186 215.223 80.3569 215.303 80.1145C215.303 79.9528 215.303 79.872 215.303 79.5487C215.223 79.6296 215.223 79.4679 215.063 79.3063Z" fill="white"/>
<path d="M127.826 81.5672C127.987 81.8096 128.067 81.9712 128.067 82.1329C128.227 82.2945 128.307 82.3753 128.467 82.3753C128.627 82.3753 128.707 82.537 128.868 82.3753C129.028 82.3753 129.268 82.2137 129.509 82.2137L131.592 81.4055C131.832 81.2439 131.992 81.2439 132.153 81.1631C132.313 81.0014 132.393 80.9206 132.393 80.759C132.393 80.5973 132.393 80.5165 132.393 80.1932C132.393 80.0316 132.233 79.7891 132.233 79.5467L131.672 78.0919C131.512 77.8495 131.431 77.6878 131.431 77.5262C131.271 77.3646 131.191 77.2837 131.031 77.2837C130.87 77.2837 130.79 77.1221 130.63 77.2837C130.47 77.2837 130.23 77.4454 129.99 77.4454L127.906 78.2536C127.666 78.4152 127.506 78.4152 127.346 78.496C127.186 78.6577 127.105 78.7385 127.105 78.9001C127.105 79.0618 127.105 79.1426 127.105 79.4659C127.105 79.6275 127.266 79.87 127.266 80.1124L127.826 81.5672Z" fill="white"/>
<path d="M110.031 89.7313L110.992 91.0244C111.153 91.2668 111.233 91.4285 111.393 91.5901C111.553 91.7517 111.633 91.8325 111.794 91.8325C111.954 91.8325 112.034 91.8325 112.194 91.8325C112.355 91.8325 112.595 91.6709 112.755 91.5901L114.758 90.3778C114.998 90.2162 115.158 90.1354 115.319 89.9737C115.479 89.8121 115.479 89.7313 115.559 89.5697C115.559 89.408 115.559 89.3272 115.559 89.0039C115.559 88.8423 115.399 88.5998 115.319 88.4382L114.357 87.1451C114.197 86.9026 114.117 86.741 113.957 86.5794C113.796 86.4177 113.716 86.3369 113.556 86.3369C113.396 86.3369 113.316 86.3369 113.155 86.3369C112.995 86.3369 112.755 86.4985 112.595 86.5794L110.592 87.7916C110.352 87.9533 110.191 88.0341 110.031 88.1957C109.871 88.3574 109.871 88.4382 109.791 88.5998C109.791 88.7615 109.791 88.8423 109.791 89.0039C109.711 89.3272 109.871 89.5697 110.031 89.7313Z" fill="white"/>
<path d="M86.078 111.873C86.2383 112.034 86.3184 112.115 86.6388 112.277L87.8405 113.247C88.0809 113.408 88.2411 113.489 88.4013 113.65C88.5615 113.812 88.6417 113.812 88.8019 113.812C88.9621 113.812 89.0422 113.65 89.2024 113.65C89.3627 113.489 89.4428 113.408 89.603 113.247L91.045 111.388C91.2052 111.145 91.2854 110.983 91.4456 110.822C91.6058 110.66 91.6058 110.58 91.6058 110.418C91.6058 110.256 91.4456 110.175 91.3655 110.014C91.2052 109.852 91.1252 109.771 90.8047 109.609L89.603 108.64C89.3627 108.478 89.2024 108.397 89.0422 108.236C88.882 108.074 88.8019 108.074 88.6417 108.074C88.4814 108.074 88.4013 108.236 88.2411 108.236C88.0809 108.397 88.0007 108.478 87.8405 108.801L86.3985 110.66C86.2383 110.903 86.1582 111.064 85.998 111.226C85.8377 111.388 85.8377 111.468 85.8377 111.63C85.7576 111.63 85.9178 111.711 86.078 111.873Z" fill="white"/>
<path d="M94.8889 102.582L95.9304 103.795C96.0906 103.956 96.3309 104.199 96.4911 104.199C96.6512 104.361 96.7313 104.361 96.8919 104.361C97.052 104.361 97.1321 104.361 97.2923 104.199C97.4524 104.037 97.5325 103.956 97.8532 103.795L99.5353 102.179C99.6955 102.017 99.7756 101.774 99.9361 101.613C100.096 101.451 100.096 101.37 100.096 101.209C100.096 101.047 100.096 100.966 99.9361 100.805C99.7756 100.643 99.6955 100.562 99.5353 100.239L98.4939 99.0267C98.3337 98.865 98.0935 98.6226 97.9333 98.6226C97.7728 98.4609 97.6927 98.4609 97.5325 98.4609C97.3724 98.4609 97.2923 98.4609 97.1321 98.6226C96.9719 98.7842 96.8919 98.865 96.5712 99.0267L94.8889 100.643C94.7287 100.805 94.6486 101.047 94.4883 101.209C94.3281 101.37 94.3281 101.451 94.3281 101.613C94.3281 101.774 94.3281 101.855 94.4883 102.017C94.5684 102.179 94.7287 102.421 94.8889 102.582Z" fill="white"/>
<path d="M67.8987 146.95C68.0589 147.112 68.2993 147.112 68.4595 147.192L69.9015 147.758C70.1419 147.92 70.3021 147.92 70.5424 147.92C70.7026 147.92 70.943 147.92 70.943 147.92C71.1032 147.92 71.1833 147.758 71.3436 147.678C71.5038 147.516 71.5038 147.273 71.5839 147.112L72.385 145.01C72.5453 144.768 72.5453 144.606 72.5453 144.364C72.5453 144.202 72.5453 144.122 72.385 143.96C72.385 143.798 72.2248 143.717 72.1447 143.556C71.9845 143.394 71.7441 143.394 71.5038 143.313L70.0618 142.748C69.8214 142.586 69.6612 142.586 69.4208 142.586C69.2606 142.586 69.1805 142.586 68.8601 142.586C68.6998 142.586 68.6197 142.748 68.4595 142.829C68.2993 142.99 68.2993 143.232 68.2191 143.394L67.418 145.496C67.2578 145.738 67.2578 145.899 67.2578 146.142C67.2578 146.304 67.2578 146.384 67.418 146.546C67.5783 146.708 67.7385 146.789 67.8987 146.95Z" fill="white"/>
<path d="M220.747 140.323L220.907 140.161C219.064 137.656 216.982 135.231 214.819 132.969C213.136 131.271 211.374 129.655 209.531 128.2V131.11C210.813 132.161 212.015 133.373 213.216 134.585C224.112 145.576 231.001 160.851 231.001 177.742C231.001 194.633 224.192 209.908 213.216 220.899C212.015 222.111 210.733 223.324 209.531 224.374V227.284C211.374 225.829 213.216 224.213 214.819 222.516C217.062 220.252 219.145 217.747 221.147 215.08L220.907 214.838C220.507 214.595 220.266 214.029 220.507 213.625L223.551 208.857C223.791 208.453 224.352 208.291 224.833 208.695L225.233 208.938C230.36 199.805 233.404 188.976 233.404 177.742C233.404 166.346 230.36 155.598 225.073 146.223L224.833 146.385C224.432 146.627 223.791 146.546 223.551 146.223L220.507 141.454C220.106 141.131 220.186 140.565 220.747 140.323Z" fill="white"/>
<path d="M134.867 145.493H162.266V197.297H178.449V145.493H205.847V130.703H186.78V119.55H176.606V130.703H163.948V119.55H153.854V130.703H134.867V145.493Z" fill="white"/>
<path d="M209.364 210.149H213.61V180.812H212.809C212.008 180.812 211.367 180.246 211.367 179.519V175.963H203.516V190.833H202.554H197.827V194.39C197.827 195.036 197.187 195.683 196.386 195.683H194.703V206.593H200.471V204.492H200.311C199.91 204.492 199.67 204.249 199.67 203.926V200.37C199.67 200.128 199.91 199.805 200.311 199.805H201.513C201.913 199.805 202.154 200.047 202.154 200.37V203.926C202.154 204.169 201.913 204.492 201.513 204.492H201.353V206.593H203.436V204.492H203.275C202.875 204.492 202.634 204.249 202.634 203.926V200.37C202.634 200.128 202.875 199.805 203.275 199.805H204.477C204.717 199.805 205.118 200.047 205.118 200.37V203.926C205.118 204.169 204.877 204.492 204.477 204.492H204.317V206.593H206.4V204.492H206.24C205.839 204.492 205.598 204.249 205.598 203.926V200.37C205.598 200.128 205.839 199.805 206.24 199.805H207.441C207.842 199.805 208.082 200.047 208.082 200.37V203.926C208.082 204.169 207.842 204.492 207.441 204.492H207.281V206.593H209.924L209.364 210.149Z" fill="white"/>
<path d="M212.342 220.251C223.157 209.34 229.727 194.47 229.727 177.902C229.727 161.334 222.997 146.383 212.342 135.553C211.381 134.583 210.499 133.694 209.458 132.725V149.05H207.055V153.818H213.624H214.826V169.659H215.627C216.428 169.659 217.069 170.224 217.069 170.952V179.438C217.069 180.084 216.428 180.731 215.627 180.731H214.826V210.068V211.28H213.624H209.378V222.918C210.499 222.11 211.381 221.221 212.342 220.251Z" fill="white"/>
<path d="M120.041 215.08L119.8 215.322C121.643 217.989 123.726 220.333 126.129 222.757C127.811 224.455 129.574 226.071 131.417 227.526V224.616C130.135 223.566 128.933 222.353 127.731 221.141C116.836 210.15 109.946 194.875 109.946 177.984C109.946 161.093 116.756 145.818 127.731 134.827C128.933 133.615 130.215 132.402 131.417 131.352V128.442C129.574 129.897 127.891 131.513 126.129 133.21C123.886 135.474 121.883 137.898 120.041 140.403L120.201 140.565C120.601 140.808 120.842 141.373 120.601 141.777L117.557 146.546C117.317 146.95 116.756 147.111 116.275 146.707L116.035 146.546C110.747 155.84 107.703 166.589 107.703 178.065C107.703 189.38 110.747 200.128 115.875 209.261L116.275 209.018C116.676 208.776 117.317 208.857 117.557 209.18L120.601 213.948C120.521 214.11 120.361 214.837 120.041 215.08Z" fill="white"/>
<path d="M192.145 234.882V237.307C197.832 235.206 203.04 232.296 207.847 228.659H204.001C200.316 231.165 196.39 233.266 192.145 234.882Z" fill="white"/>
<path d="M202.162 189.542V149.133H194.391V184.612H196.073C196.874 184.612 197.515 185.178 197.515 185.905V189.461L202.162 189.542Z" fill="white"/>
<path d="M212.745 169.823H213.545V155.356H206.976H205.775V149.214H203.371V174.753H211.302V171.197C211.222 170.307 211.943 169.823 212.745 169.823Z" fill="white"/>
<path d="M186.78 236.172V224.938L205.847 225.019V210.148H134.867V225.019H153.854V236.172H163.948V225.019H176.606V236.172H186.78Z" fill="white"/>
<path d="M172.925 239.811V238.841V237.629V228.577H167.557V237.629V238.841V239.811V267.289V268.097V268.502C143.764 267.855 122.294 257.753 106.592 241.912C90.2486 225.425 80.2345 202.877 80.2345 177.742C80.2345 152.608 90.2486 130.059 106.592 113.572C114.363 105.733 123.736 99.2674 133.99 94.7415V89.0034C132.708 89.5691 131.346 90.2157 130.064 90.7006L130.305 91.1047C130.705 91.7513 130.305 92.8019 129.344 93.3676L118.288 99.9139C117.327 100.48 116.285 100.318 115.885 99.6715L115.644 99.2674C113.401 100.884 111.158 102.581 109.075 104.278L109.315 104.521C109.876 105.086 109.716 106.137 108.915 106.945L99.862 116.078C99.0612 116.886 98.0193 117.047 97.4587 116.482L97.2185 116.239C95.536 118.34 93.7735 120.522 92.2514 122.866L92.652 123.109C93.2929 123.513 93.4531 124.563 92.8923 125.533L86.4032 136.686C85.8424 137.656 84.8009 137.979 84.16 137.656L83.7595 137.414C82.5578 139.919 81.5163 142.425 80.6351 145.092L81.0356 145.253C81.8367 145.495 82.2373 146.465 81.997 147.516L78.7124 159.962C78.472 161.013 77.5107 161.659 76.8698 161.417L76.4692 161.255C75.9084 163.922 75.6681 166.67 75.4278 169.499H75.8283C76.6295 169.499 77.2704 170.468 77.2704 171.519V184.369C77.2704 185.42 76.6295 186.39 75.8283 186.39H75.3477C75.588 189.218 75.9885 191.966 76.3891 194.633L76.7897 194.472C77.5908 194.229 78.3919 195.037 78.6323 195.926L81.9169 208.372C82.1572 209.423 81.7567 210.393 80.9555 210.635L80.555 210.797C81.5163 213.464 82.5578 215.969 83.6794 218.475L84.0799 218.232C84.7208 217.828 85.7623 218.232 86.3231 219.202L92.8122 230.355C93.373 231.325 93.2128 232.375 92.5719 232.78L92.1713 233.022C93.7735 235.285 95.4559 237.548 97.1384 239.649L97.3787 239.407C97.9392 238.841 98.9807 239.003 99.7819 239.811L108.835 248.943C109.636 249.752 109.796 250.802 109.235 251.368L108.995 251.61C111.078 253.307 113.241 255.086 115.564 256.621L115.804 256.217C116.205 255.57 117.247 255.409 118.208 255.974L129.264 262.521C130.225 263.087 130.545 264.137 130.225 264.784L129.984 265.188C132.468 266.4 134.951 267.451 137.595 268.34L137.755 267.936C137.996 267.128 138.957 266.723 139.998 266.966L152.336 270.279C153.377 270.522 154.018 271.492 153.778 272.138L153.618 272.542C156.262 273.108 158.985 273.351 161.789 273.593V273.189C161.789 272.381 162.75 271.734 163.792 271.734H176.53C177.571 271.734 178.533 272.381 178.533 273.189V273.593C181.337 273.351 184.06 272.946 186.704 272.542L186.544 272.138C186.304 271.33 187.105 270.522 187.986 270.279L200.323 266.966C201.365 266.723 202.326 267.128 202.567 267.936L202.727 268.34C205.371 267.37 207.854 266.319 210.337 265.188L210.097 264.784C209.697 264.137 210.097 263.087 211.058 262.521L222.114 255.974C223.075 255.409 224.117 255.57 224.517 256.217L224.758 256.621C227.001 255.005 229.244 253.307 231.327 251.61L231.086 251.368C230.526 250.802 230.686 249.752 231.487 248.943L240.54 239.811C241.341 239.003 242.382 238.841 242.943 239.407L243.183 239.649C244.866 237.548 246.628 235.366 248.15 233.022L247.75 232.78C247.109 232.375 246.949 231.325 247.51 230.355L253.999 219.202C254.56 218.232 255.601 217.909 256.242 218.232L256.643 218.475C257.844 215.969 258.886 213.464 259.767 210.797L259.366 210.635C258.565 210.393 258.164 209.423 258.405 208.372L261.69 195.926C261.93 194.876 262.891 194.229 263.532 194.472L263.933 194.633C264.493 191.966 264.734 189.218 264.974 186.39H264.574C263.773 186.39 263.131 185.42 263.131 184.369V171.519C263.131 170.468 263.773 169.499 264.574 169.499H264.974C264.734 166.67 264.333 163.922 263.933 161.255L263.532 161.417C262.731 161.659 261.93 160.851 261.69 159.962L258.405 147.516C258.164 146.465 258.565 145.495 259.366 145.253L259.767 145.092C258.806 142.425 257.764 139.919 256.643 137.414L256.242 137.656C255.601 138.06 254.56 137.656 253.999 136.686L247.51 125.533C246.949 124.563 247.109 123.513 247.75 123.109L248.15 122.866C246.548 120.603 244.866 118.34 243.183 116.239L242.943 116.482C242.382 117.047 241.341 116.886 240.54 116.078L231.567 106.945C230.766 106.137 230.606 105.086 231.167 104.521L231.407 104.278C229.324 102.581 227.161 100.803 224.838 99.2674L224.597 99.6715C224.197 100.318 223.155 100.48 222.194 99.9139L211.138 93.3676C210.177 92.8019 209.857 91.7513 210.177 91.1047L210.418 90.7006C209.136 90.0541 207.614 89.4075 206.171 88.8418V94.5799C216.586 99.1057 225.959 105.571 233.65 113.572C249.993 130.059 260.007 152.608 260.007 177.742C260.007 202.877 249.993 225.425 233.65 241.912C217.948 257.753 196.558 267.774 172.684 268.502V268.097V267.289L172.925 239.811Z" fill="white"/>
<path d="M199.918 81.0814C200.559 81.3239 200.959 81.8896 200.959 82.6978V98.215C200.959 98.8615 200.559 99.5081 199.918 99.8313V100.801C210.733 105.004 220.347 111.307 228.358 119.47C243.259 134.503 252.312 155.03 252.312 177.902C252.312 200.774 243.098 221.463 228.358 236.334C215.7 249.103 199.036 257.751 180.29 260.014V259.286V258.721V239.89H177.887V263.165C198.316 261.307 216.741 252.255 230.441 238.435C234.126 234.717 237.411 230.757 240.455 226.312L240.214 226.15C239.814 225.908 239.574 225.342 239.814 224.939L242.858 220.17C243.098 219.766 243.659 219.605 244.14 219.928L244.38 220.089C251.35 207.643 255.436 193.258 255.436 177.821C255.436 162.385 251.35 147.918 244.22 135.311L244.06 135.472C243.659 135.715 243.018 135.634 242.778 135.23L239.734 130.462C239.493 130.057 239.574 129.492 240.134 129.249L240.295 129.088C237.411 124.804 234.126 120.844 230.521 117.288C222.59 109.287 213.136 102.983 202.642 98.5382V97.2452V74.3735L204.725 70.4942C203.923 70.2518 203.122 69.9285 202.481 69.8477L200.078 74.131L199.918 81.0814Z" fill="white"/>
<path d="M172.992 201.018H167.625V206.594H172.992V201.018Z" fill="white"/>
<path d="M156.098 164.57H154.656V203.524H162.988V201.019H158.662V149.214H154.656V153.578H156.098C156.9 153.578 157.54 154.144 157.54 154.871V163.357C157.54 164.084 156.9 164.57 156.098 164.57Z" fill="white"/>
<path d="M147.363 164.569V206.514H149.767V149.133H147.363V153.497C148.164 153.497 148.645 154.144 148.645 154.79V163.276C148.725 164.084 148.164 164.569 147.363 164.569Z" fill="white"/>
<path d="M190.465 117.856V120.281C195.351 121.978 199.918 124.403 204.164 127.151H209.531H207.929C202.562 123.19 196.794 119.958 190.465 117.856Z" fill="white"/>
<path d="M144.399 204.413H144.239V206.515H146.322V164.57H144.639C143.838 164.57 143.197 164.004 143.197 163.277V159.721H138.711V199.807C139.112 199.807 139.352 200.049 139.352 200.373V203.928C139.352 204.171 139.112 204.494 138.711 204.494H138.551V206.595H140.634V204.494H140.474C140.073 204.494 139.832 204.252 139.832 203.928V200.373C139.832 200.13 140.073 199.807 140.474 199.807H141.675C142.076 199.807 142.316 200.049 142.316 200.373V203.928C142.316 204.171 142.076 204.494 141.675 204.494H141.515V206.595H143.598V204.494H143.438C143.037 204.494 142.797 204.252 142.797 203.928V200.373C142.797 200.13 143.037 199.807 143.438 199.807H144.639C145.04 199.807 145.28 200.049 145.28 200.373V203.928C144.88 204.171 144.639 204.413 144.399 204.413Z" fill="white"/>
<path d="M150.319 126.985V121.409C146.234 122.864 142.388 124.723 138.863 126.985H150.319Z" fill="white"/>
<path d="M138.561 158.509H143.048V154.953C143.048 154.307 143.689 153.66 144.49 153.66H146.172V149.296H134.876V155.438H133.674H127.105V169.905H127.906C128.707 169.905 129.349 170.471 129.349 171.198V174.754H137.36V158.509H138.321H138.561Z" fill="white"/>
<path d="M137.52 204.412H137.36C136.959 204.412 136.719 204.17 136.719 203.847V200.29C136.719 200.048 136.959 199.725 137.36 199.725V175.803H129.349V179.358C129.349 180.005 128.708 180.652 127.906 180.652H127.105V209.989H131.351V206.271H137.68L137.52 204.412Z" fill="white"/>
<path d="M193.173 184.693V149.214H190.77V206.595H193.173V195.685C192.372 195.685 191.891 195.038 191.891 194.391V185.906C191.891 185.178 192.532 184.693 193.173 184.693Z" fill="white"/>
<path d="M201.765 126.985C198.24 124.723 194.394 122.864 190.309 121.409V126.985H201.765Z" fill="white"/>
<path d="M174.289 201.019V206.595H189.671V149.214H187.267V184.693H187.508C188.309 184.693 188.949 185.259 188.949 185.987V194.472C188.949 195.119 188.309 195.765 187.508 195.765H187.267V203.605V204.817H186.066H176.612V203.847V203.605V201.099L174.289 201.019Z" fill="white"/>
<path d="M153.21 153.578H153.45V149.214H151.047V206.595H166.428V201.019H164.025V203.524V203.766V204.736H154.652H153.45V164.65H153.21C152.409 164.65 151.768 164.084 151.768 163.357V154.871C151.768 154.144 152.409 153.578 153.21 153.578Z" fill="white"/>
<path d="M177.812 203.524H186.144V195.684H184.702C183.901 195.684 183.26 195.118 183.26 194.391V185.905C183.26 185.259 183.901 184.612 184.702 184.612H186.144V149.133H182.219V200.938H177.973L177.812 203.524Z" fill="white"/>
<path d="M136.627 126.987C140.873 124.159 145.439 121.815 150.326 120.118V117.693C143.997 119.794 138.069 123.027 132.781 126.987H136.627Z" fill="white"/>
<path d="M196.232 80.9209H198.636V73.728L201.039 69.4447C200.398 69.2022 199.597 69.0406 198.956 68.8789L196.152 73.6472L196.232 80.9209Z" fill="white"/>
<path d="M138.465 276.825C138.305 276.663 138.064 276.663 137.904 276.582L135.821 275.774C135.581 275.612 135.421 275.612 135.18 275.612C135.02 275.612 134.94 275.612 134.78 275.774C134.62 275.774 134.539 275.936 134.379 276.017C134.219 276.178 134.219 276.42 134.139 276.663L133.578 278.118C133.418 278.36 133.418 278.684 133.418 278.764C133.418 278.926 133.418 279.168 133.418 279.33C133.418 279.492 133.578 279.573 133.658 279.734C133.818 279.896 134.059 279.896 134.219 279.977L136.302 280.785C136.542 280.946 136.702 280.946 136.943 280.946C137.103 280.946 137.183 280.946 137.344 280.785C137.504 280.623 137.584 280.623 137.584 280.542C137.744 280.381 137.744 280.138 137.824 279.896L138.385 278.441C138.545 278.199 138.545 277.875 138.545 277.794C138.545 277.633 138.545 277.391 138.545 277.391C138.705 277.067 138.545 276.986 138.465 276.825Z" fill="white"/>
<path d="M267.602 222.275C267.442 222.114 267.201 222.033 267.041 222.033L265.599 221.386C265.359 221.225 265.199 221.225 264.958 221.144C264.798 221.144 264.558 221.144 264.397 221.144C264.237 221.144 264.157 221.305 263.997 221.386C263.836 221.548 263.756 221.629 263.756 221.952L262.795 224.053C262.635 224.296 262.635 224.457 262.555 224.7C262.555 224.861 262.555 224.942 262.555 225.104C262.555 225.266 262.715 225.346 262.795 225.508C262.955 225.669 263.195 225.75 263.356 225.75L264.798 226.397C265.038 226.559 265.199 226.559 265.439 226.64C265.599 226.64 265.679 226.64 265.999 226.64C266.16 226.64 266.24 226.478 266.4 226.397C266.56 226.235 266.64 226.155 266.64 225.831L267.602 223.73C267.762 223.487 267.762 223.326 267.842 223.083C267.842 222.922 267.842 222.841 267.842 222.679C267.842 222.356 267.762 222.356 267.602 222.275Z" fill="white"/>
<path d="M150.412 280.141C150.252 279.979 150.012 279.979 149.771 279.898L147.528 279.333C147.288 279.333 146.967 279.171 146.887 279.171C146.727 279.171 146.647 279.171 146.487 279.333C146.326 279.494 146.246 279.494 146.246 279.736C146.086 279.898 146.086 280.141 146.006 280.383L145.605 282C145.605 282.242 145.445 282.565 145.445 282.646C145.445 282.727 145.445 282.888 145.605 283.05C145.766 283.211 145.766 283.292 146.006 283.292C146.166 283.454 146.407 283.454 146.647 283.535L148.89 284.101C149.13 284.101 149.451 284.262 149.531 284.262C149.691 284.262 149.771 284.262 149.931 284.101C150.092 283.939 150.172 283.858 150.172 283.697C150.332 283.535 150.332 283.292 150.412 283.05L150.813 281.434C150.813 281.191 150.973 280.868 150.973 280.787C150.973 280.706 150.973 280.545 150.813 280.383C150.653 280.302 150.653 280.141 150.412 280.141Z" fill="white"/>
<path d="M276.826 170.711C276.666 170.711 276.425 170.711 276.185 170.711H274.583C274.342 170.711 274.022 170.711 273.942 170.873C273.782 170.873 273.702 171.034 273.541 171.115C273.381 171.277 273.381 171.357 273.301 171.519C273.301 171.681 273.301 171.923 273.301 172.166L273.461 174.429C273.461 174.671 273.461 174.994 273.621 175.075C273.621 175.237 273.782 175.317 273.862 175.479C274.022 175.641 274.102 175.641 274.262 175.722C274.422 175.722 274.663 175.722 274.903 175.722H276.505C276.746 175.722 277.066 175.722 277.146 175.56C277.306 175.56 277.386 175.398 277.547 175.317C277.707 175.156 277.707 175.075 277.787 174.914C277.787 174.752 277.787 174.509 277.787 174.267L277.627 172.004C277.627 171.762 277.627 171.438 277.467 171.357C277.467 171.196 277.306 171.115 277.226 170.954C277.066 170.873 276.986 170.873 276.826 170.711Z" fill="white"/>
<path d="M257.196 239.081L255.915 238.111C255.674 237.949 255.514 237.868 255.354 237.707C255.194 237.545 255.113 237.545 254.953 237.545C254.793 237.545 254.713 237.707 254.553 237.788C254.392 237.949 254.312 238.03 254.152 238.353L252.87 240.212C252.71 240.455 252.63 240.616 252.63 240.778C252.63 240.939 252.47 241.02 252.63 241.182C252.63 241.344 252.79 241.424 252.87 241.586C253.031 241.748 253.111 241.829 253.431 241.99L254.713 242.96C254.953 243.122 255.113 243.203 255.274 243.364C255.434 243.364 255.514 243.526 255.674 243.526C255.835 243.526 255.915 243.364 256.075 243.364C256.235 243.203 256.315 243.122 256.475 242.798L257.757 240.939C257.917 240.697 257.998 240.536 257.998 240.374C257.998 240.212 258.158 240.131 257.998 239.97C257.998 239.808 257.837 239.727 257.757 239.565C257.597 239.404 257.437 239.242 257.196 239.081Z" fill="white"/>
<path d="M275.469 196.33C275.308 196.168 275.068 196.168 274.828 196.168L273.225 195.926C272.985 195.926 272.665 195.926 272.584 195.926C272.424 195.926 272.344 195.926 272.184 196.087C272.024 196.249 271.944 196.33 271.944 196.492C271.783 196.653 271.783 196.896 271.783 197.138L271.383 199.401C271.383 199.644 271.383 199.967 271.383 200.048C271.383 200.209 271.383 200.29 271.543 200.452C271.703 200.613 271.783 200.694 271.944 200.694C272.104 200.856 272.344 200.856 272.584 200.856L274.187 201.098C274.427 201.098 274.747 201.26 274.828 201.098C274.988 201.098 275.068 201.098 275.228 200.937C275.388 200.775 275.469 200.775 275.469 200.533C275.629 200.371 275.629 200.128 275.629 199.886L276.029 197.623C276.029 197.381 276.029 197.057 276.029 196.977C276.029 196.896 276.029 196.734 275.869 196.572C275.789 196.653 275.629 196.492 275.469 196.33Z" fill="white"/>
<path d="M277.304 183.887C277.144 183.725 277.064 183.725 276.904 183.645C276.744 183.645 276.503 183.483 276.263 183.483L274.661 183.321C274.42 183.321 274.1 183.321 274.02 183.321C273.859 183.321 273.779 183.483 273.619 183.483C273.459 183.645 273.459 183.725 273.379 183.887C273.379 184.048 273.219 184.291 273.219 184.533L273.059 186.958C273.059 187.2 273.059 187.524 273.059 187.605C273.059 187.686 273.219 187.847 273.219 188.009C273.379 188.17 273.459 188.17 273.619 188.251C273.779 188.251 274.02 188.413 274.26 188.413L275.862 188.574C276.103 188.574 276.423 188.574 276.503 188.574C276.663 188.574 276.744 188.413 276.904 188.413C277.064 188.251 277.064 188.17 277.144 188.009C277.144 187.847 277.304 187.605 277.304 187.362L277.465 185.099C277.465 184.857 277.465 184.533 277.465 184.453C277.465 184.129 277.304 183.968 277.304 183.887Z" fill="white"/>
<path d="M269.213 145.094C269.053 145.255 268.973 145.255 268.813 145.336C268.652 145.498 268.652 145.579 268.652 145.74C268.652 145.902 268.652 146.144 268.813 146.387L269.373 148.649C269.373 148.892 269.534 149.054 269.614 149.296C269.774 149.458 269.774 149.539 269.854 149.7C270.014 149.862 270.094 149.862 270.254 149.862C270.415 149.862 270.655 149.862 270.895 149.7L272.498 149.296C272.738 149.134 272.898 149.134 273.138 149.054C273.299 148.892 273.379 148.892 273.539 148.811C273.699 148.649 273.699 148.569 273.699 148.407C273.699 148.246 273.699 148.003 273.539 147.761L272.978 145.498C272.978 145.255 272.818 145.094 272.738 144.851C272.578 144.689 272.578 144.608 272.498 144.447C272.338 144.285 272.257 144.285 272.097 144.285C271.937 144.285 271.697 144.285 271.456 144.447L269.854 144.851C269.614 144.932 269.293 145.094 269.213 145.094Z" fill="white"/>
<path d="M196.228 280.057C196.228 279.814 196.068 279.491 195.988 279.41C195.828 279.249 195.828 279.168 195.748 279.006C195.668 278.845 195.508 278.845 195.347 278.845C195.187 278.845 194.947 278.845 194.706 279.006L192.463 279.572C192.223 279.572 192.063 279.733 191.822 279.814C191.662 279.976 191.582 279.976 191.422 280.057C191.261 280.219 191.262 280.299 191.262 280.461C191.262 280.623 191.261 280.865 191.422 281.107L191.822 282.724C191.822 282.966 191.982 283.29 192.063 283.371C192.223 283.532 192.223 283.613 192.303 283.774C192.463 283.936 192.543 283.936 192.704 283.936C192.864 283.936 193.104 283.936 193.345 283.774L195.588 283.209C195.828 283.209 195.988 283.047 196.228 282.966C196.389 282.805 196.469 282.805 196.629 282.724C196.789 282.562 196.789 282.481 196.789 282.32C196.789 282.158 196.789 281.916 196.629 281.673L196.228 280.057Z" fill="white"/>
<path d="M220.346 272.219L219.705 270.764C219.545 270.522 219.465 270.36 219.304 270.199C219.144 270.037 219.064 269.956 218.904 269.956C218.744 269.956 218.664 269.956 218.504 269.956C218.343 269.956 218.103 270.118 217.863 270.199L215.86 271.249C215.62 271.411 215.459 271.492 215.299 271.653C215.139 271.815 215.059 271.896 215.059 272.058C215.059 272.219 215.059 272.3 215.059 272.623C215.059 272.785 215.219 273.027 215.299 273.27L215.94 274.725C216.1 274.967 216.18 275.128 216.34 275.29C216.501 275.452 216.581 275.533 216.741 275.533C216.901 275.533 216.981 275.533 217.142 275.533C217.302 275.533 217.542 275.371 217.783 275.29L219.785 274.24C220.026 274.078 220.186 273.997 220.346 273.835C220.506 273.674 220.587 273.593 220.587 273.432C220.587 273.27 220.587 273.189 220.587 272.866C220.587 272.704 220.506 272.461 220.346 272.219Z" fill="white"/>
<path d="M208.095 276.181C207.934 275.938 207.934 275.776 207.854 275.534C207.694 275.373 207.614 275.292 207.454 275.292C207.294 275.292 207.214 275.13 207.053 275.13C206.893 275.13 206.653 275.13 206.412 275.292L204.329 276.1C204.089 276.262 203.929 276.261 203.768 276.342C203.608 276.423 203.528 276.585 203.528 276.746C203.528 276.908 203.368 276.989 203.528 277.312C203.528 277.474 203.688 277.716 203.688 277.958L204.249 279.413C204.409 279.656 204.409 279.817 204.49 280.06C204.65 280.222 204.73 280.302 204.89 280.302C205.05 280.464 205.131 280.464 205.291 280.464C205.451 280.464 205.691 280.302 205.931 280.302L208.014 279.494C208.255 279.332 208.415 279.332 208.575 279.252C208.735 279.09 208.816 279.009 208.816 278.848C208.816 278.686 208.976 278.605 208.816 278.443C208.816 278.282 208.655 278.039 208.655 277.797L208.095 276.181Z" fill="white"/>
<path d="M176.92 282.404C176.92 282.243 176.76 282.162 176.68 282C176.52 281.838 176.439 281.838 176.279 281.758C176.119 281.758 175.879 281.758 175.638 281.758H173.395C173.155 281.758 172.834 281.758 172.754 281.919C172.594 281.919 172.514 282.081 172.354 282.162C172.193 282.323 172.193 282.404 172.113 282.566C172.113 282.728 172.113 282.97 172.113 283.212V284.829C172.113 285.071 172.113 285.395 172.273 285.475C172.273 285.637 172.434 285.718 172.514 285.879C172.674 286.041 172.754 286.041 172.914 286.122C173.075 286.122 173.315 286.122 173.556 286.122H175.799C176.039 286.122 176.359 286.122 176.439 285.96C176.6 285.96 176.68 285.798 176.84 285.718C177 285.556 177 285.475 177 285.314C177 285.152 177 284.91 177 284.667V283.051C177 282.808 176.92 282.566 176.92 282.404Z" fill="white"/>
<path d="M250.866 247.489L249.664 246.439C249.424 246.277 249.263 246.196 249.103 246.035C248.943 245.873 248.863 245.873 248.702 245.873C248.542 245.873 248.462 245.873 248.302 246.035C248.142 246.196 248.062 246.277 247.741 246.439L246.299 248.136C246.139 248.297 246.059 248.54 245.899 248.702C245.738 248.863 245.738 248.944 245.738 249.106C245.738 249.267 245.899 249.348 245.899 249.51C246.059 249.671 246.139 249.752 246.299 250.076L247.501 251.126C247.661 251.288 247.902 251.369 248.062 251.53C248.222 251.692 248.302 251.692 248.462 251.692C248.622 251.692 248.702 251.692 248.863 251.53C249.023 251.369 249.103 251.288 249.424 251.126L250.866 249.429C251.026 249.267 251.106 249.025 251.266 248.863C251.426 248.702 251.426 248.621 251.426 248.459C251.426 248.297 251.266 248.217 251.266 248.055C251.266 247.732 251.026 247.651 250.866 247.489Z" fill="white"/>
<path d="M241.903 256.781L240.861 255.568C240.701 255.326 240.461 255.165 240.301 255.165C240.14 255.003 240.06 255.003 239.9 255.003C239.74 255.003 239.659 255.003 239.499 255.165C239.339 255.326 239.099 255.407 238.938 255.568L237.256 257.023C237.096 257.185 236.855 257.266 236.855 257.589C236.695 257.751 236.695 257.832 236.695 257.993C236.695 258.155 236.695 258.235 236.855 258.397C237.016 258.559 237.096 258.801 237.256 258.963L238.298 260.175C238.458 260.418 238.538 260.579 238.858 260.579C239.019 260.741 239.099 260.741 239.259 260.741C239.419 260.741 239.499 260.741 239.66 260.579C239.82 260.418 239.9 260.337 240.22 260.175L241.903 258.721C242.063 258.559 242.303 258.478 242.303 258.155C242.464 257.993 242.464 257.912 242.464 257.751C242.464 257.589 242.464 257.508 242.303 257.347C242.223 257.185 242.223 257.023 241.903 256.781Z" fill="white"/>
<path d="M205.686 71.0641L203.603 74.7818V97.7343C214.018 102.098 223.391 108.483 231.082 116.484C234.767 120.202 238.052 124.162 241.096 128.607L241.657 128.364C242.057 128.122 242.698 128.203 242.938 128.607L245.983 133.375C246.223 133.779 246.143 134.345 245.582 134.587L245.021 134.83C252.232 147.599 256.317 162.227 256.317 177.987C256.317 193.504 252.232 208.132 245.102 220.902L245.502 221.144C245.903 221.387 246.143 221.952 245.903 222.356L242.858 227.125C242.618 227.529 242.057 227.69 241.577 227.367L241.336 227.125C238.292 231.489 234.847 235.611 231.162 239.49C216.982 253.795 197.835 263.17 176.685 264.705V264.139V263.493V240.137H174.282V267.615C197.194 266.645 218.024 256.866 233.165 241.43C249.268 225.185 259.121 202.879 259.121 178.068C259.121 153.337 249.268 130.951 233.165 114.706C225.234 106.705 215.78 100.24 205.286 95.7138V95.1481V94.0974V87.147H206.487V86.9854C208.17 87.632 209.932 88.4401 211.454 89.2483L211.855 88.6018C212.255 87.9552 213.297 87.7936 214.258 88.3593L225.314 94.9056C226.275 95.4713 226.596 96.522 226.275 97.1685L225.874 97.8151C228.278 99.5123 230.521 101.29 232.684 103.149L233.245 102.583C233.806 102.018 234.847 102.179 235.648 102.987L244.701 112.12C245.502 112.928 245.662 113.979 245.102 114.545L244.541 115.11C246.383 117.373 248.226 119.636 249.828 121.98L250.469 121.576C251.11 121.171 252.152 121.576 252.712 122.545L259.202 133.699C259.762 134.668 259.602 135.719 258.961 136.123L258.32 136.527C259.522 139.194 260.723 141.861 261.605 144.609L262.246 144.447C263.047 144.205 263.848 145.013 264.088 145.902L267.373 158.348C267.613 159.399 267.213 160.368 266.412 160.611L265.771 160.773C266.331 163.682 266.732 166.511 266.972 169.42H267.773C268.575 169.42 269.216 170.39 269.216 171.441V184.291C269.216 185.341 268.575 186.311 267.773 186.311H266.972C266.732 189.221 266.331 192.13 265.771 194.959L266.412 195.121C267.213 195.363 267.613 196.333 267.373 197.383L264.088 209.83C263.848 210.88 262.886 211.527 262.246 211.284L261.605 211.123C260.563 213.951 259.522 216.538 258.32 219.205L258.961 219.608C259.602 220.013 259.762 221.063 259.202 222.033L252.712 233.186C252.152 234.156 251.11 234.479 250.469 234.156L249.828 233.752C248.146 236.176 246.383 238.52 244.541 240.621L245.102 241.187C245.662 241.753 245.502 242.803 244.701 243.612L235.648 252.744C234.847 253.552 233.806 253.714 233.245 253.148L232.684 252.582C230.441 254.441 228.198 256.3 225.874 257.917L226.275 258.563C226.676 259.21 226.275 260.26 225.314 260.826L214.258 267.372C213.297 267.938 212.255 267.776 211.855 267.13L211.454 266.483C208.81 267.695 206.167 268.908 203.443 269.797L203.603 270.443C203.843 271.252 203.043 272.06 202.161 272.302L189.824 275.616C188.782 275.858 187.821 275.454 187.581 274.646L187.42 274C184.536 274.565 181.732 274.969 178.849 275.212V276.02C178.849 276.828 177.887 277.475 176.846 277.475H164.108C163.066 277.475 162.105 276.828 162.105 276.02V275.212C159.221 274.969 156.337 274.565 153.533 274L153.373 274.646C153.132 275.454 152.171 275.858 151.13 275.616L138.792 272.302C137.751 272.06 137.11 271.09 137.35 270.443L137.51 269.797C134.706 268.746 132.143 267.695 129.499 266.483L129.099 267.13C128.698 267.776 127.656 267.938 126.695 267.372L115.639 260.826C114.678 260.26 114.358 259.21 114.678 258.563L115.079 257.917C112.676 256.219 110.352 254.441 108.269 252.582L107.709 253.148C107.148 253.714 106.106 253.552 105.305 252.744L96.2523 243.612C95.4512 242.803 95.291 241.753 95.8518 241.187L96.4126 240.621C94.57 238.358 92.7274 236.096 91.1251 233.752L90.4843 234.156C89.8433 234.56 88.8019 234.156 88.2411 233.186L81.752 222.033C81.1912 221.063 81.3514 220.013 81.9923 219.608L82.6332 219.205C81.4315 216.538 80.2298 213.871 79.3486 211.123L78.7077 211.284C77.9066 211.527 77.1054 210.719 76.8651 209.83L73.5805 197.383C73.3402 196.333 73.7407 195.363 74.5418 195.121L75.1827 194.959C74.622 192.049 74.2214 189.221 73.981 186.311H73.1799C72.3788 186.311 71.7379 185.341 71.7379 184.291V171.441C71.7379 170.39 72.3788 169.42 73.1799 169.42H73.981C74.2214 166.511 74.622 163.601 75.1827 160.773L74.5418 160.611C73.7407 160.368 73.3402 159.399 73.5805 158.348L76.8651 145.902C77.1054 144.851 78.0668 144.205 78.7077 144.447L79.3486 144.609C80.3901 141.78 81.4315 139.194 82.6332 136.527L81.9923 136.123C81.3514 135.719 81.1912 134.668 81.752 133.699L88.2411 122.545C88.8019 121.576 89.8433 121.252 90.4843 121.576L91.1251 121.98C92.8075 119.555 94.57 117.211 96.4126 115.11L95.8518 114.545C95.291 113.979 95.4512 112.928 96.2523 112.12L105.305 102.987C106.106 102.179 107.148 102.018 107.709 102.583L108.269 103.149C110.512 101.29 112.756 99.4315 115.079 97.8151L114.678 97.1685C114.278 96.522 114.678 95.4713 115.639 94.9056L126.695 88.3593C127.656 87.7936 128.698 87.9552 129.099 88.6018L129.499 89.2483C131.101 88.4401 132.623 87.7936 134.226 87.147L134.466 86.9854V87.147H135.427V94.3399V95.3097V95.5521C125.013 100.078 115.639 106.544 107.789 114.545C91.6859 130.789 81.8321 153.095 81.8321 177.906C81.8321 202.637 91.6859 225.023 107.789 241.268C123.09 256.543 143.759 266.402 166.671 267.453V239.975H164.268V263.331V263.978V264.544C143.038 262.927 123.811 253.633 109.792 239.328C106.106 235.611 102.662 231.489 99.6169 226.963L99.3767 227.205C98.9762 227.448 98.3352 227.367 98.095 226.963L95.0506 222.195C94.8103 221.791 94.8904 221.225 95.4512 220.982L95.8518 220.74C88.7218 208.132 84.636 193.504 84.636 177.825C84.636 162.147 88.7218 147.438 95.9319 134.668L95.3711 134.426C94.9706 134.184 94.7302 133.618 94.9706 133.213L98.0149 128.445C98.2551 128.041 98.8161 127.879 99.2966 128.203L99.8575 128.445C102.742 124.081 106.186 120.04 109.872 116.322C117.642 108.483 127.016 102.018 137.35 97.5726V74.2161L138.552 72.1148L140.154 69.2861C121.568 74.6202 104.985 84.5608 91.6859 97.9767C71.5777 118.262 59 146.468 59 177.502C59 208.537 71.4976 236.742 91.6859 257.028C111.874 277.313 139.754 290.001 170.517 290.001C201.28 290.001 229.239 277.394 249.348 257.028C269.456 236.742 282.033 208.537 282.033 177.502C282.033 146.468 269.536 118.262 249.348 97.9767C237.171 86.0964 222.35 76.6406 205.686 71.0641ZM216.822 80.1158C216.822 80.5199 216.661 80.924 216.421 81.3281L215.78 82.9445C215.62 83.3486 215.38 83.7526 215.14 83.9951C214.899 84.2376 214.579 84.3992 214.338 84.5608C214.098 84.7225 213.697 84.7225 213.377 84.5608C212.977 84.5608 212.576 84.3992 212.175 84.1567L210.092 83.1869C209.692 82.9445 209.291 82.7828 209.051 82.5404C208.81 82.2979 208.49 81.9746 208.41 81.7322C208.25 81.4897 208.25 81.1665 208.25 80.7624C208.25 80.3583 208.41 79.9542 208.65 79.5501L209.291 77.9337C209.451 77.5296 209.692 77.1255 209.932 76.8831C210.173 76.6406 210.493 76.479 210.733 76.3173C210.974 76.1557 211.374 76.1557 211.695 76.3173C212.095 76.3173 212.496 76.479 212.896 76.7214L214.979 77.6913C215.38 77.9337 215.78 78.0954 216.021 78.3378C216.261 78.5803 216.581 78.9036 216.581 79.146C216.822 79.4693 216.902 79.8734 216.822 80.1158ZM223.471 83.0253L220.587 88.1977C220.427 88.3593 220.427 88.3593 220.347 88.3593L219.385 87.7936C219.225 87.632 219.225 87.632 219.225 87.5511L221.709 83.0253C221.869 82.8636 221.709 82.7828 221.548 82.7828L220.987 82.5404C220.827 82.3787 220.827 82.3787 220.827 82.2979L221.228 81.4897C221.388 81.3281 221.388 81.3281 221.468 81.3281L222.67 81.9746C222.91 82.1363 223.071 82.3787 223.231 82.5404C223.631 82.6212 223.631 82.7828 223.471 83.0253ZM233.886 90.6222C233.725 90.8647 233.645 91.2688 233.325 91.6729L232.364 93.1276C232.123 93.5317 231.803 93.7742 231.562 94.0974C231.322 94.3399 231.002 94.5015 230.601 94.5015C230.361 94.5015 229.96 94.5015 229.64 94.3399C229.239 94.1783 228.999 93.9358 228.438 93.6934L226.596 92.4002C226.195 92.1578 225.794 91.8345 225.634 91.5921C225.394 91.3496 225.234 91.0263 225.234 90.6222C225.234 90.3798 225.234 89.9757 225.394 89.6524C225.554 89.2483 225.634 89.0059 225.954 88.6018L226.916 87.147C227.156 86.743 227.477 86.5005 227.717 86.1772C227.957 85.9348 228.278 85.7731 228.678 85.7731C228.919 85.7731 229.319 85.7731 229.64 85.9348C230.041 86.0964 230.281 86.3389 230.841 86.5813L232.684 87.8744C233.085 88.1169 233.485 88.4401 233.645 88.8442C233.886 89.0867 234.046 89.4099 234.046 89.814C234.046 89.9757 234.046 90.2181 233.886 90.6222ZM125.654 78.4186C125.814 78.1762 126.054 77.8529 126.295 77.6104C126.535 77.368 126.936 77.2063 127.496 76.9639L129.579 76.1557C130.14 75.9941 130.54 75.9133 130.781 75.7516C131.181 75.7516 131.422 75.7516 131.742 75.9133C131.983 76.0749 132.303 76.1557 132.543 76.479C132.784 76.7214 132.944 77.1255 133.104 77.5296L133.745 79.146C133.905 79.5501 133.985 79.9542 133.985 80.3583C133.985 80.7624 133.985 81.0048 133.825 81.3281C133.665 81.5706 133.425 81.8938 133.184 82.1363C132.944 82.3787 132.543 82.5404 131.983 82.7828L129.9 83.591C129.339 83.7526 128.938 83.8335 128.698 83.9951C128.297 83.9951 128.057 83.9951 127.737 83.8335C127.496 83.6718 127.176 83.591 126.936 83.2677C126.695 83.0253 126.535 82.6212 126.295 82.2171L125.654 80.6008C125.493 80.1967 125.413 79.7926 125.413 79.3885C125.573 79.0652 125.573 78.6611 125.654 78.4186ZM118.283 81.4897L119.485 80.8432C119.726 80.6816 120.046 80.6816 120.126 80.6816C120.286 80.6816 120.526 80.924 120.687 81.2473L123.33 86.5813C123.491 86.743 123.33 86.8238 123.17 86.8238L122.209 87.3895C122.049 87.5511 121.969 87.3895 121.969 87.2279L119.565 82.5404C119.565 82.3787 119.405 82.3787 119.325 82.3787L118.764 82.6212C118.604 82.7828 118.524 82.6212 118.524 82.4596L118.123 81.6514C118.203 81.5706 118.203 81.5706 118.283 81.4897ZM108.189 88.5209C108.349 88.2785 108.429 87.9552 108.75 87.7128C108.99 87.4703 109.311 87.1471 109.711 86.9046L111.714 85.6923C112.115 85.4499 112.515 85.1266 112.916 85.1266C113.316 84.9649 113.557 84.9649 113.877 84.9649C114.117 84.9649 114.438 85.1266 114.678 85.369C114.919 85.6115 115.239 85.9348 115.479 86.3389L116.441 87.7936C116.681 88.1977 116.841 88.6018 117.002 88.8442C117.162 89.2483 117.162 89.4908 117.002 89.814C116.841 90.0565 116.761 90.3798 116.441 90.6222C116.2 90.8647 115.88 91.188 115.399 91.4304L113.396 92.6427C112.996 92.8852 112.595 93.2084 112.195 93.2084C111.794 93.3701 111.554 93.3701 111.233 93.3701C110.993 93.3701 110.673 93.2084 110.432 92.966C110.192 92.7235 109.872 92.4002 109.631 91.9961L108.67 90.5414C108.429 90.1373 108.269 89.7332 108.109 89.4908C108.189 89.0058 108.189 88.7634 108.189 88.5209ZM101.46 92.8852L102.501 92.077C102.742 91.8345 103.062 91.8345 103.142 91.8345C103.302 91.8345 103.542 91.9961 103.703 92.2386L107.228 96.9261C107.388 97.0877 107.388 97.1685 107.228 97.1685L106.427 97.8151C106.266 97.9767 106.186 97.9767 106.186 97.8151L103.062 93.6934C102.902 93.5317 102.902 93.5317 102.822 93.6934L102.421 94.0974C102.261 94.2591 102.181 94.2591 102.181 94.0974L101.62 93.4509C101.299 93.0468 101.299 93.0468 101.46 92.8852ZM93.128 100.725C93.2882 100.482 93.6888 100.078 93.9291 99.7547L95.6115 98.1384C96.012 97.7343 96.2523 97.4918 96.6531 97.3302C96.8933 97.1685 97.2938 97.0877 97.6141 97.0877C97.9348 97.0877 98.2551 97.2493 98.5754 97.3302C98.8962 97.411 99.2165 97.7343 99.5368 98.1384L100.739 99.3506C100.979 99.7547 101.299 99.9972 101.54 100.32C101.7 100.563 101.78 100.967 101.78 101.29C101.78 101.614 101.62 101.937 101.54 102.26C101.379 102.503 100.979 102.907 100.739 103.23L99.0563 104.846C98.6559 105.251 98.4153 105.493 98.0149 105.654C97.7746 105.816 97.3738 105.897 97.0535 105.897C96.7332 105.897 96.4126 105.735 96.0921 105.654C95.8518 105.493 95.4512 105.251 95.1308 104.846L93.9291 103.634C93.6888 103.23 93.3683 102.987 93.2882 102.664C93.128 102.422 93.0478 102.018 93.0478 101.694C92.8876 101.371 93.0478 101.129 93.128 100.725ZM84.4758 110.665C84.636 110.261 84.8764 110.019 85.1167 109.614L86.5587 107.756C86.7991 107.352 87.1996 107.109 87.5201 106.786C87.8405 106.463 88.0809 106.382 88.4814 106.382C88.7218 106.382 89.1223 106.382 89.4428 106.544C89.6831 106.705 90.0837 106.947 90.4843 107.19L91.7661 108.241C92.1666 108.483 92.4069 108.806 92.7274 109.211C92.9678 109.453 92.9678 109.776 93.128 110.18C93.128 110.423 93.128 110.827 92.9678 111.15C92.8075 111.554 92.5672 111.797 92.3268 112.201L90.8848 114.06C90.6445 114.464 90.2439 114.706 89.9234 115.029C89.6831 115.272 89.3627 115.434 88.9621 115.434C88.7218 115.434 88.3212 115.434 88.0008 115.272C87.7604 115.11 87.3599 114.868 86.9593 114.626L85.6775 113.575C85.2769 113.332 85.0366 113.009 84.7161 112.605C84.5559 112.362 84.4758 112.039 84.3156 111.635C84.3156 111.312 84.3156 111.069 84.4758 110.665ZM77.1855 121.333C77.3458 120.929 77.4259 120.687 77.7463 120.121L79.0282 118.262C79.2685 117.858 79.5889 117.454 79.8293 117.292C80.0696 117.05 80.3901 116.888 80.6304 116.888C80.8707 116.727 81.2713 116.888 81.5917 116.888C81.9923 117.05 82.2327 117.131 82.6332 117.454L84.0752 118.424C84.4758 118.666 84.7161 118.989 85.0366 119.232C85.357 119.475 85.4372 119.798 85.4372 120.04C85.4372 120.283 85.4372 120.687 85.2769 121.01C85.1167 121.414 85.0366 121.657 84.7161 122.222L83.4344 124.081C83.194 124.485 82.8736 124.889 82.6332 125.132C82.3929 125.374 82.0724 125.536 81.8321 125.697C81.5917 125.859 81.1912 125.697 80.8707 125.697C80.4702 125.536 80.2298 125.455 79.8293 125.132L78.3872 124.162C77.9867 123.919 77.7463 123.596 77.4259 123.354C77.1055 123.111 77.0253 122.788 77.0253 122.545C77.1055 121.98 77.1055 121.737 77.1855 121.333ZM72.7794 129.253L73.3402 128.041C73.5004 127.799 73.5805 127.476 73.901 127.476C74.0612 127.476 74.3015 127.476 74.5418 127.637L79.8293 130.304C79.9895 130.304 79.9895 130.466 79.9895 130.546L79.5889 131.517C79.5889 131.678 79.4287 131.678 79.3486 131.678L74.7021 129.253C74.5418 129.253 74.4617 129.253 74.4617 129.415L74.2214 129.981C74.0612 130.143 74.0612 130.143 73.981 130.143L73.1799 129.738C72.7794 129.577 72.6191 129.415 72.7794 129.253ZM69.8152 135.8L70.376 134.587C70.5362 134.345 70.6163 134.022 70.9368 134.022C71.097 133.86 71.3373 134.022 71.5777 134.184L76.9452 136.608C77.1055 136.608 77.1055 136.77 77.1055 136.85L76.7049 137.82C76.7049 137.982 76.5447 137.982 76.4645 137.982L71.7379 135.881C71.5777 135.881 71.4976 135.881 71.4976 136.042L71.2572 136.608C71.2572 136.77 71.097 136.77 71.0169 136.77L70.2158 136.366C69.7351 135.881 69.7351 135.881 69.8152 135.8ZM66.4505 145.094L67.2516 142.993C67.4118 142.427 67.6522 142.184 67.8124 141.78C68.0527 141.538 68.213 141.215 68.4533 141.134C68.6936 140.972 69.0141 140.972 69.4146 140.972C69.8152 140.972 70.2158 141.134 70.6163 141.215L72.2186 141.78C72.6191 141.942 73.0197 142.184 73.26 142.346C73.5004 142.588 73.8208 142.75 73.901 143.154C74.0612 143.397 74.0612 143.801 74.0612 144.124C74.0612 144.528 73.901 144.932 73.8208 145.336L73.0197 147.438C72.8595 148.003 72.6191 148.246 72.4589 148.65C72.2186 148.892 72.0583 149.216 71.818 149.296C71.5777 149.458 71.2572 149.458 70.8567 149.458C70.4561 149.458 70.0555 149.296 69.655 149.216L68.0527 148.65C67.6522 148.488 67.2516 148.246 67.0113 148.084C66.7709 147.842 66.4505 147.68 66.3703 147.276C66.2101 147.034 66.2101 146.629 66.2101 146.306C66.13 145.902 66.13 145.498 66.4505 145.094ZM64.2073 153.822C64.3676 153.58 64.3676 153.257 64.6079 153.176C64.7681 153.014 65.0084 153.014 65.2488 153.176L70.9368 154.469C71.097 154.469 71.097 154.631 71.097 154.711L70.8567 155.681C70.8567 155.843 70.6965 155.843 70.6163 155.843L65.6493 154.631C65.4891 154.631 65.409 154.631 65.409 154.792L65.2488 155.358C65.2488 155.519 65.0886 155.6 65.0084 155.519L64.2073 155.277C64.0471 155.277 64.0471 155.116 64.0471 155.035L64.2073 153.822ZM62.3647 165.299L62.6051 163.035C62.6051 162.47 62.7653 162.066 62.8454 161.823C63.0056 161.419 63.0858 161.177 63.4062 161.015C63.6465 160.853 63.967 160.773 64.3676 160.611C64.7681 160.611 65.1687 160.611 65.5692 160.611L67.2516 160.853C67.8124 160.853 68.213 161.015 68.4533 161.096C68.6936 161.258 69.0141 161.5 69.2544 161.662C69.4146 161.904 69.4948 162.227 69.655 162.632C69.655 163.035 69.655 163.44 69.655 163.925L69.4146 166.188C69.4146 166.753 69.2544 167.157 69.1743 167.4C69.0141 167.804 68.934 168.046 68.6135 168.208C68.3732 168.369 68.0527 168.45 67.6522 168.612C67.2516 168.612 66.851 168.612 66.4505 168.612L64.7681 168.369C64.2073 168.369 63.8068 168.208 63.5664 168.127C63.3261 167.966 63.0056 167.723 62.7653 167.561C62.6051 167.319 62.525 166.996 62.3647 166.592C62.2045 166.188 62.2045 165.783 62.3647 165.299ZM61.5636 175.482V174.189C61.5636 173.784 61.7238 173.623 61.8039 173.542C61.9642 173.381 62.2045 173.381 62.4448 173.381L68.213 173.542C68.3732 173.542 68.4533 173.704 68.4533 173.784V174.835C68.4533 174.997 68.2931 175.077 68.213 175.077L63.0858 174.916C62.9255 174.916 62.8454 174.916 62.8454 175.158V175.724C62.8454 175.886 62.6852 175.967 62.6051 175.967H61.6437C61.6437 175.805 61.5636 175.643 61.5636 175.482ZM62.0443 186.958C61.8841 186.554 61.8039 186.15 61.8039 185.665L61.6437 183.402C61.6437 182.836 61.6437 182.432 61.6437 182.109C61.8039 181.705 61.8841 181.462 62.0443 181.139C62.2045 180.897 62.4448 180.735 62.8454 180.573C63.0858 180.412 63.4863 180.331 64.0471 180.331L65.7295 180.169C66.2903 180.169 66.6908 180.169 66.9311 180.169C67.3317 180.331 67.572 180.412 67.7323 180.573C67.9726 180.816 68.1328 181.139 68.2931 181.381C68.4533 181.785 68.4533 182.19 68.5334 182.674L68.6936 184.938C68.6936 185.503 68.6936 185.907 68.6936 186.231C68.6936 186.634 68.5334 186.877 68.2931 187.2C68.1328 187.443 67.8925 187.605 67.4919 187.766C67.2516 187.928 66.851 188.008 66.2903 188.008L64.6079 188.17C64.0471 188.17 63.6465 188.17 63.4062 188.17C63.0056 188.008 62.7653 187.928 62.6051 187.766C62.3647 187.605 62.2045 187.281 62.0443 186.958ZM64.4476 200.616C64.2073 200.455 64.0471 200.212 63.8869 199.808C63.7266 199.566 63.6465 199 63.4863 198.596L63.0858 196.333C62.9255 195.767 62.9255 195.363 62.9255 195.04C62.9255 194.636 63.0858 194.393 63.1659 194.07C63.3261 193.827 63.5664 193.666 63.8068 193.423C64.0471 193.262 64.4476 193.181 65.0084 193.019L66.6908 192.777C67.2516 192.615 67.6522 192.615 67.8925 192.777C68.2931 192.777 68.5334 192.939 68.8538 193.181C69.0942 193.342 69.2544 193.585 69.4146 193.989C69.5748 194.232 69.655 194.797 69.8152 195.201L70.2158 197.464C70.376 198.03 70.376 198.434 70.376 198.757C70.376 199.081 70.2158 199.404 70.1356 199.727C69.9754 199.97 69.7351 200.131 69.4948 200.374C69.2544 200.535 68.8538 200.616 68.2931 200.778L66.6107 201.02C66.0499 201.182 65.6493 201.182 65.409 201.02C65.0084 201.02 64.688 200.858 64.4476 200.616ZM68.5334 213.466C68.1328 213.466 67.8925 213.305 67.572 213.224C67.3317 213.062 67.0113 212.82 66.9311 212.577C66.7709 212.335 66.5306 211.931 66.3703 211.365L65.8096 209.102C65.6493 208.537 65.6493 208.132 65.6493 207.809C65.6493 207.486 65.8096 207.163 65.8897 206.839C66.0499 206.597 66.2903 206.273 66.5306 206.193C66.7709 206.031 67.1715 205.789 67.7323 205.789L69.3345 205.384C69.7351 205.223 70.2959 205.223 70.5362 205.223C70.9368 205.223 71.1771 205.384 71.4976 205.465C71.7379 205.627 72.0583 205.87 72.1385 206.112C72.2987 206.354 72.539 206.758 72.6993 207.324L73.3402 209.587C73.5004 210.153 73.5004 210.557 73.5004 210.88C73.5004 211.204 73.3402 211.527 73.26 211.85C73.0998 212.092 72.8595 212.416 72.6191 212.497C72.3788 212.658 71.9782 212.9 71.4175 212.9L69.8152 213.305C69.3345 213.466 68.934 213.466 68.5334 213.466ZM73.901 225.67C73.5004 225.67 73.26 225.67 72.9396 225.508C72.6993 225.347 72.3788 225.266 72.1385 224.862C71.8981 224.619 71.7379 224.215 71.4976 223.811L70.5362 221.71C70.2959 221.306 70.1356 220.74 70.1356 220.498C70.1356 220.094 70.1356 219.851 70.1356 219.528C70.2959 219.285 70.376 218.962 70.6965 218.72C70.9368 218.477 71.3373 218.315 71.7379 218.073L73.3402 217.426C73.7407 217.265 74.1413 217.184 74.5418 217.022C74.9424 217.022 75.1827 217.022 75.5032 217.184C75.8237 217.346 76.064 217.426 76.3043 217.75C76.5447 217.992 76.7049 218.396 76.9452 218.8L77.9066 220.902C78.1469 221.306 78.3071 221.871 78.3071 222.114C78.3071 222.518 78.3071 222.761 78.3071 223.084C78.1469 223.326 78.0668 223.649 77.7463 223.892C77.506 224.134 77.1055 224.296 76.7049 224.538L75.1026 225.185C74.7021 225.589 74.3015 225.589 73.901 225.67ZM77.3458 232.62L76.5447 233.024C76.3844 233.186 76.3043 233.024 76.3043 232.863L75.6634 231.65C75.5032 231.408 75.4231 231.085 75.5032 231.004C75.5032 230.842 75.7435 230.6 75.9038 230.438L81.031 227.529C81.1912 227.367 81.2713 227.529 81.2713 227.69L81.8321 228.66C81.9923 228.822 81.8321 228.903 81.6719 228.903L77.1855 231.57C77.0253 231.731 77.0253 231.731 77.0253 231.812L77.2657 232.378C77.506 232.459 77.506 232.62 77.3458 232.62ZM81.031 238.439L80.2298 239.005C80.0696 239.167 79.9895 239.005 79.9895 238.844L79.3486 237.793C79.1884 237.55 79.1082 237.227 79.1082 237.146C79.1082 236.985 79.2685 236.742 79.5088 236.58L84.3957 233.429C84.5559 233.267 84.636 233.429 84.636 233.59L85.1968 234.398C85.357 234.56 85.1968 234.641 85.1968 234.641L80.9509 237.47C80.7906 237.631 80.7906 237.631 80.9509 237.712L81.1912 238.278C81.1912 238.358 81.1912 238.439 81.031 238.439ZM85.2769 244.42L84.636 244.986C84.4758 245.147 84.3957 245.147 84.3957 244.986L83.5946 243.935C83.3542 243.693 83.3542 243.369 83.3542 243.288C83.3542 243.127 83.5144 242.884 83.7548 242.723L88.4013 239.005C88.5616 238.844 88.6417 238.844 88.6417 239.005L89.2826 239.813C89.4428 239.975 89.4428 240.056 89.2826 240.056L85.1968 243.207C85.0366 243.369 85.0366 243.369 85.1968 243.45L85.5974 243.854C85.357 244.339 85.357 244.339 85.2769 244.42ZM89.4428 248.946L89.8434 249.35C90.0036 249.511 90.0036 249.592 89.8434 249.592L89.2024 250.158C89.0422 250.32 88.9621 250.32 88.9621 250.158L88.0008 249.107C87.7604 248.865 87.7604 248.542 87.7604 248.461C87.7604 248.38 87.9206 248.057 88.161 247.895L92.6473 244.016C92.8075 243.854 92.8876 243.854 92.8876 244.016L93.5285 244.824C93.6888 244.986 93.6888 245.066 93.5285 245.066L89.603 248.542C89.3627 248.784 89.3627 248.946 89.4428 248.946ZM101.46 255.33C101.299 255.573 101.059 255.977 100.659 256.3L99.4567 257.512C99.2165 257.917 98.8161 258.159 98.4954 258.321C98.2551 258.482 97.8547 258.563 97.534 258.563C97.2137 258.563 96.8933 258.402 96.5726 258.321C96.3325 258.159 95.9319 257.917 95.5313 257.512L93.9291 256.058C93.5285 255.654 93.2882 255.411 93.128 255.088C92.9678 254.845 92.8876 254.441 92.8876 254.118C92.8876 253.876 92.8876 253.471 93.128 253.148C93.2882 252.906 93.5285 252.502 93.7689 252.178L94.9706 250.966C95.2109 250.562 95.6115 250.32 95.9319 250.158C96.1723 249.996 96.5726 249.915 96.8933 249.915C97.2137 249.915 97.534 250.077 97.8547 250.158C98.095 250.32 98.4954 250.562 98.8962 250.966L100.578 252.582C100.979 252.987 101.219 253.229 101.379 253.552C101.54 253.795 101.62 254.199 101.62 254.522C101.54 254.764 101.54 255.088 101.46 255.33ZM111.073 263.412C110.913 263.655 110.673 264.059 110.432 264.463L109.391 265.756C109.15 266.16 108.83 266.402 108.429 266.564C108.189 266.726 107.869 266.806 107.468 266.806C107.228 266.806 106.827 266.806 106.507 266.645C106.106 266.483 105.866 266.241 105.465 265.998L103.623 264.544C103.222 264.301 102.982 263.897 102.662 263.574C102.421 263.331 102.261 263.008 102.261 262.604C102.261 262.362 102.261 261.957 102.421 261.634C102.581 261.392 102.822 260.988 103.062 260.584L104.103 259.29C104.344 258.886 104.664 258.644 105.065 258.482C105.305 258.321 105.625 258.24 106.026 258.078C106.266 258.078 106.667 258.078 106.987 258.24C107.388 258.402 107.628 258.644 108.029 258.886L109.872 260.341C110.272 260.584 110.512 260.988 110.833 261.311C111.073 261.553 111.233 261.877 111.233 262.281C111.233 262.685 111.153 263.008 111.073 263.412ZM117.002 265.675L114.198 270.039C114.037 270.201 114.198 270.282 114.198 270.282L114.759 270.524C114.919 270.686 114.919 270.686 114.919 270.767L114.358 271.575C114.198 271.736 114.198 271.736 114.117 271.575L113.076 270.928C112.836 270.767 112.676 270.524 112.515 270.362C112.515 270.201 112.515 269.959 112.676 269.716L115.8 264.786C115.96 264.625 115.96 264.625 116.04 264.786L117.002 265.352C117.082 265.513 117.082 265.513 117.002 265.675ZM122.77 268.988L120.366 273.676C120.366 273.838 120.366 273.919 120.526 273.919L121.087 274.161C121.247 274.323 121.247 274.323 121.247 274.403L120.847 275.212C120.687 275.373 120.687 275.373 120.606 275.373L119.405 274.727C119.165 274.565 118.844 274.484 118.844 274.161C118.844 274 118.844 273.757 119.004 273.514L121.648 268.18C121.808 268.019 121.808 268.019 121.888 268.019L122.85 268.585C122.77 268.746 122.77 268.908 122.77 268.988ZM128.858 271.898L126.775 276.667C126.775 276.828 126.775 276.909 126.936 276.909L127.496 277.151C127.656 277.151 127.656 277.313 127.656 277.394L127.256 278.202C127.256 278.363 127.096 278.363 127.016 278.363L125.814 277.798C125.573 277.636 125.253 277.555 125.253 277.232C125.093 277.07 125.253 276.828 125.253 276.586L127.656 271.171C127.656 271.009 127.817 271.009 127.897 271.009L128.858 271.413C128.858 271.656 128.858 271.817 128.858 271.898ZM140.154 278.849L139.593 280.465C139.433 280.869 139.193 281.273 139.033 281.516C138.792 281.758 138.632 282.081 138.392 282.162C138.151 282.324 137.751 282.324 137.43 282.324C137.03 282.324 136.629 282.162 136.148 282.081L134.066 281.273C133.505 281.111 133.104 280.869 132.864 280.707C132.623 280.465 132.303 280.303 132.223 280.061C132.063 279.818 131.983 279.495 132.063 279.091C132.063 278.687 132.223 278.283 132.303 277.879L132.864 276.262C133.024 275.858 133.264 275.454 133.425 275.212C133.665 274.969 133.825 274.646 134.066 274.565C134.306 274.403 134.626 274.403 135.027 274.403C135.427 274.403 135.828 274.565 136.309 274.646L138.392 275.454C138.952 275.616 139.353 275.858 139.593 276.02C139.834 276.262 140.154 276.424 140.234 276.667C140.394 276.909 140.474 277.232 140.394 277.636C140.314 277.879 140.314 278.283 140.154 278.849ZM152.251 281.758L151.851 283.455C151.69 284.021 151.61 284.263 151.45 284.668C151.29 284.91 151.049 285.233 150.809 285.314C150.569 285.476 150.248 285.557 149.848 285.557C149.447 285.557 149.047 285.557 148.566 285.395L146.323 284.829C145.762 284.668 145.361 284.587 145.121 284.425C144.881 284.263 144.56 284.021 144.32 283.778C144.16 283.536 144.08 283.213 144.08 282.809C144.08 282.404 144.08 282.001 144.24 281.596L144.64 279.899C144.801 279.334 144.881 279.091 145.041 278.687C145.201 278.444 145.441 278.121 145.682 278.04C145.922 277.879 146.243 277.798 146.643 277.798C147.044 277.798 147.444 277.798 147.925 277.96L150.168 278.525C150.729 278.687 151.13 278.768 151.37 278.929C151.61 279.091 151.931 279.334 152.171 279.576C152.331 279.818 152.411 280.142 152.411 280.546C152.411 280.95 152.411 281.354 152.251 281.758ZM158.981 286.688C158.981 286.85 158.82 286.93 158.74 286.85L157.458 286.688C157.218 286.688 156.898 286.526 156.818 286.445C156.737 286.365 156.657 286.041 156.657 285.799L157.458 279.98C157.458 279.818 157.618 279.737 157.699 279.818L158.74 279.98C158.901 279.98 158.981 280.142 158.901 280.222L158.26 285.395C158.26 285.557 158.26 285.637 158.42 285.637L158.981 285.799C159.141 285.799 159.221 285.96 159.141 286.042V286.688H158.981ZM165.95 287.334C165.95 287.496 165.79 287.577 165.71 287.577L164.428 287.415C164.028 287.415 163.868 287.253 163.787 287.173C163.627 287.011 163.627 286.769 163.627 286.526L164.028 280.707C164.028 280.546 164.188 280.465 164.268 280.546L165.309 280.707C165.47 280.707 165.55 280.869 165.55 280.95L165.149 286.122C165.149 286.284 165.149 286.365 165.309 286.365H165.87C166.031 286.365 166.111 286.526 166.111 286.607L165.95 287.334ZM178.368 285.88C178.208 286.284 178.128 286.526 177.807 286.688C177.567 286.93 177.246 287.092 177.006 287.253C176.605 287.415 176.205 287.415 175.724 287.415H173.481C172.92 287.415 172.519 287.415 172.199 287.253C171.798 287.092 171.558 287.011 171.238 286.85C170.998 286.607 170.837 286.284 170.677 286.042C170.517 285.799 170.517 285.233 170.517 284.829V283.132C170.517 282.566 170.517 282.162 170.677 281.92C170.837 281.516 170.917 281.273 171.238 281.111C171.478 280.869 171.798 280.708 172.039 280.546C172.439 280.384 172.84 280.384 173.321 280.384H175.564C176.125 280.384 176.525 280.384 176.846 280.546C177.246 280.708 177.486 280.788 177.807 280.95C178.047 281.192 178.208 281.516 178.368 281.758C178.528 282.162 178.528 282.566 178.528 282.97V284.668C178.448 285.233 178.448 285.637 178.368 285.88ZM185.979 286.445L184.697 286.607C184.456 286.607 184.136 286.607 184.056 286.445C183.896 286.284 183.815 286.203 183.815 285.799L183.014 279.98C183.014 279.818 183.014 279.737 183.175 279.737L184.216 279.576C184.376 279.576 184.456 279.576 184.456 279.737L185.097 284.91C185.097 285.071 185.257 285.152 185.338 285.071L185.899 284.91C186.059 284.91 186.139 284.91 186.139 285.071L186.299 286.042C186.139 286.445 186.139 286.445 185.979 286.445ZM197.835 283.455C197.675 283.698 197.435 284.021 197.034 284.102C196.794 284.263 196.393 284.344 195.832 284.506L193.589 285.071C193.029 285.233 192.628 285.233 192.307 285.233C191.907 285.233 191.666 285.071 191.346 284.991C191.106 284.829 190.785 284.587 190.705 284.344C190.545 284.102 190.465 283.698 190.305 283.132L189.904 281.435C189.744 280.869 189.744 280.465 189.744 280.222C189.744 279.818 189.904 279.576 189.984 279.253C190.144 279.01 190.385 278.687 190.785 278.606C191.026 278.444 191.426 278.363 191.987 278.202L194.23 277.636C194.791 277.475 195.191 277.475 195.512 277.475C195.832 277.475 196.153 277.636 196.473 277.717C196.713 277.879 197.034 278.121 197.114 278.363C197.274 278.606 197.354 279.01 197.515 279.576L197.915 281.273C198.076 281.839 198.076 282.243 198.076 282.485C198.076 282.97 197.915 283.213 197.835 283.455ZM210.092 279.334C209.932 279.576 209.692 279.899 209.451 279.98C209.211 280.222 208.81 280.384 208.25 280.546L206.167 281.354C205.606 281.516 205.206 281.596 204.965 281.596C204.565 281.596 204.324 281.596 204.004 281.435C203.763 281.273 203.443 281.192 203.363 280.788C203.123 280.546 202.962 280.142 202.802 279.737L202.241 278.121C202.081 277.717 202.001 277.313 202.001 276.909C202.001 276.505 202.001 276.262 202.161 275.939C202.321 275.696 202.562 275.373 202.802 275.293C203.043 275.05 203.443 274.888 204.004 274.727L206.087 273.919C206.647 273.757 207.048 273.676 207.288 273.676C207.689 273.676 207.929 273.676 208.25 273.838C208.49 274 208.81 274.08 209.051 274.484C209.291 274.727 209.451 275.131 209.612 275.535L210.173 277.151C210.333 277.555 210.413 277.96 210.413 278.363C210.333 278.849 210.333 279.091 210.092 279.334ZM243.74 98.7041C243.579 98.9465 243.339 99.3506 243.099 99.7547L242.057 101.048C241.817 101.452 241.416 101.694 241.096 101.856C240.775 102.018 240.455 102.098 240.135 102.098C239.894 102.098 239.494 102.098 239.173 101.856C238.933 101.694 238.532 101.452 238.132 101.048L236.449 99.5931C236.049 99.3506 235.808 98.9465 235.488 98.6233C235.248 98.3808 235.248 97.9767 235.088 97.6534C235.088 97.411 235.088 97.0069 235.248 96.6836C235.408 96.4411 235.648 96.0371 235.888 95.633L236.93 94.3399C237.171 93.9358 237.571 93.6934 237.891 93.5317C238.132 93.3701 238.452 93.2893 238.853 93.2893C239.093 93.2893 239.494 93.2893 239.814 93.5317C240.055 93.6934 240.455 93.9358 240.855 94.1783L242.538 95.633C242.938 95.8754 243.179 96.2795 243.499 96.6028C243.74 96.8452 243.74 97.2493 243.9 97.5726C243.9 98.2192 243.9 98.4616 243.74 98.7041ZM222.029 273.757C221.869 274 221.789 274.323 221.468 274.565C221.228 274.808 220.827 275.131 220.427 275.212L218.424 276.262C218.024 276.505 217.623 276.667 217.222 276.667C216.822 276.828 216.581 276.828 216.261 276.667C216.021 276.505 215.7 276.424 215.46 276.101C215.22 275.858 214.899 275.535 214.819 275.05L214.018 273.434C213.777 273.029 213.617 272.626 213.617 272.221C213.617 271.817 213.617 271.575 213.777 271.252C213.938 271.009 214.018 270.686 214.338 270.443C214.579 270.201 214.979 269.878 215.38 269.797L217.383 268.746C217.783 268.504 218.184 268.342 218.584 268.342C218.985 268.18 219.225 268.18 219.546 268.342C219.786 268.504 220.107 268.585 220.347 268.908C220.587 269.15 220.907 269.474 220.987 269.959L221.789 271.575C222.029 271.979 222.189 272.383 222.189 272.787C222.189 273.11 222.189 273.353 222.029 273.757ZM229.319 270.039L228.278 270.686C228.038 270.847 227.717 270.928 227.637 270.928C227.557 270.928 227.237 270.767 227.076 270.524L223.952 265.594C223.791 265.433 223.952 265.352 223.952 265.352L224.753 264.786C224.913 264.625 224.993 264.786 224.993 264.786L227.797 269.15C227.957 269.312 227.957 269.312 228.038 269.15L228.598 268.908C228.758 268.746 228.839 268.908 228.839 268.908L229.4 269.716C229.4 269.797 229.4 269.959 229.319 270.039ZM234.927 266.079L233.886 266.887C233.645 267.049 233.325 267.13 233.245 267.13C233.085 267.13 232.844 266.968 232.684 266.726L229.239 261.957C229.079 261.796 229.239 261.715 229.239 261.715L230.041 261.149C230.201 260.988 230.281 260.988 230.281 261.149L233.325 265.433C233.485 265.594 233.485 265.594 233.565 265.433L234.126 265.19C234.286 265.029 234.367 265.029 234.367 265.19L234.927 265.837C235.088 265.918 235.088 265.918 234.927 266.079ZM243.659 258.805C243.419 259.048 243.099 259.452 242.698 259.775L241.016 261.23C240.615 261.472 240.215 261.796 239.974 262.038C239.734 262.2 239.334 262.281 239.013 262.281C238.692 262.281 238.372 262.119 238.052 262.038C237.731 261.957 237.411 261.634 237.09 261.23L236.049 259.937C235.808 259.533 235.488 259.29 235.408 258.886C235.248 258.644 235.248 258.24 235.248 257.917C235.248 257.674 235.408 257.27 235.648 256.947C235.888 256.704 236.209 256.3 236.61 255.977L238.292 254.522C238.692 254.28 239.093 253.956 239.334 253.714C239.574 253.552 239.974 253.471 240.295 253.471C240.535 253.471 240.936 253.633 241.256 253.714C241.577 253.795 241.897 254.118 242.218 254.522L243.259 255.815C243.499 256.219 243.82 256.462 243.9 256.866C244.06 257.108 244.06 257.512 244.06 257.836C243.9 258.078 243.74 258.482 243.659 258.805ZM252.712 249.107C252.552 249.35 252.312 249.754 251.911 250.158L250.469 251.855C250.068 252.259 249.828 252.502 249.508 252.825C249.268 253.068 248.867 253.068 248.546 253.229C248.306 253.229 247.905 253.229 247.585 253.068C247.345 252.906 246.944 252.663 246.544 252.421L245.262 251.209C244.861 250.966 244.621 250.562 244.461 250.239C244.301 249.996 244.22 249.592 244.22 249.269C244.22 249.027 244.22 248.622 244.461 248.299C244.621 248.057 244.861 247.653 245.262 247.248L246.704 245.551C246.944 245.147 247.345 244.905 247.665 244.581C247.905 244.339 248.306 244.339 248.626 244.177C248.867 244.177 249.268 244.177 249.588 244.339C249.828 244.501 250.229 244.743 250.629 244.986L251.911 246.036C252.312 246.279 252.552 246.683 252.712 247.006C252.872 247.248 252.952 247.572 252.952 247.976C252.952 248.542 252.872 248.784 252.712 249.107ZM259.282 240.702C259.121 241.106 258.881 241.349 258.641 241.914L257.359 243.773C257.119 244.178 256.798 244.581 256.558 244.743C256.317 244.986 255.997 245.147 255.596 245.147C255.356 245.147 254.955 245.147 254.635 245.147C254.395 244.986 253.994 244.905 253.593 244.581L252.152 243.612C251.751 243.369 251.511 243.046 251.19 242.803C250.95 242.561 250.789 242.238 250.789 241.834C250.789 241.591 250.789 241.187 250.95 240.864C251.11 240.46 251.35 240.217 251.591 239.652L252.872 237.793C253.113 237.389 253.433 236.985 253.674 236.823C253.914 236.58 254.235 236.419 254.635 236.419C254.875 236.419 255.276 236.419 255.596 236.58C255.837 236.742 256.237 236.823 256.638 237.146L258.08 238.116C258.48 238.358 258.721 238.682 259.041 238.924C259.282 239.167 259.442 239.49 259.442 239.894C259.442 240.056 259.442 240.298 259.282 240.702ZM264.329 233.267L263.688 234.479C263.527 234.722 263.287 234.883 263.127 235.045C262.967 235.045 262.726 235.045 262.486 234.883L257.359 231.974C257.199 231.812 257.199 231.812 257.199 231.731L257.759 230.762C257.919 230.6 257.919 230.6 258 230.6L262.486 233.267C262.646 233.429 262.726 233.267 262.726 233.105L262.967 232.539C263.127 232.378 263.127 232.378 263.207 232.378L264.008 232.782C264.329 233.024 264.409 233.105 264.329 233.267ZM269.296 222.922C269.296 223.326 269.136 223.73 268.895 224.134L267.934 226.236C267.693 226.64 267.533 227.044 267.293 227.286C267.052 227.529 266.732 227.852 266.492 227.852C266.251 228.014 265.931 228.014 265.53 228.014C265.13 228.014 264.729 227.852 264.329 227.61L262.726 226.963C262.326 226.801 261.925 226.559 261.685 226.316C261.445 226.074 261.284 225.751 261.124 225.508C260.964 225.266 260.964 224.862 261.124 224.538C261.124 224.134 261.284 223.73 261.525 223.326L262.486 221.225C262.726 220.821 262.886 220.417 263.127 220.174C263.367 219.932 263.688 219.608 263.928 219.528C264.169 219.447 264.569 219.366 264.889 219.366C265.29 219.366 265.69 219.528 266.091 219.77L267.693 220.417C268.094 220.579 268.494 220.821 268.735 221.063C268.975 221.306 269.135 221.629 269.296 221.872C269.296 222.276 269.296 222.68 269.296 222.922ZM272.74 214.921L272.18 216.133C272.019 216.376 271.939 216.699 271.779 216.699C271.619 216.861 271.379 216.861 271.138 216.699L265.771 214.598C265.61 214.598 265.61 214.436 265.61 214.355L266.011 213.386C266.011 213.224 266.171 213.224 266.251 213.224L271.138 215.083C271.298 215.083 271.379 215.083 271.379 214.921L271.619 214.355C271.619 214.194 271.779 214.194 271.859 214.194L272.66 214.436C272.74 214.679 272.74 214.84 272.74 214.921ZM274.583 208.94C274.423 209.183 274.343 209.506 274.183 209.587C274.022 209.749 273.782 209.749 273.542 209.587L267.853 208.132C267.693 208.132 267.693 207.971 267.693 207.89L267.934 206.839C267.934 206.678 268.094 206.678 268.174 206.678L273.141 207.89C273.301 207.89 273.381 207.89 273.381 207.728L273.542 207.163C273.542 207.001 273.702 206.92 273.782 207.001L274.583 207.243C274.743 207.243 274.743 207.405 274.743 207.486L274.583 208.94ZM277.227 197.949L276.826 200.212C276.666 200.778 276.586 201.182 276.426 201.424C276.265 201.667 276.025 201.99 275.785 202.232C275.544 202.394 275.224 202.475 274.823 202.637C274.423 202.637 274.022 202.637 273.622 202.637L271.939 202.394C271.379 202.232 271.138 202.152 270.738 201.99C270.497 201.829 270.177 201.586 270.096 201.344C269.936 201.101 269.856 200.778 269.856 200.374C269.856 199.97 269.856 199.566 270.016 199.081L270.417 196.818C270.577 196.252 270.657 195.848 270.818 195.606C270.978 195.363 271.218 195.04 271.459 194.797C271.699 194.636 272.019 194.555 272.42 194.393C272.82 194.393 273.221 194.393 273.622 194.393L275.304 194.636C275.865 194.797 276.105 194.878 276.506 195.04C276.746 195.201 277.066 195.444 277.146 195.686C277.307 195.929 277.387 196.252 277.387 196.656C277.307 196.98 277.307 197.545 277.227 197.949ZM278.829 185.099L278.669 187.362C278.669 187.928 278.509 188.332 278.428 188.655C278.268 189.059 278.188 189.301 277.868 189.463C277.627 189.706 277.307 189.867 277.066 189.867C276.666 190.029 276.265 190.029 275.865 190.029L274.183 189.867C273.622 189.867 273.221 189.706 272.981 189.625C272.74 189.463 272.42 189.382 272.18 189.059C272.019 188.817 271.939 188.493 271.779 188.089C271.619 187.685 271.619 187.281 271.779 186.796L271.939 184.533C271.939 183.967 272.099 183.564 272.18 183.24C272.34 182.836 272.42 182.594 272.74 182.432C272.981 182.19 273.301 182.028 273.542 182.028C273.942 181.866 274.343 181.866 274.743 182.028L276.426 182.19C276.986 182.19 277.387 182.351 277.627 182.432C277.868 182.594 278.188 182.674 278.428 182.998C278.589 183.24 278.669 183.564 278.829 183.967C278.829 184.129 278.909 184.533 278.829 185.099ZM278.669 170.713C278.829 171.117 278.829 171.522 278.829 172.007L278.989 174.269C278.989 174.835 278.989 175.239 278.829 175.563C278.669 175.967 278.589 176.209 278.428 176.532C278.188 176.775 277.868 176.936 277.627 177.098C277.387 177.26 276.986 177.26 276.426 177.26H274.743C274.183 177.26 273.782 177.26 273.542 177.098C273.141 176.936 272.901 176.856 272.74 176.532C272.5 176.29 272.34 175.967 272.18 175.724C272.019 175.32 272.019 174.916 272.019 174.431L271.859 172.168C271.859 171.602 271.859 171.198 272.019 170.875C272.18 170.471 272.26 170.228 272.42 169.905C272.66 169.663 272.981 169.501 273.221 169.34C273.622 169.178 274.022 169.178 274.423 169.178H276.105C276.666 169.178 277.066 169.178 277.307 169.34C277.707 169.501 277.948 169.582 278.108 169.743C278.428 170.067 278.509 170.309 278.669 170.713ZM277.868 161.662L278.028 162.955C278.028 163.197 278.028 163.52 277.868 163.601C277.707 163.763 277.627 163.844 277.227 163.844L271.459 164.652C271.298 164.652 271.218 164.652 271.218 164.49L271.058 163.44C271.058 163.278 271.058 163.197 271.218 163.197L276.346 162.551C276.506 162.551 276.586 162.389 276.506 162.308L276.346 161.742C276.346 161.581 276.346 161.5 276.506 161.5L277.467 161.338C277.707 161.419 277.868 161.581 277.868 161.662ZM275.384 155.035C275.384 154.873 275.384 154.792 275.544 154.792L276.506 154.631C276.666 154.631 276.746 154.631 276.746 154.792L276.986 156.085C276.986 156.328 276.986 156.651 276.826 156.893C276.666 157.055 276.586 157.136 276.185 157.136L270.417 158.106C270.257 158.106 270.177 158.106 270.177 157.944L270.016 156.893C270.016 156.732 270.016 156.651 270.177 156.651L275.304 155.843C275.464 155.843 275.464 155.681 275.464 155.6L275.384 155.035ZM273.141 143.235C273.381 143.397 273.702 143.639 273.782 143.882C273.942 144.124 274.183 144.528 274.343 145.094L274.903 147.357C275.063 147.923 275.064 148.327 275.064 148.65C275.064 148.973 274.903 149.296 274.823 149.62C274.663 149.862 274.423 150.185 274.183 150.266C273.942 150.428 273.542 150.509 272.981 150.67L271.379 151.075C270.978 151.236 270.417 151.236 270.177 151.236C269.776 151.236 269.536 151.075 269.216 150.994C268.975 150.832 268.655 150.59 268.575 150.347C268.414 150.105 268.174 149.701 268.014 149.135L267.453 146.872C267.293 146.306 267.293 145.902 267.293 145.579C267.293 145.256 267.453 144.932 267.533 144.609C267.693 144.367 267.934 144.043 268.174 143.962C268.414 143.801 268.815 143.558 269.376 143.558L270.978 143.154C271.379 142.993 271.939 142.993 272.18 142.993C272.58 142.993 272.901 142.993 273.141 143.235ZM269.456 135.396L270.257 135.153C270.417 135.153 270.497 135.153 270.497 135.315L271.058 136.527C271.218 136.77 271.218 137.093 271.218 137.174C271.058 137.335 270.978 137.416 270.657 137.578L265.29 139.841C265.13 139.841 265.049 139.841 265.049 139.679L264.649 138.709C264.649 138.548 264.649 138.467 264.809 138.467L269.536 136.446C269.696 136.446 269.696 136.285 269.696 136.204L269.456 135.638C269.296 135.638 269.296 135.557 269.456 135.396ZM263.928 124.485C264.329 124.485 264.569 124.485 264.889 124.647C265.13 124.809 265.45 124.889 265.69 125.212C265.931 125.455 266.251 125.859 266.331 126.263L267.373 128.364C267.613 128.769 267.773 129.173 267.773 129.577C267.934 129.981 267.773 130.223 267.773 130.546C267.613 130.789 267.533 131.112 267.213 131.355C266.972 131.597 266.652 131.759 266.171 132.001L264.569 132.81C264.169 133.052 263.768 133.213 263.367 133.213C262.967 133.213 262.726 133.213 262.406 133.052C262.166 132.89 261.845 132.81 261.605 132.486C261.365 132.244 261.044 131.84 260.964 131.436L259.922 129.334C259.682 128.93 259.522 128.526 259.522 128.122C259.362 127.718 259.362 127.476 259.522 127.152C259.682 126.91 259.762 126.586 260.082 126.344C260.323 126.102 260.643 125.778 261.124 125.697L262.726 124.889C263.127 124.647 263.527 124.485 263.928 124.485ZM260.002 117.696L260.804 117.131C260.964 116.969 261.044 117.131 261.044 117.292L261.685 118.343C261.845 118.585 261.925 118.909 261.925 118.989C261.925 119.151 261.765 119.394 261.525 119.555L256.638 122.707C256.478 122.869 256.397 122.707 256.397 122.707L255.837 121.899C255.676 121.737 255.837 121.657 255.837 121.657L260.163 118.828C260.323 118.666 260.323 118.666 260.163 118.585L259.922 118.02C259.842 117.858 259.842 117.696 260.002 117.696ZM251.27 108.564C251.671 108.321 251.911 107.998 252.312 107.918C252.552 107.756 252.952 107.756 253.273 107.756C253.513 107.756 253.914 107.918 254.235 108.16C254.475 108.402 254.795 108.726 255.196 109.13L256.638 110.988C256.878 111.393 257.199 111.797 257.279 112.039C257.439 112.443 257.519 112.686 257.439 113.009C257.439 113.252 257.279 113.655 257.038 113.979C256.878 114.221 256.478 114.545 256.237 114.949L254.955 115.999C254.555 116.242 254.315 116.565 253.914 116.646C253.674 116.807 253.273 116.807 252.952 116.807C252.632 116.807 252.312 116.646 251.991 116.403C251.751 116.161 251.43 115.837 251.03 115.434L249.588 113.575C249.348 113.171 249.027 112.767 248.947 112.524C248.787 112.12 248.707 111.878 248.787 111.554C248.787 111.312 248.947 110.908 249.187 110.585C249.428 110.342 249.748 110.019 250.149 109.614L251.27 108.564ZM249.588 103.149C249.588 103.311 249.428 103.553 249.348 103.715L245.102 107.675C244.941 107.837 244.861 107.837 244.861 107.675L244.22 106.867C244.06 106.705 244.06 106.624 244.22 106.624L248.066 103.068C248.226 102.907 248.226 102.907 248.066 102.826L247.665 102.422C247.505 102.26 247.505 102.179 247.665 102.179L248.306 101.533C248.466 101.371 248.546 101.371 248.546 101.533L249.508 102.503C249.428 102.745 249.588 102.826 249.588 103.149Z" fill="white"/>
<path d="M241.817 97.0048L240.135 95.5501C239.974 95.3885 239.734 95.3077 239.574 95.146C239.413 94.9844 239.333 94.9844 239.173 94.9844C239.013 94.9844 238.933 95.146 238.773 95.146C238.612 95.3077 238.532 95.3885 238.212 95.5501L237.17 96.7624C237.01 97.0048 236.93 97.1665 236.77 97.3281C236.609 97.4897 236.609 97.5706 236.609 97.7322C236.609 97.8938 236.609 97.9747 236.77 98.1363C236.93 98.2979 237.01 98.3787 237.17 98.702L238.853 100.157C239.013 100.318 239.253 100.399 239.413 100.561C239.574 100.723 239.654 100.723 239.814 100.723C239.974 100.723 240.054 100.561 240.215 100.561C240.375 100.399 240.455 100.318 240.776 100.157L241.817 98.9445C241.977 98.702 242.057 98.5404 242.217 98.3787C242.378 98.2171 242.378 98.1363 242.378 97.9747C242.378 97.813 242.378 97.7322 242.217 97.5706C242.217 97.2473 242.057 97.1665 241.817 97.0048Z" fill="white"/>
<path d="M261.029 128.035C261.029 128.196 261.189 128.439 261.27 128.682L262.311 130.783C262.471 131.025 262.551 131.187 262.711 131.349C262.872 131.51 262.952 131.591 263.112 131.591C263.272 131.591 263.352 131.591 263.673 131.591C263.833 131.591 264.074 131.429 264.314 131.349L265.756 130.702C265.996 130.54 266.156 130.459 266.317 130.298C266.477 130.136 266.557 130.055 266.557 129.894C266.557 129.732 266.557 129.651 266.557 129.49C266.557 129.328 266.397 129.085 266.317 128.843L265.195 126.742C265.035 126.499 264.954 126.338 264.794 126.176C264.634 126.015 264.554 125.934 264.394 125.934C264.234 125.934 264.154 125.934 263.833 125.934C263.673 125.934 263.433 126.095 263.192 126.176L261.75 126.823C261.51 126.984 261.35 127.065 261.189 127.227C261.029 127.388 260.949 127.469 260.949 127.631C261.029 127.792 261.029 127.954 261.029 128.035Z" fill="white"/>
<path d="M108.99 261.711L107.148 260.256C106.908 260.095 106.747 260.014 106.587 259.852C106.427 259.69 106.347 259.69 106.186 259.69C106.026 259.69 105.946 259.852 105.786 259.852C105.626 260.014 105.546 260.095 105.385 260.418L104.424 261.63C104.264 261.873 104.184 262.034 104.023 262.196C103.863 262.357 103.863 262.438 103.863 262.6C103.863 262.762 104.023 262.842 104.023 263.004C104.184 263.166 104.264 263.247 104.424 263.408L106.267 264.863C106.507 265.024 106.667 265.105 106.827 265.267C106.988 265.429 107.068 265.429 107.228 265.429C107.388 265.429 107.468 265.267 107.629 265.267C107.789 265.105 107.869 265.024 108.029 264.701L108.99 263.489C109.151 263.247 109.231 263.085 109.391 262.923C109.551 262.762 109.551 262.681 109.551 262.519C109.551 262.357 109.391 262.277 109.391 262.115C109.311 261.954 109.231 261.792 108.99 261.711Z" fill="white"/>
<path d="M250.631 112.683L252.073 114.541C252.234 114.784 252.314 114.946 252.474 115.107C252.634 115.269 252.714 115.269 252.874 115.269C253.035 115.269 253.115 115.269 253.275 115.107C253.435 114.946 253.676 114.865 253.836 114.703L255.037 113.733C255.278 113.572 255.438 113.491 255.598 113.329C255.758 113.168 255.758 113.087 255.758 112.925C255.758 112.764 255.758 112.683 255.598 112.521C255.438 112.359 255.438 112.117 255.197 111.956L253.756 110.097C253.595 109.854 253.515 109.692 253.355 109.531C253.195 109.369 253.115 109.369 252.954 109.369C252.794 109.369 252.714 109.369 252.554 109.531C252.394 109.692 252.153 109.692 251.993 109.935L250.791 110.905C250.551 111.066 250.391 111.147 250.231 111.309C250.07 111.471 250.07 111.551 250.07 111.713C250.07 111.875 250.07 111.956 250.231 112.117C250.391 112.279 250.471 112.44 250.631 112.683Z" fill="white"/>
<path d="M99.6292 253.467L97.9467 251.851C97.7865 251.689 97.5463 251.608 97.3861 251.447C97.2259 251.285 97.1458 251.285 96.9853 251.285C96.8251 251.285 96.7451 251.285 96.5849 251.447C96.4247 251.608 96.3446 251.689 96.0241 251.851L94.9827 253.063C94.8224 253.225 94.7423 253.467 94.5821 253.629C94.4219 253.791 94.4219 253.871 94.4219 254.033C94.4219 254.194 94.4219 254.275 94.5821 254.437C94.7423 254.599 94.8224 254.679 94.9827 255.003L96.665 256.619C96.8251 256.781 97.0658 256.861 97.2259 257.023C97.3861 257.185 97.4662 257.185 97.6263 257.185C97.7865 257.185 97.8666 257.185 98.0271 257.023C98.1873 256.861 98.2674 256.781 98.5877 256.619L99.6292 255.407C99.7893 255.245 99.8694 255.003 100.03 254.841C100.19 254.679 100.19 254.599 100.19 254.437C100.19 254.275 100.19 254.194 100.03 254.033C99.8694 253.871 99.7092 253.629 99.6292 253.467Z" fill="white"/>
</g>
<defs>
<filter id="filter0_d" x="42" y="202" width="256" height="155" filterUnits="userSpaceOnUse" color-interpolation-filters="sRGB">
<feFlood flood-opacity="0" result="BackgroundImageFix"/>
<feColorMatrix in="SourceAlpha" type="matrix" values="0 0 0 0 0 0 0 0 0 0 0 0 0 0 0 0 0 0 127 0"/>
<feOffset dy="4"/>
<feGaussianBlur stdDeviation="30"/>
<feColorMatrix type="matrix" values="0 0 0 0 0.9 0 0 0 0 0.55357 0 0 0 0 0.1275 0 0 0 1 0"/>
<feBlend mode="normal" in2="BackgroundImageFix" result="effect1_dropShadow"/>
<feBlend mode="normal" in="SourceGraphic" in2="effect1_dropShadow" result="shape"/>
</filter>
<filter id="filter1_d" x="0" y="0" width="340" height="356" filterUnits="userSpaceOnUse" color-interpolation-filters="sRGB">
<feFlood flood-opacity="0" result="BackgroundImageFix"/>
<feColorMatrix in="SourceAlpha" type="matrix" values="0 0 0 0 0 0 0 0 0 0 0 0 0 0 0 0 0 0 127 0"/>
<feOffset dy="4"/>
<feGaussianBlur stdDeviation="30"/>
<feColorMatrix type="matrix" values="0 0 0 0 0.980392 0 0 0 0 0.639216 0 0 0 0 0.219608 0 0 0 0.3 0"/>
<feBlend mode="normal" in2="BackgroundImageFix" result="effect1_dropShadow"/>
<feBlend mode="normal" in="SourceGraphic" in2="effect1_dropShadow" result="shape"/>
</filter>
<linearGradient id="paint0_linear" x1="39" y1="178.498" x2="302" y2="178.498" gradientUnits="userSpaceOnUse">
<stop stop-color="#FFD364"/>
<stop offset="1" stop-color="#FAA136"/>
</linearGradient>
</defs>
</svg>
