<svg width="35" height="34" viewBox="0 0 35 34" fill="none" xmlns="http://www.w3.org/2000/svg">
<path d="M32.5979 1.13528C27.0507 7.59582 21.5035 14.0563 15.9562 20.5169C13.786 18.1017 11.6157 15.6865 9.44545 13.2712C8.36783 12.072 6.60452 13.8447 7.6777 15.039C10.1493 17.7895 12.6208 20.54 15.0924 23.2906C15.5198 23.7662 16.4366 23.7838 16.8602 23.2906C22.6953 16.4947 28.5304 9.69887 34.3656 2.90299C35.4086 1.68827 33.6481 -0.0878396 32.5979 1.13528Z" fill="#0B3B65"/>
<path d="M30.5208 12.028C32.6382 18.8565 29.8948 26.2931 23.4072 29.5915C17.6123 32.5377 10.3178 31.1106 6.05236 26.2097C1.77491 21.295 1.34482 13.9158 5.04968 8.54828C9.37117 2.28739 17.724 0.692226 24.2627 4.35359C25.668 5.14047 26.9298 2.98192 25.5244 2.19494C13.7531 -4.3964 -1.37036 4.68043 0.0994516 18.4629C1.45277 31.1529 16.52 38.0091 26.8827 30.3698C32.8357 25.9814 35.1022 18.3642 32.9314 11.3634C32.4564 9.8316 30.0424 10.4852 30.5208 12.028Z" fill="#0B3B65"/>
</svg>
