<svg width="76" height="84" viewBox="0 0 76 84" fill="none" xmlns="http://www.w3.org/2000/svg">
<path d="M40.3871 81.5308L40.3866 81.531C39.6216 81.8421 38.8119 82.0001 37.9982 82.0001C37.1848 82.0001 36.375 81.8423 35.6094 81.5309L35.6091 81.5308C26.7336 77.9188 19.1681 71.8154 13.7346 63.887C8.16606 55.762 5.22266 46.2383 5.22266 36.3553V15.8689C5.22266 13.078 7.08201 10.5914 9.75881 9.80203L40.3871 81.5308ZM40.3871 81.5308C49.2626 77.9188 56.8282 71.8157 62.2617 63.887C67.8301 55.7619 70.7735 46.2383 70.7735 36.3553V15.8693C70.7735 15.8692 70.7735 15.8691 70.7735 15.869C70.7738 13.0782 68.9144 10.5914 66.2377 9.80218C66.2377 9.80216 66.2376 9.80214 66.2375 9.80212L41.5004 2.50668L40.3871 81.5308ZM34.496 2.50663L9.75891 9.802L41.5002 2.50662C39.2103 1.83109 36.7863 1.83116 34.4961 2.50662C34.4961 2.50663 34.4961 2.50663 34.496 2.50663Z" fill="white" stroke="white" stroke-width="4"/>
<path d="M65.672 11.7205L40.9344 4.42494C39.014 3.85835 36.9829 3.85835 35.0618 4.42494L10.3246 11.7203C8.49818 12.2589 7.22266 13.9647 7.22266 15.8689V36.3553C7.22266 45.8363 10.0449 54.9657 15.3843 62.7564C20.5972 70.3628 27.8518 76.2145 36.363 79.6783C36.8903 79.8928 37.4442 80.0001 37.9982 80.0001C38.5522 80.0001 39.1061 79.8926 39.6332 79.6783C48.1445 76.2145 55.3991 70.3631 60.6119 62.7564C65.9512 54.9655 68.7735 45.8363 68.7735 36.3553V15.869C68.7738 13.9649 67.4982 12.2589 65.672 11.7205ZM65.3137 36.3552C65.3137 45.1348 62.7009 53.5877 57.7581 60.8C52.9294 67.8458 46.2111 73.2655 38.3292 76.4731C38.1158 76.5599 37.8808 76.5599 37.6673 76.4731C29.7855 73.2655 23.067 67.8459 18.2385 60.8C13.2957 53.5877 10.6829 45.135 10.6829 36.3552V15.8689C10.6829 15.4881 10.938 15.147 11.3034 15.0393L36.0408 7.74371C36.6811 7.55474 37.3397 7.46049 37.9984 7.46049C38.6568 7.46049 39.3154 7.55489 39.9558 7.74385L64.6935 15.0393C65.0585 15.1469 65.3137 15.488 65.3137 15.8689V36.3552Z" fill="#9BB6CD"/>
<path d="M57.171 19.3716L38.7341 13.9343C38.2541 13.7929 37.7467 13.7926 37.2664 13.9343L18.83 19.3716C17.7342 19.6949 16.9688 20.7185 16.9688 21.8609V36.3554C16.9688 44.0145 19.2856 51.3606 23.6683 57.6001C27.0664 62.4381 31.6069 66.4324 36.7988 69.1515C37.175 69.3486 37.5876 69.447 38.0004 69.447C38.4131 69.447 38.8257 69.3486 39.202 69.1515C44.3938 66.4325 48.9343 62.4379 52.3325 57.6001C56.7153 51.3608 59.0321 44.0145 59.0321 36.3554V21.8609C59.0319 20.7182 58.2666 19.6947 57.171 19.3716Z" fill="#CCE1F3"/>
<path d="M43.0903 56V52.1149L49 52.1428V47H27V52.1428H32.8849V56H36.0135V52.1428H39.9368V56H43.0903Z" fill="white"/>
<path d="M28 29.6747H36.1062V45H40.894V29.6747H49V25.2993H43.3589V22H40.3488V25.2993H36.6038V22H33.6174V25.2993H28V29.6747Z" fill="white"/>
</svg>
