<svg width="652" height="876" viewBox="0 0 652 876" fill="none" xmlns="http://www.w3.org/2000/svg">
<path d="M587.99 875.11C587.4 875.11 586.612 874.716 586.219 874.124C585.628 873.139 586.022 871.956 586.809 871.364C645.865 835.68 664.96 758.593 629.33 699.447C591.337 636.161 512.99 637.147 457.477 657.059C400.587 677.563 320.074 678.352 280.9 613.094C244.285 552.174 263.971 472.525 324.798 435.854L324.995 435.657C383.854 399.972 402.752 322.886 367.318 263.937C329.129 200.651 250.978 201.637 195.466 221.549C138.575 242.053 58.0626 242.842 18.8889 177.584C-18.1194 116.664 1.56585 37.2114 62.3934 0.343899C63.1808 -0.247559 64.3619 -0.0504044 65.1493 0.738206C65.7399 1.52682 65.543 2.90689 64.7556 3.49835C64.7556 3.49835 64.5588 3.49834 64.5588 3.6955C5.50292 39.3801 -13.5918 116.467 22.0385 175.613C60.228 238.899 138.575 237.913 194.088 218C250.978 197.497 331.491 196.708 370.665 261.965C407.476 322.886 387.791 402.535 326.767 439.206L326.57 439.403C267.711 475.087 248.616 552.174 284.247 611.123C322.436 674.409 400.783 673.423 456.296 653.511C513.186 633.007 593.699 632.218 632.873 697.476C669.684 758.396 649.999 838.045 588.975 874.716C588.778 875.11 588.384 875.11 587.99 875.11Z" fill="#D2DFEA"/>
</svg>
