<svg width="85" height="84" viewBox="0 0 85 84" fill="none" xmlns="http://www.w3.org/2000/svg">
<path d="M42.975 75.4261C61.5659 75.4261 76.6367 60.3323 76.6367 41.7131C76.6367 23.0938 61.5659 8 42.975 8C24.3842 8 9.31335 23.0938 9.31335 41.7131C9.31335 60.3323 24.3842 75.4261 42.975 75.4261Z" fill="#FAA136"/>
<path d="M84.4128 41.7764C84.4128 64.5705 65.8447 83.0529 42.9347 83.0529C20.0246 83.0529 1.45654 64.5705 1.45654 41.7764C1.45654 18.9823 20.0246 0.5 42.9347 0.5C65.8447 0.5 84.4128 18.9823 84.4128 41.7764Z" stroke="#FAA136"/>
<path d="M41.3878 28.1748C32.9231 28.1748 26.0333 35.0751 26.0333 43.5527C26.0333 52.0303 32.9231 58.9307 41.3878 58.9307C49.8525 58.9307 56.7423 52.0303 56.7423 43.5527H41.3878V28.1748Z" fill="white"/>
<path d="M45.5186 23.8379V39.2158H60.8729C60.8729 30.7383 53.9831 23.8379 45.5186 23.8379Z" fill="white"/>
</svg>
