<svg width="1650" height="1150" viewBox="0 0 1650 1150" fill="none" xmlns="http://www.w3.org/2000/svg">
<path d="M579.199 943.079C578.412 943.079 577.624 942.684 577.034 942.093C576.049 940.91 576.049 938.938 577.231 937.953L586.876 929.475C588.058 928.489 590.026 928.489 591.01 929.672C591.995 930.855 591.995 932.827 590.814 933.812L581.168 942.29C580.577 942.881 579.987 943.079 579.199 943.079Z" fill="#FAA136"/>
<path d="M389.632 1109.67C388.845 1109.67 388.057 1109.28 387.467 1108.69C386.482 1107.5 386.482 1105.53 387.664 1104.55L562.863 950.373C564.044 949.387 566.012 949.387 566.997 950.57C567.981 951.753 567.981 953.724 566.8 954.71L391.601 1108.88C391.01 1109.47 390.42 1109.67 389.632 1109.67Z" fill="#FAA136"/>
<path d="M305.576 1149.89C304.789 1149.89 304.001 1149.5 303.411 1148.91C302.426 1147.72 302.426 1145.75 303.607 1144.77L483.925 986.254C485.106 985.269 487.074 985.269 488.059 986.452C489.043 987.635 489.043 989.606 487.862 990.592L307.544 1149.1C306.954 1149.69 306.363 1149.89 305.576 1149.89Z" fill="#FAA136"/>
<path d="M1465.79 711.203C1465 711.203 1464.21 710.808 1463.62 710.217C1462.64 709.034 1462.64 707.062 1463.82 706.077L1469.72 700.753C1470.9 699.768 1472.87 699.768 1473.86 700.951C1474.84 702.134 1474.84 704.105 1473.66 705.091L1467.75 710.414C1467.16 710.808 1466.38 711.203 1465.79 711.203Z" fill="#D2DFEA"/>
<path d="M1486.06 693.261C1485.28 693.261 1484.49 692.867 1483.9 692.275C1482.91 691.092 1482.91 689.121 1484.09 688.135L1718.94 481.716C1720.12 480.731 1722.09 480.731 1723.07 481.914C1724.06 483.096 1724.06 485.068 1722.88 486.054L1488.03 692.473C1487.44 693.064 1486.85 693.261 1486.06 693.261Z" fill="#D2DFEA"/>
<path d="M1519.53 697.796C1518.74 697.796 1517.96 697.401 1517.36 696.81C1516.38 695.627 1516.38 693.655 1517.56 692.67L1743.94 493.545C1745.12 492.56 1747.09 492.56 1748.08 493.743C1749.06 494.926 1749.06 496.897 1747.88 497.883L1521.5 697.007C1520.91 697.599 1520.32 697.796 1519.53 697.796Z" fill="#D2DFEA"/>
<path d="M1437.64 806.822C1436.85 806.822 1436.06 806.427 1435.47 805.836C1434.49 804.653 1434.49 802.681 1435.67 801.696L1442.17 795.978C1443.35 794.992 1445.32 794.992 1446.3 796.175C1447.28 797.358 1447.28 799.33 1446.1 800.315L1439.61 806.033C1439.02 806.625 1438.23 806.822 1437.64 806.822Z" fill="#D2DFEA"/>
<path d="M1457.32 789.472C1456.54 789.472 1455.75 789.078 1455.16 788.486C1454.17 787.303 1454.17 785.332 1455.35 784.346L1649.25 614.006C1650.44 613.021 1652.4 613.021 1653.39 614.204C1654.37 615.386 1654.37 617.358 1653.19 618.344L1459.29 788.684C1458.7 789.275 1458.11 789.472 1457.32 789.472Z" fill="#D2DFEA"/>
<path d="M1232.33 195.108C1231.55 195.108 1230.76 194.714 1230.17 194.123C1229.18 192.94 1229.18 190.968 1230.37 189.982L1237.26 184.068C1238.44 183.082 1240.41 183.082 1241.39 184.265C1242.37 185.448 1242.37 187.419 1241.19 188.405L1234.3 194.32C1233.71 194.911 1233.12 195.108 1232.33 195.108Z" fill="#FAA136"/>
<path d="M1252.41 176.577C1251.62 176.577 1250.84 176.182 1250.25 175.591C1249.26 174.408 1249.26 172.436 1250.44 171.451L1444.74 0.716361C1445.92 -0.269402 1447.89 -0.269402 1448.87 0.913514C1449.86 2.09643 1449.86 4.06796 1448.67 5.05372L1254.38 175.788C1253.79 176.379 1253.2 176.577 1252.41 176.577Z" fill="#FAA136"/>
<path d="M1306.55 162.579C1305.76 162.579 1304.97 162.184 1304.38 161.593C1303.4 160.41 1303.4 158.438 1304.58 157.453L1449.85 29.6978C1451.04 28.712 1453 28.712 1453.99 29.895C1454.97 31.0779 1454.97 33.0494 1453.79 34.0352L1308.51 161.987C1307.92 162.381 1307.33 162.579 1306.55 162.579Z" fill="#FAA136"/>
<path d="M1175.05 314.189C1174.26 314.189 1173.47 313.795 1172.88 313.204C1171.9 312.021 1171.9 310.049 1173.08 309.064L1179.97 303.149C1181.15 302.163 1183.12 302.163 1184.1 303.346C1185.09 304.529 1185.09 306.501 1183.91 307.486L1177.02 313.401C1176.43 313.992 1175.84 314.189 1175.05 314.189Z" fill="#D2DFEA"/>
<path d="M1195.13 295.657C1194.34 295.657 1193.55 295.262 1192.96 294.671C1191.98 293.488 1191.98 291.516 1193.16 290.531L1387.25 119.796C1388.44 118.811 1390.4 118.811 1391.39 119.994C1392.37 121.177 1392.37 123.148 1391.19 124.134L1197.1 294.868C1196.5 295.459 1195.91 295.657 1195.13 295.657Z" fill="#D2DFEA"/>
<path d="M2.88066 530.93C2.09324 530.93 1.30583 530.536 0.715272 529.944C-0.268993 528.761 -0.268993 526.79 0.912125 525.804L7.80198 519.889C8.9831 518.903 10.9516 518.903 11.9359 520.086C12.9202 521.269 12.9202 523.241 11.739 524.227L4.84919 530.141C4.25863 530.733 3.66807 530.93 2.88066 530.93Z" fill="#D2DFEA"/>
<path d="M22.9587 512.398C22.1712 512.398 21.3838 512.004 20.7933 511.412C19.809 510.229 19.809 508.258 20.9901 507.272L151.307 392.726C152.488 391.74 154.456 391.74 155.441 392.923C156.425 394.106 156.425 396.078 155.244 397.064L24.9272 511.609C24.3366 512.201 23.7461 512.398 22.9587 512.398Z" fill="#D2DFEA"/>
<path d="M81.0319 495.048C80.2445 495.048 79.4571 494.654 78.8665 494.063C77.8823 492.88 77.8823 490.908 79.0634 489.922L220.404 365.716C221.585 364.731 223.553 364.731 224.538 365.914C225.522 367.096 225.522 369.068 224.341 370.054L83.0004 494.26C82.4099 494.851 81.6225 495.048 81.0319 495.048Z" fill="#D2DFEA"/>
</svg>
