<svg width="77" height="77" viewBox="0 0 77 77" fill="none" xmlns="http://www.w3.org/2000/svg">
<circle cx="38.5" cy="38.5" r="38.5" fill="#FFD9D2"/>
<path d="M38.4998 6.41675C56.1457 6.41675 70.5832 20.8543 70.5832 38.5001C70.5832 56.1459 56.1457 70.5834 38.4998 70.5834C20.854 70.5834 6.4165 56.1459 6.4165 38.5001C6.4165 20.8543 20.854 6.41675 38.4998 6.41675Z" fill="#E33E23"/>
<path fill-rule="evenodd" clip-rule="evenodd" d="M19.7002 39.3001C19.7002 39.3001 30.8002 41.7001 32.4002 36.5001C33.9002 31.4001 28.8002 30.4001 28.8002 30.4001H26.6002V38.9001H24.2002V30.7001H22.1002V29.8001C22.1002 29.8001 30.1002 29.8001 31.0002 29.9001C35.5002 30.4001 37.6002 38.4001 30.5002 40.0001C25.0002 41.3001 19.7002 39.3001 19.7002 39.3001ZM24.2002 41.2001V46.3001C24.2002 46.3001 24.2002 47.4001 23.2002 47.4001C22.2002 47.4001 22.0002 47.4001 22.0002 47.4001V48.3001H28.9002V47.4001H27.4002C27.4002 47.4001 26.6002 47.3001 26.6002 46.5001V41.2001H24.2002ZM33.1002 48.2001H40.1002V47.1001H38.1002C38.1002 47.1001 37.5002 46.7001 37.5002 46.0001V33.2001L45.3002 48.2001L52.9002 33.5001L52.7002 46.2001C52.7002 46.2001 52.9002 47.2001 51.8002 47.2001C50.7002 47.2001 50.5002 47.2001 50.5002 47.2001V48.0001H57.5002V47.0001H55.9002C55.9002 47.0001 55.2002 47.1001 55.2002 46.3001C55.2002 45.6001 55.2002 30.9001 55.2002 30.9001C55.2002 30.9001 55.2002 30.6001 55.8002 30.6001H57.0002V29.6001H52.7002L45.6002 44.3001L38.5002 29.7001H34.6002V30.6001H35.8002C35.8002 30.6001 36.2002 30.6001 36.2002 31.2001C36.2002 31.8001 36.0002 46.1001 36.0002 46.1001C36.0002 46.1001 36.1002 47.2001 34.8002 47.2001C33.6002 47.2001 32.9002 47.2001 32.9002 47.2001L33.1002 48.2001Z" fill="white"/>
</svg>
