<svg width="285" height="630" viewBox="0 0 285 630" fill="none" xmlns="http://www.w3.org/2000/svg">
<g clip-path="url(#clip0)">
<g filter="url(#filter0_d)">
<path fill-rule="evenodd" clip-rule="evenodd" d="M228.166 153.98H56.6874C51.4898 153.98 46.5051 156.045 42.8298 159.72C39.1546 163.396 37.0898 168.38 37.0898 173.578V571.128C37.0898 576.326 39.1546 581.311 42.8298 584.986C46.5051 588.661 51.4898 590.726 56.6874 590.726H228.166C233.363 590.726 238.348 588.661 242.023 584.986C245.699 581.311 247.763 576.326 247.763 571.128V173.578C247.763 168.38 245.699 163.396 242.023 159.72C238.348 156.045 233.363 153.98 228.166 153.98Z" fill="black"/>
</g>
<path d="M245.665 0H39.1912C17.5443 0 -0.00390625 17.5482 -0.00390625 39.1951V551.531C-0.00390625 573.178 17.5443 590.726 39.1912 590.726H245.665C267.312 590.726 284.86 573.178 284.86 551.531V39.1951C284.86 17.5482 267.312 0 245.665 0Z" fill="#0C1D2D"/>
<path fill-rule="evenodd" clip-rule="evenodd" d="M245.67 579.528H39.1957C31.7771 579.534 24.6598 576.594 19.4095 571.352C14.1591 566.111 11.2058 558.999 11.1992 551.58V39.1957C11.1962 35.5222 11.9167 31.8841 13.3197 28.489C14.7227 25.094 16.7807 22.0085 19.3761 19.4088C21.9715 16.8091 25.0536 14.746 28.4463 13.3374C31.8391 11.9288 35.476 11.2023 39.1495 11.1992H65.7924C66.7093 11.2004 67.5892 11.5609 68.2435 12.2034C68.8977 12.8458 69.2741 13.7191 69.292 14.6358V16.7985C69.2903 18.819 69.6866 20.82 70.4583 22.6872C71.2299 24.5545 72.3618 26.2515 73.7893 27.6814C75.2168 29.1112 76.912 30.2459 78.778 31.0206C80.644 31.7954 82.6444 32.1949 84.6648 32.1966H201.575C203.412 32.1981 205.231 31.8377 206.929 31.1362C208.626 30.4346 210.169 29.4056 211.469 28.1078C212.769 26.81 213.8 25.2689 214.505 23.5725C215.209 21.8761 215.572 20.0576 215.574 18.2207V14.6988C215.575 13.7716 215.943 12.8826 216.599 12.2267C217.254 11.5707 218.142 11.2013 219.07 11.1992H245.67C249.343 11.1962 252.981 11.9167 256.377 13.3197C259.772 14.7227 262.857 16.7807 265.457 19.3761C268.056 21.9715 270.12 25.0536 271.528 28.4463C272.937 31.8391 273.663 35.476 273.666 39.1495V551.531C273.67 555.205 272.949 558.843 271.546 562.238C270.143 565.633 268.086 568.719 265.49 571.318C262.895 573.918 259.813 575.981 256.42 577.39C253.028 578.798 249.391 579.525 245.717 579.528H245.67Z" fill="url(#paint0_linear)"/>
<rect x="11" y="258" width="263" height="322" rx="29" fill="white"/>
</g>
<defs>
<filter id="filter0_d" x="30.0907" y="150.481" width="224.672" height="450.744" filterUnits="userSpaceOnUse" color-interpolation-filters="sRGB">
<feFlood flood-opacity="0" result="BackgroundImageFix"/>
<feColorMatrix in="SourceAlpha" type="matrix" values="0 0 0 0 0 0 0 0 0 0 0 0 0 0 0 0 0 0 127 0"/>
<feOffset dy="3.49956"/>
<feGaussianBlur stdDeviation="3.49956"/>
<feColorMatrix type="matrix" values="0 0 0 0 0 0 0 0 0 0 0 0 0 0 0 0 0 0 0.5 0"/>
<feBlend mode="normal" in2="BackgroundImageFix" result="effect1_dropShadow"/>
<feBlend mode="normal" in="SourceGraphic" in2="effect1_dropShadow" result="shape"/>
</filter>
<linearGradient id="paint0_linear" x1="11.1992" y1="295.359" x2="273.666" y2="295.359" gradientUnits="userSpaceOnUse">
<stop stop-color="#1E72A2"/>
<stop offset="1" stop-color="#0E4C83"/>
</linearGradient>
<clipPath id="clip0">
<rect width="284.864" height="629.221" fill="white"/>
</clipPath>
</defs>
</svg>
