<svg width="83" height="82" viewBox="0 0 83 82" fill="none" xmlns="http://www.w3.org/2000/svg">
<g clip-path="url(#clip0)">
<path d="M41.6406 0C19.0208 0 0.640625 18.3802 0.640625 41C0.640625 63.6198 19.0208 82 41.6406 82C64.2604 82 82.6406 63.6198 82.6406 41C82.6406 18.3802 64.2604 0 41.6406 0ZM41.6406 4C62.0986 4 78.6406 20.542 78.6406 41C78.6406 61.458 62.0986 78 41.6406 78C21.1826 78 4.64062 61.458 4.64062 41C4.64062 20.542 21.1826 4 41.6406 4ZM31.0156 22C28.7038 22.052 26.6997 23.9088 26.6406 26.5625V55.4062C26.7196 58.9444 30.2525 61.0906 33.3594 59.4062L58.3594 44.9375C59.72 44.1472 60.6406 42.6967 60.6406 41C60.6406 39.3033 59.7201 37.8527 58.3594 37.0625L33.3594 22.5938C32.5826 22.1726 31.7862 21.9827 31.0156 22Z" fill="#FFD364"/>
</g>
<defs>
<clipPath id="clip0">
<rect width="82" height="82" fill="white" transform="translate(0.640625)"/>
</clipPath>
</defs>
</svg>
