<svg width="226" height="484" viewBox="0 0 226 484" fill="none" xmlns="http://www.w3.org/2000/svg">
<g opacity="0.3">
<g clip-path="url(#clip0)">
<g opacity="0.81">
<path opacity="0.81" d="M414.004 413.003C508.444 318.562 508.444 165.444 414.004 71.0031C319.563 -23.4376 166.444 -23.4376 72.0038 71.0031C-22.4369 165.444 -22.4368 318.562 72.0038 413.003C166.444 507.443 319.563 507.444 414.004 413.003Z" stroke="url(#paint0_linear)" stroke-width="1.0531" stroke-linecap="round" stroke-linejoin="round"/>
<path opacity="0.81" d="M349.004 348.004C407.547 289.461 407.547 194.545 349.004 136.002C290.461 77.4587 195.544 77.4587 137.001 136.002C78.4584 194.545 78.4584 289.461 137.001 348.004C195.544 406.547 290.461 406.547 349.004 348.004Z" stroke="url(#paint1_linear)" stroke-width="1.0531" stroke-linecap="round" stroke-linejoin="round"/>
</g>
<g opacity="0.81">
<path opacity="0.81" d="M243.008 386.178C322.637 386.178 387.188 321.627 387.188 241.998C387.188 162.37 322.637 97.8184 243.008 97.8184C163.38 97.8184 98.8281 162.37 98.8281 241.998C98.8281 321.627 163.38 386.178 243.008 386.178Z" stroke="url(#paint2_linear)" stroke-width="1.1458" stroke-linecap="round" stroke-linejoin="round"/>
</g>
<g opacity="0.81">
<path opacity="0.81" d="M340.907 339.908C394.978 285.836 394.978 198.169 340.907 144.098C286.835 90.0264 199.168 90.0264 145.096 144.098C91.025 198.169 91.025 285.837 145.096 339.908C199.168 393.979 286.835 393.979 340.907 339.908Z" stroke="url(#paint3_linear)" stroke-width="1.2385" stroke-linecap="round" stroke-linejoin="round"/>
</g>
<g opacity="0.81">
<path opacity="0.81" d="M243.007 374.728C316.312 374.728 375.737 315.302 375.737 241.998C375.737 168.693 316.312 109.268 243.007 109.268C169.703 109.268 110.277 168.693 110.277 241.998C110.277 315.302 169.703 374.728 243.007 374.728Z" stroke="url(#paint4_linear)" stroke-width="1.3312" stroke-linecap="round" stroke-linejoin="round"/>
</g>
<g opacity="0.81">
<path opacity="0.81" d="M243.006 369.008C313.152 369.008 370.016 312.144 370.016 241.998C370.016 171.853 313.152 114.988 243.006 114.988C172.86 114.988 115.996 171.853 115.996 241.998C115.996 312.144 172.86 369.008 243.006 369.008Z" stroke="url(#paint5_linear)" stroke-width="1.4239" stroke-linecap="round" stroke-linejoin="round"/>
</g>
<g opacity="0.81">
<path opacity="0.81" d="M243.007 363.278C309.988 363.278 364.287 308.979 364.287 241.998C364.287 175.017 309.988 120.718 243.007 120.718C176.025 120.718 121.727 175.017 121.727 241.998C121.727 308.979 176.025 363.278 243.007 363.278Z" stroke="url(#paint6_linear)" stroke-width="1.5166" stroke-linecap="round" stroke-linejoin="round"/>
</g>
<g opacity="0.81">
<path opacity="0.81" d="M243.007 357.548C306.824 357.548 358.557 305.815 358.557 241.998C358.557 178.182 306.824 126.448 243.007 126.448C179.191 126.448 127.457 178.182 127.457 241.998C127.457 305.815 179.191 357.548 243.007 357.548Z" stroke="url(#paint7_linear)" stroke-width="1.6093" stroke-linecap="round" stroke-linejoin="round"/>
</g>
<g opacity="0.81">
<path opacity="0.81" d="M243.006 351.828C303.663 351.828 352.836 302.655 352.836 241.998C352.836 181.341 303.663 132.168 243.006 132.168C182.348 132.168 133.176 181.341 133.176 241.998C133.176 302.655 182.348 351.828 243.006 351.828Z" stroke="url(#paint8_linear)" stroke-width="1.702" stroke-linecap="round" stroke-linejoin="round"/>
</g>
<g opacity="0.81">
<path opacity="0.81" d="M243.006 346.097C300.499 346.097 347.106 299.49 347.106 241.997C347.106 184.505 300.499 137.897 243.006 137.897C185.513 137.897 138.906 184.505 138.906 241.997C138.906 299.49 185.513 346.097 243.006 346.097Z" stroke="url(#paint9_linear)" stroke-width="1.7948" stroke-linecap="round" stroke-linejoin="round"/>
</g>
<g opacity="0.81">
<path opacity="0.81" d="M243.005 340.378C297.339 340.378 341.385 296.332 341.385 241.998C341.385 187.664 297.339 143.618 243.005 143.618C188.671 143.618 144.625 187.664 144.625 241.998C144.625 296.332 188.671 340.378 243.005 340.378Z" stroke="url(#paint10_linear)" stroke-width="1.8875" stroke-linecap="round" stroke-linejoin="round"/>
</g>
<g opacity="0.81">
<path opacity="0.81" d="M243.005 334.648C294.175 334.648 335.656 293.167 335.656 241.998C335.656 190.828 294.175 149.348 243.005 149.348C191.836 149.348 150.355 190.828 150.355 241.998C150.355 293.167 191.836 334.648 243.005 334.648Z" stroke="url(#paint11_linear)" stroke-width="1.9802" stroke-linecap="round" stroke-linejoin="round"/>
</g>
<g opacity="0.81">
<path opacity="0.81" d="M243.006 328.918C291.011 328.918 329.926 290.003 329.926 241.998C329.926 193.994 291.011 155.078 243.006 155.078C195.001 155.078 156.086 193.994 156.086 241.998C156.086 290.003 195.001 328.918 243.006 328.918Z" stroke="url(#paint12_linear)" stroke-width="2.0729" stroke-linecap="round" stroke-linejoin="round"/>
</g>
<g opacity="0.81">
<path opacity="0.81" d="M245.925 323.183C290.744 321.587 325.782 283.96 324.185 239.141C322.589 194.323 284.962 159.284 240.143 160.881C195.325 162.477 160.286 200.104 161.883 244.923C163.479 289.741 201.106 324.78 245.925 323.183Z" stroke="url(#paint13_linear)" stroke-width="2.1656" stroke-linecap="round" stroke-linejoin="round"/>
</g>
<g opacity="0.81">
<path opacity="0.81" d="M243.005 317.468C284.686 317.468 318.475 283.679 318.475 241.998C318.475 200.317 284.686 166.528 243.005 166.528C201.324 166.528 167.535 200.317 167.535 241.998C167.535 283.679 201.324 317.468 243.005 317.468Z" stroke="url(#paint14_linear)" stroke-width="2.2583" stroke-linecap="round" stroke-linejoin="round"/>
</g>
<g opacity="0.81">
<path opacity="0.81" d="M245.514 311.741C284.013 310.369 314.111 278.048 312.739 239.55C311.368 201.051 279.047 170.953 240.548 172.325C202.049 173.696 171.952 206.017 173.323 244.516C174.694 283.015 207.015 313.112 245.514 311.741Z" stroke="url(#paint15_linear)" stroke-width="2.351" stroke-linecap="round" stroke-linejoin="round"/>
</g>
<g opacity="0.81">
<path opacity="0.81" d="M243.008 306.018C278.366 306.018 307.028 277.355 307.028 241.998C307.028 206.64 278.366 177.978 243.008 177.978C207.651 177.978 178.988 206.64 178.988 241.998C178.988 277.355 207.651 306.018 243.008 306.018Z" stroke="url(#paint16_linear)" stroke-width="2.4437" stroke-linecap="round" stroke-linejoin="round"/>
</g>
<g opacity="0.81">
<path opacity="0.81" d="M245.108 300.287C277.282 299.141 302.434 272.131 301.288 239.957C300.142 207.784 273.131 182.631 240.958 183.777C208.785 184.923 183.632 211.934 184.778 244.108C185.924 276.281 212.935 301.434 245.108 300.287Z" stroke="url(#paint17_linear)" stroke-width="2.5364" stroke-linecap="round" stroke-linejoin="round"/>
</g>
<g opacity="0.81">
<path opacity="0.81" d="M243.008 294.568C272.041 294.568 295.578 271.031 295.578 241.998C295.578 212.964 272.041 189.428 243.008 189.428C213.974 189.428 190.438 212.964 190.438 241.998C190.438 271.031 213.974 294.568 243.008 294.568Z" stroke="url(#paint18_linear)" stroke-width="2.6292" stroke-linecap="round" stroke-linejoin="round"/>
</g>
<g opacity="0.81">
<path opacity="0.81" d="M244.702 288.844C270.555 287.923 290.767 266.218 289.846 240.365C288.925 214.511 267.22 194.299 241.367 195.22C215.513 196.141 195.301 217.846 196.222 243.7C197.143 269.553 218.848 289.765 244.702 288.844Z" stroke="url(#paint19_linear)" stroke-width="2.7219" stroke-linecap="round" stroke-linejoin="round"/>
</g>
<g opacity="0.81">
<path opacity="0.81" d="M243.007 283.118C265.717 283.118 284.127 264.708 284.127 241.998C284.127 219.288 265.717 200.878 243.007 200.878C220.297 200.878 201.887 219.288 201.887 241.998C201.887 264.708 220.297 283.118 243.007 283.118Z" stroke="url(#paint20_linear)" stroke-width="2.8146" stroke-linecap="round" stroke-linejoin="round"/>
</g>
<g opacity="0.81">
<path opacity="0.81" d="M244.291 277.401C263.825 276.706 279.096 260.306 278.4 240.773C277.704 221.239 261.305 205.968 241.771 206.664C222.237 207.36 206.966 223.759 207.662 243.293C208.358 262.826 224.757 278.097 244.291 277.401Z" stroke="url(#paint21_linear)" stroke-width="2.9073" stroke-linecap="round" stroke-linejoin="round"/>
</g>
<g opacity="0.81">
<path opacity="0.81" d="M243.008 271.658C259.388 271.658 272.668 258.379 272.668 241.998C272.668 225.617 259.388 212.338 243.008 212.338C226.627 212.338 213.348 225.617 213.348 241.998C213.348 258.379 226.627 271.658 243.008 271.658Z" stroke="url(#paint22_linear)" stroke-width="3" stroke-linecap="round" stroke-linejoin="round"/>
</g>
</g>
</g>
<defs>
<linearGradient id="paint0_linear" x1="72.0009" y1="413" x2="414.001" y2="71.0002" gradientUnits="userSpaceOnUse">
<stop stop-color="#FFD364"/>
<stop offset="1" stop-color="#FAA136"/>
</linearGradient>
<linearGradient id="paint1_linear" x1="137" y1="348.003" x2="349.002" y2="136" gradientUnits="userSpaceOnUse">
<stop stop-color="#FFD364"/>
<stop offset="1" stop-color="#FAA136"/>
</linearGradient>
<linearGradient id="paint2_linear" x1="98.8281" y1="241.996" x2="387.188" y2="241.996" gradientUnits="userSpaceOnUse">
<stop stop-color="#FFD364"/>
<stop offset="1" stop-color="#FAA136"/>
</linearGradient>
<linearGradient id="paint3_linear" x1="145.095" y1="339.906" x2="340.905" y2="144.096" gradientUnits="userSpaceOnUse">
<stop stop-color="#FFD364"/>
<stop offset="1" stop-color="#FAA136"/>
</linearGradient>
<linearGradient id="paint4_linear" x1="110.277" y1="241.995" x2="375.737" y2="241.995" gradientUnits="userSpaceOnUse">
<stop stop-color="#FFD364"/>
<stop offset="1" stop-color="#FAA136"/>
</linearGradient>
<linearGradient id="paint5_linear" x1="115.996" y1="241.996" x2="370.016" y2="241.996" gradientUnits="userSpaceOnUse">
<stop stop-color="#FFD364"/>
<stop offset="1" stop-color="#FAA136"/>
</linearGradient>
<linearGradient id="paint6_linear" x1="121.727" y1="241.996" x2="364.287" y2="241.996" gradientUnits="userSpaceOnUse">
<stop stop-color="#FFD364"/>
<stop offset="1" stop-color="#FAA136"/>
</linearGradient>
<linearGradient id="paint7_linear" x1="127.457" y1="241.996" x2="358.557" y2="241.996" gradientUnits="userSpaceOnUse">
<stop stop-color="#FFD364"/>
<stop offset="1" stop-color="#FAA136"/>
</linearGradient>
<linearGradient id="paint8_linear" x1="133.176" y1="241.996" x2="352.836" y2="241.996" gradientUnits="userSpaceOnUse">
<stop stop-color="#FFD364"/>
<stop offset="1" stop-color="#FAA136"/>
</linearGradient>
<linearGradient id="paint9_linear" x1="138.906" y1="241.996" x2="347.106" y2="241.996" gradientUnits="userSpaceOnUse">
<stop stop-color="#FFD364"/>
<stop offset="1" stop-color="#FAA136"/>
</linearGradient>
<linearGradient id="paint10_linear" x1="144.625" y1="241.997" x2="341.385" y2="241.997" gradientUnits="userSpaceOnUse">
<stop stop-color="#FFD364"/>
<stop offset="1" stop-color="#FAA136"/>
</linearGradient>
<linearGradient id="paint11_linear" x1="150.355" y1="241.996" x2="335.656" y2="241.996" gradientUnits="userSpaceOnUse">
<stop stop-color="#FFD364"/>
<stop offset="1" stop-color="#FAA136"/>
</linearGradient>
<linearGradient id="paint12_linear" x1="156.086" y1="241.997" x2="329.926" y2="241.997" gradientUnits="userSpaceOnUse">
<stop stop-color="#FFD364"/>
<stop offset="1" stop-color="#FAA136"/>
</linearGradient>
<linearGradient id="paint13_linear" x1="161.883" y1="244.921" x2="324.185" y2="239.14" gradientUnits="userSpaceOnUse">
<stop stop-color="#FFD364"/>
<stop offset="1" stop-color="#FAA136"/>
</linearGradient>
<linearGradient id="paint14_linear" x1="167.535" y1="241.997" x2="318.475" y2="241.997" gradientUnits="userSpaceOnUse">
<stop stop-color="#FFD364"/>
<stop offset="1" stop-color="#FAA136"/>
</linearGradient>
<linearGradient id="paint15_linear" x1="173.323" y1="244.515" x2="312.739" y2="239.548" gradientUnits="userSpaceOnUse">
<stop stop-color="#FFD364"/>
<stop offset="1" stop-color="#FAA136"/>
</linearGradient>
<linearGradient id="paint16_linear" x1="178.988" y1="241.996" x2="307.028" y2="241.996" gradientUnits="userSpaceOnUse">
<stop stop-color="#FFD364"/>
<stop offset="1" stop-color="#FAA136"/>
</linearGradient>
<linearGradient id="paint17_linear" x1="184.778" y1="244.107" x2="301.288" y2="239.956" gradientUnits="userSpaceOnUse">
<stop stop-color="#FFD364"/>
<stop offset="1" stop-color="#FAA136"/>
</linearGradient>
<linearGradient id="paint18_linear" x1="190.438" y1="241.997" x2="295.578" y2="241.997" gradientUnits="userSpaceOnUse">
<stop stop-color="#FFD364"/>
<stop offset="1" stop-color="#FAA136"/>
</linearGradient>
<linearGradient id="paint19_linear" x1="196.222" y1="243.699" x2="289.846" y2="240.364" gradientUnits="userSpaceOnUse">
<stop stop-color="#FFD364"/>
<stop offset="1" stop-color="#FAA136"/>
</linearGradient>
<linearGradient id="paint20_linear" x1="201.887" y1="241.997" x2="284.127" y2="241.997" gradientUnits="userSpaceOnUse">
<stop stop-color="#FFD364"/>
<stop offset="1" stop-color="#FAA136"/>
</linearGradient>
<linearGradient id="paint21_linear" x1="207.662" y1="243.292" x2="278.4" y2="240.772" gradientUnits="userSpaceOnUse">
<stop stop-color="#FFD364"/>
<stop offset="1" stop-color="#FAA136"/>
</linearGradient>
<linearGradient id="paint22_linear" x1="213.348" y1="241.997" x2="272.668" y2="241.997" gradientUnits="userSpaceOnUse">
<stop stop-color="#FFD364"/>
<stop offset="1" stop-color="#FAA136"/>
</linearGradient>
<clipPath id="clip0">
<rect width="226" height="484" fill="white"/>
</clipPath>
</defs>
</svg>
