<svg width="322" height="698" viewBox="0 0 322 698" fill="none" xmlns="http://www.w3.org/2000/svg">
<g opacity="0.3">
<g clip-path="url(#clip0)">
<path opacity="0.81" d="M219.504 596.503C355.643 460.365 355.643 239.641 219.504 103.503C83.3661 -32.6355 -137.358 -32.6355 -273.496 103.503C-409.634 239.641 -409.634 460.365 -273.496 596.503C-137.358 732.641 83.3661 732.641 219.504 596.503Z" stroke="url(#paint0_linear)" stroke-width="1.0531" stroke-linecap="round" stroke-linejoin="round"/>
<path opacity="0.81" d="M141.001 518.003C233.785 425.219 233.785 274.787 141.001 182.003C48.2172 89.2185 -102.215 89.2184 -195 182.003C-287.784 274.787 -287.784 425.219 -195 518.003C-102.215 610.787 48.2173 610.788 141.001 518.003Z" stroke="url(#paint1_linear)" stroke-width="1.0531" stroke-linecap="round" stroke-linejoin="round"/>
<g opacity="0.81">
<path opacity="0.81" d="M79.0041 456.005C137.547 397.462 137.547 302.546 79.004 244.003C20.4611 185.46 -74.4557 185.46 -132.999 244.003C-191.542 302.546 -191.542 397.462 -132.999 456.005C-74.4557 514.548 20.4611 514.548 79.0041 456.005Z" stroke="url(#paint2_linear)" stroke-width="1.0531" stroke-linecap="round" stroke-linejoin="round"/>
</g>
<g opacity="0.81">
<path opacity="0.81" d="M-26.9919 494.179C52.6365 494.179 117.188 429.628 117.188 349.999C117.188 270.371 52.6365 205.819 -26.9919 205.819C-106.62 205.819 -171.172 270.371 -171.172 349.999C-171.172 429.628 -106.62 494.179 -26.9919 494.179Z" stroke="url(#paint3_linear)" stroke-width="1.1458" stroke-linecap="round" stroke-linejoin="round"/>
</g>
<g opacity="0.81">
<path opacity="0.81" d="M70.9105 447.909C124.982 393.837 124.982 306.17 70.9105 252.099C16.8391 198.027 -70.8281 198.027 -124.9 252.099C-178.971 306.17 -178.971 393.837 -124.9 447.909C-70.8282 501.98 16.839 501.98 70.9105 447.909Z" stroke="url(#paint4_linear)" stroke-width="1.2385" stroke-linecap="round" stroke-linejoin="round"/>
</g>
<g opacity="0.81">
<path opacity="0.81" d="M-26.9927 482.729C46.3121 482.729 105.737 423.303 105.737 349.999C105.737 276.694 46.3121 217.269 -26.9927 217.269C-100.297 217.269 -159.723 276.694 -159.723 349.999C-159.723 423.303 -100.297 482.729 -26.9927 482.729Z" stroke="url(#paint5_linear)" stroke-width="1.3312" stroke-linecap="round" stroke-linejoin="round"/>
</g>
<g opacity="0.81">
<path opacity="0.81" d="M-26.9939 477.009C43.1518 477.009 100.016 420.145 100.016 349.999C100.016 279.854 43.1518 222.989 -26.9939 222.989C-97.1396 222.989 -154.004 279.854 -154.004 349.999C-154.004 420.145 -97.1396 477.009 -26.9939 477.009Z" stroke="url(#paint6_linear)" stroke-width="1.4239" stroke-linecap="round" stroke-linejoin="round"/>
</g>
<g opacity="0.81">
<path opacity="0.81" d="M-26.9934 471.279C39.9877 471.279 94.2866 416.98 94.2866 349.999C94.2866 283.018 39.9877 228.719 -26.9934 228.719C-93.9745 228.719 -148.273 283.018 -148.273 349.999C-148.273 416.98 -93.9745 471.279 -26.9934 471.279Z" stroke="url(#paint7_linear)" stroke-width="1.5166" stroke-linecap="round" stroke-linejoin="round"/>
</g>
<g opacity="0.81">
<path opacity="0.81" d="M-26.993 465.549C36.8235 465.549 88.557 413.816 88.557 349.999C88.557 286.183 36.8235 234.449 -26.993 234.449C-90.8095 234.449 -142.543 286.183 -142.543 349.999C-142.543 413.816 -90.8095 465.549 -26.993 465.549Z" stroke="url(#paint8_linear)" stroke-width="1.6093" stroke-linecap="round" stroke-linejoin="round"/>
</g>
<g opacity="0.81">
<path opacity="0.81" d="M-26.9903 459.829C33.6671 459.829 82.8397 410.656 82.8397 349.999C82.8397 289.342 33.6671 240.169 -26.9903 240.169C-87.6477 240.169 -136.82 289.342 -136.82 349.999C-136.82 410.656 -87.6477 459.829 -26.9903 459.829Z" stroke="url(#paint9_linear)" stroke-width="1.702" stroke-linecap="round" stroke-linejoin="round"/>
</g>
<g opacity="0.81">
<path opacity="0.81" d="M-26.9938 454.098C30.4991 454.098 77.1062 407.491 77.1062 349.998C77.1062 292.506 30.4991 245.898 -26.9938 245.898C-84.4866 245.898 -131.094 292.506 -131.094 349.998C-131.094 407.491 -84.4866 454.098 -26.9938 454.098Z" stroke="url(#paint10_linear)" stroke-width="1.7948" stroke-linecap="round" stroke-linejoin="round"/>
</g>
<g opacity="0.81">
<path opacity="0.81" d="M-26.9911 448.379C27.3427 448.379 71.3889 404.333 71.3889 349.999C71.3889 295.665 27.3427 251.619 -26.9911 251.619C-81.3249 251.619 -125.371 295.665 -125.371 349.999C-125.371 404.333 -81.3249 448.379 -26.9911 448.379Z" stroke="url(#paint11_linear)" stroke-width="1.8875" stroke-linecap="round" stroke-linejoin="round"/>
</g>
<g opacity="0.81">
<path opacity="0.81" d="M-26.9906 442.649C24.1786 442.649 65.6594 401.168 65.6594 349.999C65.6594 298.829 24.1786 257.349 -26.9906 257.349C-78.1598 257.349 -119.641 298.829 -119.641 349.999C-119.641 401.168 -78.1598 442.649 -26.9906 442.649Z" stroke="url(#paint12_linear)" stroke-width="1.9802" stroke-linecap="round" stroke-linejoin="round"/>
</g>
<g opacity="0.81">
<path opacity="0.81" d="M-26.9902 436.919C21.0144 436.919 59.9298 398.004 59.9298 349.999C59.9298 301.995 21.0144 263.079 -26.9902 263.079C-74.9948 263.079 -113.91 301.995 -113.91 349.999C-113.91 398.004 -74.9948 436.919 -26.9902 436.919Z" stroke="url(#paint13_linear)" stroke-width="2.0729" stroke-linecap="round" stroke-linejoin="round"/>
</g>
<g opacity="0.81">
<path opacity="0.81" d="M-24.0751 431.185C20.7435 429.589 55.782 391.962 54.1855 347.143C52.589 302.325 14.9621 267.286 -29.8565 268.883C-74.6751 270.479 -109.714 308.106 -108.117 352.925C-106.521 397.743 -68.8937 432.782 -24.0751 431.185Z" stroke="url(#paint14_linear)" stroke-width="2.1656" stroke-linecap="round" stroke-linejoin="round"/>
</g>
<g opacity="0.81">
<path opacity="0.81" d="M-26.991 425.469C14.69 425.469 48.479 391.68 48.479 349.999C48.479 308.318 14.69 274.529 -26.991 274.529C-68.6719 274.529 -102.461 308.318 -102.461 349.999C-102.461 391.68 -68.6719 425.469 -26.991 425.469Z" stroke="url(#paint15_linear)" stroke-width="2.2583" stroke-linecap="round" stroke-linejoin="round"/>
</g>
<g opacity="0.81">
<path opacity="0.81" d="M-24.4819 419.742C14.0169 418.37 44.1145 386.049 42.7432 347.551C41.3718 309.052 9.05065 278.954 -29.4481 280.325C-67.9468 281.697 -98.0445 314.018 -96.6732 352.517C-95.3018 391.015 -62.9806 421.113 -24.4819 419.742Z" stroke="url(#paint16_linear)" stroke-width="2.351" stroke-linecap="round" stroke-linejoin="round"/>
</g>
<g opacity="0.81">
<path opacity="0.81" d="M-26.9917 414.019C8.36557 414.019 37.0283 385.356 37.0283 349.999C37.0283 314.641 8.36557 285.979 -26.9917 285.979C-62.349 285.979 -91.0117 314.641 -91.0117 349.999C-91.0117 385.356 -62.349 414.019 -26.9917 414.019Z" stroke="url(#paint17_linear)" stroke-width="2.4437" stroke-linecap="round" stroke-linejoin="round"/>
</g>
<g opacity="0.81">
<path opacity="0.81" d="M-24.8916 408.288C7.28174 407.142 32.4343 380.132 31.2883 347.958C30.1422 315.785 3.13149 290.632 -29.0419 291.778C-61.2152 292.924 -86.3678 319.935 -85.2218 352.109C-84.0757 384.282 -57.065 409.435 -24.8916 408.288Z" stroke="url(#paint18_linear)" stroke-width="2.5364" stroke-linecap="round" stroke-linejoin="round"/>
</g>
<g opacity="0.81">
<path opacity="0.81" d="M-26.9925 402.569C2.04111 402.569 25.5775 379.032 25.5775 349.999C25.5775 320.965 2.04111 297.429 -26.9925 297.429C-56.0261 297.429 -79.5625 320.965 -79.5625 349.999C-79.5625 379.032 -56.0261 402.569 -26.9925 402.569Z" stroke="url(#paint19_linear)" stroke-width="2.6292" stroke-linecap="round" stroke-linejoin="round"/>
</g>
<g opacity="0.81">
<path opacity="0.81" d="M-25.2984 396.846C0.555117 395.925 20.767 374.22 19.846 348.367C18.9251 322.513 -2.77989 302.301 -28.6334 303.222C-54.4869 304.143 -74.6987 325.848 -73.7778 351.702C-72.8569 377.555 -51.1519 397.767 -25.2984 396.846Z" stroke="url(#paint20_linear)" stroke-width="2.7219" stroke-linecap="round" stroke-linejoin="round"/>
</g>
<g opacity="0.81">
<path opacity="0.81" d="M-26.9933 391.119C-4.28334 391.119 14.1267 372.709 14.1267 349.999C14.1267 327.289 -4.28334 308.879 -26.9933 308.879C-49.7032 308.879 -68.1133 327.289 -68.1133 349.999C-68.1133 372.709 -49.7032 391.119 -26.9933 391.119Z" stroke="url(#paint21_linear)" stroke-width="2.8146" stroke-linecap="round" stroke-linejoin="round"/>
</g>
<g opacity="0.81">
<path opacity="0.81" d="M-25.7052 385.402C-6.17157 384.707 9.09951 368.307 8.4037 348.774C7.70788 329.24 -8.69134 313.969 -28.225 314.665C-47.7586 315.361 -63.0297 331.76 -62.3339 351.294C-61.6381 370.827 -45.2388 386.098 -25.7052 385.402Z" stroke="url(#paint22_linear)" stroke-width="2.9073" stroke-linecap="round" stroke-linejoin="round"/>
</g>
<g opacity="0.81">
<path opacity="0.81" d="M-26.9924 379.659C-10.6116 379.659 2.6676 366.38 2.6676 349.999C2.6676 333.618 -10.6116 320.339 -26.9924 320.339C-43.3731 320.339 -56.6523 333.618 -56.6523 349.999C-56.6523 366.38 -43.3731 379.659 -26.9924 379.659Z" stroke="url(#paint23_linear)" stroke-width="3" stroke-linecap="round" stroke-linejoin="round"/>
</g>
</g>
</g>
<defs>
<linearGradient id="paint0_linear" x1="-273.5" y1="596.499" x2="436.574" y2="235.947" gradientUnits="userSpaceOnUse">
<stop offset="0.433667" stop-color="#FAA136"/>
<stop offset="0.946412" stop-color="white"/>
</linearGradient>
<linearGradient id="paint1_linear" x1="-195.002" y1="518.001" x2="140.998" y2="182" gradientUnits="userSpaceOnUse">
<stop stop-color="#FFD364"/>
<stop offset="1" stop-color="#FAA136"/>
</linearGradient>
<linearGradient id="paint2_linear" x1="-133" y1="456.003" x2="79.0023" y2="244.001" gradientUnits="userSpaceOnUse">
<stop stop-color="#FFD364"/>
<stop offset="1" stop-color="#FAA136"/>
</linearGradient>
<linearGradient id="paint3_linear" x1="-171.172" y1="349.997" x2="117.188" y2="349.997" gradientUnits="userSpaceOnUse">
<stop stop-color="#FFD364"/>
<stop offset="1" stop-color="#FAA136"/>
</linearGradient>
<linearGradient id="paint4_linear" x1="-124.901" y1="447.907" x2="70.9089" y2="252.097" gradientUnits="userSpaceOnUse">
<stop stop-color="#FFD364"/>
<stop offset="1" stop-color="#FAA136"/>
</linearGradient>
<linearGradient id="paint5_linear" x1="-159.723" y1="349.996" x2="105.737" y2="349.996" gradientUnits="userSpaceOnUse">
<stop stop-color="#FFD364"/>
<stop offset="1" stop-color="#FAA136"/>
</linearGradient>
<linearGradient id="paint6_linear" x1="-154.004" y1="349.997" x2="100.016" y2="349.997" gradientUnits="userSpaceOnUse">
<stop stop-color="#FFD364"/>
<stop offset="1" stop-color="#FAA136"/>
</linearGradient>
<linearGradient id="paint7_linear" x1="-148.273" y1="349.997" x2="94.2866" y2="349.997" gradientUnits="userSpaceOnUse">
<stop stop-color="#FFD364"/>
<stop offset="1" stop-color="#FAA136"/>
</linearGradient>
<linearGradient id="paint8_linear" x1="-142.543" y1="349.997" x2="88.557" y2="349.997" gradientUnits="userSpaceOnUse">
<stop stop-color="#FFD364"/>
<stop offset="1" stop-color="#FAA136"/>
</linearGradient>
<linearGradient id="paint9_linear" x1="-136.82" y1="349.997" x2="82.8397" y2="349.997" gradientUnits="userSpaceOnUse">
<stop stop-color="#FFD364"/>
<stop offset="1" stop-color="#FAA136"/>
</linearGradient>
<linearGradient id="paint10_linear" x1="-131.094" y1="349.997" x2="77.1062" y2="349.997" gradientUnits="userSpaceOnUse">
<stop stop-color="#FFD364"/>
<stop offset="1" stop-color="#FAA136"/>
</linearGradient>
<linearGradient id="paint11_linear" x1="-125.371" y1="349.997" x2="71.3889" y2="349.997" gradientUnits="userSpaceOnUse">
<stop stop-color="#FFD364"/>
<stop offset="1" stop-color="#FAA136"/>
</linearGradient>
<linearGradient id="paint12_linear" x1="-119.641" y1="349.997" x2="65.6594" y2="349.997" gradientUnits="userSpaceOnUse">
<stop stop-color="#FFD364"/>
<stop offset="1" stop-color="#FAA136"/>
</linearGradient>
<linearGradient id="paint13_linear" x1="-113.91" y1="349.998" x2="59.9298" y2="349.998" gradientUnits="userSpaceOnUse">
<stop stop-color="#FFD364"/>
<stop offset="1" stop-color="#FAA136"/>
</linearGradient>
<linearGradient id="paint14_linear" x1="-108.117" y1="352.923" x2="54.1854" y2="347.142" gradientUnits="userSpaceOnUse">
<stop stop-color="#FFD364"/>
<stop offset="1" stop-color="#FAA136"/>
</linearGradient>
<linearGradient id="paint15_linear" x1="-102.461" y1="349.998" x2="48.479" y2="349.998" gradientUnits="userSpaceOnUse">
<stop stop-color="#FFD364"/>
<stop offset="1" stop-color="#FAA136"/>
</linearGradient>
<linearGradient id="paint16_linear" x1="-96.6732" y1="352.516" x2="42.7431" y2="347.549" gradientUnits="userSpaceOnUse">
<stop stop-color="#FFD364"/>
<stop offset="1" stop-color="#FAA136"/>
</linearGradient>
<linearGradient id="paint17_linear" x1="-91.0117" y1="349.997" x2="37.0283" y2="349.997" gradientUnits="userSpaceOnUse">
<stop stop-color="#FFD364"/>
<stop offset="1" stop-color="#FAA136"/>
</linearGradient>
<linearGradient id="paint18_linear" x1="-85.2218" y1="352.108" x2="31.2882" y2="347.957" gradientUnits="userSpaceOnUse">
<stop stop-color="#FFD364"/>
<stop offset="1" stop-color="#FAA136"/>
</linearGradient>
<linearGradient id="paint19_linear" x1="-79.5625" y1="349.998" x2="25.5775" y2="349.998" gradientUnits="userSpaceOnUse">
<stop stop-color="#FFD364"/>
<stop offset="1" stop-color="#FAA136"/>
</linearGradient>
<linearGradient id="paint20_linear" x1="-73.7778" y1="351.701" x2="19.846" y2="348.366" gradientUnits="userSpaceOnUse">
<stop stop-color="#FFD364"/>
<stop offset="1" stop-color="#FAA136"/>
</linearGradient>
<linearGradient id="paint21_linear" x1="-68.1133" y1="349.998" x2="14.1267" y2="349.998" gradientUnits="userSpaceOnUse">
<stop stop-color="#FFD364"/>
<stop offset="1" stop-color="#FAA136"/>
</linearGradient>
<linearGradient id="paint22_linear" x1="-62.3339" y1="351.293" x2="8.40368" y2="348.773" gradientUnits="userSpaceOnUse">
<stop stop-color="#FFD364"/>
<stop offset="1" stop-color="#FAA136"/>
</linearGradient>
<linearGradient id="paint23_linear" x1="-56.6523" y1="349.998" x2="2.6676" y2="349.998" gradientUnits="userSpaceOnUse">
<stop stop-color="#FFD364"/>
<stop offset="1" stop-color="#FAA136"/>
</linearGradient>
<clipPath id="clip0">
<rect width="322" height="698" fill="white"/>
</clipPath>
</defs>
</svg>
