<svg width="66" height="58" viewBox="0 0 66 58" fill="none" xmlns="http://www.w3.org/2000/svg">
<path d="M51.057 15.983C59.582 15.983 65.9987 12.683 65.9987 8.28301C65.9987 3.88301 59.582 0.583008 51.057 0.583008C42.532 0.583008 36.207 3.88301 36.207 8.28301C36.207 12.683 42.532 15.983 51.057 15.983ZM51.057 3.88301C58.1154 3.88301 62.6987 6.44967 62.6987 8.28301C62.6987 10.1163 58.207 12.683 51.057 12.683C43.907 12.683 39.4154 10.1163 39.4154 8.28301C39.4154 6.44967 43.9987 3.88301 51.057 3.88301Z" fill="#7AB9F0"/>
<path d="M64.7174 16.1665C63.8924 15.8915 62.8841 16.2581 62.6091 17.1748C61.8757 19.0998 57.2924 21.1165 51.0591 21.1165C45.0091 21.1165 40.4257 19.1915 39.6007 17.2665C39.2341 16.4415 38.2257 16.0748 37.4007 16.4415C36.5757 16.8081 36.2091 17.8165 36.5757 18.6415C38.2257 22.0331 44.0007 24.3248 51.0591 24.3248C54.4507 24.3248 57.6591 23.7748 60.3174 22.7665C63.1591 21.6665 65.0841 20.1081 65.7257 18.1831C66.0007 17.3581 65.6341 16.4415 64.7174 16.1665Z" fill="#7AB9F0"/>
<path d="M64.7174 24.5083C63.8924 24.2333 62.8841 24.5999 62.6091 25.5166C61.8757 27.4416 57.2924 29.4583 51.0591 29.4583C45.0091 29.4583 40.4257 27.5333 39.6007 25.6083C39.2341 24.7833 38.2257 24.4166 37.4007 24.7833C36.5757 25.1499 36.2091 26.1583 36.5757 26.9833C38.2257 30.3749 44.0007 32.6666 51.0591 32.6666C54.4507 32.6666 57.6591 32.1166 60.3174 31.1083C63.1591 30.0083 65.0841 28.4499 65.7257 26.5249C66.0007 25.7916 65.6341 24.8749 64.7174 24.5083Z" fill="#7AB9F0"/>
<path d="M64.7184 32.9419C63.8934 32.6669 62.8851 33.0335 62.6101 33.9502C61.8768 35.8752 57.2934 37.8919 51.0601 37.8919C45.0101 37.8919 40.4267 35.9669 39.6017 34.0419C39.2351 33.2169 38.2267 32.8502 37.4017 33.2169C36.5767 33.5835 36.2101 34.5919 36.6684 35.4169C38.3184 38.8085 44.0934 41.1002 51.1517 41.1002C54.5434 41.1002 57.7517 40.5502 60.4101 39.5419C63.2517 38.4419 65.1768 36.8835 65.8184 34.9585C66.0018 34.1335 65.6351 33.2169 64.7184 32.9419Z" fill="#7AB9F0"/>
<path d="M64.7174 41.2837C63.8924 41.0087 62.8841 41.3753 62.6091 42.292C61.8757 44.217 57.2924 46.2336 51.0591 46.2336C45.0091 46.2336 40.4257 44.3086 39.6007 42.3836C39.2341 41.5586 38.2257 41.192 37.4007 41.5587C36.5757 41.9253 36.2091 42.9336 36.5757 43.7586C38.2257 47.1503 44.0007 49.442 51.0591 49.442C54.4507 49.442 57.6591 48.892 60.3174 47.8836C63.1591 46.7836 65.0841 45.2253 65.7257 43.3003C66.0007 42.567 65.6341 41.6503 64.7174 41.2837Z" fill="#7AB9F0"/>
<path d="M64.7174 49.7163C63.8924 49.4413 62.8841 49.8079 62.6091 50.7246C61.8757 52.6496 57.2924 54.6663 51.0591 54.6663C45.0091 54.6663 40.4257 52.7413 39.6007 50.8163C39.2341 49.9913 38.2257 49.6246 37.4007 49.9913C36.5757 50.3579 36.2091 51.3663 36.5757 52.1913C38.2257 55.5829 44.0007 57.8746 51.0591 57.8746C54.4507 57.8746 57.6591 57.3246 60.3174 56.3163C63.1591 55.2163 65.0841 53.6579 65.7257 51.7329C66.0007 50.9996 65.6341 49.9913 64.7174 49.7163Z" fill="#7AB9F0"/>
<path d="M28.5996 32.9419C27.7746 32.6669 26.7663 33.0335 26.4913 33.9502C25.7579 35.8752 21.1746 37.8919 14.9413 37.8919C8.89126 37.8919 4.30792 35.9669 3.48292 34.0419C3.11626 33.2169 2.10792 32.8502 1.28292 33.2169C0.366257 33.5835 0.0912575 34.5919 0.457924 35.4169C2.10792 38.8085 7.88292 41.1002 14.9413 41.1002C18.3329 41.1002 21.5413 40.5502 24.1996 39.5419C27.0413 38.4419 28.9663 36.8835 29.6079 34.9585C29.8829 34.1335 29.4246 33.2169 28.5996 32.9419Z" fill="#7AB9F0"/>
<path d="M28.6002 41.2837C27.7752 41.0087 26.7669 41.3753 26.4919 42.292C25.7585 44.217 21.1752 46.2336 14.9419 46.2336C8.89187 46.2336 4.30854 44.3086 3.48354 42.3836C3.11687 41.5586 2.10854 41.192 1.28354 41.5587C0.458537 41.9253 0.0918704 42.9336 0.458537 43.7586C2.10854 47.1503 7.88354 49.442 14.9419 49.442C18.3335 49.442 21.5419 48.892 24.2002 47.8836C27.0419 46.7836 28.9669 45.2253 29.6085 43.3003C29.8835 42.567 29.4252 41.6503 28.6002 41.2837Z" fill="#7AB9F0"/>
<path d="M28.6002 49.7163C27.7752 49.4413 26.7669 49.8079 26.4919 50.7246C25.7585 52.6496 21.1752 54.6663 14.9419 54.6663C8.89187 54.6663 4.30854 52.7413 3.48354 50.8163C3.11687 49.9913 2.10854 49.6246 1.28354 49.9913C0.458537 50.3579 0.0918704 51.3663 0.458537 52.1913C2.10854 55.5829 7.88354 57.8746 14.9419 57.8746C18.3335 57.8746 21.5419 57.3246 24.2002 56.3163C27.0419 55.2163 28.9669 53.6579 29.6085 51.7329C29.8835 50.9996 29.4252 49.9913 28.6002 49.7163Z" fill="#7AB9F0"/>
<path d="M14.9417 17.3584C6.41667 17.3584 0 20.6584 0 25.0584C0 29.4584 6.41667 32.7584 14.9417 32.7584C23.4667 32.7584 29.8833 29.4584 29.8833 25.0584C29.8833 20.6584 23.4667 17.3584 14.9417 17.3584ZM14.9417 29.4584C7.88333 29.4584 3.3 26.8917 3.3 25.0584C3.3 23.2251 7.79167 20.6584 14.9417 20.6584C22.0917 20.6584 26.5833 23.2251 26.5833 25.0584C26.5833 26.8917 22 29.4584 14.9417 29.4584Z" fill="#7AB9F0"/>
</svg>
