<svg width="50" height="50" viewBox="0 0 50 50" fill="none" xmlns="http://www.w3.org/2000/svg">
<circle cx="25" cy="25" r="20" fill="white"/>
<path fill-rule="evenodd" clip-rule="evenodd" d="M25 45C14 45 5 36 5 25C5 14 14 5 25 5C36 5 45 14 45 25C45 36 36 45 25 45ZM18.1667 26.1667V35H26.3333C27.6667 35 29 34.8333 30.3333 34.1667C31.3333 33.6667 32.3333 33 33 32C33.6667 31 34.3333 30 34.5 28.8333C35.1667 26.3333 35.1667 23.6667 34.5 21C34.1667 19.8333 33.6667 18.8333 33 17.8333C32.3333 17 31.3333 16.1667 30.3333 15.6667C29 15.1667 27.6667 15 26.3333 15H18.1667V23.3333H16.3333V26.1667H18.1667ZM21.5 23.3333V17.8333H25C26.1667 17.8333 27.1667 18 28.3333 18.3333C29.1667 18.6667 29.8333 19.1667 30.3333 19.8333C30.8333 20.5 31.1667 21.3333 31.3333 22.1667C31.6667 24 31.6667 26 31.3333 27.8333C31.1667 28.6667 30.8333 29.5 30.3333 30.1667C29.8333 30.8333 29.1667 31.3333 28.3333 31.6667C27.3333 32 26.1667 32.1667 25 32.1667H21.6667V26.1667H27V23.3333H21.5Z" fill="#303030"/>
<path d="M25 5C36 5 45 14 45 25C45 36 36 45 25 45C14 45 5 36 5 25C5 14 14 5 25 5Z" fill="#4598D8"/>
<path d="M35.3333 20.3333C35.3333 23 34.5 25 32.8333 26.5C31.1667 28 28.8333 28.6667 25.6667 28.6667H23.3333V37.5H18V12.5H26C29 12.5 31.3333 13.1667 33 14.5C34.5 15.8333 35.3333 17.6667 35.3333 20.3333ZM23.3333 24.3333H25C26.6667 24.3333 27.8333 24 28.6667 23.3333C29.5 22.6667 29.8333 21.8333 29.8333 20.5C29.8333 19.3333 29.5 18.3333 28.8333 17.6667C28.1667 17 27.1667 16.8333 25.6667 16.8333H23.3333V24.3333Z" fill="white"/>
<path d="M25 5C36.0769 5 45 13.9231 45 25C45 36.0769 36.0769 45 25 45C13.9231 45 5 36.0769 5 25C5 13.9231 13.9231 5 25 5Z" fill="#F01010"/>
<path d="M22.5367 31.0001C23.3059 30.8462 23.7674 30.6924 24.0751 30.5385C24.229 30.2308 24.3828 29.6155 24.3828 28.6924V21.0001C24.3828 20.3847 24.229 19.9232 24.0751 19.6155C23.9213 19.4616 23.3059 19.3078 22.5367 19.3078V18.6924H26.229L30.6905 28.2308L34.8443 18.6924H38.6905V19.0001C37.9213 19.0001 37.4597 19.1539 37.3059 19.4616C37.152 19.6155 36.9982 20.077 36.9982 20.8462V29.3078C36.9982 29.9232 37.152 30.3847 37.3059 30.6924C37.4597 30.8462 37.9213 31.0001 38.6905 31.0001V31.3078H33.3059V31.0001C34.0751 31.0001 34.5367 30.8462 34.6905 30.5385C34.8443 30.3847 34.9982 29.7693 34.9982 29.0001V20.5385L30.0751 31.3078H29.7674L24.9982 21.0001V28.5385C24.9982 29.6155 25.152 30.2308 25.4597 30.5385C25.6136 30.6924 26.0751 30.8462 26.8443 31.0001V31.3078H22.3828V31.0001H22.5367Z" fill="white"/>
<path d="M15.7689 29.1545V26.3853C15.1535 26.3853 14.3843 26.3853 13.9228 26.2314V28.8468C13.9228 29.6161 13.7689 30.0776 13.6151 30.3853C13.4612 30.5391 12.9997 30.693 12.2305 30.8468V31.1545H17.6151V30.8468C16.8459 30.8468 16.3843 30.693 16.0766 30.5391C15.9228 30.3853 15.7689 29.9238 15.7689 29.1545Z" fill="white"/>
<path d="M20.9982 19.6155C20.0751 19.0001 18.8444 18.6924 17.3059 18.6924H12.229V19.0001C12.8444 19.0001 13.3059 19.1539 13.6136 19.4616C13.7674 19.6155 13.9213 20.077 13.9213 20.6924V25.0001C14.5367 25.0001 15.152 25.0001 15.7674 25.0001V20.077C15.7674 19.7693 15.7674 19.6155 15.9213 19.6155C16.0751 19.4616 16.229 19.4616 16.6905 19.4616C17.4597 19.4616 18.229 19.6155 18.6905 19.7693C19.7674 20.2308 20.229 21.0001 20.229 22.2308C20.229 23.0001 20.0751 23.6155 19.7674 23.9232C17.4597 26.5385 10.3828 25.0001 10.3828 25.0001C10.3828 25.0001 14.5367 26.5385 18.8444 25.6155C19.7674 25.4616 20.6905 25.0001 21.152 24.5385C21.7674 23.9232 22.0751 23.1539 22.0751 22.077C22.229 21.1539 21.7674 20.2308 20.9982 19.6155Z" fill="white"/>
<circle cx="25" cy="25" r="20" fill="white"/>
<path fill-rule="evenodd" clip-rule="evenodd" d="M25 45C14 45 5 36 5 25C5 14 14 5 25 5C36 5 45 14 45 25C45 36 36 45 25 45ZM13 23.3333L11.6667 27.1667H21.3333L22.6667 23.5L13 23.3333ZM17.5 17.1667L16.3333 21.3333H38.3333C38.3333 21.3333 39.5 17.3333 35.5 17.3333L17.5 17.1667ZM12.3333 33.1667H30.3333C34 33.1667 35.6667 29.1667 35.6667 29.1667H13.6667L12.3333 33.1667ZM32.5 21.3333L30 29.1667H35.6667L38.3333 21.3333H32.5Z" fill="#008DE4"/>
<path d="M25 5C36 5 45 14 45 25C45 36 36 45 25 45C14 45 5 36 5 25C5 14 14 5 25 5Z" fill="#A5A8A9"/>
<path d="M24.8281 25.166L22.8281 31.8327H33.4948C33.8281 31.8327 33.9948 31.9994 33.9948 32.3327V32.4994L32.9948 35.666C32.8281 35.9994 32.6615 36.166 32.3281 36.166H16.1615L18.8281 26.8327L15.8281 27.8327L16.4948 25.666L19.4948 24.666L23.3281 11.666C23.4948 11.3327 23.6615 11.166 23.9948 11.166H28.3281C28.6615 11.166 28.8281 11.3327 28.8281 11.666V11.8327L25.6615 22.8327L28.6615 21.8327L27.9948 23.9994L24.8281 25.166Z" fill="white"/>
<g clip-path="url(#clip0)">
<path d="M15.6636 7.33318C25.3302 2.16651 37.4969 5.83318 42.6636 15.6665C47.8302 25.3332 44.1636 37.4999 34.3302 42.6665C24.6636 47.8332 12.4969 44.1665 7.33025 34.3332C2.16358 24.6665 5.83025 12.4998 15.6636 7.33318Z" fill="#8DC351"/>
<path d="M31.9974 18.4993C30.9974 15.8327 28.4974 15.4993 25.3307 15.9993L24.3307 12.166L21.9974 12.8327L22.8307 16.4993C22.3307 16.666 21.6641 16.8327 20.9974 16.8327L20.1641 12.9993L17.8307 13.666L18.8307 17.4993C18.3307 17.666 14.1641 18.666 14.1641 18.666L14.8307 21.166L16.4974 20.666C17.4974 20.4993 17.9974 20.8327 17.9974 21.3327L20.6641 31.8327C20.6641 32.166 20.6641 32.4993 19.9974 32.666L18.3307 33.166V35.9993C18.3307 35.9993 22.4974 34.9993 22.9974 34.8327L23.9974 38.666L26.3307 38.166L25.3307 34.3327C25.9974 34.166 26.6641 33.9993 27.1641 33.8327L28.1641 37.666L30.4974 37.166L29.4974 33.3327C33.3307 31.9993 35.8307 30.4993 35.1641 26.666C34.6641 23.666 32.9974 22.666 30.6641 22.666C31.9974 21.9993 32.6641 20.4993 31.9974 18.4993ZM30.6641 27.666C31.3307 30.4993 26.4974 31.4993 24.8307 31.8327L23.6641 26.666C25.3307 26.166 29.9974 24.4993 30.6641 27.666ZM27.9974 20.666C28.6641 23.3327 24.4974 23.9993 23.1641 24.3327L21.9974 19.666C23.1641 19.3327 27.1641 17.8327 27.9974 20.666Z" fill="white"/>
</g>
<path d="M25 5C36 5 45 14 45 25C45 36 36 45 25 45C14 45 5 36 5 25C5 14 14 5 25 5Z" fill="#627EEA"/>
<path d="M24.9987 30.166L16.832 25.3327L24.9987 11.666L33.1654 25.166L24.9987 30.166Z" fill="white"/>
<path d="M24.9987 38.333L33.1654 26.833L24.9987 31.6663L16.832 26.833L24.9987 38.333Z" fill="white"/>
<circle cx="25" cy="25" r="24.5" stroke="#E0EFFB"/>
<defs>
<clipPath id="clip0">
<rect x="5" y="5" width="40" height="40" fill="white"/>
</clipPath>
</defs>
</svg>
