<svg width="104" height="28" viewBox="0 0 104 28" fill="none" xmlns="http://www.w3.org/2000/svg">
<path d="M88.104 26.2206C89.5414 26.36 90.9781 26.5096 92.4113 26.6645L95.5758 18.8507L98.5837 27.3852C100.127 27.5786 101.67 27.7815 103.207 27.9935L97.9341 13.0276L103.209 0.00103211H98.7416L98.6951 0.0650227L95.8455 7.10226L93.3437 0.00206421H88.9324L93.4864 12.9257L88.1043 26.2206H88.104ZM84.7679 25.9145V0.00103211H80.3584V25.5508C81.8291 25.6643 83.3006 25.7861 84.7679 25.9141V25.9145ZM51.6442 24.4654C52.8345 24.4654 54.0235 24.4743 55.2104 24.484V14.9638H60.5076V10.9097H55.2108V4.05996H61.3116V0.00103211H50.7841V24.4688C51.07 24.4688 51.3572 24.4643 51.6442 24.4654ZM37.9536 24.7131C39.4227 24.6608 40.8931 24.6168 42.3655 24.581V4.06065H46.4871V0.00206421H33.8321V4.06065H37.9543V24.7131H37.9536ZM4.22991 27.4454V12.0068L9.45099 26.822C11.0566 26.6417 12.6646 26.4721 14.2771 26.3118V0.00137614H10.0462V15.9932L4.41225 0.00137614H0V28.0003H0.0264907C1.42431 27.807 2.82694 27.6233 4.22991 27.4454ZM29.5802 4.05962V0.00137614H19.0516V25.8732C22.5546 25.5708 26.0616 25.3172 29.5716 25.1125V21.0505C27.5362 21.1688 25.5051 21.3051 23.4787 21.4568V14.9655H28.7758V10.909H23.4787V4.05962H29.5802ZM70.0504 20.8565V0H65.6216V24.7279C69.1446 24.8572 72.6537 25.0375 76.1512 25.2646V21.2001C74.1214 21.0691 72.0881 20.9552 70.0504 20.8561" fill="#9BA2AA"/>
</svg>
