<svg width="36" height="36" viewBox="0 0 36 36" fill="none" xmlns="http://www.w3.org/2000/svg">
<path d="M34.5825 14.0027C34.5825 11.5888 32.6254 9.62332 30.2144 9.60926V0.703125C30.2144 0.314789 29.8996 0 29.5113 0H25.3565C24.9682 0 24.6533 0.314789 24.6533 0.703125V1.80197L16.6203 7.15275H6.14968C3.53848 7.15275 1.41406 9.27689 1.41406 11.8877V16.1177C1.41406 18.7286 3.53841 20.8527 6.14968 20.8527H9.3122V35.2969C9.3122 35.6852 9.62698 36 10.0153 36H16.0445C16.4328 36 16.7476 35.6852 16.7476 35.2969V30.9091H16.7536C18.5593 30.9091 20.0283 29.44 20.0283 27.6343C20.0283 25.8286 18.5592 24.3596 16.7536 24.3596H16.7476V20.9376L24.6533 26.2035V27.3023C24.6533 27.6907 24.9682 28.0055 25.3565 28.0055H29.5113C29.8996 28.0055 30.2144 27.6907 30.2144 27.3023V18.3962C32.6254 18.3822 34.5825 16.4167 34.5825 14.0027V14.0027ZM2.82038 16.1177V11.8877C2.82038 10.0523 4.31389 8.559 6.14975 8.559H8.70673V19.4465H6.14968C4.31389 19.4465 2.82038 17.9532 2.82038 16.1177V16.1177ZM15.3414 34.5938H10.7185V20.8527H15.3414V34.5938ZM16.7536 25.7658C17.7839 25.7658 18.6221 26.604 18.6221 27.6343C18.6221 28.6646 17.7839 29.5028 16.7536 29.5028H16.7477V25.7658H16.7536ZM17.2228 19.5645C17.1073 19.4875 16.9718 19.4465 16.833 19.4465H16.0472C16.0463 19.4465 16.0454 19.4465 16.0445 19.4465H10.1129V14.7059H14.2558C14.6441 14.7059 14.9589 14.3911 14.9589 14.0027C14.9589 13.6144 14.6441 13.2996 14.2558 13.2996H10.1129V8.559H16.833C16.9718 8.559 17.1074 8.51801 17.2228 8.44109L24.6533 3.49165V13.2996H20.6129C20.2246 13.2996 19.9098 13.6144 19.9098 14.0027C19.9098 14.3911 20.2246 14.7059 20.6129 14.7059H24.6533V24.5138L17.2228 19.5645ZM28.8082 26.5992H26.0596V1.40625H28.8082V26.5992ZM30.2144 16.99V11.0155C31.8501 11.0295 33.1763 12.3642 33.1763 14.0027C33.1763 15.6413 31.8501 16.976 30.2144 16.99V16.99Z" fill="#9BB6CD"/>
<path d="M17.4476 14.7058C17.1459 14.7058 16.8709 14.5048 16.779 14.2176C16.6885 13.9351 16.7888 13.6144 17.029 13.4382C17.2626 13.2667 17.5827 13.2558 17.8273 13.4114C18.0733 13.568 18.1979 13.8718 18.1335 14.1561C18.0617 14.4731 17.7732 14.7058 17.4476 14.7058V14.7058Z" fill="#9BB6CD"/>
</svg>
