<svg width="287" height="287" viewBox="0 0 287 287" fill="none" xmlns="http://www.w3.org/2000/svg">
<g opacity="0.2">
<g opacity="0.89">
<path opacity="0.89" d="M143.5 286C222.201 286 286 222.201 286 143.5C286 64.7994 222.201 1 143.5 1C64.7994 1 1 64.7994 1 143.5C1 222.201 64.7994 286 143.5 286Z" stroke="url(#paint0_linear)" stroke-width="0.8127" stroke-linecap="round" stroke-linejoin="round"/>
</g>
<g opacity="0.89">
<path opacity="0.89" d="M143.498 275.609C216.459 275.609 275.606 216.462 275.606 143.501C275.606 70.5401 216.459 11.3936 143.498 11.3936C70.5372 11.3936 11.3906 70.5401 11.3906 143.501C11.3906 216.462 70.5372 275.609 143.498 275.609Z" stroke="url(#paint1_linear)" stroke-width="0.9493" stroke-linecap="round" stroke-linejoin="round"/>
</g>
<g opacity="0.89">
<path opacity="0.89" d="M143.504 265.215C210.726 265.215 265.219 210.722 265.219 143.5C265.219 76.2788 210.726 21.7852 143.504 21.7852C76.2828 21.7852 21.7891 76.2788 21.7891 143.5C21.7891 210.722 76.2828 265.215 143.504 265.215Z" stroke="url(#paint2_linear)" stroke-width="1.0859" stroke-linecap="round" stroke-linejoin="round"/>
</g>
<g opacity="0.89">
<path opacity="0.89" d="M143.498 254.823C204.98 254.823 254.821 204.982 254.821 143.5C254.821 82.0186 204.98 32.1777 143.498 32.1777C82.0166 32.1777 32.1758 82.0186 32.1758 143.5C32.1758 204.982 82.0166 254.823 143.498 254.823Z" stroke="url(#paint3_linear)" stroke-width="1.2225" stroke-linecap="round" stroke-linejoin="round"/>
</g>
<g opacity="0.89">
<path opacity="0.89" d="M143.5 244.43C199.243 244.43 244.431 199.242 244.431 143.499C244.431 87.7573 199.243 42.5693 143.5 42.5693C87.7583 42.5693 42.5703 87.7573 42.5703 143.499C42.5703 199.242 87.7583 244.43 143.5 244.43Z" stroke="url(#paint4_linear)" stroke-width="1.3591" stroke-linecap="round" stroke-linejoin="round"/>
</g>
<g opacity="0.89">
<path opacity="0.89" d="M143.503 234.038C193.505 234.038 234.04 193.503 234.04 143.501C234.04 93.498 193.505 52.9629 143.503 52.9629C93.4999 52.9629 52.9648 93.498 52.9648 143.501C52.9648 193.503 93.4999 234.038 143.503 234.038Z" stroke="url(#paint5_linear)" stroke-width="1.4956" stroke-linecap="round" stroke-linejoin="round"/>
</g>
<g opacity="0.89">
<path opacity="0.89" d="M143.497 223.646C187.76 223.646 223.642 187.764 223.642 143.501C223.642 99.2377 187.76 63.3555 143.497 63.3555C99.2338 63.3555 63.3516 99.2377 63.3516 143.501C63.3516 187.764 99.2338 223.646 143.497 223.646Z" stroke="url(#paint6_linear)" stroke-width="1.6322" stroke-linecap="round" stroke-linejoin="round"/>
</g>
<g opacity="0.89">
<path opacity="0.89" d="M143.499 213.253C182.022 213.253 213.252 182.023 213.252 143.5C213.252 104.976 182.022 73.7471 143.499 73.7471C104.975 73.7471 73.7461 104.976 73.7461 143.5C73.7461 182.023 104.975 213.253 143.499 213.253Z" stroke="url(#paint7_linear)" stroke-width="1.7688" stroke-linecap="round" stroke-linejoin="round"/>
</g>
<g opacity="0.89">
<path opacity="0.89" d="M143.503 202.879C176.296 202.879 202.881 176.294 202.881 143.501C202.881 110.707 176.296 84.123 143.503 84.123C110.709 84.123 84.125 110.707 84.125 143.501C84.125 176.294 110.709 202.879 143.503 202.879Z" stroke="url(#paint8_linear)" stroke-width="1.9054" stroke-linecap="round" stroke-linejoin="round"/>
</g>
<g opacity="0.89">
<path opacity="0.89" d="M143.497 192.485C170.551 192.485 192.483 170.553 192.483 143.499C192.483 116.445 170.551 94.5137 143.497 94.5137C116.443 94.5137 94.5117 116.445 94.5117 143.499C94.5117 170.553 116.443 192.485 143.497 192.485Z" stroke="url(#paint9_linear)" stroke-width="2.042" stroke-linecap="round" stroke-linejoin="round"/>
</g>
<g opacity="0.89">
<path opacity="0.89" d="M143.499 182.093C164.814 182.093 182.092 164.815 182.092 143.5C182.092 122.186 164.814 104.907 143.499 104.907C122.185 104.907 104.906 122.186 104.906 143.5C104.906 164.815 122.185 182.093 143.499 182.093Z" stroke="url(#paint10_linear)" stroke-width="2.1786" stroke-linecap="round" stroke-linejoin="round"/>
</g>
<g opacity="0.89">
<path opacity="0.89" d="M143.501 171.7C159.076 171.7 171.702 159.074 171.702 143.499C171.702 127.925 159.076 115.299 143.501 115.299C127.927 115.299 115.301 127.925 115.301 143.499C115.301 159.074 127.927 171.7 143.501 171.7Z" stroke="url(#paint11_linear)" stroke-width="2.3152" stroke-linecap="round" stroke-linejoin="round"/>
</g>
</g>
<defs>
<linearGradient id="paint0_linear" x1="1" y1="143.498" x2="286" y2="143.498" gradientUnits="userSpaceOnUse">
<stop stop-color="white"/>
<stop offset="1" stop-color="#1695F0"/>
</linearGradient>
<linearGradient id="paint1_linear" x1="11.3906" y1="143.499" x2="275.606" y2="143.499" gradientUnits="userSpaceOnUse">
<stop stop-color="white"/>
<stop offset="1" stop-color="#1695F0"/>
</linearGradient>
<linearGradient id="paint2_linear" x1="21.7891" y1="143.498" x2="265.219" y2="143.498" gradientUnits="userSpaceOnUse">
<stop stop-color="white"/>
<stop offset="1" stop-color="#1695F0"/>
</linearGradient>
<linearGradient id="paint3_linear" x1="32.1758" y1="143.498" x2="254.821" y2="143.498" gradientUnits="userSpaceOnUse">
<stop stop-color="white"/>
<stop offset="1" stop-color="#1695F0"/>
</linearGradient>
<linearGradient id="paint4_linear" x1="42.5703" y1="143.498" x2="244.431" y2="143.498" gradientUnits="userSpaceOnUse">
<stop stop-color="white"/>
<stop offset="1" stop-color="#1695F0"/>
</linearGradient>
<linearGradient id="paint5_linear" x1="52.9648" y1="143.499" x2="234.04" y2="143.499" gradientUnits="userSpaceOnUse">
<stop stop-color="white"/>
<stop offset="1" stop-color="#1695F0"/>
</linearGradient>
<linearGradient id="paint6_linear" x1="63.3516" y1="143.499" x2="223.642" y2="143.499" gradientUnits="userSpaceOnUse">
<stop stop-color="white"/>
<stop offset="1" stop-color="#1695F0"/>
</linearGradient>
<linearGradient id="paint7_linear" x1="73.7461" y1="143.499" x2="213.252" y2="143.499" gradientUnits="userSpaceOnUse">
<stop stop-color="white"/>
<stop offset="1" stop-color="#1695F0"/>
</linearGradient>
<linearGradient id="paint8_linear" x1="84.125" y1="143.5" x2="202.881" y2="143.5" gradientUnits="userSpaceOnUse">
<stop stop-color="white"/>
<stop offset="1" stop-color="#1695F0"/>
</linearGradient>
<linearGradient id="paint9_linear" x1="94.5117" y1="143.498" x2="192.483" y2="143.498" gradientUnits="userSpaceOnUse">
<stop stop-color="white"/>
<stop offset="1" stop-color="#1695F0"/>
</linearGradient>
<linearGradient id="paint10_linear" x1="104.906" y1="143.5" x2="182.092" y2="143.5" gradientUnits="userSpaceOnUse">
<stop stop-color="white"/>
<stop offset="1" stop-color="#1695F0"/>
</linearGradient>
<linearGradient id="paint11_linear" x1="115.301" y1="143.499" x2="171.702" y2="143.499" gradientUnits="userSpaceOnUse">
<stop stop-color="white"/>
<stop offset="1" stop-color="#1695F0"/>
</linearGradient>
</defs>
</svg>
