<svg width="100" height="100" viewBox="0 0 100 100" fill="none" xmlns="http://www.w3.org/2000/svg">
<circle cx="50" cy="50" r="49.5" fill="#FFF9F0" stroke="#FFE9CE"/>
<circle cx="50" cy="50" r="37" fill="url(#paint0_linear)"/>
<path d="M41.4989 56.9996C37.8989 59.7996 38.3322 63.1663 38.9989 64.4996H61C60.6667 62.6664 59.6 58.6 58 57C56 55 51 54.5 52 53.9996C53 53.4992 55.5 51 55.5 48.5C55.5 46 53.5 43 50 43C46.5 43 45 45.5 45 48.5C45 50.9 46.6667 53.1664 47.5 53.9996C46.9996 53.833 45.0989 54.1996 41.4989 56.9996Z" fill="#FA9113"/>
<path d="M64.7221 46.3527C64.0299 46.3527 63.4975 46.8852 63.4975 47.5774V60.9418C63.4975 62.0067 62.8586 62.9118 61.9002 63.2845C61.9534 62.9118 61.9534 62.5923 61.8469 62.2196C61.2612 59.5574 59.8236 57.1082 57.6406 55.3511C56.629 54.5524 55.5108 53.8602 54.3394 53.4343C55.6705 52.2629 56.5225 50.5058 56.5225 48.589C56.5225 45.0216 53.594 42.0932 50.0266 42.0932C46.4592 42.0932 43.5308 45.0216 43.5308 48.589C43.5308 50.5058 44.3827 52.2629 45.7138 53.4343C44.4892 53.9135 43.3178 54.5524 42.3062 55.4043C40.1764 57.1614 38.6855 59.6107 38.0998 62.2729C38.0466 62.6456 37.9933 62.9651 38.0466 63.3378C37.1414 62.9651 36.4493 62.0599 36.4493 60.995V39.005C36.4493 37.6206 37.5674 36.5025 38.9517 36.5025H52.3694C53.0616 36.5025 53.594 35.9701 53.594 35.2779C53.594 34.5857 53.1148 34 52.4226 34H39.005C36.2363 34 34 36.2363 34 39.005V60.995C34 63.7105 36.2363 65.9468 39.005 65.9468H60.995C63.7637 65.9468 66 63.7105 66 60.9418V47.5774C65.9468 46.9384 65.4143 46.3527 64.7221 46.3527ZM50.0266 44.5424C52.2097 44.5424 54.02 46.3527 54.02 48.5358C54.02 50.7188 52.2097 52.5291 50.0266 52.5291C47.8436 52.5291 46.0333 50.7188 46.0333 48.5358C46.0333 46.3527 47.8436 44.5424 50.0266 44.5424ZM40.7088 63.2313C40.6556 63.1248 40.5491 62.9651 40.6023 62.7521C41.5075 58.3328 45.5008 55.1381 50.0266 55.1381C54.5524 55.1913 58.4925 58.386 59.4509 62.7521C59.5042 63.0183 59.3977 63.178 59.3444 63.2313C59.2912 63.3378 59.1314 63.4443 58.8652 63.4443H41.1348C40.9218 63.4443 40.7621 63.3378 40.7088 63.2313ZM56.1497 37.1947H58.4393C58.7587 37.1947 59.0782 37.0882 59.1847 36.7155L59.8769 34.5324C59.9834 34.1597 60.3028 34 60.6223 34C60.9418 34 61.2612 34.1597 61.3677 34.5324L62.0599 36.7155C62.2196 37.0349 62.5391 37.1947 62.8586 37.1947H65.1481C65.8935 37.1947 66.213 38.2596 65.6273 38.6855L63.7637 40.0166C63.4975 40.2296 63.391 40.5491 63.4975 40.8686L64.2429 43.0516C64.2962 43.1581 64.2962 43.2646 64.2962 43.3178C64.2962 43.9035 63.5507 44.2762 63.0183 43.9035L61.1547 42.5724C60.995 42.4659 60.8353 42.4126 60.6755 42.4126C60.5158 42.4126 60.3561 42.4659 60.1963 42.5724L58.3328 43.9035C57.8003 44.2762 57.0549 43.9035 57.0549 43.3178C57.0549 43.2113 57.0549 43.1581 57.1082 43.0516L57.8536 40.8686C57.9601 40.5491 57.8536 40.1764 57.5874 40.0166L55.7238 38.6855C55.0316 38.2596 55.3511 37.1947 56.1497 37.1947Z" fill="white"/>
<defs>
<linearGradient id="paint0_linear" x1="-30" y1="49.9994" x2="87" y2="49.9994" gradientUnits="userSpaceOnUse">
<stop stop-color="#FFD364"/>
<stop offset="1" stop-color="#FAA136"/>
</linearGradient>
</defs>
</svg>
