<svg width="13" height="14" viewBox="0 0 13 14" fill="none" xmlns="http://www.w3.org/2000/svg">
<path fill-rule="evenodd" clip-rule="evenodd" d="M1.59844 13.5H6.89844C7.79844 13.5 8.59844 13.4 9.49844 13C10.1984 12.7 10.7984 12.2 11.1984 11.6C11.5984 11 12.0984 10.3 12.1984 9.5C12.5984 7.9 12.5984 6.1 12.1984 4.4C11.9984 3.6 11.6984 3 11.1984 2.3C10.7984 1.8 10.0984 1.2 9.49844 0.9C8.59844 0.6 7.79844 0.5 6.89844 0.5H1.59844V5.9H0.398438V7.7H1.59844V13.5ZM3.69844 2.3H5.99844C6.79844 2.3 7.39844 2.4 8.19844 2.6C8.69844 2.8 9.19844 3.1 9.49844 3.6C9.79844 4 9.99844 4.6 10.1984 5.1C10.3984 6.3 10.3984 7.6 10.1984 8.8C10.0984 9.3 9.89844 9.9 9.49844 10.3C9.19844 10.7 8.69844 11.1 8.19844 11.3C7.59844 11.5 6.79844 11.6 5.99844 11.6H3.79844V7.7H7.29844V5.9H3.69844V2.3Z" fill="#7692AB"/>
</svg>
