<svg width="93" height="37" viewBox="0 0 93 37" fill="none" xmlns="http://www.w3.org/2000/svg">
<path d="M0.210938 0V2.531H18.1189V0H0.210938ZM20.6559 0V2.531H46.1749C46.1749 2.531 43.5679 0 40.1159 0H20.6559ZM51.1809 0V2.531H66.6209L65.7039 0H51.1809ZM77.6889 0L76.7719 2.531H92.0709V0H77.6889ZM0.210938 4.923V7.454H18.1189V4.923H0.210938ZM20.6559 4.927V7.455H49.1359C49.1359 7.455 48.8039 5.506 48.2229 4.927H20.6559ZM51.1809 4.927V7.455H68.3129L67.4639 4.927H51.1809ZM75.8559 4.927L75.0079 7.455H92.0709V4.927H75.8559ZM5.35694 9.847V12.381H13.1129V9.846H5.35694V9.847ZM25.8019 9.847V12.381H33.5569V9.846H25.8019V9.847ZM41.1009 9.847V12.381H48.8559C48.8559 12.381 49.3479 11.042 49.3479 9.846H41.1009V9.847ZM56.3269 9.847V12.381H70.0769L69.1609 9.846H56.3269V9.847ZM74.1669 9.847L73.2469 12.381H87.0649V9.846H74.1669V9.847ZM5.35694 14.773V17.304H13.1129V14.773H5.35694ZM25.8019 14.773V17.304H45.6109C45.6109 17.304 47.2679 16.005 47.7959 14.773H25.8009H25.8019ZM56.3269 14.773V17.304H64.0829V15.895L64.5749 17.305H78.7809L79.3089 15.895V17.305H87.0649V14.773H72.5059L71.7339 16.917L70.9579 14.773H56.3279H56.3269ZM5.35694 19.696V22.227H13.1129V19.696H5.35694ZM25.8019 19.696V22.227H47.7959C47.2679 21 45.6109 19.696 45.6109 19.696H25.8009H25.8019ZM56.3269 19.696V22.227H64.0829V19.696H56.3269ZM65.4909 19.696L66.4289 22.227H77.0809L77.9729 19.696H65.4909ZM79.3089 19.696V22.227H87.0649V19.696H79.3089ZM5.35694 24.619V27.15H13.1129V24.62H5.35694V24.619ZM25.8019 24.619V27.15H33.5569V24.62H25.8019V24.619ZM41.1009 24.619V27.15H49.3479C49.3479 25.956 48.8559 24.619 48.8559 24.619H41.1009ZM56.3269 24.619V27.15H64.0829V24.62H56.3269V24.619ZM67.2519 24.619L68.1619 27.15H75.3019L76.2189 24.619H67.2509H67.2519ZM79.3089 24.619V27.15H87.0649V24.62H79.3089V24.619ZM0.350938 29.542V32.077H18.2589V29.542H0.350938ZM20.6559 29.542V32.077H48.2229C48.8029 31.497 49.1359 29.542 49.1359 29.542H20.6559ZM51.3209 29.542V32.077H64.0829V29.542H51.3209ZM69.0169 29.542L69.9509 32.077H73.5839L74.4609 29.542H69.0169ZM79.3089 29.542V32.077H92.2109V29.542H79.3089ZM0.350938 34.469V37H18.2589V34.469H0.350938ZM20.6559 34.469V36.996H40.1159C43.5679 36.996 46.1749 34.469 46.1749 34.469H20.6549H20.6559ZM51.3209 34.469V37H64.0829V34.469H51.3209ZM70.7889 34.469L71.6869 36.993L71.8419 36.996L72.7539 34.469H70.7889ZM79.3089 34.469V37H92.2109V34.469H79.3089Z" fill="#9BA2AA"/>
</svg>
