<svg width="1920" height="644" viewBox="0 0 1920 644" fill="none" xmlns="http://www.w3.org/2000/svg">
<path d="M0 644H1920V0H0V644Z" fill="url(#paint0_linear)"/>
<g opacity="0.3">
<g clip-path="url(#clip0)">
<g opacity="0.89">
<path opacity="0.89" d="M1932.9 189.8C1977.58 189.8 2013.8 153.58 2013.8 108.9C2013.8 64.2202 1977.58 28 1932.9 28C1888.22 28 1852 64.2202 1852 108.9C1852 153.58 1888.22 189.8 1932.9 189.8Z" stroke="url(#paint1_linear)" stroke-width="0.8127" stroke-linecap="round" stroke-linejoin="round"/>
</g>
<g opacity="0.89">
<path opacity="0.89" d="M1932.9 183.9C1974.32 183.9 2007.9 150.322 2007.9 108.9C2007.9 67.479 1974.32 33.9004 1932.9 33.9004C1891.48 33.9004 1857.9 67.479 1857.9 108.9C1857.9 150.322 1891.48 183.9 1932.9 183.9Z" stroke="url(#paint2_linear)" stroke-width="0.9493" stroke-linecap="round" stroke-linejoin="round"/>
</g>
<g opacity="0.89">
<path opacity="0.89" d="M1932.9 178C1971.06 178 2002 147.063 2002 108.9C2002 70.7369 1971.06 39.7998 1932.9 39.7998C1894.74 39.7998 1863.8 70.7369 1863.8 108.9C1863.8 147.063 1894.74 178 1932.9 178Z" stroke="url(#paint3_linear)" stroke-width="1.0859" stroke-linecap="round" stroke-linejoin="round"/>
</g>
<g opacity="0.89">
<path opacity="0.89" d="M1932.9 172.1C1967.8 172.1 1996.1 143.805 1996.1 108.9C1996.1 73.9958 1967.8 45.7002 1932.9 45.7002C1897.99 45.7002 1869.7 73.9958 1869.7 108.9C1869.7 143.805 1897.99 172.1 1932.9 172.1Z" stroke="url(#paint4_linear)" stroke-width="1.2225" stroke-linecap="round" stroke-linejoin="round"/>
</g>
<g opacity="0.89">
<path opacity="0.89" d="M1932.9 166.2C1964.55 166.2 1990.2 140.546 1990.2 108.9C1990.2 77.2537 1964.55 51.5996 1932.9 51.5996C1901.26 51.5996 1875.6 77.2537 1875.6 108.9C1875.6 140.546 1901.26 166.2 1932.9 166.2Z" stroke="url(#paint5_linear)" stroke-width="1.3591" stroke-linecap="round" stroke-linejoin="round"/>
</g>
<g opacity="0.89">
<path opacity="0.89" d="M1932.9 160.3C1961.29 160.3 1984.3 137.287 1984.3 108.9C1984.3 80.5126 1961.29 57.5 1932.9 57.5C1904.51 57.5 1881.5 80.5126 1881.5 108.9C1881.5 137.287 1904.51 160.3 1932.9 160.3Z" stroke="url(#paint6_linear)" stroke-width="1.4956" stroke-linecap="round" stroke-linejoin="round"/>
</g>
<g opacity="0.89">
<path opacity="0.89" d="M1932.9 154.4C1958.03 154.4 1978.4 134.029 1978.4 108.9C1978.4 83.7714 1958.03 63.4004 1932.9 63.4004C1907.77 63.4004 1887.4 83.7714 1887.4 108.9C1887.4 134.029 1907.77 154.4 1932.9 154.4Z" stroke="url(#paint7_linear)" stroke-width="1.6322" stroke-linecap="round" stroke-linejoin="round"/>
</g>
<g opacity="0.89">
<path opacity="0.89" d="M1932.9 148.5C1954.77 148.5 1972.5 130.77 1972.5 108.9C1972.5 87.0293 1954.77 69.2998 1932.9 69.2998C1911.03 69.2998 1893.3 87.0293 1893.3 108.9C1893.3 130.77 1911.03 148.5 1932.9 148.5Z" stroke="url(#paint8_linear)" stroke-width="1.7688" stroke-linecap="round" stroke-linejoin="round"/>
</g>
<g opacity="0.89">
<path opacity="0.89" d="M1932.9 142.61C1951.52 142.61 1966.61 127.518 1966.61 108.9C1966.61 90.2829 1951.52 75.1904 1932.9 75.1904C1914.28 75.1904 1899.19 90.2829 1899.19 108.9C1899.19 127.518 1914.28 142.61 1932.9 142.61Z" stroke="url(#paint9_linear)" stroke-width="1.9054" stroke-linecap="round" stroke-linejoin="round"/>
</g>
<g opacity="0.89">
<path opacity="0.89" d="M1932.9 136.71C1948.26 136.71 1960.71 124.259 1960.71 108.9C1960.71 93.5408 1948.26 81.0898 1932.9 81.0898C1917.54 81.0898 1905.09 93.5408 1905.09 108.9C1905.09 124.259 1917.54 136.71 1932.9 136.71Z" stroke="url(#paint10_linear)" stroke-width="2.042" stroke-linecap="round" stroke-linejoin="round"/>
</g>
<g opacity="0.89">
<path opacity="0.89" d="M1932.9 130.81C1945 130.81 1954.81 121.001 1954.81 108.9C1954.81 96.7997 1945 86.9902 1932.9 86.9902C1920.8 86.9902 1910.99 96.7997 1910.99 108.9C1910.99 121.001 1920.8 130.81 1932.9 130.81Z" stroke="url(#paint11_linear)" stroke-width="2.1786" stroke-linecap="round" stroke-linejoin="round"/>
</g>
<g opacity="0.89">
<path opacity="0.89" d="M1932.9 124.91C1941.74 124.91 1948.91 117.742 1948.91 108.9C1948.91 100.058 1941.74 92.8896 1932.9 92.8896C1924.06 92.8896 1916.89 100.058 1916.89 108.9C1916.89 117.742 1924.06 124.91 1932.9 124.91Z" stroke="url(#paint12_linear)" stroke-width="2.3152" stroke-linecap="round" stroke-linejoin="round"/>
</g>
</g>
</g>
<defs>
<linearGradient id="paint0_linear" x1="0" y1="322.005" x2="1920" y2="322.005" gradientUnits="userSpaceOnUse">
<stop stop-color="#1E72A2"/>
<stop offset="1" stop-color="#0E4C83"/>
</linearGradient>
<linearGradient id="paint1_linear" x1="1852" y1="108.899" x2="2013.8" y2="108.899" gradientUnits="userSpaceOnUse">
<stop stop-color="#5DA6DB"/>
<stop offset="1" stop-color="#1695F0"/>
</linearGradient>
<linearGradient id="paint2_linear" x1="1857.9" y1="108.899" x2="2007.9" y2="108.899" gradientUnits="userSpaceOnUse">
<stop stop-color="#5DA6DB"/>
<stop offset="1" stop-color="#1695F0"/>
</linearGradient>
<linearGradient id="paint3_linear" x1="1863.8" y1="108.899" x2="2002" y2="108.899" gradientUnits="userSpaceOnUse">
<stop stop-color="#5DA6DB"/>
<stop offset="1" stop-color="#1695F0"/>
</linearGradient>
<linearGradient id="paint4_linear" x1="1869.7" y1="108.899" x2="1996.1" y2="108.899" gradientUnits="userSpaceOnUse">
<stop stop-color="#5DA6DB"/>
<stop offset="1" stop-color="#1695F0"/>
</linearGradient>
<linearGradient id="paint5_linear" x1="1875.6" y1="108.899" x2="1990.2" y2="108.899" gradientUnits="userSpaceOnUse">
<stop stop-color="#5DA6DB"/>
<stop offset="1" stop-color="#1695F0"/>
</linearGradient>
<linearGradient id="paint6_linear" x1="1881.5" y1="108.899" x2="1984.3" y2="108.899" gradientUnits="userSpaceOnUse">
<stop stop-color="#5DA6DB"/>
<stop offset="1" stop-color="#1695F0"/>
</linearGradient>
<linearGradient id="paint7_linear" x1="1887.4" y1="108.9" x2="1978.4" y2="108.9" gradientUnits="userSpaceOnUse">
<stop stop-color="#5DA6DB"/>
<stop offset="1" stop-color="#1695F0"/>
</linearGradient>
<linearGradient id="paint8_linear" x1="1893.3" y1="108.899" x2="1972.5" y2="108.899" gradientUnits="userSpaceOnUse">
<stop stop-color="#5DA6DB"/>
<stop offset="1" stop-color="#1695F0"/>
</linearGradient>
<linearGradient id="paint9_linear" x1="1899.19" y1="108.9" x2="1966.61" y2="108.9" gradientUnits="userSpaceOnUse">
<stop stop-color="#5DA6DB"/>
<stop offset="1" stop-color="#1695F0"/>
</linearGradient>
<linearGradient id="paint10_linear" x1="1905.09" y1="108.899" x2="1960.71" y2="108.899" gradientUnits="userSpaceOnUse">
<stop stop-color="#5DA6DB"/>
<stop offset="1" stop-color="#1695F0"/>
</linearGradient>
<linearGradient id="paint11_linear" x1="1910.99" y1="108.9" x2="1954.81" y2="108.9" gradientUnits="userSpaceOnUse">
<stop stop-color="#5DA6DB"/>
<stop offset="1" stop-color="#1695F0"/>
</linearGradient>
<linearGradient id="paint12_linear" x1="1916.89" y1="108.899" x2="1948.91" y2="108.899" gradientUnits="userSpaceOnUse">
<stop stop-color="#5DA6DB"/>
<stop offset="1" stop-color="#1695F0"/>
</linearGradient>
<clipPath id="clip0">
<rect x="1851" y="28" width="69" height="162" fill="white"/>
</clipPath>
</defs>
</svg>
