<svg width="22" height="22" viewBox="0 0 22 22" fill="none" xmlns="http://www.w3.org/2000/svg">
<rect width="22" height="22" rx="11" fill="#FFF9F0"/>
<path d="M16.7403 7.30056C16.5529 7.11431 16.2995 7.00977 16.0353 7.00977C15.7711 7.00977 15.5176 7.11431 15.3303 7.30056L9.38029 13.0006L6.70029 10.4406C6.50933 10.2549 6.25244 10.1527 5.98614 10.1565C5.71984 10.1602 5.46594 10.2696 5.28029 10.4606C5.09463 10.6515 4.99244 10.9084 4.99619 11.1747C4.99994 11.441 5.10933 11.6949 5.30029 11.8806L8.69029 15.1606C8.87675 15.3408 9.12595 15.4415 9.38529 15.4415C9.64462 15.4415 9.89382 15.3408 10.0803 15.1606L16.7203 8.72056C16.8153 8.62892 16.8913 8.51937 16.9438 8.39823C16.9963 8.27708 17.0243 8.14674 17.0261 8.01473C17.028 7.88271 17.0037 7.75163 16.9546 7.62906C16.9056 7.50648 16.8327 7.39483 16.7403 7.30056Z" fill="#FAA338"/>
</svg>
