<svg width="14" height="19" viewBox="0 0 14 19" fill="none" xmlns="http://www.w3.org/2000/svg">
<path d="M0 18.1805V0.0173069H5.92132C7.38502 -0.0492248 8.84872 0.0838385 10.3124 0.283434C11.3769 0.54956 12.3084 1.21488 12.9071 2.07979C13.639 3.07776 13.9717 4.34187 13.9051 5.60597C13.9717 6.60395 13.7055 7.53539 13.3063 8.4003C12.9737 9.13215 12.4414 9.73094 11.7761 10.1967C11.1773 10.5958 10.5785 10.9285 9.84669 11.0616C8.58259 11.2612 7.31849 11.3277 6.05438 11.3277H3.65924V18.1805H0ZM3.65924 3.07776V8.26724H5.65519C6.65317 8.33377 7.58461 8.20071 8.58259 8.00111C9.04831 7.80152 9.4475 7.53539 9.71363 7.1362C9.97976 6.73701 10.1128 6.20476 10.1128 5.73903C10.1128 5.14025 9.91322 4.54146 9.51403 4.07574C9.11484 3.67655 8.58259 3.34389 8.05034 3.27736C7.18542 3.1443 6.32051 3.1443 5.38907 3.1443L3.65924 3.07776Z" fill="#7692AB"/>
</svg>
