<svg width="36" height="36" viewBox="0 0 36 36" fill="none" xmlns="http://www.w3.org/2000/svg">
<g clip-path="url(#clip0)">
<path d="M23.6366 19.14C23.591 19.14 23.5445 19.1351 23.4995 19.1259C23.4545 19.1168 23.4102 19.1034 23.3681 19.0859C23.3259 19.0683 23.2844 19.0465 23.2465 19.0212C23.2078 18.9959 23.1719 18.9663 23.1395 18.934C23.1072 18.9016 23.0777 18.8658 23.0524 18.8271C23.0271 18.7891 23.0053 18.7484 22.9877 18.7055C22.9702 18.6633 22.9568 18.619 22.9477 18.574C22.9385 18.529 22.9336 18.4826 22.9336 18.4369C22.9336 18.3912 22.9385 18.3448 22.9477 18.2991C22.9568 18.2548 22.9702 18.2105 22.9877 18.1676C23.0053 18.1254 23.0271 18.0846 23.0524 18.0466C23.0777 18.008 23.1072 17.9721 23.1395 17.9398C23.1719 17.9074 23.2078 17.8779 23.2465 17.8519C23.2845 17.8266 23.3259 17.8048 23.3681 17.7872C23.4103 17.7696 23.4545 17.7562 23.4995 17.7471C23.5902 17.7288 23.6838 17.7288 23.7745 17.7471C23.8188 17.7562 23.8631 17.7696 23.9059 17.7872C23.9481 17.8048 23.9889 17.8266 24.0269 17.8519C24.0656 17.8779 24.1015 17.9074 24.1338 17.9398C24.1662 17.9721 24.1957 18.008 24.2217 18.0466C24.247 18.0846 24.2688 18.1254 24.2864 18.1676C24.304 18.2105 24.3173 18.2548 24.3265 18.2991C24.3356 18.3448 24.3398 18.3912 24.3398 18.4369C24.3398 18.4826 24.3356 18.529 24.3265 18.574C24.3173 18.619 24.304 18.6633 24.2864 18.7055C24.2688 18.7484 24.247 18.7891 24.2217 18.8271C24.1957 18.8658 24.1662 18.9016 24.1338 18.934C24.1015 18.9663 24.0656 18.9959 24.0269 19.0212C23.9889 19.0465 23.9481 19.0683 23.9059 19.0859C23.8631 19.1034 23.8188 19.1168 23.7745 19.1259C23.7288 19.1351 23.6831 19.14 23.6366 19.14V19.14Z" fill="#9BB6CD"/>
<path d="M23.6244 13.3407C21.9598 13.3407 20.6055 11.9864 20.6055 10.3217C20.6055 8.65702 21.9598 7.30273 23.6244 7.30273C25.289 7.30273 26.6433 8.65702 26.6433 10.3217C26.6433 11.9863 25.2891 13.3407 23.6244 13.3407V13.3407ZM23.6244 8.70898C22.7352 8.70898 22.0117 9.43243 22.0117 10.3217C22.0117 11.2109 22.7352 11.9344 23.6244 11.9344C24.5136 11.9344 25.2371 11.211 25.2371 10.3217C25.2371 9.43243 24.5136 8.70898 23.6244 8.70898V8.70898Z" fill="#9BB6CD"/>
<path d="M29.7317 16.0462H17.5183C17.13 16.0462 16.8151 15.7314 16.8151 15.3431C16.8151 13.2644 16.5342 12.8717 15.0469 12.8717C14.6585 12.8717 14.3438 12.5569 14.3438 12.1686V8.4753C14.3438 8.08696 14.6585 7.77218 15.0469 7.77218C16.5342 7.77218 16.8151 7.37948 16.8151 5.30078C16.8151 4.91244 17.13 4.59766 17.5183 4.59766H29.7316C30.1199 4.59766 30.4347 4.91244 30.4347 5.30078C30.4347 7.37955 30.7156 7.77218 32.2029 7.77218C32.5912 7.77218 32.9061 8.08696 32.9061 8.4753V12.1686C32.9061 12.5569 32.5912 12.8717 32.2029 12.8717C30.7156 12.8717 30.4347 13.2643 30.4347 15.3431C30.4348 15.7314 30.12 16.0462 29.7317 16.0462ZM18.2066 14.64H29.0435C29.1183 13.1146 29.5319 11.7598 31.4999 11.5074V9.13644C29.5319 8.88409 29.1182 7.52932 29.0435 6.0039H18.2066C18.1317 7.52932 17.7182 8.88409 15.75 9.13644V11.5074C17.7181 11.7598 18.1317 13.1146 18.2066 14.64Z" fill="#9BB6CD"/>
<path d="M33.199 19.1399H26.8035C26.4152 19.1399 26.1003 18.8251 26.1003 18.4368C26.1003 18.0485 26.4152 17.7337 26.8035 17.7337H33.199C33.968 17.7337 34.5936 17.1081 34.5936 16.3391V4.30472C34.5936 3.53571 33.968 2.91015 33.199 2.91015H14.0508C13.2819 2.91015 12.6562 3.53571 12.6562 4.30472V16.3392C12.6562 17.1081 13.2819 17.7338 14.0508 17.7338H20.4464C20.8347 17.7338 21.1495 18.0486 21.1495 18.4369C21.1495 18.8252 20.8347 19.14 20.4464 19.14H14.0508C12.5064 19.14 11.25 17.8835 11.25 16.3392V4.30472C11.25 2.76038 12.5064 1.50391 14.0508 1.50391H33.199C34.7434 1.50391 35.9999 2.76038 35.9999 4.30472V16.3392C35.9999 17.8835 34.7434 19.1399 33.199 19.1399V19.1399Z" fill="#9BB6CD"/>
<path d="M8.39762 34.4948C8.10343 34.4948 7.83469 34.3045 7.73562 34.0282C7.63662 33.7521 7.7243 33.4342 7.95113 33.2482C8.18176 33.0591 8.51476 33.0371 8.7683 33.1943C9.02115 33.3509 9.14989 33.6617 9.08176 33.9512C9.00779 34.2651 8.72091 34.4948 8.39762 34.4948V34.4948Z" fill="#9BB6CD"/>
<path d="M35.2913 23.4091C34.747 22.8647 34.0232 22.565 33.2535 22.565C32.9189 22.565 32.593 22.6217 32.2867 22.7305C32.2185 22.6692 32.151 22.6091 32.1247 22.5876C30.9752 21.6474 29.3157 21.7308 28.2648 22.7819L24.9434 26.1033C24.6656 26.3809 23.532 27.0328 23.2022 27.074H21.1747C20.8191 27.074 20.6793 26.8032 20.645 26.7202C20.6159 26.6499 20.545 26.431 20.6764 26.213L22.2823 25.7479C23.1505 25.4965 23.8206 24.8267 24.0749 23.9566C24.3241 23.1037 24.126 22.199 23.5442 21.5362C23.5171 21.5053 23.4892 21.4747 23.4606 21.4444C22.9945 20.9523 22.1369 20.9011 20.5008 21.2675C19.3478 21.5256 18.0159 21.9568 17.1014 22.2731C15.116 22.9597 13.5761 24.487 12.8931 26.4159H12.1791V25.8644C12.1791 25.4761 11.8643 25.1613 11.476 25.1613H0.703121C0.314787 25.1613 0 25.4761 0 25.8644V33.7922C0 34.1805 0.314787 34.4953 0.703121 34.4953H5.20563C5.59389 34.4953 5.90875 34.1805 5.90875 33.7922C5.90875 33.4038 5.59389 33.089 5.20563 33.089H1.40624V26.5675H10.7727V33.7922C10.7727 34.1805 11.0875 34.4953 11.4758 34.4953C11.8641 34.4953 12.179 34.1805 12.179 33.7922V33.2407H14.2805C16.3481 33.9457 18.4839 34.3009 20.6489 34.3009C21.1241 34.3009 21.6008 34.2837 22.0783 34.2495C24.7607 34.057 27.3278 33.3332 29.7085 32.0982C30.2787 31.8024 30.4838 31.6607 30.6031 31.5455L34.9588 27.5025C34.9652 27.4966 34.9715 27.4906 34.9776 27.4845C35.5111 26.9513 35.8734 26.2443 35.9718 25.5448C36.0874 24.7221 35.8458 23.9637 35.2913 23.4091V23.4091ZM29.2592 23.7761C29.748 23.2873 30.4936 23.2072 31.0673 23.5575L27.894 26.7308C27.6727 26.9521 27.3784 27.074 27.0654 27.074H25.9614L29.2592 23.7761ZM29.6231 30.5369C29.6254 30.5345 29.6279 30.5321 29.6306 30.5295C29.628 30.5319 29.6256 30.5344 29.6231 30.5369ZM34.5792 25.3489C34.523 25.7487 34.3091 26.1607 33.9919 26.4812L29.6396 30.521C29.6389 30.5217 29.6382 30.5223 29.6376 30.5229C29.6108 30.5428 29.4845 30.6301 29.0609 30.8499C24.6461 33.1402 19.4027 33.519 14.6747 31.8892L14.6272 31.8728C14.5534 31.8473 14.476 31.8344 14.3979 31.8344H12.1789V27.822H13.4111C13.7303 27.822 14.0094 27.607 14.0909 27.2984C14.5455 25.578 15.8426 24.1961 17.5609 23.6019C21.3201 22.3018 22.3083 22.4163 22.4822 22.4581C22.484 22.4601 22.4858 22.4621 22.4875 22.4641C22.7536 22.7674 22.8402 23.1676 22.7249 23.562C22.6063 23.968 22.2945 24.2802 21.8908 24.3971L20.0764 24.9226C19.9624 24.9556 19.8587 25.0169 19.7748 25.1008C19.1978 25.6778 19.0333 26.5045 19.3455 27.2583C19.6578 28.012 20.3585 28.4802 21.1745 28.4802H27.0653C27.7539 28.4802 28.4013 28.2121 28.8883 27.7251L32.21 24.4034C32.4887 24.1247 32.8592 23.9712 33.2533 23.9712C33.6476 23.9712 34.0181 24.1247 34.2968 24.4034C34.5385 24.645 34.6334 24.9631 34.5792 25.3489V25.3489Z" fill="#9BB6CD"/>
</g>
<defs>
<clipPath id="clip0">
<rect width="36" height="36" fill="white"/>
</clipPath>
</defs>
</svg>
