<svg width="112" height="34" viewBox="0 0 112 34" fill="none" xmlns="http://www.w3.org/2000/svg">
<path fill-rule="evenodd" clip-rule="evenodd" d="M69.523 26.774C63.04 31.49 53.64 34 45.548 34C34.206 34 23.991 29.866 16.262 22.983C15.655 22.443 16.196 21.705 16.926 22.123C25.266 26.908 35.578 29.79 46.229 29.79C53.414 29.79 61.312 28.32 68.58 25.28C69.676 24.822 70.595 25.992 69.523 26.774ZM72.034 22.945C71.212 21.877 66.603 22.439 64.532 22.691C63.905 22.767 63.808 22.211 64.372 21.808C68.05 19.185 74.076 19.942 74.776 20.821C75.481 21.706 74.59 27.84 71.145 30.767C70.615 31.217 70.11 30.977 70.345 30.382C71.121 28.416 72.857 24.014 72.035 22.945H72.034ZM64.664 4.254V1.658C64.6619 1.5709 64.6776 1.48429 64.7101 1.40345C64.7426 1.3226 64.7911 1.24921 64.8529 1.18775C64.9146 1.12628 64.9882 1.07803 65.0692 1.04592C65.1502 1.01382 65.2369 0.998533 65.324 1.001L76.977 1C77.35 1 77.649 1.27 77.649 1.655V3.881C77.645 4.255 77.33 4.741 76.772 5.515L70.735 14.119C72.975 14.066 75.345 14.402 77.382 15.544C77.841 15.802 77.964 16.183 78 16.557V19.327C78 19.707 77.581 20.15 77.141 19.92C73.555 18.044 68.796 17.84 64.829 19.943C64.424 20.158 64 19.723 64 19.341V16.708C64 16.287 64.008 15.567 64.434 14.924L71.427 4.908H65.338C64.966 4.908 64.668 4.643 64.665 4.254H64.664ZM23.026 19H19.612C19.4583 18.9934 19.312 18.9318 19.1999 18.8265C19.0877 18.7211 19.0172 18.579 19.001 18.426L19.004 0.996C19.004 0.646 19.298 0.368 19.663 0.368L22.843 0.367C23.0003 0.371362 23.1505 0.433532 23.2649 0.541632C23.3792 0.649732 23.4498 0.796182 23.463 0.953V3.228H23.527C24.355 1.028 25.916 0 28.02 0C30.155 0 31.494 1.027 32.45 3.228C33.28 1.028 35.16 0 37.168 0C38.602 0 40.164 0.587 41.12 1.907C42.203 3.375 41.981 5.502 41.981 7.373L41.978 18.373C41.978 18.721 41.684 19 41.319 19H37.909C37.7462 18.9936 37.592 18.9253 37.4781 18.8089C37.3641 18.6925 37.2989 18.5369 37.296 18.374V9.133C37.296 8.401 37.359 6.566 37.199 5.869C36.945 4.695 36.179 4.365 35.192 4.365C34.362 4.365 33.502 4.915 33.152 5.795C32.802 6.675 32.832 8.143 32.832 9.133V18.373C32.832 18.721 32.538 19 32.174 19H28.764C28.6012 18.9936 28.447 18.9253 28.3331 18.8089C28.2191 18.6925 28.1539 18.5369 28.151 18.374L28.147 9.133C28.147 7.189 28.466 4.329 26.044 4.329C23.589 4.329 23.685 7.116 23.685 9.133V18.373C23.685 18.721 23.389 19 23.025 19H23.026ZM86.936 0C92.169 0 95 4.47 95 10.152C95 15.642 91.873 20 86.935 20C81.798 20 79 15.53 79 9.962C79 4.356 81.831 0 86.935 0H86.936ZM86.968 3.675C84.368 3.675 84.203 7.196 84.203 9.394C84.203 11.591 84.17 16.287 86.936 16.287C89.669 16.287 89.8 12.499 89.8 10.19C89.8 8.675 89.734 6.856 89.272 5.417C88.878 4.167 88.087 3.675 86.968 3.675ZM102.014 19H98.617C98.4546 18.9931 98.3009 18.9245 98.1873 18.8082C98.0738 18.6919 98.0089 18.5366 98.006 18.374L98 0.937C98.029 0.617 98.312 0.368 98.655 0.368L101.817 0.367C101.957 0.37177 102.092 0.421925 102.201 0.509925C102.311 0.597925 102.388 0.719017 102.423 0.855V3.521H102.487C103.442 1.136 104.777 0 107.132 0C108.659 0 110.155 0.55 111.109 2.054C112 3.448 112 5.795 112 7.483V18.452C111.962 18.76 111.684 19 111.347 19H107.93C107.781 18.9938 107.638 18.9357 107.528 18.8356C107.417 18.7355 107.344 18.5998 107.323 18.452V8.988C107.323 7.08 107.546 4.292 105.191 4.292C104.364 4.292 103.601 4.842 103.218 5.685C102.741 6.749 102.678 7.813 102.678 8.988V18.373C102.672 18.5438 102.599 18.7054 102.475 18.8228C102.35 18.9401 102.185 19.0038 102.014 19ZM59.064 19.707C58.9487 19.804 58.8066 19.8637 58.6566 19.8781C58.5066 19.8926 58.3557 19.8612 58.224 19.788C57.044 18.822 56.832 18.376 56.186 17.456C54.234 19.413 52.852 20 50.323 20C47.329 20 45 18.181 45 14.546C45 11.705 46.564 9.773 48.792 8.826C50.722 7.993 53.417 7.841 55.48 7.613V7.159C55.48 6.325 55.546 5.341 55.047 4.621C54.614 3.977 53.783 3.712 53.051 3.712C51.694 3.712 50.489 4.396 50.192 5.813C50.13 6.129 49.897 6.441 49.575 6.457L46.128 6.09C45.836 6.025 45.514 5.795 45.597 5.358C46.39 1.243 50.166 0 53.55 0C55.28 0 57.542 0.454 58.906 1.742C60.636 3.333 60.469 5.455 60.469 7.766V13.216C60.469 14.858 61.162 15.576 61.812 16.46C62.039 16.78 62.09 17.157 61.8 17.39C61.074 17.99 59.783 19.092 59.073 19.715L59.063 19.707H59.064ZM55.48 11.174V10.417C52.907 10.417 50.19 10.959 50.19 13.939C50.19 15.454 50.988 16.478 52.352 16.478C53.35 16.478 54.249 15.871 54.814 14.887C55.512 13.674 55.48 12.538 55.48 11.174ZM14.065 19.707C13.83 19.915 13.49 19.928 13.225 19.788C12.043 18.822 11.831 18.376 11.186 17.456C9.233 19.413 7.851 20 5.323 20C2.329 20 0 18.181 0 14.546C0 11.705 1.563 9.773 3.792 8.826C5.722 7.993 8.417 7.841 10.479 7.613V7.159C10.479 6.325 10.546 5.341 10.047 4.621C9.614 3.977 8.782 3.712 8.051 3.712C6.694 3.712 5.488 4.396 5.193 5.813C5.131 6.129 4.897 6.441 4.575 6.457L1.128 6.09C0.836 6.025 0.513 5.795 0.597 5.358C1.389 1.243 5.165 0 8.55 0C10.28 0 12.542 0.454 13.906 1.742C15.636 3.333 15.47 5.455 15.47 7.766V13.216C15.47 14.858 16.162 15.576 16.812 16.46C17.038 16.78 17.09 17.157 16.801 17.39C16.074 17.99 14.783 19.092 14.073 19.715L14.065 19.707ZM10.479 11.174V10.417C7.907 10.417 5.189 10.959 5.189 13.939C5.189 15.454 5.989 16.478 7.352 16.478C8.35 16.478 9.249 15.871 9.814 14.887C10.512 13.674 10.479 12.538 10.479 11.174Z" fill="#9BA2AA"/>
</svg>
