<svg width="26" height="26" viewBox="0 0 26 26" fill="none" xmlns="http://www.w3.org/2000/svg">
<path d="M13 0C20.15 0 26 5.85 26 13C26 20.15 20.15 26 13 26C5.85 26 0 20.15 0 13C0 5.85 5.85 0 13 0Z" fill="#F7931A"/>
<path d="M18.9599 11.3757C19.1766 9.53398 17.8766 8.55898 15.9266 7.90898L16.5766 5.41732L15.0599 5.09232L14.4099 7.47565C13.9766 7.36732 13.5432 7.25898 13.2182 7.15065L13.8682 4.65898L12.3516 4.33398L11.7016 6.82565C11.3766 6.71732 8.66823 6.06732 8.66823 6.06732L8.34323 7.69232L9.42656 7.90898C10.0766 8.12565 10.1849 8.45065 10.0766 8.77565L8.45156 15.6007C8.34323 15.8173 8.2349 16.034 7.80156 15.9257L6.71823 15.709L5.85156 17.334C5.85156 17.334 8.5599 17.984 8.8849 18.0923L8.2349 20.584L9.75156 21.0173L10.4016 18.5257C10.8349 18.634 11.2682 18.7423 11.5932 18.8507L10.9432 21.3423L12.4599 21.7757L13.1099 19.284C15.7099 19.7173 17.6599 19.609 18.4182 17.2257C19.0682 15.384 18.4182 14.3007 17.0099 13.5423C17.9849 13.434 18.7432 12.784 18.9599 11.3757ZM15.4932 16.2507C15.0599 18.0923 11.9182 17.1173 10.8349 16.9007L11.7016 13.5423C12.7849 13.759 16.0349 14.3007 15.4932 16.2507ZM16.0349 11.3757C15.6016 13.109 13.0016 12.2423 12.1349 12.0257L12.8932 8.99232C13.6516 9.20898 16.4682 9.53398 16.0349 11.3757Z" fill="white"/>
</svg>
