<svg width="26" height="26" viewBox="0 0 26 26" fill="none" xmlns="http://www.w3.org/2000/svg">
<circle cx="13" cy="13" r="13" fill="white"/>
<path fill-rule="evenodd" clip-rule="evenodd" d="M13 26C5.85 26 0 20.15 0 13C0 5.85 5.85 0 13 0C20.15 0 26 5.85 26 13C26 20.15 20.15 26 13 26ZM5.2 11.9167L4.33333 14.4083H10.6167L11.4833 12.025L5.2 11.9167ZM8.125 7.90833L7.36667 10.6167H21.6667C21.6667 10.6167 22.425 8.01667 19.825 8.01667L8.125 7.90833ZM4.76667 18.3083H16.4667C18.85 18.3083 19.9333 15.7083 19.9333 15.7083H5.63333L4.76667 18.3083ZM17.875 10.6167L16.25 15.7083H19.9333L21.6667 10.6167H17.875Z" fill="#008DE4"/>
</svg>
