<svg width="100" height="100" viewBox="0 0 100 100" fill="none" xmlns="http://www.w3.org/2000/svg">
<circle cx="50" cy="50" r="49.5" fill="#FFF9F0" stroke="#FFE9CE"/>
<circle cx="50" cy="50" r="37" fill="url(#paint0_linear)"/>
<rect x="42" y="35" width="23" height="29" rx="4" fill="#FA9113"/>
<path d="M64.7221 55.3511C65.4143 55.3511 65.9468 54.8186 65.9468 54.1265V39.005C65.9468 36.2363 63.7105 34 60.9418 34H39.005C36.2363 34 34 36.2363 34 39.005V60.995C34 63.7105 36.2363 65.9468 39.005 65.9468H60.995C63.7637 65.9468 66 63.7105 66 60.9418C66 60.2496 65.4676 59.7171 64.7754 59.7171C64.0832 59.7171 63.5507 60.2496 63.5507 60.9418C63.5507 62.3261 62.4326 63.4443 61.0483 63.4443H44.01V58.599H59.7704C60.4626 58.599 60.995 58.0666 60.995 57.3744C60.995 56.6822 60.4626 56.1497 59.7704 56.1497H43.9035V51.3045H63.4443V54.1797C63.4443 54.7654 64.0299 55.3511 64.7221 55.3511ZM41.401 63.4443H39.005C37.6206 63.4443 36.5025 62.3261 36.5025 60.9418V58.5458H41.4542V63.4443H41.401ZM41.401 56.0965H36.5025V51.2512H41.4542V56.0965H41.401ZM41.401 48.7488H36.5025V43.797H41.4542V48.7488H41.401ZM41.401 41.2945H36.5025V39.005C36.5025 37.6206 37.6206 36.5025 39.005 36.5025H41.4542V41.2945H41.401ZM43.9035 36.5025H60.9418C62.3261 36.5025 63.4443 37.6206 63.4443 39.005V41.2945H43.9035V36.5025ZM43.9035 48.7488V43.797H63.4443V48.7488H43.9035Z" fill="white"/>
<defs>
<linearGradient id="paint0_linear" x1="-30" y1="49.9994" x2="87" y2="49.9994" gradientUnits="userSpaceOnUse">
<stop stop-color="#FFD364"/>
<stop offset="1" stop-color="#FAA136"/>
</linearGradient>
</defs>
</svg>
