<svg width="14" height="18" viewBox="0 0 14 18" fill="none" xmlns="http://www.w3.org/2000/svg">
<path d="M13.9599 7.37565C14.1766 5.53398 12.8766 4.55898 10.9266 3.90898L11.5766 1.41732L10.0599 1.09232L9.40989 3.47565C8.97656 3.36732 8.54323 3.25898 8.21823 3.15065L8.86823 0.658985L7.35156 0.333984L6.70156 2.82565C6.37656 2.71732 3.66823 2.06732 3.66823 2.06732L3.34323 3.69232L4.42656 3.90898C5.07656 4.12565 5.1849 4.45065 5.07656 4.77565L3.45156 11.6007C3.34323 11.8173 3.2349 12.034 2.80156 11.9257L1.71823 11.709L0.851562 13.334C0.851562 13.334 3.5599 13.984 3.8849 14.0923L3.2349 16.584L4.75156 17.0173L5.40156 14.5257C5.8349 14.634 6.26823 14.7423 6.59323 14.8507L5.94323 17.3423L7.4599 17.7757L8.1099 15.284C10.7099 15.7173 12.6599 15.609 13.4182 13.2257C14.0682 11.384 13.4182 10.3007 12.0099 9.54232C12.9849 9.43398 13.7432 8.78398 13.9599 7.37565ZM10.4932 12.2507C10.0599 14.0923 6.91823 13.1173 5.8349 12.9007L6.70156 9.54232C7.7849 9.75898 11.0349 10.3007 10.4932 12.2507ZM11.0349 7.37565C10.6016 9.10898 8.00156 8.24232 7.13489 8.02565L7.89323 4.99232C8.65156 5.20898 11.4682 5.53398 11.0349 7.37565Z" fill="#7692AB"/>
</svg>
