<svg width="85" height="35" viewBox="0 0 85 35" fill="none" xmlns="http://www.w3.org/2000/svg">
<path fill-rule="evenodd" clip-rule="evenodd" d="M67.5179 0C77.0609 0 84.7979 7.689 84.7979 17.173C84.7979 26.657 77.0609 34.346 67.5179 34.346C64.2153 34.351 60.9804 33.41 58.1958 31.6343C55.4112 29.8586 53.1935 27.3225 51.8049 24.326C51.8069 24.446 51.8079 24.567 51.8079 24.69C51.8079 27.309 50.4099 30.074 48.2199 31.629C45.8529 33.316 43.4789 34.327 40.7079 34.327H26.6809V0.5H41.6479C43.9709 0.5 45.9119 1.34 47.8329 2.717C49.8879 4.181 51.3249 6.881 51.3249 9.367C51.3249 10.156 51.2829 10.875 51.1939 11.533C53.5409 4.82 59.9629 0 67.5179 0ZM35.4209 7.832V13.668L39.1739 13.655C41.6389 13.655 42.8689 12.445 42.7379 10.404C42.7379 8.142 40.8639 7.832 39.0799 7.832H35.4199H35.4209ZM42.2089 26.024C42.8809 25.534 43.3919 24.424 43.3919 23.578C43.2949 20.971 41.3699 20.392 39.1219 20.392H35.4079V26.602H39.4799C40.4199 26.602 41.4479 26.647 42.2099 26.024H42.2089ZM50.4449 19.504C50.1872 17.6156 50.2447 15.6976 50.6149 13.828C50.0059 15.165 48.9829 16.168 47.3899 16.985C48.7999 17.791 49.7739 18.624 50.4449 19.504ZM67.4389 23.724C63.7989 23.724 60.8489 20.791 60.8489 17.173C60.8489 13.555 63.7989 10.623 67.4389 10.623C71.0789 10.623 74.0289 13.555 74.0289 17.173C74.0289 20.791 71.0789 23.723 67.4389 23.723V23.724ZM67.4389 26.107C72.4019 26.107 76.4259 22.107 76.4259 17.173C76.4259 12.238 72.4019 8.238 67.4389 8.238C62.4749 8.238 58.4509 12.238 58.4509 17.173C58.4509 22.107 62.4749 26.107 67.4389 26.107ZM15.9839 12.915V0.439H24.7659V34.385H15.9409V21.135H8.87894V34.385H0.210938V0.439H8.92094V12.915H15.9839ZM81.2909 32.437C81.8769 32.437 82.3369 32.845 82.3369 33.44C82.3369 34.033 81.8749 34.44 81.2909 34.44C80.7069 34.44 80.2449 34.035 80.2449 33.44C80.2449 32.845 80.7049 32.437 81.2909 32.437ZM81.2909 34.155C81.3862 34.1576 81.481 34.1409 81.5696 34.1061C81.6583 34.0712 81.7391 34.0189 81.8071 33.9521C81.8751 33.8854 81.929 33.8057 81.9656 33.7177C82.0022 33.6297 82.0206 33.5353 82.0199 33.44C82.021 33.3445 82.0029 33.2498 81.9665 33.1615C81.9301 33.0732 81.8762 32.9932 81.8081 32.9262C81.7401 32.8593 81.6592 32.8068 81.5703 32.7718C81.4814 32.7369 81.3864 32.7203 81.2909 32.723C80.8709 32.723 80.5619 33.029 80.5619 33.44C80.5619 33.85 80.8719 34.155 81.2919 34.155H81.2909ZM81.4689 33.51L81.7469 33.978H81.4329L81.1829 33.52H81.1369V33.978H80.8639V32.902H81.2739C81.5589 32.902 81.7309 32.967 81.7309 33.227C81.7309 33.427 81.6159 33.503 81.4689 33.51ZM81.2929 33.337C81.3889 33.337 81.4429 33.313 81.4429 33.201C81.4429 33.097 81.3499 33.087 81.2689 33.087H81.1369V33.337H81.2929Z" fill="#9BA2AA"/>
</svg>
