<svg width="14" height="13" viewBox="0 0 14 13" fill="none" xmlns="http://www.w3.org/2000/svg">
<path d="M8.36111 4.30773V2.62068H12.2587V0H1.60779V2.62068H5.50539V4.31364C2.35945 4.47909 0 5.14977 0 5.95341C0 6.75705 2.35945 7.42773 5.50829 7.59318V12.8464C5.99005 12.9468 6.48922 13 7 13C7.46434 13 7.91998 12.9557 8.36111 12.873V7.59909C11.5767 7.44841 14 6.76886 14 5.95341C14 5.13795 11.5767 4.45841 8.36111 4.30773ZM7 6.99045C3.48839 6.99045 0.641376 6.45273 0.641376 5.78795C0.641376 5.22068 2.71642 4.745 5.50829 4.61795V6.54432C5.98134 6.61523 6.4573 6.64773 6.93615 6.64773C7.41211 6.64773 7.89096 6.61227 8.36401 6.54432V4.60909C11.2226 4.72727 13.3615 5.20886 13.3615 5.785C13.3615 6.44977 10.5116 6.99045 7 6.99045Z" fill="#7692AB"/>
</svg>
