<svg width="26" height="26" viewBox="0 0 26 26" fill="none" xmlns="http://www.w3.org/2000/svg">
<g clip-path="url(#clip0)">
<path d="M6.9325 1.51681C13.2158 -1.84152 21.1242 0.541811 24.4825 6.93348C27.8408 13.2168 25.4575 21.1251 19.0658 24.4835C12.7825 27.8418 4.87417 25.4585 1.51583 19.0668C-1.8425 12.7835 0.540834 4.87514 6.9325 1.51681Z" fill="#8DC351"/>
<path d="M17.5487 8.77487C16.8987 7.04154 15.2737 6.82487 13.2154 7.14987L12.5654 4.6582L11.0487 5.09154L11.5904 7.47487C11.2654 7.5832 10.832 7.69154 10.3987 7.69154L9.85703 5.19987L8.34036 5.6332L8.99036 8.12487C8.66536 8.2332 5.95703 8.8832 5.95703 8.8832L6.39036 10.5082L7.4737 10.1832C8.1237 10.0749 8.4487 10.2915 8.4487 10.6165L10.182 17.4415C10.182 17.6582 10.182 17.8749 9.7487 17.9832L8.66536 18.3082V20.1499C8.66536 20.1499 11.3737 19.4999 11.6987 19.3915L12.3487 21.8832L13.8654 21.5582L13.2154 19.0665C13.6487 18.9582 14.082 18.8499 14.407 18.7415L15.057 21.2332L16.5737 20.9082L15.9237 18.4165C18.4154 17.5499 20.0404 16.5749 19.607 14.0832C19.282 12.1332 18.1987 11.4832 16.682 11.4832C17.5487 11.0499 17.982 10.0749 17.5487 8.77487ZM16.682 14.7332C17.1154 16.5749 13.9737 17.2249 12.8904 17.4415L12.132 14.0832C13.2154 13.7582 16.2487 12.6749 16.682 14.7332ZM14.9487 10.1832C15.382 11.9165 12.6737 12.3499 11.807 12.5665L11.0487 9.5332C11.807 9.31654 14.407 8.34154 14.9487 10.1832Z" fill="white"/>
</g>
<defs>
<clipPath id="clip0">
<rect width="26" height="26" fill="white"/>
</clipPath>
</defs>
</svg>
