<svg width="26" height="26" viewBox="0 0 26 26" fill="none" xmlns="http://www.w3.org/2000/svg">
<circle cx="13" cy="13" r="13" fill="white"/>
<path fill-rule="evenodd" clip-rule="evenodd" d="M13 26C5.85 26 0 20.15 0 13C0 5.85 5.85 0 13 0C20.15 0 26 5.85 26 13C26 20.15 20.15 26 13 26ZM8.55833 13.7583V19.5H13.8667C14.7333 19.5 15.6 19.3917 16.4667 18.9583C17.1167 18.6333 17.7667 18.2 18.2 17.55C18.6333 16.9 19.0667 16.25 19.175 15.4917C19.6083 13.8667 19.6083 12.1333 19.175 10.4C18.9583 9.64167 18.6333 8.99167 18.2 8.34167C17.7667 7.8 17.1167 7.25833 16.4667 6.93333C15.6 6.60833 14.7333 6.5 13.8667 6.5H8.55833V11.9167H7.36667V13.7583H8.55833ZM10.725 11.9167V8.34167H13C13.7583 8.34167 14.4083 8.45 15.1667 8.66667C15.7083 8.88333 16.1417 9.20833 16.4667 9.64167C16.7917 10.075 17.0083 10.6167 17.1167 11.1583C17.3333 12.35 17.3333 13.65 17.1167 14.8417C17.0083 15.3833 16.7917 15.925 16.4667 16.3583C16.1417 16.7917 15.7083 17.1167 15.1667 17.3333C14.5167 17.55 13.7583 17.6583 13 17.6583H10.8333V13.7583H14.3V11.9167H10.725Z" fill="#303030"/>
</svg>
