<svg width="25" height="32" viewBox="0 0 25 32" fill="none" xmlns="http://www.w3.org/2000/svg">
<path d="M15.9811 14.6392C15.6824 14.6392 15.6824 14.7885 15.533 14.9379C15.2342 15.2367 15.3836 15.6848 15.6824 16.133C15.8317 16.133 16.1305 16.2824 16.2799 16.2824C16.5786 16.2824 16.728 16.133 16.8774 15.9836C17.1762 15.6848 17.0268 15.2367 16.5786 14.9379C16.4293 14.7885 16.1305 14.6392 15.9811 14.6392Z" fill="#7692AB"/>
<path d="M17.6272 13.2948C17.4778 13.4442 17.4778 13.8923 17.7766 14.1911C18.0753 14.4898 18.2247 14.6392 18.3741 14.6392C18.3741 14.6392 18.5235 14.4898 18.5235 14.0417C18.5235 13.7429 18.3741 13.2948 18.0753 13.1454C17.9259 13.1454 17.6272 13.1454 17.6272 13.2948Z" fill="#7692AB"/>
<path d="M16.1345 16.8802C13.7443 16.4321 12.5493 15.0877 11.653 13.5938C11.5036 13.2951 11.3542 13.2951 11.3542 13.7432C11.3542 14.3407 11.5036 14.9383 11.5036 15.3864H11.2048C7.91842 15.3864 5.08015 12.6975 5.08015 9.26173C5.08015 5.82593 7.91842 3.13704 11.2048 3.13704C14.4913 3.13704 17.3295 5.82593 17.3295 9.26173C17.3295 9.56049 17.3295 9.85926 17.3295 10.0086C16.8814 10.0086 15.9851 10.0086 15.3876 10.0086C15.2382 10.0086 15.2382 10.158 15.3876 10.158C17.3295 10.4568 18.8234 11.8012 18.9727 14.042H19.1221C20.0184 12.5481 20.4666 11.0543 20.4666 9.26173C20.4666 4.18272 16.2839 0 11.2048 0C6.12583 0 1.94312 4.03333 1.94312 9.26173C1.94312 14.4901 6.12583 18.6728 11.2048 18.6728C12.5493 18.6728 13.8937 18.3741 15.9851 18.2247C17.7777 18.2247 19.7197 18.8222 21.811 20.7642C21.9604 20.9136 22.2592 20.6148 22.1098 20.4654C20.0184 17.7765 18.0764 17.3284 16.1345 16.8802Z" fill="#7692AB"/>
<path d="M21.6592 23.9012H20.016C20.016 23.9012 19.8667 23.9012 19.8667 24.0506L18.5222 28.084L17.1778 24.0506C17.1778 23.9012 17.1778 23.9012 17.0284 23.9012H15.9827C15.9827 23.9012 15.8333 23.9012 15.8333 24.0506L14.4889 28.084L13.2938 24.0506C13.2938 23.9012 13.2938 23.9012 13.1444 23.9012H11.6506L11.5012 24.0506V24.2L13.742 31.0716C13.742 31.221 13.742 31.221 13.8913 31.221H15.0864C15.0864 31.221 15.2358 31.221 15.2358 31.0716L16.5802 27.0383L18.0741 31.0716C18.0741 31.221 18.0741 31.221 18.2234 31.221H19.4185L19.5679 31.0716L21.8086 24.2L21.6592 23.9012C21.8086 23.9012 21.6592 23.9012 21.6592 23.9012Z" fill="#7692AB"/>
<path d="M6.8716 29.5784C7.31975 28.9808 7.46914 28.2339 7.46914 27.487C7.46914 25.3957 5.82593 23.7524 3.73457 23.7524C1.64321 23.7524 0 25.3957 0 27.487C0 29.5784 1.64321 31.2216 3.73457 31.2216C4.48148 31.2216 5.22839 31.0722 5.82593 30.624L6.12469 30.9228C6.12469 31.0722 6.12469 31.0722 6.27407 31.0722H8.06667C8.21605 31.0722 8.36543 31.0722 8.21605 30.9228L6.8716 29.5784ZM5.67654 28.2339H4.18272C4.03333 28.2339 3.88395 28.3833 4.03333 28.5327L4.78025 29.429C4.48148 29.5784 4.18272 29.5784 3.88395 29.5784C2.83827 29.5784 1.94198 28.6821 1.94198 27.487C1.94198 26.2919 2.83827 25.3957 3.88395 25.3957C4.92963 25.3957 5.82593 26.2919 5.82593 27.487C5.82593 27.7858 5.82593 28.0845 5.67654 28.2339Z" fill="#7692AB"/>
<path d="M24.0529 23.9012L22.7085 24.0506C22.7085 24.0506 22.5591 24.0506 22.5591 24.2V31.0716C22.5591 31.0716 22.5591 31.221 22.7085 31.221H24.0529C24.0529 31.221 24.2023 31.221 24.2023 31.0716V24.2C24.2023 24.0506 24.0529 23.9012 24.0529 23.9012Z" fill="#7692AB"/>
<path d="M10.6086 24.0506H9.26413C9.26413 24.0506 9.11475 24.0506 9.11475 24.2V31.0716C9.11475 31.0716 9.11475 31.221 9.26413 31.221H10.6086C10.6086 31.221 10.758 31.221 10.758 31.0716V24.2C10.758 24.0506 10.758 23.9013 10.6086 24.0506Z" fill="#7692AB"/>
</svg>
