<svg width="28" height="15" viewBox="0 0 28 15" fill="none" xmlns="http://www.w3.org/2000/svg">
<path fill-rule="evenodd" clip-rule="evenodd" d="M0.98999 7.71017C0.98999 7.71017 8.75999 9.39017 9.87999 5.75017C10.93 2.18017 7.35999 1.48017 7.35999 1.48017H5.81999V7.43017H4.13999V1.69017H2.66999V1.06017C2.66999 1.06017 8.26999 1.06017 8.89999 1.13017C12.05 1.48017 13.52 7.08017 8.54999 8.20017C4.69999 9.11017 0.98999 7.71017 0.98999 7.71017ZM4.13999 9.04017V12.6102C4.13999 12.6102 4.13999 13.3802 3.43999 13.3802C2.73999 13.3802 2.59999 13.3802 2.59999 13.3802V14.0102H7.42999V13.3802H6.37999C6.37999 13.3802 5.81999 13.3102 5.81999 12.7502V9.04017H4.13999ZM10.37 13.9402H15.27V13.1702H13.87C13.87 13.1702 13.45 12.8902 13.45 12.4002V3.44017L18.91 13.9402L24.23 3.65017L24.09 12.5402C24.09 12.5402 24.23 13.2402 23.46 13.2402C22.69 13.2402 22.55 13.2402 22.55 13.2402V13.8002H27.45V13.1002H26.33C26.33 13.1002 25.84 13.1702 25.84 12.6102C25.84 12.1202 25.84 1.83017 25.84 1.83017C25.84 1.83017 25.84 1.62017 26.26 1.62017H27.1V0.920166H24.09L19.12 11.2102L14.15 0.990166H11.42V1.62017H12.26C12.26 1.62017 12.54 1.62017 12.54 2.04017C12.54 2.46017 12.4 12.4702 12.4 12.4702C12.4 12.4702 12.47 13.2402 11.56 13.2402C10.72 13.2402 10.23 13.2402 10.23 13.2402L10.37 13.9402Z" fill="#7692AB"/>
</svg>
