<svg width="36" height="36" viewBox="0 0 36 36" fill="none" xmlns="http://www.w3.org/2000/svg">
<g clip-path="url(#clip0)">
<path d="M28.4171 15.4412C28.1152 15.4412 27.8398 15.241 27.7478 14.9531C27.6584 14.6736 27.7549 14.3591 27.9889 14.1805C28.2163 14.0067 28.5327 13.9898 28.7784 14.1357C29.0267 14.283 29.1612 14.5801 29.1083 14.864C29.0469 15.1937 28.7537 15.4412 28.4171 15.4412Z" fill="#9BB6CD"/>
<path d="M18.9735 17.4358C18.8397 17.3884 18.7132 17.3432 18.5937 17.3001V14.8425C18.9229 14.9326 19.1502 15.0963 19.259 15.2512C19.4821 15.5691 19.9206 15.646 20.2385 15.4229C20.5563 15.1998 20.6332 14.7613 20.4101 14.4434C20.0613 13.9465 19.425 13.5329 18.5937 13.4057V13.2168C18.5937 12.8285 18.2788 12.5137 17.8906 12.5137C17.5022 12.5137 17.1874 12.8285 17.1874 13.2168V13.4603C17.0662 13.4864 16.9428 13.5181 16.8174 13.5558C15.9022 13.8315 15.2114 14.7211 15.1373 15.719C15.0644 16.7032 15.589 17.5588 16.5407 18.0075C16.6811 18.0738 16.9036 18.166 17.1874 18.2764V21.204C16.7804 21.09 16.403 20.8911 16.161 20.5905C15.9173 20.2879 15.4746 20.2405 15.1723 20.4839C14.8698 20.7276 14.8221 21.1702 15.0657 21.4726C15.6066 22.1442 16.4093 22.4993 17.1873 22.6466V22.7824C17.1873 23.1707 17.5021 23.4855 17.8904 23.4855C18.2787 23.4855 18.5936 23.1707 18.5936 22.7824V22.7008C20.2332 22.5062 20.9473 21.4491 21.0672 20.5061C21.234 19.1929 20.3731 17.9304 18.9735 17.4358ZM17.1406 16.7357C16.6067 16.4839 16.5193 16.1005 16.5398 15.823C16.5697 15.4201 16.8452 15.0368 17.1874 14.9141V16.7571C17.17 16.7493 17.1543 16.7421 17.1406 16.7357ZM19.6722 20.3288C19.6095 20.8226 19.2212 21.1606 18.5937 21.2788V18.795C19.4255 19.1273 19.7375 19.8146 19.6722 20.3288Z" fill="#9BB6CD"/>
<path d="M18.0007 28.8639C17.8792 28.8639 17.7577 28.8325 17.649 28.7696L11.7228 25.3462C10.6432 24.7226 9.97266 23.5606 9.97266 22.3138V9.94832C9.97266 9.65279 10.1574 9.38877 10.4351 9.28766L17.76 6.61965C17.9154 6.56298 18.0859 6.56298 18.2413 6.61965L25.5662 9.28766C25.8439 9.38877 26.0287 9.65279 26.0287 9.94832V22.3138C26.0287 23.5607 25.3581 24.7227 24.2785 25.3463L18.3524 28.7697C18.2436 28.8325 18.1222 28.8639 18.0007 28.8639ZM11.3789 10.4405V22.3138C11.3789 23.06 11.7802 23.7553 12.4262 24.1285L18.0007 27.3488L23.5751 24.1285C24.2211 23.7554 24.6224 23.06 24.6224 22.3138V10.4405L18.0007 8.02857L11.3789 10.4405Z" fill="#9BB6CD"/>
<path d="M18.0007 32.4364C17.8792 32.4364 17.7577 32.405 17.649 32.3421L10.1752 28.0247C8.142 26.8502 6.87891 24.6617 6.87891 22.3134V7.78218C6.87891 7.48665 7.06369 7.2227 7.34135 7.12152L17.76 3.32668C17.9154 3.27001 18.0859 3.27001 18.2413 3.32668L28.66 7.12152C28.9376 7.22263 29.1224 7.48665 29.1224 7.78218V11.5468C29.1224 11.9352 28.8075 12.25 28.4193 12.25C28.031 12.25 27.7162 11.9352 27.7162 11.5468V8.27443L18.0007 4.73568L8.28516 8.27443V22.3134C8.28516 24.1611 9.27895 25.883 10.8786 26.8071L18.0007 30.9212L25.1227 26.807C26.7224 25.8829 27.7162 24.1611 27.7162 22.3134V17.904C27.7162 17.5157 28.031 17.2009 28.4193 17.2009C28.8075 17.2009 29.1224 17.5157 29.1224 17.904V22.3134C29.1224 24.6617 27.8593 26.8502 25.8261 28.0247L18.3524 32.3421C18.2436 32.405 18.1222 32.4364 18.0007 32.4364Z" fill="#9BB6CD"/>
<path d="M18.0001 36C17.8786 36 17.7572 35.9686 17.6484 35.9057L8.63152 30.6969C5.64697 28.9728 3.79297 25.7604 3.79297 22.3134V5.62187C3.79297 5.32635 3.97775 5.06232 4.25541 4.96122L17.7594 0.0425039C17.9149 -0.014168 18.0853 -0.014168 18.2408 0.0425039L31.7449 4.96122C32.0225 5.06232 32.2073 5.32635 32.2073 5.62187V22.3134C32.2073 25.7604 30.3533 28.9727 27.3688 30.6969L18.3519 35.9057C18.243 35.9686 18.1216 36 18.0001 36ZM5.19922 6.11413V22.3134C5.19922 25.2598 6.78392 28.0056 9.33493 29.4793L18.0001 34.4849L26.6653 29.4792C29.2163 28.0056 30.801 25.2597 30.801 22.3134V6.11413L18.0001 1.4515L5.19922 6.11413Z" fill="#9BB6CD"/>
</g>
<defs>
<clipPath id="clip0">
<rect width="36" height="36" fill="white"/>
</clipPath>
</defs>
</svg>
