<svg width="58" height="58" viewBox="0 0 58 58" fill="none" xmlns="http://www.w3.org/2000/svg">
<path d="M50.249 5.2002H40.949C36.6742 5.2002 33.1992 8.67861 33.1992 12.9506V22.2506C33.1992 26.522 36.6742 30.0004 40.949 30.0004H50.249C50.7792 30.0004 51.2969 29.9448 51.7992 29.842V36.2006C51.7992 43.0388 46.2376 48.6004 39.3994 48.6004H36.299C34.5848 48.6004 33.1992 49.9894 33.1992 51.7002C33.1992 53.4116 34.5848 54.8006 36.299 54.8006H39.3994C49.657 54.8006 57.9994 46.4582 57.9994 36.2006V12.9506C57.9994 8.67861 54.5244 5.2002 50.249 5.2002Z" fill="#145288"/>
<path d="M17.0498 5.2002H7.74981C3.47501 5.2002 0 8.67861 0 12.9506V22.2506C0 26.522 3.47501 30.0004 7.74981 30.0004H17.0498C17.58 30.0004 18.0976 29.9448 18.6 29.842V36.2006C18.6 43.0388 13.0384 48.6004 6.20019 48.6004H3.09981C1.38558 48.6004 0 49.9894 0 51.7002C0 53.4116 1.38558 54.8006 3.09981 54.8006H6.20019C16.4578 54.8006 24.8002 46.4582 24.8002 36.2006V12.9506C24.8002 8.67861 21.3252 5.2002 17.0498 5.2002Z" fill="#145288"/>
</svg>
