<svg width="37" height="16" viewBox="0 0 37 16" fill="none" xmlns="http://www.w3.org/2000/svg">
<path d="M3.74444 7.09961H2.24444C1.74444 7.19961 1.34444 7.29961 1.04444 7.69961C0.244444 8.59961 0.0444444 10.5996 1.04444 11.3996C1.24444 11.5996 1.44444 11.6996 1.74444 11.7996L0.0444444 14.6996C-0.0555556 14.7996 0.0444444 14.8996 0.0444444 14.8996H0.844444C0.944444 14.8996 1.04444 14.8996 1.04444 14.7996L2.44444 11.9996H2.94444V14.7996C2.94444 14.8996 3.04444 14.8996 3.04444 14.8996H3.64444C3.74444 14.8996 3.74444 14.8996 3.74444 14.7996V7.09961C3.84444 7.09961 3.84444 7.09961 3.74444 7.09961ZM3.04444 11.2996H2.34444C2.04444 11.2996 1.74444 11.0996 1.64444 10.8996C1.04444 10.0996 1.04444 8.69961 1.74444 7.99961C1.84444 7.89961 2.04444 7.79961 2.24444 7.69961H3.04444V11.2996Z" fill="#7692AB"/>
<path d="M4.94375 15.0004H5.64375C5.74375 15.0004 5.74375 15.0004 5.74375 14.9004V12.4004H6.94375V14.8004C6.94375 14.9004 6.94375 14.9004 7.04375 14.9004H7.74375C7.84375 14.9004 7.84375 14.9004 7.84375 14.8004V9.80045C7.84375 9.70045 7.84375 9.70045 7.74375 9.70045H7.04375C6.94375 9.70045 6.94375 9.70045 6.94375 9.80045V11.8004H5.74375V9.80045C5.74375 9.80045 5.74375 9.70045 5.64375 9.70045H4.94375L4.84375 9.80045L4.94375 15.0004ZM11.9437 14.3004H11.7437C11.6437 14.3004 11.6438 14.2004 11.6438 14.1005V9.70045C11.6438 9.70045 11.6437 9.60045 11.5437 9.60045H9.44375C9.44375 9.60045 9.34375 9.60045 9.34375 9.70045C9.34375 11.6004 9.24375 13.2004 8.54375 14.2004H8.34375C8.34375 14.2004 8.24375 14.2004 8.24375 14.3004V15.8004C8.24375 15.8004 8.24375 15.9004 8.34375 15.9004H8.84375C8.94375 15.9004 8.94375 15.9004 8.94375 15.8004V15.0004H11.1438V15.9004C11.1438 16.0004 11.1437 16.0004 11.2437 16.0004H11.8438C11.9437 16.0004 11.9437 16.0004 11.9437 15.9004V14.3004C12.0437 14.3004 11.9437 14.3004 11.9437 14.3004ZM10.7437 14.3004H9.34375C9.94375 13.2004 10.1438 11.9004 10.1438 10.4004H10.8438L10.7437 14.3004ZM15.2437 14.2004C13.8438 14.6004 13.3438 13.9004 13.3438 12.4004C13.9438 12.5004 14.7437 12.5004 15.5437 12.4004C15.5437 11.7004 15.4438 11.0004 15.3438 10.6004C14.9438 9.20045 13.5437 9.30045 13.0437 10.1004C12.7437 10.5004 12.5437 11.3004 12.5437 12.0004C12.3438 14.8004 13.9437 15.5005 15.5437 14.6005C15.4437 14.6005 15.3438 14.4004 15.2437 14.2004C15.3438 14.2004 15.2437 14.2004 15.2437 14.2004ZM13.4437 10.9004C13.7437 10.0004 14.2437 10.0004 14.5437 10.9004C14.6438 11.2004 14.6438 11.5004 14.6438 11.9004C14.2438 11.9004 13.8438 11.9004 13.3438 11.9004C13.3438 11.4004 13.3437 11.1004 13.4437 10.9004ZM16.3437 9.80045C16.3437 9.70045 16.3437 9.70045 16.4437 9.70045H17.0437C17.1438 9.70045 17.1438 9.70045 17.1438 9.80045V12.1005C17.3438 12.0005 17.8438 10.8004 18.2438 9.90045C18.3438 9.80045 18.4437 9.70045 18.5437 9.70045H19.1438C19.2438 9.70045 19.2438 9.70045 19.1438 9.80045L17.8437 12.0004C18.3437 13.0004 19.2437 14.8004 19.3437 14.9004H18.5437C18.4437 14.9004 18.3437 14.8004 18.3437 14.8004L17.0437 12.2004V14.8004C17.0437 14.9004 17.0437 14.9004 16.9437 14.9004H16.2438C16.2438 14.9004 16.1438 14.9004 16.1438 14.8004L16.3437 9.80045ZM22.0438 10.5004L22.3438 10.0004C22.3438 9.90045 22.3438 9.90045 22.2438 9.80045C21.8438 9.50045 21.0438 9.40045 20.6438 9.70045C20.4438 9.80045 20.3438 9.90045 20.2438 10.1004C19.7438 10.7004 19.6438 11.5004 19.5437 12.3004C19.5437 13.2004 19.6438 14.1004 20.2438 14.7004C20.6438 15.1004 21.5438 15.2004 22.2438 14.8004C22.3438 14.7004 22.4437 14.7004 22.4437 14.6005L22.3438 14.3004C22.3438 14.2004 22.2437 14.2004 22.1437 14.2004C21.7437 14.4004 21.2437 14.4005 20.9437 14.1005C20.3437 13.6005 20.2437 12.5004 20.3437 11.9004C20.4437 11.4004 20.5438 10.4004 21.0438 10.2004C21.2438 10.1004 21.5438 10.3004 21.8438 10.5004C21.9438 10.6004 21.9438 10.6004 22.0438 10.5004Z" fill="#7692AB"/>
<path d="M34.6445 7.5V12.3L27.3445 14.7L33.1445 10.7V7.5V2L26.9445 7C26.4445 7.4 26.1445 7.9 26.1445 8.4V14.5C26.1445 15 26.4445 15.3 26.9445 15.4H36.2445V7.5H34.6445ZM30.4445 7.4C31.3445 6.3 32.2445 7.2 31.4445 8.2C30.4445 9.1 29.8445 8.2 30.4445 7.4Z" fill="#7692AB"/>
</svg>
