<svg width="26" height="26" viewBox="0 0 26 26" fill="none" xmlns="http://www.w3.org/2000/svg">
<path d="M13 0C20.2 0 26 5.8 26 13C26 20.2 20.2 26 13 26C5.8 26 0 20.2 0 13C0 5.8 5.8 0 13 0Z" fill="#F01010"/>
<path d="M11.4008 16.9004C11.9008 16.8004 12.2008 16.7004 12.4008 16.6004C12.5008 16.4004 12.6008 16.0004 12.6008 15.4004V10.4004C12.6008 10.0004 12.5008 9.70039 12.4008 9.50039C12.3008 9.40039 11.9008 9.30039 11.4008 9.30039V8.90039H13.8008L16.7008 15.1004L19.4008 8.90039H21.9008V9.10039C21.4008 9.10039 21.1008 9.20039 21.0008 9.40039C20.9008 9.50039 20.8008 9.80039 20.8008 10.3004V15.8004C20.8008 16.2004 20.9008 16.5004 21.0008 16.7004C21.1008 16.8004 21.4008 16.9004 21.9008 16.9004V17.1004H18.4008V16.9004C18.9008 16.9004 19.2008 16.8004 19.3008 16.6004C19.4008 16.5004 19.5008 16.1004 19.5008 15.6004V10.1004L16.3008 17.1004H16.1008L13.0008 10.4004V15.3004C13.0008 16.0004 13.1008 16.4004 13.3008 16.6004C13.4008 16.7004 13.7008 16.8004 14.2008 16.9004V17.1004H11.3008V16.9004H11.4008Z" fill="white"/>
<path d="M6.99922 15.7008V13.9008C6.59922 13.9008 6.09922 13.9008 5.79922 13.8008V15.5008C5.79922 16.0008 5.69922 16.3008 5.59922 16.5008C5.49922 16.6008 5.19922 16.7008 4.69922 16.8008V17.0008H8.19922V16.8008C7.69922 16.8008 7.39922 16.7008 7.19922 16.6008C7.09922 16.5008 6.99922 16.2008 6.99922 15.7008Z" fill="white"/>
<path d="M10.4 9.50039C9.8 9.10039 9 8.90039 8 8.90039H4.7V9.10039C5.1 9.10039 5.4 9.20039 5.6 9.40039C5.7 9.50039 5.8 9.80039 5.8 10.2004V13.0004C6.2 13.0004 6.6 13.0004 7 13.0004V9.80039C7 9.60039 7 9.50039 7.1 9.50039C7.2 9.40039 7.3 9.40039 7.6 9.40039C8.1 9.40039 8.6 9.50039 8.9 9.60039C9.6 9.90039 9.9 10.4004 9.9 11.2004C9.9 11.7004 9.8 12.1004 9.6 12.3004C8.1 14.0004 3.5 13.0004 3.5 13.0004C3.5 13.0004 6.2 14.0004 9 13.4004C9.6 13.3004 10.2 13.0004 10.5 12.7004C10.9 12.3004 11.1 11.8004 11.1 11.1004C11.2 10.5004 10.9 9.90039 10.4 9.50039Z" fill="white"/>
</svg>
