<svg width="258" height="149" viewBox="0 0 258 149" fill="none" xmlns="http://www.w3.org/2000/svg">
<rect x="252" y="8" width="6" height="141" rx="3" fill="url(#paint0_linear)"/>
<rect x="240" y="24" width="6" height="125" rx="3" fill="url(#paint1_linear)"/>
<rect x="228" y="40" width="6" height="109" rx="3" fill="url(#paint2_linear)"/>
<rect x="216" y="46" width="6" height="103" rx="3" fill="url(#paint3_linear)"/>
<rect x="204" y="33" width="6" height="116" rx="3" fill="url(#paint4_linear)"/>
<rect x="192" y="20" width="6" height="129" rx="3" fill="url(#paint5_linear)"/>
<rect x="180" y="8" width="6" height="141" rx="3" fill="url(#paint6_linear)"/>
<rect x="168" y="18" width="6" height="131" rx="3" fill="url(#paint7_linear)"/>
<rect x="156" y="28" width="6" height="121" rx="3" fill="url(#paint8_linear)"/>
<rect x="144" y="29" width="6" height="120" rx="3" fill="url(#paint9_linear)"/>
<rect x="132" y="15" width="6" height="134" rx="3" fill="url(#paint10_linear)"/>
<rect x="120" width="6" height="149" rx="3" fill="url(#paint11_linear)"/>
<rect x="108" y="1" width="6" height="148" rx="3" fill="url(#paint12_linear)"/>
<rect x="96" y="22" width="6" height="127" rx="3" fill="url(#paint13_linear)"/>
<rect x="84" y="42" width="6" height="107" rx="3" fill="url(#paint14_linear)"/>
<rect x="72" y="61" width="6" height="88" rx="3" fill="url(#paint15_linear)"/>
<rect x="60" y="59" width="6" height="90" rx="3" fill="url(#paint16_linear)"/>
<rect x="48" y="49" width="6" height="100" rx="3" fill="url(#paint17_linear)"/>
<rect x="36" y="41" width="6" height="108" rx="3" fill="url(#paint18_linear)"/>
<rect x="24" y="42" width="6" height="107" rx="3" fill="url(#paint19_linear)"/>
<rect x="12" y="48" width="6" height="101" rx="3" fill="url(#paint20_linear)"/>
<rect y="54" width="6" height="95" rx="3" fill="url(#paint21_linear)"/>
<defs>
<linearGradient id="paint0_linear" x1="255" y1="8" x2="255" y2="149" gradientUnits="userSpaceOnUse">
<stop stop-color="#FAA338"/>
<stop offset="1" stop-color="#FAA338" stop-opacity="0"/>
</linearGradient>
<linearGradient id="paint1_linear" x1="243" y1="24" x2="243" y2="149" gradientUnits="userSpaceOnUse">
<stop stop-color="#FAA338"/>
<stop offset="1" stop-color="#FAA338" stop-opacity="0"/>
</linearGradient>
<linearGradient id="paint2_linear" x1="231" y1="40" x2="231" y2="149" gradientUnits="userSpaceOnUse">
<stop stop-color="#FAA338"/>
<stop offset="1" stop-color="#FAA338" stop-opacity="0"/>
</linearGradient>
<linearGradient id="paint3_linear" x1="219" y1="46" x2="219" y2="149" gradientUnits="userSpaceOnUse">
<stop stop-color="#FAA338"/>
<stop offset="1" stop-color="#FAA338" stop-opacity="0"/>
</linearGradient>
<linearGradient id="paint4_linear" x1="207" y1="33" x2="207" y2="149" gradientUnits="userSpaceOnUse">
<stop stop-color="#FAA338"/>
<stop offset="1" stop-color="#FAA338" stop-opacity="0"/>
</linearGradient>
<linearGradient id="paint5_linear" x1="195" y1="20" x2="195" y2="149" gradientUnits="userSpaceOnUse">
<stop stop-color="#FAA338"/>
<stop offset="1" stop-color="#FAA338" stop-opacity="0"/>
</linearGradient>
<linearGradient id="paint6_linear" x1="183" y1="8" x2="183" y2="149" gradientUnits="userSpaceOnUse">
<stop stop-color="#FAA338"/>
<stop offset="1" stop-color="#FAA338" stop-opacity="0"/>
</linearGradient>
<linearGradient id="paint7_linear" x1="171" y1="18" x2="171" y2="149" gradientUnits="userSpaceOnUse">
<stop stop-color="#FAA338"/>
<stop offset="1" stop-color="#FAA338" stop-opacity="0"/>
</linearGradient>
<linearGradient id="paint8_linear" x1="159" y1="28" x2="159" y2="149" gradientUnits="userSpaceOnUse">
<stop stop-color="#FAA338"/>
<stop offset="1" stop-color="#FAA338" stop-opacity="0"/>
</linearGradient>
<linearGradient id="paint9_linear" x1="147" y1="29" x2="147" y2="149" gradientUnits="userSpaceOnUse">
<stop stop-color="#FAA338"/>
<stop offset="1" stop-color="#FAA338" stop-opacity="0"/>
</linearGradient>
<linearGradient id="paint10_linear" x1="135" y1="15" x2="135" y2="149" gradientUnits="userSpaceOnUse">
<stop stop-color="#FAA338"/>
<stop offset="1" stop-color="#FAA338" stop-opacity="0"/>
</linearGradient>
<linearGradient id="paint11_linear" x1="123" y1="0" x2="123" y2="149" gradientUnits="userSpaceOnUse">
<stop stop-color="#FAA338"/>
<stop offset="1" stop-color="#FAA338" stop-opacity="0"/>
</linearGradient>
<linearGradient id="paint12_linear" x1="111" y1="1" x2="111" y2="149" gradientUnits="userSpaceOnUse">
<stop stop-color="#FAA338"/>
<stop offset="1" stop-color="#FAA338" stop-opacity="0"/>
</linearGradient>
<linearGradient id="paint13_linear" x1="99" y1="22" x2="99" y2="149" gradientUnits="userSpaceOnUse">
<stop stop-color="#FAA338"/>
<stop offset="1" stop-color="#FAA338" stop-opacity="0"/>
</linearGradient>
<linearGradient id="paint14_linear" x1="87" y1="42" x2="87" y2="149" gradientUnits="userSpaceOnUse">
<stop stop-color="#FAA338"/>
<stop offset="1" stop-color="#FAA338" stop-opacity="0"/>
</linearGradient>
<linearGradient id="paint15_linear" x1="75" y1="61" x2="75" y2="149" gradientUnits="userSpaceOnUse">
<stop stop-color="#FAA338"/>
<stop offset="1" stop-color="#FAA338" stop-opacity="0"/>
</linearGradient>
<linearGradient id="paint16_linear" x1="63" y1="59" x2="63" y2="149" gradientUnits="userSpaceOnUse">
<stop stop-color="#FAA338"/>
<stop offset="1" stop-color="#FAA338" stop-opacity="0"/>
</linearGradient>
<linearGradient id="paint17_linear" x1="51" y1="49" x2="51" y2="149" gradientUnits="userSpaceOnUse">
<stop stop-color="#FAA338"/>
<stop offset="1" stop-color="#FAA338" stop-opacity="0"/>
</linearGradient>
<linearGradient id="paint18_linear" x1="39" y1="41" x2="39" y2="149" gradientUnits="userSpaceOnUse">
<stop stop-color="#FAA338"/>
<stop offset="1" stop-color="#FAA338" stop-opacity="0"/>
</linearGradient>
<linearGradient id="paint19_linear" x1="27" y1="42" x2="27" y2="149" gradientUnits="userSpaceOnUse">
<stop stop-color="#FAA338"/>
<stop offset="1" stop-color="#FAA338" stop-opacity="0"/>
</linearGradient>
<linearGradient id="paint20_linear" x1="15" y1="48" x2="15" y2="149" gradientUnits="userSpaceOnUse">
<stop stop-color="#FAA338"/>
<stop offset="1" stop-color="#FAA338" stop-opacity="0"/>
</linearGradient>
<linearGradient id="paint21_linear" x1="3" y1="54" x2="3" y2="149" gradientUnits="userSpaceOnUse">
<stop stop-color="#FAA338"/>
<stop offset="1" stop-color="#FAA338" stop-opacity="0"/>
</linearGradient>
</defs>
</svg>
