<svg width="42" height="31" viewBox="0 0 42 31" fill="none" xmlns="http://www.w3.org/2000/svg">
<path d="M15.8184 14.76C15.8184 15.8164 15.7102 16.3435 14.9537 16.3435C14.1652 16.3435 14.0398 15.8635 14.0398 14.9057V6.47669H7.91227V16.3767C7.91227 18.0985 8.32156 19.5161 9.28157 20.6314C10.2405 21.7457 11.4244 22.3029 12.9062 22.3029C13.908 22.3029 14.913 21.9911 15.9577 21.3653C15.3823 23.5725 14.0891 24.6761 12.1498 24.6761C11.5423 24.6761 10.9627 24.5047 10.0048 24.1586C10.0048 24.1586 9.09835 23.8672 7.91227 23.1675V28.3104C7.91227 28.3104 9.093 29.0604 10.0048 29.4086C11.1234 29.8393 12.2227 30.0547 13.3316 30.0547C15.857 30.0547 17.9698 29.0743 19.7495 27.1157C21.2409 25.4679 21.947 23.3036 21.947 20.6228V6.47776H15.8184V14.761V14.76ZM29.7138 0.130578C22.4409 0.794868 22.9359 8.67206 22.9359 8.67206V22.4475C26.8895 22.4475 28.8653 20.5243 28.8653 17.8618V16.0628H31.7817V10.0724H28.8653V9.27099C28.8653 8.33456 29.1106 7.61348 29.521 7.10669C29.9228 6.61276 30.5088 6.36097 31.2406 6.35026C31.7281 6.35562 32.6249 6.51955 32.8049 7.23205L32.8189 7.28777V13.5342C32.8189 15.8271 33.2453 17.6689 34.1624 19.0575C34.8844 20.148 35.8713 21.0376 37.0307 21.6429C38.2033 22.2718 39.5143 22.5984 40.845 22.5932C40.9939 22.5932 41.265 22.5889 41.5157 22.5771V16.231C40.2621 16.231 39.7253 15.9964 39.3257 15.511C38.926 15.0267 38.7332 14.0678 38.7332 12.8689H40.8664V6.47669H38.8457C38.4653 4.07989 37.0457 0.469152 31.7753 0.0673638C31.7753 0.0673638 31.1517 0.0437922 30.6621 0.0609352C30.2806 0.0748638 29.7138 0.130578 29.7138 0.130578ZM8.9955 21.9493L8.99978 21.96C8.35266 22.347 7.65391 22.6403 6.92441 22.8311V22.8632L6.90298 22.8343C6.55249 22.9145 6.1943 22.9561 5.83476 22.9586C4.34118 22.9586 3.14546 22.3971 2.17795 21.2732C1.21045 20.1482 0.796875 18.7178 0.796875 16.981V0.470223H6.92441V16.981C6.92441 18.7189 7.3337 20.1493 8.30121 21.2732C8.51228 21.5196 8.74478 21.7457 8.9955 21.9493Z" fill="#9BA2AA"/>
</svg>
