<svg width="52" height="52" viewBox="0 0 52 52" fill="none" xmlns="http://www.w3.org/2000/svg">
<path d="M45.8313 40.6607C45.6266 40.0335 45.0422 39.6094 44.3828 39.6094H26.1016C25.4422 39.6094 24.8578 40.0335 24.6531 40.6607L21.949 48.9531H20.0078C19.1664 48.9531 18.4844 49.6351 18.4844 50.4766C18.4844 51.318 19.1664 52 20.0078 52H50.4766C51.318 52 52 51.318 52 50.4766C52 49.6351 51.318 48.9531 50.4766 48.9531H48.5354L45.8313 40.6607ZM27.2072 42.6562H43.2771L45.3306 48.9531H25.1538L27.2072 42.6562Z" fill="#FAA338"/>
<path d="M4.57031 21.3281H27.625V30.4688H26.1016C25.2601 30.4688 24.5781 31.1507 24.5781 31.9922C24.5781 32.8336 25.2601 33.5156 26.1016 33.5156H44.3828C45.2243 33.5156 45.9062 32.8336 45.9062 31.9922C45.9062 31.1507 45.2243 30.4688 44.3828 30.4688H42.8594V3.04688H44.3828C45.2243 3.04688 45.9062 2.3649 45.9062 1.52344C45.9062 0.681976 45.2243 0 44.3828 0H26.1016C25.2601 0 24.5781 0.681976 24.5781 1.52344C24.5781 2.3649 25.2601 3.04688 26.1016 3.04688H27.625V12.1875H4.57031C2.05029 12.1875 0 14.2378 0 16.7578C0 19.2778 2.05029 21.3281 4.57031 21.3281ZM39.8125 24.375H30.6719V9.14062H39.8125V24.375ZM30.6719 30.4688V27.4219H39.8125V30.4688H30.6719ZM39.8125 3.04688V6.09375H30.6719V3.04688H39.8125ZM27.625 18.2812H21.5312V15.2344H27.625V18.2812ZM4.57031 15.2344H18.4844V18.2812H4.57031C3.73044 18.2812 3.04688 17.5977 3.04688 16.7578C3.04688 15.9179 3.73044 15.2344 4.57031 15.2344Z" fill="#FAA338"/>
</svg>
