<svg width="66" height="66" viewBox="0 0 66 66" fill="none" xmlns="http://www.w3.org/2000/svg">
<path d="M38.2255 33.5494C41.3422 33.5494 43.9089 30.9827 43.9089 27.8661C43.9089 26.8577 43.7255 25.9411 43.2672 25.1161L57.3839 10.9994C58.2089 11.4577 59.1255 11.6411 60.1339 11.7327C63.2505 11.7327 65.8172 9.16608 65.8172 6.04941C65.8172 4.49108 65.2672 3.11608 64.1672 2.01608C63.0672 0.916081 61.6922 0.274414 60.1339 0.274414C57.0172 0.274414 54.4505 2.84108 54.4505 5.95775C54.4505 6.87441 54.6339 7.88275 55.0922 8.70775L40.8839 22.7327C40.0589 22.2744 39.1422 22.0911 38.2255 22.0911C37.3089 22.0911 36.3922 22.3661 35.5672 22.7327L29.7922 16.9577C30.2505 16.1327 30.4339 15.2161 30.4339 14.2994C30.4339 11.1827 27.9589 8.52441 24.7505 8.52441C21.6339 8.52441 19.0672 11.0911 19.0672 14.2077C19.0672 15.2161 19.2505 16.1327 19.7089 16.9577L8.70885 27.9577C7.88385 27.4994 6.96719 27.3161 6.05052 27.3161C2.93385 27.3161 0.367188 29.8827 0.367188 32.9994C0.367188 34.5578 0.917188 35.9328 2.01719 37.0327C3.11719 38.1328 4.49219 38.7744 6.05052 38.7744C9.16719 38.7744 11.7339 36.2077 11.7339 33.0911C11.7339 32.0827 11.5505 31.1661 11.0922 30.3411L22.0922 19.3411C22.9172 19.7994 23.8339 19.9827 24.7505 19.9827C25.6672 19.9827 26.5839 19.7077 27.4089 19.3411L33.1839 25.1161C32.7255 25.9411 32.5422 26.8577 32.5422 27.7744C32.4505 30.8911 35.0172 33.4577 38.2255 33.5494ZM5.86719 36.1161V35.3827C5.22552 35.3827 4.58385 35.1077 4.12552 34.6494C3.66719 34.1911 3.39219 33.5494 3.39219 32.9077C3.39219 31.6244 4.49219 30.5244 5.86719 30.5244C7.15052 30.5244 8.25052 31.6244 8.25052 32.9994C8.25052 34.2827 7.15052 35.3827 5.86719 35.3827V36.1161ZM24.6589 17.4161V16.6827C24.0172 16.6827 23.3755 16.4077 22.9172 15.9494C22.4589 15.4911 22.1839 14.8494 22.1839 14.2077C22.1839 12.9244 23.2839 11.8244 24.6589 11.8244C25.3005 11.8244 25.9422 12.0994 26.4005 12.5577C26.8589 13.0161 27.1339 13.6577 27.1339 14.2994C27.1339 15.5827 26.0339 16.6827 24.7505 16.6827V17.4161H24.6589ZM60.1339 2.74941V3.48275C60.7755 3.48275 61.4172 3.75775 61.8755 4.21608C62.3339 4.67441 62.6089 5.31608 62.6089 5.95775C62.6089 7.24108 61.5089 8.34108 60.1339 8.34108C59.4922 8.34108 58.8505 8.06608 58.3922 7.60775C57.9339 7.14941 57.6589 6.50775 57.6589 5.86608C57.6589 4.58275 58.7589 3.48275 60.0422 3.48275V2.74941H60.1339ZM36.4839 29.5161C36.0255 29.0577 35.7505 28.4161 35.7505 27.7744C35.7505 26.4911 36.8505 25.3911 38.2255 25.3911C38.8672 25.3911 39.5089 25.6661 39.9672 26.1244C40.4255 26.5827 40.7005 27.2244 40.7005 27.8661C40.7005 29.1494 39.6005 30.2494 38.2255 30.2494C37.5839 30.1577 36.9422 29.9744 36.4839 29.5161Z" fill="#7AB9F0"/>
<path d="M52.9844 65.8156H65.8177V19.1572H52.9844V65.8156ZM62.5177 22.4572V62.5156H56.376V22.4572H62.5177Z" fill="#7AB9F0"/>
<path d="M35.3828 65.8162H48.2161V38.1328H35.3828V65.8162ZM44.9161 41.4328V62.5161H38.7745V41.4328H44.9161Z" fill="#7AB9F0"/>
<path d="M17.7852 65.8162H30.6185V36.7578H17.7852V65.8162ZM27.3185 40.0578V62.5162H21.0852V40.0578H27.3185Z" fill="#7AB9F0"/>
<path d="M0.183594 65.816H13.0169V43.541H0.183594V65.816ZM9.62526 46.841V62.516H3.48359V46.841H9.62526Z" fill="#7AB9F0"/>
</svg>
