<svg width="36" height="36" viewBox="0 0 36 36" fill="none" xmlns="http://www.w3.org/2000/svg">
<g clip-path="url(#clip0)">
<path d="M18.0102 32.3134C17.7124 32.3134 17.4404 32.1183 17.345 31.8363C17.2526 31.5628 17.3399 31.2501 17.5642 31.0669C17.7948 30.8785 18.1283 30.8565 18.3812 31.0136C18.6271 31.1663 18.7572 31.4637 18.6999 31.7481C18.6345 32.0727 18.3414 32.3134 18.0102 32.3134V32.3134Z" fill="#9BB6CD"/>
<path d="M33.1992 3.6875H2.80083C1.25648 3.6875 0 4.94398 0 6.48833V29.5125C0 31.0569 1.25648 32.3133 2.80083 32.3133H14.8215C15.2098 32.3133 15.5246 31.9986 15.5246 31.6102C15.5246 31.2219 15.2098 30.9071 14.8215 30.9071H2.80083C2.03182 30.9071 1.40625 30.2815 1.40625 29.5125V13.9624C1.40625 13.1935 2.03182 12.5678 2.80083 12.5678H33.1992C33.9682 12.5678 34.5938 13.1935 34.5938 13.9624V29.5125C34.5938 30.2815 33.9682 30.9071 33.1992 30.9071H21.1786C20.7903 30.9071 20.4755 31.2219 20.4755 31.6102C20.4755 31.9986 20.7903 32.3133 21.1786 32.3133H33.1992C34.7435 32.3133 36 31.0569 36 29.5125V6.48833C36 4.94398 34.7435 3.6875 33.1992 3.6875V3.6875ZM2.80083 5.09375H33.1992C33.9682 5.09375 34.5938 5.71932 34.5938 6.48833V7.7761C34.1828 7.53922 33.7065 7.40359 33.1992 7.40359H2.80083C2.29345 7.40359 1.81716 7.53922 1.40625 7.7761V6.48833C1.40625 5.71939 2.03182 5.09375 2.80083 5.09375ZM33.1992 11.1616H2.80083C2.29345 11.1616 1.81716 11.2972 1.40625 11.5341V10.2044C1.40625 9.43541 2.03182 8.80984 2.80083 8.80984H33.1992C33.9682 8.80984 34.5938 9.43541 34.5938 10.2044V11.5341C34.1828 11.2972 33.7065 11.1616 33.1992 11.1616Z" fill="#9BB6CD"/>
<path d="M18.0002 26.4799C15.3853 26.4799 13.2578 24.3525 13.2578 21.7375C13.2578 19.1226 15.3852 16.9951 18.0002 16.9951C20.6152 16.9951 22.7425 19.1225 22.7425 21.7375C22.7425 24.3524 20.6151 26.4799 18.0002 26.4799ZM18.0002 18.4014C16.1607 18.4014 14.6641 19.898 14.6641 21.7375C14.6641 23.577 16.1607 25.0736 18.0002 25.0736C19.8397 25.0736 21.3363 23.577 21.3363 21.7375C21.3363 19.898 19.8397 18.4014 18.0002 18.4014Z" fill="#9BB6CD"/>
<path d="M28.3255 29.2191H7.67454C7.2862 29.2191 6.97141 28.9044 6.97141 28.516C6.97141 26.7656 5.5473 25.3415 3.79688 25.3415C3.40854 25.3415 3.09375 25.0267 3.09375 24.6384V18.8357C3.09375 18.4473 3.40854 18.1325 3.79688 18.1325C5.5473 18.1325 6.97141 16.7084 6.97141 14.958C6.97141 14.5697 7.2862 14.2549 7.67454 14.2549H28.3255C28.7138 14.2549 29.0286 14.5697 29.0286 14.958C29.0286 16.7084 30.4527 18.1325 32.2031 18.1325C32.5915 18.1325 32.9062 18.4473 32.9062 18.8357V24.6384C32.9062 25.0267 32.5915 25.3415 32.2031 25.3415C30.4527 25.3415 29.0286 26.7656 29.0286 28.516C29.0286 28.9044 28.7138 29.2191 28.3255 29.2191ZM8.3238 27.8129H27.6762C27.9801 25.8491 29.5362 24.293 31.5 23.9891V19.4849C29.5362 19.181 27.9802 17.6249 27.6762 15.6611H8.3238C8.01991 17.6249 6.46383 19.181 4.5 19.4849V23.9891C6.46383 24.293 8.01991 25.8491 8.3238 27.8129Z" fill="#9BB6CD"/>
</g>
<defs>
<clipPath id="clip0">
<rect width="36" height="36" fill="white"/>
</clipPath>
</defs>
</svg>
