<svg width="52" height="52" viewBox="0 0 52 52" fill="none" xmlns="http://www.w3.org/2000/svg">
<path d="M50.4766 0H1.52344C0.681976 0 0 0.681976 0 1.52344V41.2344C0 42.0758 0.681976 42.7578 1.52344 42.7578H20.8469L18.8045 48.9531H13.8125C12.971 48.9531 12.2891 49.6351 12.2891 50.4766C12.2891 51.318 12.971 52 13.8125 52H38.1875C39.029 52 39.7109 51.318 39.7109 50.4766C39.7109 49.6351 39.029 48.9531 38.1875 48.9531H33.1955L31.1531 42.7578H50.4766C51.318 42.7578 52 42.0758 52 41.2344V1.52344C52 0.681976 51.318 0 50.4766 0ZM48.9531 3.04688V30.4688H3.04688V3.04688H48.9531ZM29.9875 48.9531H22.0125L24.0552 42.7578H27.9452L29.9875 48.9531ZM3.04688 39.7109V33.5156H48.9531V39.7109C46.6612 39.7109 4.38147 39.7109 3.04688 39.7109Z" fill="#FAA338"/>
<path d="M13.8125 15.2344H21.4297V18.2812H19.9062C19.0648 18.2812 18.3828 18.9632 18.3828 19.8047C18.3828 20.6461 19.0648 21.3281 19.9062 21.3281H32.0937C32.9352 21.3281 33.6172 20.6461 33.6172 19.8047C33.6172 18.9632 32.9352 18.2812 32.0937 18.2812H30.5703V9.14062H32.0937C32.9352 9.14062 33.6172 8.45865 33.6172 7.61719C33.6172 6.77573 32.9352 6.09375 32.0937 6.09375H19.9062C19.0648 6.09375 18.3828 6.77573 18.3828 7.61719C18.3828 8.45865 19.0648 9.14062 19.9062 9.14062H21.4297V12.1875H13.8125C12.971 12.1875 12.2891 12.8695 12.2891 13.7109C12.2891 14.5524 12.971 15.2344 13.8125 15.2344ZM27.5234 9.14062V18.2812H24.4766V9.14062H27.5234Z" fill="#FAA338"/>
<path d="M32.0937 24.375H19.9062C19.0648 24.375 18.3828 25.057 18.3828 25.8984C18.3828 26.7399 19.0648 27.4219 19.9062 27.4219H32.0937C32.9352 27.4219 33.6172 26.7399 33.6172 25.8984C33.6172 25.057 32.9352 24.375 32.0937 24.375Z" fill="#FAA338"/>
</svg>
