<svg width="100" height="100" viewBox="0 0 100 100" fill="none" xmlns="http://www.w3.org/2000/svg">
<circle cx="50" cy="50" r="49.5" fill="#FFF9F0" stroke="#FFE9CE"/>
<circle cx="50" cy="50" r="37" fill="url(#paint0_linear)"/>
<g clip-path="url(#clip0)">
<circle cx="50" cy="51" r="14" fill="#FA9113"/>
<path d="M58.8394 36.2299L62.4661 39.2333C62.6928 39.4599 63.0328 39.5166 63.3161 39.5166C63.7128 39.5166 64.0528 39.3466 64.3361 39.0633C64.7894 38.4966 64.7328 37.6466 64.1661 37.1933L60.5394 34.1899C59.9728 33.7366 59.1228 33.7933 58.6694 34.3599C58.1594 34.9266 58.2728 35.7766 58.8394 36.2299Z" fill="white"/>
<path d="M36.3418 39.5732C36.6251 39.5732 36.9651 39.4599 37.1918 39.2899L40.8184 36.2866C41.3851 35.8332 41.4418 34.9832 40.9884 34.4166C40.5351 33.8499 39.6851 33.7932 39.1184 34.2466L35.4918 37.1932C34.9251 37.6466 34.8684 38.4966 35.3218 39.0632C35.5484 39.4032 35.9451 39.5732 36.3418 39.5732Z" fill="white"/>
<path d="M60.8795 40.2533C58.2161 37.59 54.8161 36.0033 51.1328 35.72V34.3033C51.1328 33.5667 50.5661 33 49.8295 33C49.0928 33 48.5261 33.5667 48.5261 34.3033V35.6633C44.8428 35.9467 41.4428 37.5333 38.7795 40.1967C35.7761 43.2 34.1328 47.1667 34.1328 51.3033C34.1328 55.44 35.7761 59.4067 38.7228 62.41C41.6695 65.3567 45.6361 67 49.8295 67C53.1728 67 56.4028 65.9233 59.1228 63.94C59.6895 63.4867 59.8595 62.6933 59.4061 62.07C58.9528 61.5033 58.1595 61.3333 57.5361 61.7867C55.2695 63.43 52.6061 64.3367 49.8295 64.3367C42.6328 64.3367 36.7961 58.5 36.7961 51.3033C36.7961 44.1067 42.6328 38.27 49.8295 38.27C57.0261 38.27 62.8628 44.1067 62.8628 51.3033C62.8628 53.5133 62.2961 55.6667 61.2761 57.5933C60.9361 58.2167 61.1628 59.0667 61.7861 59.4067C62.4095 59.7467 63.2595 59.52 63.5995 58.8967C64.8461 56.5733 65.5261 53.9667 65.5261 51.36C65.4695 47.1667 63.8261 43.2 60.8795 40.2533Z" fill="white"/>
<path d="M56.2913 43.313C55.7246 42.8596 54.8746 42.9163 54.4213 43.483L50.228 48.6396C50.1146 48.6396 49.9446 48.583 49.8313 48.583C48.358 48.583 47.168 49.773 47.168 51.2463C47.168 52.7196 48.358 53.9096 49.8313 53.9096C51.3046 53.9096 52.4946 52.7196 52.4946 51.2463C52.4946 50.9063 52.438 50.5663 52.3246 50.283L56.518 45.1263C56.9146 44.6163 56.858 43.7663 56.2913 43.313Z" fill="white"/>
</g>
<defs>
<linearGradient id="paint0_linear" x1="-30" y1="49.9994" x2="87" y2="49.9994" gradientUnits="userSpaceOnUse">
<stop stop-color="#FFD364"/>
<stop offset="1" stop-color="#FAA136"/>
</linearGradient>
<clipPath id="clip0">
<rect x="33" y="33" width="34" height="34" fill="white"/>
</clipPath>
</defs>
</svg>
