<svg width="14" height="9" viewBox="0 0 14 9" fill="none" xmlns="http://www.w3.org/2000/svg">
<path d="M12.7403 0.300558C12.5529 0.114307 12.2995 0.00976563 12.0353 0.00976562C11.7711 0.00976563 11.5176 0.114307 11.3303 0.300558L5.38029 6.00056L2.70029 3.44056C2.50933 3.25491 2.25244 3.15272 1.98614 3.15647C1.71984 3.16022 1.46594 3.2696 1.28029 3.46056C1.09463 3.65151 0.992443 3.9084 0.996193 4.1747C0.999944 4.441 1.10933 4.69491 1.30029 4.88056L4.69029 8.16056C4.87675 8.3408 5.12595 8.44155 5.38529 8.44155C5.64462 8.44155 5.89382 8.3408 6.08029 8.16056L12.7203 1.72056C12.8153 1.62892 12.8913 1.51937 12.9438 1.39823C12.9963 1.27708 13.0243 1.14674 13.0261 1.01473C13.028 0.88271 13.0037 0.751632 12.9546 0.629057C12.9056 0.506482 12.8327 0.394835 12.7403 0.300558Z" fill="#0B3B65"/>
</svg>
