<svg width="620" height="495" viewBox="0 0 620 495" fill="none" xmlns="http://www.w3.org/2000/svg">
<g filter="url(#filter0_d)">
<rect x="60" y="74" width="500" height="357" rx="14" fill="white"/>
</g>
<g filter="url(#filter1_d)">
<rect x="14.0039" y="4" width="585" height="427" rx="14" fill="white"/>
</g>
<path d="M67.8586 141.472H66.9609V393.575H67.8586V141.472Z" fill="url(#paint0_linear)"/>
<path d="M121.124 141.472H120.226V393.575H121.124V141.472Z" fill="url(#paint1_linear)"/>
<path d="M174.092 141.472H173.195V393.575H174.092V141.472Z" fill="url(#paint2_linear)"/>
<path d="M227.354 141.472H226.456V393.575H227.354V141.472Z" fill="url(#paint3_linear)"/>
<path d="M280.318 141.472H279.421V393.575H280.318V141.472Z" fill="url(#paint4_linear)"/>
<path d="M333.276 141.472H332.378V393.575H333.276V141.472Z" fill="url(#paint5_linear)"/>
<path d="M386.548 141.472H385.651V393.575H386.548V141.472Z" fill="url(#paint6_linear)"/>
<path d="M439.506 141.472H438.609V393.575H439.506V141.472Z" fill="url(#paint7_linear)"/>
<path d="M492.77 141.472H491.872V393.575H492.77V141.472Z" fill="url(#paint8_linear)"/>
<path d="M545.731 141.472H544.834V393.575H545.731V141.472Z" fill="url(#paint9_linear)"/>
<path opacity="0.7" d="M13.8945 392.274H12.8945V393.274V393.574V394.574H13.8945H598.811H599.811V393.574V238.5H598.811H597.811C597.811 261.406 593.288 275.263 586.161 283.289C579.07 291.274 569.22 293.682 558.043 293.251C546.841 292.818 534.486 289.541 522.561 286.331L521.851 286.14C510.254 283.018 499.047 280 490.004 280C472.246 280 461.826 274.19 451.169 268.247L450.992 268.148C440.219 262.141 429.177 256.043 410.331 256.043C401.438 256.043 394.744 251.623 388.923 244.792C383.759 238.732 379.368 230.88 374.799 222.707C374.19 221.617 373.577 220.522 372.96 219.425C362.551 200.936 350.606 181.789 326.429 181.789C311.079 181.789 299.636 191.901 290.36 206.63C281.082 221.363 273.81 240.969 266.868 260.45C266.279 262.105 265.691 263.758 265.105 265.409C258.774 283.24 252.602 300.621 245.28 313.926C237.254 328.51 228.07 337.782 216.158 337.782C203.853 337.782 195.83 334.422 189.902 329.454C183.929 324.448 180.012 317.757 176.008 310.882L175.931 310.751C171.982 303.971 167.934 297.02 161.728 291.786C155.436 286.48 146.996 282.99 134.354 282.99C121.492 282.99 111.611 290.074 103.047 300.428C95.7032 309.307 89.2211 320.723 82.592 332.398C81.5082 334.306 80.4205 336.222 79.3244 338.135C71.4936 351.8 63.2198 365.346 52.8341 375.483C42.4782 385.591 30.0568 392.274 13.8945 392.274Z" fill="#0175DA" stroke="white" stroke-width="2"/>
<g opacity="0.7">
<mask id="path-14-inside-1" fill="white">
<path d="M16.0051 393C79.3551 393 42.6002 257.112 93.1008 257.112C134.936 257.112 107.743 328.93 166.611 328.93C206.951 328.93 212.928 296.448 240.718 296.448C268.508 296.448 261.934 339.956 296 339.956C330.065 339.956 330.663 244 358.155 244C385.646 244 392.22 352.77 422.7 352.77C453.179 352.77 451.552 308.127 491.295 308.127C531.039 308.127 536.669 336.493 599.004 305.141V393H16.0051Z"/>
<path d="M16.0039 393C79.3539 393 42.5989 257.112 93.0996 257.112C134.934 257.112 107.742 328.93 166.609 328.93C206.95 328.93 212.927 296.448 240.717 296.448C268.507 296.448 261.933 339.956 295.999 339.956C330.064 339.956 330.662 244 358.153 244C385.645 244 392.219 352.77 422.699 352.77C453.178 352.77 451.551 308.127 491.294 308.127C531.037 308.127 536.668 336.493 599.003 305.141V393H16.0039Z"/>
</mask>
<path d="M16.0051 393C79.3551 393 42.6002 257.112 93.1008 257.112C134.936 257.112 107.743 328.93 166.611 328.93C206.951 328.93 212.928 296.448 240.718 296.448C268.508 296.448 261.934 339.956 296 339.956C330.065 339.956 330.663 244 358.155 244C385.646 244 392.22 352.77 422.7 352.77C453.179 352.77 451.552 308.127 491.295 308.127C531.039 308.127 536.669 336.493 599.004 305.141V393H16.0051Z" fill="#FFDB4D"/>
<path d="M16.0039 393C79.3539 393 42.5989 257.112 93.0996 257.112C134.934 257.112 107.742 328.93 166.609 328.93C206.95 328.93 212.927 296.448 240.717 296.448C268.507 296.448 261.933 339.956 295.999 339.956C330.064 339.956 330.662 244 358.153 244C385.645 244 392.219 352.77 422.699 352.77C453.178 352.77 451.551 308.127 491.294 308.127C531.037 308.127 536.668 336.493 599.003 305.141V393H16.0039Z" fill="#FFDB4D"/>
<path d="M599.004 305.141H601.004V301.897L598.105 303.355L599.004 305.141ZM599.004 393V395H601.004V393H599.004ZM599.003 305.141H601.003V301.897L598.104 303.355L599.003 305.141ZM599.003 393V395H601.003V393H599.003ZM16.0051 395C24.3073 395 31.0789 392.765 36.6041 388.784C42.104 384.82 46.2488 379.214 49.4709 372.649C55.882 359.585 58.8357 342.287 61.3498 325.35C63.8892 308.242 65.9802 291.526 70.5372 279.03C72.806 272.808 75.6239 267.824 79.2573 264.408C82.8356 261.043 87.2939 259.112 93.1008 259.112V255.112C86.2826 255.112 80.8424 257.427 76.5172 261.494C72.247 265.509 69.1562 271.141 66.7793 277.659C62.0449 290.642 59.8963 307.898 57.3931 324.762C54.8646 341.797 51.9726 358.471 45.88 370.886C42.8502 377.06 39.0786 382.07 34.2656 385.538C29.478 388.988 23.5405 391 16.0051 391V395ZM93.1008 259.112C98.0327 259.112 101.826 260.167 104.85 261.927C107.882 263.69 110.266 266.235 112.267 269.402C116.344 275.856 118.609 284.467 121.565 293.635C124.463 302.622 127.999 311.993 134.722 319.084C141.539 326.276 151.435 330.93 166.611 330.93V326.93C152.353 326.93 143.572 322.606 137.624 316.332C131.581 309.958 128.264 301.375 125.372 292.407C122.538 283.62 120.078 274.277 115.648 267.265C113.395 263.699 110.581 260.633 106.862 258.469C103.136 256.302 98.6276 255.112 93.1008 255.112V259.112ZM166.611 330.93C187.457 330.93 199.48 322.476 209.631 314.242C219.837 305.963 227.682 298.448 240.718 298.448V294.448C225.964 294.448 216.926 303.174 207.111 311.136C197.24 319.143 186.105 326.93 166.611 326.93V330.93ZM240.718 298.448C247.034 298.448 251.327 300.877 254.83 304.614C258.445 308.47 261.157 313.635 264.261 319.179C267.299 324.607 270.682 330.326 275.573 334.655C280.546 339.057 286.994 341.956 296 341.956V337.956C287.973 337.956 282.468 335.416 278.224 331.66C273.899 327.832 270.801 322.674 267.751 317.225C264.766 311.892 261.782 306.18 257.749 301.878C253.604 297.458 248.298 294.448 240.718 294.448V298.448ZM296 341.956C305.618 341.956 312.564 335.144 317.942 325.975C323.345 316.763 327.532 304.561 331.443 292.6C335.392 280.526 339.055 268.712 343.428 259.881C345.61 255.473 347.901 251.956 350.378 249.561C352.825 247.196 355.367 246 358.155 246V242C354.069 242 350.579 243.803 347.598 246.685C344.647 249.538 342.115 253.517 339.843 258.106C335.308 267.266 331.538 279.441 327.642 291.356C323.709 303.384 319.641 315.171 314.492 323.951C309.318 332.773 303.414 337.956 296 337.956V341.956ZM358.155 246C360.865 246 363.488 247.323 366.132 250.063C368.79 252.817 371.312 256.85 373.753 261.87C378.637 271.914 382.942 285.353 387.406 299.006C391.838 312.564 396.426 326.329 401.85 336.701C404.563 341.891 407.55 346.359 410.93 349.551C414.333 352.763 418.236 354.77 422.7 354.77V350.77C419.543 350.77 416.574 349.378 413.676 346.642C410.755 343.885 408.013 339.855 405.394 334.848C400.154 324.826 395.665 311.399 391.208 297.764C386.781 284.224 382.383 270.471 377.35 260.121C374.833 254.944 372.093 250.479 369.01 247.285C365.913 244.076 362.318 242 358.155 242V246ZM422.7 354.77C439.133 354.77 446.95 342.546 455.124 331.649C459.302 326.078 463.617 320.724 469.252 316.735C474.83 312.787 481.777 310.127 491.295 310.127V306.127C480.942 306.127 473.189 309.048 466.941 313.47C460.751 317.852 456.117 323.658 451.924 329.249C443.355 340.673 436.747 350.77 422.7 350.77V354.77ZM491.295 310.127C500.971 310.127 508.57 311.849 515.541 313.982C522.406 316.083 529.074 318.738 536.241 320.343C550.992 323.646 568.463 322.741 599.903 306.928L598.105 303.355C567.21 318.893 550.699 319.481 537.115 316.44C530.115 314.872 524.027 312.395 516.711 310.157C509.5 307.951 501.491 306.127 491.295 306.127V310.127ZM597.004 305.141V393H601.004V305.141H597.004ZM599.004 391H16.0051V395H599.004V391ZM16.0039 395C24.3061 395 31.0777 392.765 36.6029 388.784C42.1028 384.82 46.2476 379.214 49.4697 372.649C55.8808 359.585 58.8345 342.287 61.3486 325.35C63.8879 308.242 65.9789 291.526 70.536 279.03C72.8048 272.808 75.6227 267.824 79.256 264.408C82.8344 261.043 87.2927 259.112 93.0996 259.112V255.112C86.2814 255.112 80.8412 257.427 76.516 261.494C72.2458 265.509 69.1549 271.141 66.7781 277.659C62.0436 290.642 59.8951 307.898 57.3919 324.762C54.8634 341.797 51.9714 358.471 45.8788 370.886C42.8489 377.06 39.0774 382.07 34.2644 385.538C29.4768 388.988 23.5392 391 16.0039 391V395ZM93.0996 259.112C98.0315 259.112 101.824 260.167 104.849 261.927C107.881 263.69 110.265 266.235 112.265 269.402C116.343 275.856 118.608 284.467 121.564 293.635C124.462 302.622 127.998 311.993 134.72 319.084C141.538 326.276 151.433 330.93 166.609 330.93V326.93C152.352 326.93 143.571 322.606 137.623 316.332C131.58 309.958 128.262 301.375 125.371 292.407C122.537 283.62 120.077 274.277 115.647 267.265C113.394 263.699 110.579 260.633 106.861 258.469C103.135 256.302 98.6264 255.112 93.0996 255.112V259.112ZM166.609 330.93C187.456 330.93 199.479 322.476 209.63 314.242C219.836 305.963 227.681 298.448 240.717 298.448V294.448C225.963 294.448 216.924 303.174 207.11 311.136C197.239 319.143 186.104 326.93 166.609 326.93V330.93ZM240.717 298.448C247.032 298.448 251.325 300.877 254.829 304.614C258.444 308.47 261.156 313.635 264.259 319.179C267.298 324.607 270.68 330.326 275.572 334.655C280.545 339.057 286.993 341.956 295.999 341.956V337.956C287.972 337.956 282.467 335.416 278.223 331.66C273.898 327.832 270.8 322.674 267.75 317.225C264.765 311.892 261.781 306.18 257.747 301.878C253.603 297.458 248.297 294.448 240.717 294.448V298.448ZM295.999 341.956C305.617 341.956 312.563 335.144 317.941 325.975C323.344 316.763 327.531 304.561 331.442 292.6C335.39 280.526 339.053 268.712 343.427 259.881C345.609 255.473 347.9 251.956 350.377 249.561C352.823 247.196 355.366 246 358.153 246V242C354.068 242 350.578 243.803 347.597 246.685C344.646 249.538 342.114 253.517 339.842 258.106C335.306 267.266 331.536 279.441 327.64 291.356C323.708 303.384 319.64 315.171 314.491 323.951C309.316 332.773 303.413 337.956 295.999 337.956V341.956ZM358.153 246C360.863 246 363.487 247.323 366.131 250.063C368.789 252.817 371.311 256.85 373.752 261.87C378.636 271.914 382.941 285.353 387.404 299.006C391.837 312.564 396.425 326.329 401.848 336.701C404.562 341.891 407.548 346.359 410.929 349.551C414.332 352.763 418.235 354.77 422.699 354.77V350.77C419.542 350.77 416.573 349.378 413.675 346.642C410.754 343.885 408.011 339.855 405.393 334.848C400.153 324.826 395.664 311.399 391.206 297.764C386.78 284.224 382.382 270.471 377.349 260.121C374.832 254.944 372.092 250.479 369.009 247.285C365.912 244.076 362.316 242 358.153 242V246ZM422.699 354.77C439.131 354.77 446.949 342.546 455.123 331.649C459.301 326.078 463.616 320.724 469.251 316.735C474.829 312.787 481.776 310.127 491.294 310.127V306.127C480.941 306.127 473.187 309.048 466.94 313.47C460.75 317.852 456.116 323.658 451.923 329.249C443.354 340.673 436.745 350.77 422.699 350.77V354.77ZM491.294 310.127C500.97 310.127 508.569 311.849 515.539 313.982C522.405 316.083 529.072 318.738 536.24 320.343C550.991 323.646 568.462 322.741 599.901 306.928L598.104 303.355C567.209 318.893 550.698 319.481 537.114 316.44C530.113 314.872 524.025 312.395 516.71 310.157C509.499 307.951 501.49 306.127 491.294 306.127V310.127ZM597.003 305.141V393H601.003V305.141H597.003ZM599.003 391H16.0039V395H599.003V391Z" fill="white" mask="url(#path-14-inside-1)"/>
</g>
<g opacity="0.7">
<path d="M13.8945 393.274C86.1101 393.274 69.0301 357.046 87.0091 357.046C104.988 357.046 109.183 370.818 125.065 370.818C140.946 370.818 149.037 294.169 170.611 294.169C192.186 294.169 191.887 340.877 216.158 340.877C240.43 340.877 242.228 198.957 268.897 198.957C295.266 198.957 290.471 283.091 316.241 283.091C342.011 283.091 337.816 337.584 362.088 337.584C386.359 337.584 389.056 288 410.631 288C432.206 288 435.234 310.5 461.004 310.5C486.774 310.5 468.004 224.5 531.504 211.5C560.57 211.5 573.004 262 598.504 194V393.274H13.8945Z" fill="url(#paint10_linear)"/>
<path d="M531.504 210.5H531.403L531.303 210.52C498.966 217.141 487.63 242.405 481.142 265.606C479.781 270.474 478.627 275.273 477.54 279.796C477.331 280.664 477.125 281.522 476.92 282.368C475.645 287.639 474.427 292.451 473.016 296.533C471.602 300.626 470.024 303.89 468.074 306.121C466.159 308.314 463.896 309.5 461.004 309.5C448.488 309.5 441.522 304.075 434.889 298.485C434.579 298.225 434.271 297.963 433.962 297.702C427.644 292.357 421.313 287 410.631 287C404.794 287 400.323 290.373 396.572 295.128C393.06 299.582 390.053 305.411 387.062 311.21C386.869 311.584 386.675 311.959 386.482 312.333C383.27 318.549 380.034 324.639 376.12 329.184C372.227 333.705 367.761 336.584 362.088 336.584C356.481 336.584 352.461 333.471 349.139 328.513C345.884 323.653 343.414 317.189 340.872 310.533L340.66 309.981C338.068 303.197 335.376 296.259 331.68 291.029C327.955 285.757 323.117 282.091 316.241 282.091C310.451 282.091 306.161 277.384 302.59 269.531C299.083 261.817 296.48 251.523 293.839 241.078L293.763 240.779C291.111 230.291 288.411 219.672 284.702 211.682C281.019 203.748 276.129 197.957 268.897 197.957C265.067 197.957 261.86 200.512 259.143 204.491C256.413 208.491 254.026 214.142 251.867 220.825C247.546 234.2 244.052 252.005 240.646 269.729C240.488 270.555 240.329 271.382 240.17 272.208C236.923 289.127 233.725 305.787 229.93 318.415C227.939 325.042 225.803 330.483 223.451 334.249C221.074 338.055 218.652 339.877 216.158 339.877C210.47 339.877 206.194 337.163 202.598 332.932C198.972 328.666 196.111 322.945 193.273 317.087C193.102 316.734 192.931 316.38 192.76 316.025C190.121 310.567 187.46 305.063 184.208 300.856C180.722 296.346 176.435 293.169 170.611 293.169C167.594 293.169 164.879 294.516 162.441 296.721C160.01 298.92 157.8 302.017 155.755 305.656C151.664 312.93 148.108 322.593 144.759 332.164C144.244 333.635 143.734 335.104 143.228 336.563C140.426 344.635 137.737 352.384 134.94 358.422C133.289 361.986 131.631 364.884 129.935 366.877C128.228 368.883 126.618 369.818 125.065 369.818C117.671 369.818 112.942 366.731 107.814 363.384C107.666 363.288 107.518 363.191 107.37 363.094C102.059 359.632 96.3061 356.046 87.0091 356.046C84.5771 356.046 82.67 356.664 81.0884 357.787C79.5303 358.894 78.3556 360.444 77.2998 362.189C76.6029 363.34 75.9235 364.639 75.2162 365.99C74.8648 366.662 74.5065 367.347 74.1356 368.033C73.0009 370.134 71.7031 372.345 69.9995 374.548C63.2582 383.265 49.8372 392.274 13.8945 392.274V393.274V394.274H598.504H599.504V393.274V194L597.568 193.649C591.199 210.633 585.706 220.031 580.685 224.689C578.198 226.995 575.863 228.104 573.619 228.43C571.367 228.758 569.099 228.313 566.725 227.327C564.341 226.336 561.9 224.822 559.315 223.065C558.352 222.411 557.361 221.718 556.348 221.009C554.68 219.842 552.953 218.633 551.194 217.49C545.496 213.788 539.067 210.5 531.504 210.5Z" stroke="white" stroke-opacity="0.8819" stroke-width="2"/>
</g>
<path d="M21.585 419.256C24.5111 419.256 26.2781 417.028 26.2838 413.193C26.2895 409.386 24.4997 407.205 21.585 407.205C18.6645 407.205 16.8918 409.381 16.8861 413.193C16.8747 417.017 18.6531 419.25 21.585 419.256ZM21.585 417.216C20.2497 417.216 19.3861 415.875 19.3918 413.193C19.3975 410.551 20.2554 409.222 21.585 409.222C22.9088 409.222 23.7725 410.551 23.7725 413.193C23.7781 415.875 22.9145 417.216 21.585 417.216ZM33.1006 407.364H30.7881L27.9074 409.188V411.369L30.5722 409.699H30.6404V419H33.1006V407.364Z" fill="#0B3B65"/>
<path d="M81.46 419.256C84.3861 419.256 86.1531 417.028 86.1588 413.193C86.1645 409.386 84.3747 407.205 81.46 407.205C78.5395 407.205 76.7668 409.381 76.7611 413.193C76.7497 417.017 78.5281 419.25 81.46 419.256ZM81.46 417.216C80.1247 417.216 79.2611 415.875 79.2668 413.193C79.2725 410.551 80.1304 409.222 81.46 409.222C82.7838 409.222 83.6475 410.551 83.6475 413.193C83.6531 415.875 82.7895 417.216 81.46 417.216ZM87.9131 419H96.2085V416.989H91.3222V416.909L93.021 415.244C95.4131 413.063 96.0551 411.972 96.0551 410.648C96.0551 408.631 94.4074 407.205 91.9131 407.205C89.4699 407.205 87.7938 408.665 87.7995 410.949H90.1347C90.129 409.835 90.8335 409.153 91.896 409.153C92.9188 409.153 93.6801 409.79 93.6801 410.813C93.6801 411.739 93.112 412.375 92.0551 413.392L87.9131 417.227V419Z" fill="#0B3B65"/>
<path d="M144.226 419.256C147.152 419.256 148.919 417.028 148.924 413.193C148.93 409.386 147.14 407.205 144.226 407.205C141.305 407.205 139.532 409.381 139.527 413.193C139.515 417.017 141.294 419.25 144.226 419.256ZM144.226 417.216C142.89 417.216 142.027 415.875 142.032 413.193C142.038 410.551 142.896 409.222 144.226 409.222C145.549 409.222 146.413 410.551 146.413 413.193C146.419 415.875 145.555 417.216 144.226 417.216ZM154.98 419.159C157.593 419.159 159.463 417.722 159.457 415.733C159.463 414.284 158.542 413.25 156.832 413.034V412.943C158.133 412.71 159.031 411.79 159.025 410.483C159.031 408.648 157.423 407.205 155.014 407.205C152.628 407.205 150.832 408.602 150.798 410.614H153.156C153.184 409.727 153.997 409.153 155.003 409.153C155.997 409.153 156.662 409.756 156.656 410.631C156.662 411.546 155.883 412.165 154.764 412.165H153.679V413.972H154.764C156.082 413.972 156.906 414.631 156.9 415.568C156.906 416.494 156.111 417.131 154.986 417.131C153.9 417.131 153.088 416.563 153.042 415.71H150.565C150.605 417.744 152.423 419.159 154.98 419.159Z" fill="#0B3B65"/>
<path d="M207.077 419.256C210.003 419.256 211.77 417.028 211.776 413.193C211.782 409.386 209.992 407.205 207.077 407.205C204.157 407.205 202.384 409.381 202.378 413.193C202.367 417.017 204.145 419.25 207.077 419.256ZM207.077 417.216C205.742 417.216 204.878 415.875 204.884 413.193C204.89 410.551 205.748 409.222 207.077 409.222C208.401 409.222 209.265 410.551 209.265 413.193C209.27 415.875 208.407 417.216 207.077 417.216ZM213.354 416.955H218.939V419H221.292V416.955H222.735V414.983H221.292V407.364H218.212L213.354 415.017V416.955ZM218.985 414.983H215.831V414.892L218.894 410.046H218.985V414.983Z" fill="#0B3B65"/>
<path d="M270.343 419.256C273.269 419.256 275.036 417.028 275.042 413.193C275.047 409.386 273.258 407.205 270.343 407.205C267.422 407.205 265.65 409.381 265.644 413.193C265.633 417.017 267.411 419.25 270.343 419.256ZM270.343 417.216C269.008 417.216 268.144 415.875 268.15 413.193C268.155 410.551 269.013 409.222 270.343 409.222C271.667 409.222 272.53 410.551 272.53 413.193C272.536 415.875 271.672 417.216 270.343 417.216ZM281.046 419.159C283.637 419.159 285.398 417.472 285.392 415.119C285.398 412.892 283.841 411.29 281.745 411.29C280.722 411.29 279.841 411.716 279.432 412.29H279.364L279.665 409.375H284.75V407.364H277.637L277.086 413.5L279.273 413.892C279.631 413.409 280.324 413.108 281.012 413.108C282.182 413.114 283.023 413.96 283.023 415.182C283.023 416.392 282.199 417.227 281.046 417.227C280.069 417.227 279.279 416.614 279.222 415.71H276.836C276.881 417.722 278.637 419.159 281.046 419.159Z" fill="#0B3B65"/>
<path d="M333.218 419.256C336.144 419.256 337.911 417.028 337.917 413.193C337.922 409.386 336.133 407.205 333.218 407.205C330.297 407.205 328.525 409.381 328.519 413.193C328.508 417.017 330.286 419.25 333.218 419.256ZM333.218 417.216C331.883 417.216 331.019 415.875 331.025 413.193C331.03 410.551 331.888 409.222 333.218 409.222C334.542 409.222 335.405 410.551 335.405 413.193C335.411 415.875 334.547 417.216 333.218 417.216ZM344.137 419.159C346.728 419.171 348.495 417.472 348.489 415.102C348.495 412.921 346.972 411.347 344.91 411.347C343.631 411.347 342.5 411.96 341.978 412.989H341.898C341.91 410.688 342.705 409.278 344.222 409.278C345.114 409.278 345.756 409.761 345.944 410.614H348.37C348.137 408.659 346.546 407.171 344.222 407.171C341.347 407.171 339.5 409.5 339.489 413.443C339.5 417.705 341.745 419.148 344.137 419.159ZM344.125 417.227C342.989 417.227 342.148 416.313 342.148 415.176C342.154 414.046 343.012 413.125 344.142 413.125C345.279 413.125 346.108 414.017 346.103 415.171C346.108 416.335 345.262 417.227 344.125 417.227Z" fill="#0B3B65"/>
<path d="M396.397 419.256C399.324 419.256 401.091 417.028 401.096 413.193C401.102 409.386 399.312 407.205 396.397 407.205C393.477 407.205 391.704 409.381 391.699 413.193C391.687 417.017 393.466 419.25 396.397 419.256ZM396.397 417.216C395.062 417.216 394.199 415.875 394.204 413.193C394.21 410.551 395.068 409.222 396.397 409.222C397.721 409.222 398.585 410.551 398.585 413.193C398.591 415.875 397.727 417.216 396.397 417.216ZM402.998 419H405.538L410.368 409.403V407.364H402.203V409.375H407.822V409.455L402.998 419Z" fill="#0B3B65"/>
<path d="M458.21 419.256C461.136 419.256 462.903 417.028 462.909 413.193C462.915 409.386 461.125 407.205 458.21 407.205C455.29 407.205 453.517 409.381 453.511 413.193C453.5 417.017 455.278 419.25 458.21 419.256ZM458.21 417.216C456.875 417.216 456.011 415.875 456.017 413.193C456.023 410.551 456.88 409.222 458.21 409.222C459.534 409.222 460.398 410.551 460.398 413.193C460.403 415.875 459.54 417.216 458.21 417.216ZM469.004 419.159C471.629 419.159 473.515 417.756 473.521 415.869C473.515 414.415 472.396 413.227 470.998 412.994V412.915C472.214 412.665 473.084 411.614 473.089 410.335C473.084 408.534 471.356 407.205 469.004 407.205C466.646 407.205 464.919 408.534 464.925 410.335C464.919 411.608 465.777 412.665 467.015 412.915V412.994C465.595 413.227 464.487 414.415 464.493 415.869C464.487 417.756 466.379 419.159 469.004 419.159ZM469.004 417.352C467.834 417.352 467.05 416.659 467.05 415.676C467.05 414.671 467.873 413.943 469.004 413.943C470.129 413.943 470.959 414.671 470.959 415.676C470.959 416.665 470.169 417.352 469.004 417.352ZM469.004 412.153C468.021 412.153 467.322 411.511 467.322 410.591C467.322 409.682 468.01 409.057 469.004 409.057C469.993 409.057 470.686 409.688 470.686 410.591C470.686 411.511 469.981 412.153 469.004 412.153Z" fill="#0B3B65"/>
<path d="M521.218 419.256C524.144 419.256 525.911 417.028 525.917 413.193C525.922 409.386 524.133 407.205 521.218 407.205C518.297 407.205 516.525 409.381 516.519 413.193C516.508 417.017 518.286 419.25 521.218 419.256ZM521.218 417.216C519.883 417.216 519.019 415.875 519.025 413.193C519.03 410.551 519.888 409.222 521.218 409.222C522.542 409.222 523.405 410.551 523.405 413.193C523.411 415.875 522.547 417.216 521.218 417.216ZM531.881 407.171C529.279 407.159 527.523 408.864 527.535 411.227C527.523 413.409 529.046 414.983 531.108 414.983C532.387 414.983 533.523 414.364 534.04 413.341H534.12C534.114 415.648 533.313 417.051 531.796 417.051C530.904 417.051 530.262 416.563 530.074 415.716H527.648C527.876 417.676 529.466 419.159 531.796 419.159C534.677 419.159 536.523 416.83 536.529 412.881C536.523 408.625 534.273 407.176 531.881 407.171ZM531.898 409.102C533.029 409.102 533.864 410.023 533.876 411.148C533.864 412.278 533.001 413.199 531.876 413.199C530.739 413.199 529.91 412.313 529.921 411.159C529.91 409.994 530.756 409.102 531.898 409.102Z" fill="#0B3B65"/>
<path d="M584.085 407.364H581.773L578.892 409.188V411.369L581.557 409.699H581.625V419H584.085V407.364ZM591.413 419.256C594.339 419.256 596.106 417.028 596.112 413.193C596.118 409.386 594.328 407.205 591.413 407.205C588.493 407.205 586.72 409.381 586.714 413.193C586.703 417.017 588.481 419.25 591.413 419.256ZM591.413 417.216C590.078 417.216 589.214 415.875 589.22 413.193C589.226 410.551 590.084 409.222 591.413 409.222C592.737 409.222 593.601 410.551 593.601 413.193C593.606 415.875 592.743 417.216 591.413 417.216Z" fill="#0B3B65"/>
<circle cx="155" cy="55" r="25" fill="#C4C4C4" fill-opacity="0.17"/>
<circle cx="324" cy="55" r="25" fill="#C4C4C4" fill-opacity="0.17"/>
<circle cx="497" cy="55" r="25" fill="#C4C4C4" fill-opacity="0.17"/>
<path d="M108.682 72H124.74V69.2656H112.908V69.0668L118.625 62.9517C123 58.266 124.293 56.0785 124.293 53.2571C124.293 49.3295 121.111 46.1974 116.636 46.1974C112.174 46.1974 108.781 49.2301 108.781 53.7045H111.714C111.714 50.8086 113.591 48.8821 116.537 48.8821C119.296 48.8821 121.409 50.5724 121.409 53.2571C121.409 55.6062 120.029 57.3462 117.084 60.5653L108.682 69.7628V72ZM138.474 72.348C143.408 72.348 147.075 69.2532 147.075 65.0895C147.075 61.858 145.161 59.5089 141.954 58.9744V58.7756C144.527 57.9925 146.13 55.8796 146.13 53.0085C146.13 49.4041 143.284 46.1974 138.574 46.1974C134.174 46.1974 130.52 48.907 130.37 52.9091H133.353C133.465 50.3736 135.876 48.8821 138.524 48.8821C141.333 48.8821 143.147 50.5849 143.147 53.1577C143.147 55.8423 141.047 57.5824 138.027 57.5824H135.988V60.3168H138.027C141.892 60.3168 144.042 62.2805 144.042 65.0895C144.042 67.7866 141.693 69.6136 138.424 69.6136C135.479 69.6136 133.142 68.0973 132.956 65.6364H129.824C130.01 69.6385 133.54 72.348 138.474 72.348ZM165.134 67.2273C165.134 70.0114 166.874 72.348 170.106 72.348C173.288 72.348 175.028 70.0114 175.028 67.2273V65.8849C175.028 63.1009 173.337 60.7642 170.106 60.7642C166.924 60.7642 165.134 63.1009 165.134 65.8849V67.2273ZM152.457 52.6605C152.457 55.4446 154.197 57.7812 157.428 57.7812C160.61 57.7812 162.35 55.4446 162.35 52.6605V51.3182C162.35 48.5341 160.66 46.1974 157.428 46.1974C154.246 46.1974 152.457 48.5341 152.457 51.3182V52.6605ZM153.401 72H156.235L173.735 46.5455H170.901L153.401 72ZM167.67 65.8849C167.67 64.3438 168.366 62.902 170.106 62.902C171.896 62.902 172.492 64.3438 172.492 65.8849V67.2273C172.492 68.7685 171.846 70.2102 170.106 70.2102C168.316 70.2102 167.67 68.7685 167.67 67.2273V65.8849ZM154.992 51.3182C154.992 49.777 155.688 48.3352 157.428 48.3352C159.218 48.3352 159.815 49.777 159.815 51.3182V52.6605C159.815 54.2017 159.168 55.6435 157.428 55.6435C155.638 55.6435 154.992 54.2017 154.992 52.6605V51.3182Z" fill="#FAA136"/>
<path d="M279.807 72.348C284.655 72.348 288.209 68.7685 288.209 63.8963C288.209 58.962 284.779 55.3452 280.106 55.3452C278.39 55.3452 276.725 55.9542 275.681 56.7869H275.532L276.427 49.2798H287.066V46.5455H273.841L272.3 59.0739L275.184 59.4219C276.24 58.6637 278.042 58.1168 279.608 58.1293C282.852 58.1541 285.226 60.6151 285.226 63.946C285.226 67.2148 282.939 69.6136 279.807 69.6136C277.197 69.6136 275.122 67.9357 274.885 65.6364H271.902C272.089 69.5142 275.432 72.348 279.807 72.348ZM301.598 72.348C306.744 72.4102 310.1 68.5323 310.1 63.7969C310.1 58.875 306.458 55.3452 302.096 55.3452C299.473 55.3452 297.223 56.6254 295.831 58.7259H295.632C295.645 52.4741 298.056 48.8821 301.996 48.8821C304.681 48.8821 306.297 50.5724 306.868 52.9091H309.901C309.279 48.907 306.272 46.1477 301.996 46.1477C296.266 46.1477 292.749 51.2188 292.749 60.267C292.749 69.6758 297.422 72.2983 301.598 72.348ZM301.598 69.6136C298.404 69.6136 296.067 66.8917 296.08 63.8466C296.092 60.8015 298.541 58.0795 301.698 58.0795C304.817 58.0795 307.117 60.6399 307.117 63.7969C307.117 67.0284 304.718 69.6136 301.598 69.6136ZM327.963 67.2273C327.963 70.0114 329.703 72.348 332.935 72.348C336.117 72.348 337.857 70.0114 337.857 67.2273V65.8849C337.857 63.1009 336.166 60.7642 332.935 60.7642C329.753 60.7642 327.963 63.1009 327.963 65.8849V67.2273ZM315.286 52.6605C315.286 55.4446 317.026 57.7812 320.257 57.7812C323.439 57.7812 325.179 55.4446 325.179 52.6605V51.3182C325.179 48.5341 323.489 46.1974 320.257 46.1974C317.076 46.1974 315.286 48.5341 315.286 51.3182V52.6605ZM316.23 72H319.064L336.564 46.5455H333.73L316.23 72ZM330.499 65.8849C330.499 64.3438 331.195 62.902 332.935 62.902C334.725 62.902 335.321 64.3438 335.321 65.8849V67.2273C335.321 68.7685 334.675 70.2102 332.935 70.2102C331.145 70.2102 330.499 68.7685 330.499 67.2273V65.8849ZM317.821 51.3182C317.821 49.777 318.517 48.3352 320.257 48.3352C322.047 48.3352 322.644 49.777 322.644 51.3182V52.6605C322.644 54.2017 321.997 55.6435 320.257 55.6435C318.468 55.6435 317.821 54.2017 317.821 52.6605V51.3182Z" fill="#FFD342"/>
<path d="M442.992 46.5455H439.909L433.545 50.7713V53.9034L439.76 49.777H439.909V72H442.992V46.5455ZM450.312 72H466.37V69.2656H454.538V69.0668L460.255 62.9517C464.63 58.266 465.923 56.0785 465.923 53.2571C465.923 49.3295 462.741 46.1974 458.267 46.1974C453.805 46.1974 450.412 49.2301 450.412 53.7045H453.345C453.345 50.8086 455.222 48.8821 458.167 48.8821C460.927 48.8821 463.039 50.5724 463.039 53.2571C463.039 55.6062 461.66 57.3462 458.714 60.5653L450.312 69.7628V72ZM479.458 72.348C484.305 72.348 487.86 68.7685 487.86 63.8963C487.86 58.962 484.43 55.3452 479.756 55.3452C478.041 55.3452 476.376 55.9542 475.332 56.7869H475.183L476.077 49.2798H486.717V46.5455H473.492L471.951 59.0739L474.835 59.4219C475.891 58.6637 477.693 58.1168 479.259 58.1293C482.503 58.1541 484.877 60.6151 484.877 63.946C484.877 67.2148 482.59 69.6136 479.458 69.6136C476.848 69.6136 474.772 67.9357 474.536 65.6364H471.553C471.74 69.5142 475.083 72.348 479.458 72.348ZM505.773 67.2273C505.773 70.0114 507.513 72.348 510.745 72.348C513.927 72.348 515.667 70.0114 515.667 67.2273V65.8849C515.667 63.1009 513.977 60.7642 510.745 60.7642C507.563 60.7642 505.773 63.1009 505.773 65.8849V67.2273ZM493.096 52.6605C493.096 55.4446 494.836 57.7812 498.067 57.7812C501.249 57.7812 502.989 55.4446 502.989 52.6605V51.3182C502.989 48.5341 501.299 46.1974 498.067 46.1974C494.886 46.1974 493.096 48.5341 493.096 51.3182V52.6605ZM494.04 72H496.874L514.374 46.5455H511.54L494.04 72ZM508.309 65.8849C508.309 64.3438 509.005 62.902 510.745 62.902C512.535 62.902 513.131 64.3438 513.131 65.8849V67.2273C513.131 68.7685 512.485 70.2102 510.745 70.2102C508.955 70.2102 508.309 68.7685 508.309 67.2273V65.8849ZM495.631 51.3182C495.631 49.777 496.327 48.3352 498.067 48.3352C499.857 48.3352 500.454 49.777 500.454 51.3182V52.6605C500.454 54.2017 499.807 55.6435 498.067 55.6435C496.278 55.6435 495.631 54.2017 495.631 52.6605V51.3182Z" fill="#1B81D9"/>
<path d="M85.7521 109H88.9055C90.968 109 91.8203 107.994 91.8203 106.682C91.8203 105.301 90.8658 104.551 90.0646 104.5V104.415C90.8146 104.21 91.4794 103.716 91.4794 102.591C91.4794 101.312 90.6271 100.273 88.8033 100.273H85.7521V109ZM86.8089 108.062V105.028H88.9567C90.0987 105.028 90.8146 105.795 90.8146 106.682C90.8146 107.449 90.2862 108.062 88.9055 108.062H86.8089ZM86.8089 104.108V101.21H88.8033C89.9624 101.21 90.4737 101.824 90.4737 102.591C90.4737 103.511 89.7237 104.108 88.7692 104.108H86.8089ZM97.5455 106.324C97.5455 107.551 96.608 108.114 95.858 108.114C95.0227 108.114 94.4261 107.5 94.4261 106.545V102.455H93.4205V106.614C93.4205 108.284 94.3068 109.085 95.5341 109.085C96.5227 109.085 97.1705 108.557 97.4773 107.892H97.5455V109H98.5511V102.455H97.5455V106.324ZM101.041 111.438C101.949 111.438 102.592 110.956 102.967 109.955L105.754 102.472L104.654 102.455L102.848 107.67H102.779L100.973 102.455H99.8817L102.302 109.034L102.115 109.545C101.757 110.526 101.297 110.619 100.564 110.432L100.308 111.318C100.41 111.369 100.7 111.438 101.041 111.438ZM112.386 109.153C113.528 109.153 114.124 108.54 114.329 108.114H114.38V109H115.386V104.688C115.386 102.608 113.8 102.369 112.965 102.369C111.977 102.369 110.852 102.71 110.34 103.903L111.295 104.244C111.516 103.767 112.04 103.256 112.999 103.256C113.924 103.256 114.38 103.746 114.38 104.585V104.619C114.38 105.105 113.886 105.062 112.692 105.216C111.478 105.374 110.153 105.642 110.153 107.142C110.153 108.42 111.141 109.153 112.386 109.153ZM112.539 108.25C111.738 108.25 111.158 107.892 111.158 107.193C111.158 106.426 111.857 106.188 112.641 106.085C113.067 106.034 114.21 105.915 114.38 105.71V106.631C114.38 107.449 113.732 108.25 112.539 108.25ZM118.227 105.062C118.227 103.92 118.934 103.273 119.897 103.273C120.831 103.273 121.397 103.882 121.397 104.909V109H122.403V104.841C122.403 103.17 121.512 102.369 120.187 102.369C119.199 102.369 118.585 102.812 118.278 103.477H118.193V102.455H117.221V109H118.227V105.062ZM126.712 109.136C127.974 109.136 128.4 108.352 128.621 107.994H128.741V109H129.712V100.273H128.707V103.494H128.621C128.4 103.153 128.008 102.369 126.729 102.369C125.076 102.369 123.934 103.682 123.934 105.744C123.934 107.824 125.076 109.136 126.712 109.136ZM126.849 108.233C125.587 108.233 124.94 107.125 124.94 105.727C124.94 104.347 125.57 103.273 126.849 103.273C128.076 103.273 128.724 104.261 128.724 105.727C128.724 107.21 128.059 108.233 126.849 108.233ZM139.705 103.92C139.39 102.991 138.683 102.369 137.387 102.369C136.006 102.369 134.984 103.153 134.984 104.261C134.984 105.165 135.521 105.77 136.722 106.051L137.813 106.307C138.474 106.46 138.785 106.776 138.785 107.227C138.785 107.79 138.188 108.25 137.251 108.25C136.428 108.25 135.913 107.896 135.734 107.193L134.779 107.432C135.013 108.544 135.93 109.136 137.268 109.136C138.789 109.136 139.825 108.305 139.825 107.176C139.825 106.264 139.254 105.689 138.086 105.403L137.114 105.165C136.339 104.973 135.989 104.713 135.989 104.21C135.989 103.648 136.586 103.239 137.387 103.239C138.265 103.239 138.627 103.724 138.802 104.176L139.705 103.92ZM144.083 109.136C145.412 109.136 146.384 108.472 146.691 107.483L145.719 107.21C145.463 107.892 144.871 108.233 144.083 108.233C142.902 108.233 142.088 107.47 142.042 106.068H146.793V105.642C146.793 103.205 145.344 102.369 143.98 102.369C142.208 102.369 141.032 103.767 141.032 105.778C141.032 107.79 142.191 109.136 144.083 109.136ZM142.042 105.199C142.11 104.18 142.83 103.273 143.98 103.273C145.071 103.273 145.77 104.091 145.77 105.199H142.042ZM149.328 100.273H148.323V109H149.328V100.273ZM152.176 100.273H151.17V109H152.176V100.273ZM157.393 111.455H158.399V107.994H158.484C158.706 108.352 159.132 109.136 160.393 109.136C162.029 109.136 163.172 107.824 163.172 105.744C163.172 103.682 162.029 102.369 160.376 102.369C159.098 102.369 158.706 103.153 158.484 103.494H158.365V102.455H157.393V111.455ZM158.382 105.727C158.382 104.261 159.029 103.273 160.257 103.273C161.535 103.273 162.166 104.347 162.166 105.727C162.166 107.125 161.518 108.233 160.257 108.233C159.047 108.233 158.382 107.21 158.382 105.727ZM167.365 109.136C169.137 109.136 170.331 107.79 170.331 105.761C170.331 103.716 169.137 102.369 167.365 102.369C165.592 102.369 164.399 103.716 164.399 105.761C164.399 107.79 165.592 109.136 167.365 109.136ZM167.365 108.233C166.018 108.233 165.404 107.074 165.404 105.761C165.404 104.449 166.018 103.273 167.365 103.273C168.711 103.273 169.325 104.449 169.325 105.761C169.325 107.074 168.711 108.233 167.365 108.233ZM171.866 111.455H172.871V107.994H172.957C173.178 108.352 173.604 109.136 174.866 109.136C176.502 109.136 177.644 107.824 177.644 105.744C177.644 103.682 176.502 102.369 174.849 102.369C173.57 102.369 173.178 103.153 172.957 103.494H172.837V102.455H171.866V111.455ZM172.854 105.727C172.854 104.261 173.502 103.273 174.729 103.273C176.008 103.273 176.638 104.347 176.638 105.727C176.638 107.125 175.991 108.233 174.729 108.233C173.519 108.233 172.854 107.21 172.854 105.727ZM183.303 106.324C183.303 107.551 182.366 108.114 181.616 108.114C180.781 108.114 180.184 107.5 180.184 106.545V102.455H179.178V106.614C179.178 108.284 180.065 109.085 181.292 109.085C182.281 109.085 182.928 108.557 183.235 107.892H183.303V109H184.309V102.455H183.303V106.324ZM187.157 100.273H186.151V109H187.157V100.273ZM190.925 109.153C192.067 109.153 192.663 108.54 192.868 108.114H192.919V109H193.925V104.688C193.925 102.608 192.339 102.369 191.504 102.369C190.516 102.369 189.391 102.71 188.879 103.903L189.834 104.244C190.055 103.767 190.58 103.256 191.538 103.256C192.463 103.256 192.919 103.746 192.919 104.585V104.619C192.919 105.105 192.425 105.062 191.232 105.216C190.017 105.374 188.692 105.642 188.692 107.142C188.692 108.42 189.68 109.153 190.925 109.153ZM191.078 108.25C190.277 108.25 189.697 107.892 189.697 107.193C189.697 106.426 190.396 106.188 191.18 106.085C191.607 106.034 192.749 105.915 192.919 105.71V106.631C192.919 107.449 192.271 108.25 191.078 108.25ZM195.76 109H196.766V104.858C196.766 103.972 197.465 103.324 198.419 103.324C198.688 103.324 198.965 103.375 199.033 103.392V102.369C198.918 102.361 198.654 102.352 198.505 102.352C197.721 102.352 197.039 102.795 196.8 103.443H196.732V102.455H195.76V109ZM96.8823 121.136C98.1436 121.136 98.5698 120.352 98.7914 119.994H98.9107V121H99.8823V112.273H98.8766V115.494H98.7914C98.5698 115.153 98.1777 114.369 96.8993 114.369C95.2459 114.369 94.1039 115.682 94.1039 117.744C94.1039 119.824 95.2459 121.136 96.8823 121.136ZM97.0186 120.233C95.7573 120.233 95.1096 119.125 95.1096 117.727C95.1096 116.347 95.7402 115.273 97.0186 115.273C98.2459 115.273 98.8936 116.261 98.8936 117.727C98.8936 119.21 98.2289 120.233 97.0186 120.233ZM101.864 121H102.869V114.455H101.864V121ZM102.375 113.364C102.767 113.364 103.091 113.057 103.091 112.682C103.091 112.307 102.767 112 102.375 112C101.983 112 101.659 112.307 101.659 112.682C101.659 113.057 101.983 113.364 102.375 113.364ZM107.354 123.591C108.922 123.591 110.183 122.875 110.183 121.188V114.455H109.211V115.494H109.109C108.888 115.153 108.479 114.369 107.2 114.369C105.547 114.369 104.405 115.682 104.405 117.693C104.405 119.739 105.598 120.898 107.183 120.898C108.461 120.898 108.871 120.148 109.092 119.79H109.177V121.119C109.177 122.21 108.41 122.705 107.354 122.705C106.165 122.705 105.747 122.078 105.479 121.716L104.677 122.278C105.086 122.964 105.892 123.591 107.354 123.591ZM107.319 119.994C106.058 119.994 105.41 119.04 105.41 117.676C105.41 116.347 106.041 115.273 107.319 115.273C108.547 115.273 109.194 116.261 109.194 117.676C109.194 119.125 108.53 119.994 107.319 119.994ZM112.024 121H113.03V114.455H112.024V121ZM112.535 113.364C112.927 113.364 113.251 113.057 113.251 112.682C113.251 112.307 112.927 112 112.535 112C112.143 112 111.819 112.307 111.819 112.682C111.819 113.057 112.143 113.364 112.535 113.364ZM117.718 114.455H116.32V112.886H115.315V114.455H114.326V115.307H115.315V119.398C115.315 120.54 116.235 121.085 117.088 121.085C117.463 121.085 117.701 121.017 117.838 120.966L117.633 120.062C117.548 120.08 117.411 120.114 117.19 120.114C116.747 120.114 116.32 119.977 116.32 119.125V115.307H117.718V114.455ZM121.157 121.153C122.299 121.153 122.896 120.54 123.1 120.114H123.151V121H124.157V116.688C124.157 114.608 122.572 114.369 121.737 114.369C120.748 114.369 119.623 114.71 119.112 115.903L120.066 116.244C120.288 115.767 120.812 115.256 121.771 115.256C122.695 115.256 123.151 115.746 123.151 116.585V116.619C123.151 117.105 122.657 117.062 121.464 117.216C120.249 117.374 118.924 117.642 118.924 119.142C118.924 120.42 119.913 121.153 121.157 121.153ZM121.311 120.25C120.509 120.25 119.93 119.892 119.93 119.193C119.93 118.426 120.629 118.188 121.413 118.085C121.839 118.034 122.981 117.915 123.151 117.71V118.631C123.151 119.449 122.504 120.25 121.311 120.25ZM126.998 112.273H125.993V121H126.998V112.273ZM134.874 121.136C136.323 121.136 137.278 120.25 137.448 119.091H136.443C136.255 119.807 135.659 120.233 134.874 120.233C133.681 120.233 132.914 119.244 132.914 117.727C132.914 116.244 133.698 115.273 134.874 115.273C135.761 115.273 136.289 115.818 136.443 116.415H137.448C137.278 115.188 136.238 114.369 134.857 114.369C133.085 114.369 131.909 115.767 131.909 117.761C131.909 119.722 133.034 121.136 134.874 121.136ZM143.044 118.324C143.044 119.551 142.106 120.114 141.356 120.114C140.521 120.114 139.924 119.5 139.924 118.545V114.455H138.919V118.614C138.919 120.284 139.805 121.085 141.032 121.085C142.021 121.085 142.669 120.557 142.975 119.892H143.044V121H144.049V114.455H143.044V118.324ZM145.891 121H146.897V116.858C146.897 115.972 147.596 115.324 148.55 115.324C148.819 115.324 149.096 115.375 149.164 115.392V114.369C149.049 114.361 148.785 114.352 148.635 114.352C147.851 114.352 147.17 114.795 146.931 115.443H146.863V114.455H145.891V121ZM150.356 121H151.362V116.858C151.362 115.972 152.061 115.324 153.015 115.324C153.284 115.324 153.561 115.375 153.629 115.392V114.369C153.514 114.361 153.249 114.352 153.1 114.352C152.316 114.352 151.634 114.795 151.396 115.443H151.328V114.455H150.356V121ZM157.366 121.136C158.695 121.136 159.667 120.472 159.974 119.483L159.002 119.21C158.747 119.892 158.154 120.233 157.366 120.233C156.186 120.233 155.372 119.47 155.325 118.068H160.076V117.642C160.076 115.205 158.627 114.369 157.264 114.369C155.491 114.369 154.315 115.767 154.315 117.778C154.315 119.79 155.474 121.136 157.366 121.136ZM155.325 117.199C155.393 116.18 156.113 115.273 157.264 115.273C158.355 115.273 159.053 116.091 159.053 117.199H155.325ZM162.612 117.062C162.612 115.92 163.319 115.273 164.282 115.273C165.215 115.273 165.782 115.882 165.782 116.909V121H166.788V116.841C166.788 115.17 165.897 114.369 164.572 114.369C163.583 114.369 162.97 114.812 162.663 115.477H162.578V114.455H161.606V121H162.612V117.062ZM171.285 121.136C172.733 121.136 173.688 120.25 173.858 119.091H172.853C172.665 119.807 172.069 120.233 171.285 120.233C170.091 120.233 169.324 119.244 169.324 117.727C169.324 116.244 170.108 115.273 171.285 115.273C172.171 115.273 172.699 115.818 172.853 116.415H173.858C173.688 115.188 172.648 114.369 171.268 114.369C169.495 114.369 168.319 115.767 168.319 117.761C168.319 119.722 169.444 121.136 171.285 121.136ZM175.329 121H176.334V114.455H175.329V121ZM175.84 113.364C176.232 113.364 176.556 113.057 176.556 112.682C176.556 112.307 176.232 112 175.84 112C175.448 112 175.124 112.307 175.124 112.682C175.124 113.057 175.448 113.364 175.84 113.364ZM180.921 121.136C182.25 121.136 183.222 120.472 183.529 119.483L182.557 119.21C182.301 119.892 181.709 120.233 180.921 120.233C179.74 120.233 178.926 119.47 178.879 118.068H183.631V117.642C183.631 115.205 182.182 114.369 180.818 114.369C179.046 114.369 177.869 115.767 177.869 117.778C177.869 119.79 179.029 121.136 180.921 121.136ZM178.879 117.199C178.948 116.18 179.668 115.273 180.818 115.273C181.909 115.273 182.608 116.091 182.608 117.199H178.879ZM189.797 115.92C189.482 114.991 188.774 114.369 187.479 114.369C186.098 114.369 185.075 115.153 185.075 116.261C185.075 117.165 185.612 117.77 186.814 118.051L187.905 118.307C188.566 118.46 188.877 118.776 188.877 119.227C188.877 119.79 188.28 120.25 187.343 120.25C186.52 120.25 186.004 119.896 185.825 119.193L184.871 119.432C185.105 120.544 186.021 121.136 187.36 121.136C188.881 121.136 189.916 120.305 189.916 119.176C189.916 118.264 189.345 117.689 188.178 117.403L187.206 117.165C186.431 116.973 186.081 116.713 186.081 116.21C186.081 115.648 186.678 115.239 187.479 115.239C188.357 115.239 188.719 115.724 188.894 116.176L189.797 115.92Z" fill="#2E4F6B"/>
<path d="M250.752 109H253.906C255.968 109 256.82 107.994 256.82 106.682C256.82 105.301 255.866 104.551 255.065 104.5V104.415C255.815 104.21 256.479 103.716 256.479 102.591C256.479 101.312 255.627 100.273 253.803 100.273H250.752V109ZM251.809 108.062V105.028H253.957C255.099 105.028 255.815 105.795 255.815 106.682C255.815 107.449 255.286 108.062 253.906 108.062H251.809ZM251.809 104.108V101.21H253.803C254.962 101.21 255.474 101.824 255.474 102.591C255.474 103.511 254.724 104.108 253.769 104.108H251.809ZM262.545 106.324C262.545 107.551 261.608 108.114 260.858 108.114C260.023 108.114 259.426 107.5 259.426 106.545V102.455H258.42V106.614C258.42 108.284 259.307 109.085 260.534 109.085C261.523 109.085 262.17 108.557 262.477 107.892H262.545V109H263.551V102.455H262.545V106.324ZM266.041 111.438C266.949 111.438 267.592 110.956 267.967 109.955L270.754 102.472L269.654 102.455L267.848 107.67H267.779L265.973 102.455H264.882L267.302 109.034L267.115 109.545C266.757 110.526 266.297 110.619 265.564 110.432L265.308 111.318C265.41 111.369 265.7 111.438 266.041 111.438ZM277.386 109.153C278.528 109.153 279.124 108.54 279.329 108.114H279.38V109H280.386V104.688C280.386 102.608 278.8 102.369 277.965 102.369C276.977 102.369 275.852 102.71 275.34 103.903L276.295 104.244C276.516 103.767 277.04 103.256 277.999 103.256C278.924 103.256 279.38 103.746 279.38 104.585V104.619C279.38 105.105 278.886 105.062 277.692 105.216C276.478 105.374 275.153 105.642 275.153 107.142C275.153 108.42 276.141 109.153 277.386 109.153ZM277.539 108.25C276.738 108.25 276.158 107.892 276.158 107.193C276.158 106.426 276.857 106.188 277.641 106.085C278.067 106.034 279.21 105.915 279.38 105.71V106.631C279.38 107.449 278.732 108.25 277.539 108.25ZM283.227 105.062C283.227 103.92 283.934 103.273 284.897 103.273C285.831 103.273 286.397 103.882 286.397 104.909V109H287.403V104.841C287.403 103.17 286.512 102.369 285.187 102.369C284.199 102.369 283.585 102.812 283.278 103.477H283.193V102.455H282.221V109H283.227V105.062ZM291.712 109.136C292.974 109.136 293.4 108.352 293.621 107.994H293.741V109H294.712V100.273H293.707V103.494H293.621C293.4 103.153 293.008 102.369 291.729 102.369C290.076 102.369 288.934 103.682 288.934 105.744C288.934 107.824 290.076 109.136 291.712 109.136ZM291.849 108.233C290.587 108.233 289.94 107.125 289.94 105.727C289.94 104.347 290.57 103.273 291.849 103.273C293.076 103.273 293.724 104.261 293.724 105.727C293.724 107.21 293.059 108.233 291.849 108.233ZM304.705 103.92C304.39 102.991 303.683 102.369 302.387 102.369C301.006 102.369 299.984 103.153 299.984 104.261C299.984 105.165 300.521 105.77 301.722 106.051L302.813 106.307C303.474 106.46 303.785 106.776 303.785 107.227C303.785 107.79 303.188 108.25 302.251 108.25C301.428 108.25 300.913 107.896 300.734 107.193L299.779 107.432C300.013 108.544 300.93 109.136 302.268 109.136C303.789 109.136 304.825 108.305 304.825 107.176C304.825 106.264 304.254 105.689 303.086 105.403L302.114 105.165C301.339 104.973 300.989 104.713 300.989 104.21C300.989 103.648 301.586 103.239 302.387 103.239C303.265 103.239 303.627 103.724 303.802 104.176L304.705 103.92ZM309.083 109.136C310.412 109.136 311.384 108.472 311.691 107.483L310.719 107.21C310.463 107.892 309.871 108.233 309.083 108.233C307.902 108.233 307.088 107.47 307.042 106.068H311.793V105.642C311.793 103.205 310.344 102.369 308.98 102.369C307.208 102.369 306.032 103.767 306.032 105.778C306.032 107.79 307.191 109.136 309.083 109.136ZM307.042 105.199C307.11 104.18 307.83 103.273 308.98 103.273C310.071 103.273 310.77 104.091 310.77 105.199H307.042ZM314.328 100.273H313.323V109H314.328V100.273ZM317.176 100.273H316.17V109H317.176V100.273ZM322.393 111.455H323.399V107.994H323.484C323.706 108.352 324.132 109.136 325.393 109.136C327.029 109.136 328.172 107.824 328.172 105.744C328.172 103.682 327.029 102.369 325.376 102.369C324.098 102.369 323.706 103.153 323.484 103.494H323.365V102.455H322.393V111.455ZM323.382 105.727C323.382 104.261 324.029 103.273 325.257 103.273C326.535 103.273 327.166 104.347 327.166 105.727C327.166 107.125 326.518 108.233 325.257 108.233C324.047 108.233 323.382 107.21 323.382 105.727ZM332.365 109.136C334.137 109.136 335.331 107.79 335.331 105.761C335.331 103.716 334.137 102.369 332.365 102.369C330.592 102.369 329.399 103.716 329.399 105.761C329.399 107.79 330.592 109.136 332.365 109.136ZM332.365 108.233C331.018 108.233 330.404 107.074 330.404 105.761C330.404 104.449 331.018 103.273 332.365 103.273C333.711 103.273 334.325 104.449 334.325 105.761C334.325 107.074 333.711 108.233 332.365 108.233ZM336.866 111.455H337.871V107.994H337.957C338.178 108.352 338.604 109.136 339.866 109.136C341.502 109.136 342.644 107.824 342.644 105.744C342.644 103.682 341.502 102.369 339.849 102.369C338.57 102.369 338.178 103.153 337.957 103.494H337.837V102.455H336.866V111.455ZM337.854 105.727C337.854 104.261 338.502 103.273 339.729 103.273C341.008 103.273 341.638 104.347 341.638 105.727C341.638 107.125 340.991 108.233 339.729 108.233C338.519 108.233 337.854 107.21 337.854 105.727ZM348.303 106.324C348.303 107.551 347.366 108.114 346.616 108.114C345.781 108.114 345.184 107.5 345.184 106.545V102.455H344.178V106.614C344.178 108.284 345.065 109.085 346.292 109.085C347.281 109.085 347.928 108.557 348.235 107.892H348.303V109H349.309V102.455H348.303V106.324ZM352.157 100.273H351.151V109H352.157V100.273ZM355.925 109.153C357.067 109.153 357.663 108.54 357.868 108.114H357.919V109H358.925V104.688C358.925 102.608 357.339 102.369 356.504 102.369C355.516 102.369 354.391 102.71 353.879 103.903L354.834 104.244C355.055 103.767 355.58 103.256 356.538 103.256C357.463 103.256 357.919 103.746 357.919 104.585V104.619C357.919 105.105 357.425 105.062 356.232 105.216C355.017 105.374 353.692 105.642 353.692 107.142C353.692 108.42 354.68 109.153 355.925 109.153ZM356.078 108.25C355.277 108.25 354.697 107.892 354.697 107.193C354.697 106.426 355.396 106.188 356.18 106.085C356.607 106.034 357.749 105.915 357.919 105.71V106.631C357.919 107.449 357.271 108.25 356.078 108.25ZM360.76 109H361.766V104.858C361.766 103.972 362.465 103.324 363.419 103.324C363.688 103.324 363.965 103.375 364.033 103.392V102.369C363.918 102.361 363.654 102.352 363.505 102.352C362.721 102.352 362.039 102.795 361.8 103.443H361.732V102.455H360.76V109ZM261.882 121.136C263.144 121.136 263.57 120.352 263.791 119.994H263.911V121H264.882V112.273H263.877V115.494H263.791C263.57 115.153 263.178 114.369 261.899 114.369C260.246 114.369 259.104 115.682 259.104 117.744C259.104 119.824 260.246 121.136 261.882 121.136ZM262.019 120.233C260.757 120.233 260.11 119.125 260.11 117.727C260.11 116.347 260.74 115.273 262.019 115.273C263.246 115.273 263.894 116.261 263.894 117.727C263.894 119.21 263.229 120.233 262.019 120.233ZM266.864 121H267.869V114.455H266.864V121ZM267.375 113.364C267.767 113.364 268.091 113.057 268.091 112.682C268.091 112.307 267.767 112 267.375 112C266.983 112 266.659 112.307 266.659 112.682C266.659 113.057 266.983 113.364 267.375 113.364ZM272.354 123.591C273.922 123.591 275.183 122.875 275.183 121.188V114.455H274.211V115.494H274.109C273.888 115.153 273.479 114.369 272.2 114.369C270.547 114.369 269.405 115.682 269.405 117.693C269.405 119.739 270.598 120.898 272.183 120.898C273.461 120.898 273.871 120.148 274.092 119.79H274.177V121.119C274.177 122.21 273.41 122.705 272.354 122.705C271.165 122.705 270.747 122.078 270.479 121.716L269.677 122.278C270.086 122.964 270.892 123.591 272.354 123.591ZM272.319 119.994C271.058 119.994 270.41 119.04 270.41 117.676C270.41 116.347 271.041 115.273 272.319 115.273C273.547 115.273 274.194 116.261 274.194 117.676C274.194 119.125 273.53 119.994 272.319 119.994ZM277.024 121H278.03V114.455H277.024V121ZM277.535 113.364C277.927 113.364 278.251 113.057 278.251 112.682C278.251 112.307 277.927 112 277.535 112C277.143 112 276.819 112.307 276.819 112.682C276.819 113.057 277.143 113.364 277.535 113.364ZM282.718 114.455H281.32V112.886H280.315V114.455H279.326V115.307H280.315V119.398C280.315 120.54 281.235 121.085 282.088 121.085C282.463 121.085 282.701 121.017 282.838 120.966L282.633 120.062C282.548 120.08 282.411 120.114 282.19 120.114C281.747 120.114 281.32 119.977 281.32 119.125V115.307H282.718V114.455ZM286.157 121.153C287.299 121.153 287.896 120.54 288.1 120.114H288.151V121H289.157V116.688C289.157 114.608 287.572 114.369 286.737 114.369C285.748 114.369 284.623 114.71 284.112 115.903L285.066 116.244C285.288 115.767 285.812 115.256 286.771 115.256C287.695 115.256 288.151 115.746 288.151 116.585V116.619C288.151 117.105 287.657 117.062 286.464 117.216C285.249 117.374 283.924 117.642 283.924 119.142C283.924 120.42 284.913 121.153 286.157 121.153ZM286.311 120.25C285.509 120.25 284.93 119.892 284.93 119.193C284.93 118.426 285.629 118.188 286.413 118.085C286.839 118.034 287.981 117.915 288.151 117.71V118.631C288.151 119.449 287.504 120.25 286.311 120.25ZM291.998 112.273H290.993V121H291.998V112.273ZM299.874 121.136C301.323 121.136 302.278 120.25 302.448 119.091H301.443C301.255 119.807 300.659 120.233 299.874 120.233C298.681 120.233 297.914 119.244 297.914 117.727C297.914 116.244 298.698 115.273 299.874 115.273C300.761 115.273 301.289 115.818 301.443 116.415H302.448C302.278 115.188 301.238 114.369 299.857 114.369C298.085 114.369 296.909 115.767 296.909 117.761C296.909 119.722 298.034 121.136 299.874 121.136ZM308.044 118.324C308.044 119.551 307.106 120.114 306.356 120.114C305.521 120.114 304.924 119.5 304.924 118.545V114.455H303.919V118.614C303.919 120.284 304.805 121.085 306.032 121.085C307.021 121.085 307.669 120.557 307.975 119.892H308.044V121H309.049V114.455H308.044V118.324ZM310.891 121H311.897V116.858C311.897 115.972 312.596 115.324 313.55 115.324C313.819 115.324 314.096 115.375 314.164 115.392V114.369C314.049 114.361 313.785 114.352 313.635 114.352C312.851 114.352 312.17 114.795 311.931 115.443H311.863V114.455H310.891V121ZM315.356 121H316.362V116.858C316.362 115.972 317.061 115.324 318.015 115.324C318.284 115.324 318.561 115.375 318.629 115.392V114.369C318.514 114.361 318.249 114.352 318.1 114.352C317.316 114.352 316.634 114.795 316.396 115.443H316.328V114.455H315.356V121ZM322.366 121.136C323.695 121.136 324.667 120.472 324.974 119.483L324.002 119.21C323.747 119.892 323.154 120.233 322.366 120.233C321.186 120.233 320.372 119.47 320.325 118.068H325.076V117.642C325.076 115.205 323.627 114.369 322.264 114.369C320.491 114.369 319.315 115.767 319.315 117.778C319.315 119.79 320.474 121.136 322.366 121.136ZM320.325 117.199C320.393 116.18 321.113 115.273 322.264 115.273C323.355 115.273 324.053 116.091 324.053 117.199H320.325ZM327.612 117.062C327.612 115.92 328.319 115.273 329.282 115.273C330.215 115.273 330.782 115.882 330.782 116.909V121H331.788V116.841C331.788 115.17 330.897 114.369 329.572 114.369C328.583 114.369 327.97 114.812 327.663 115.477H327.578V114.455H326.606V121H327.612V117.062ZM336.285 121.136C337.733 121.136 338.688 120.25 338.858 119.091H337.853C337.665 119.807 337.069 120.233 336.285 120.233C335.091 120.233 334.324 119.244 334.324 117.727C334.324 116.244 335.108 115.273 336.285 115.273C337.171 115.273 337.699 115.818 337.853 116.415H338.858C338.688 115.188 337.648 114.369 336.268 114.369C334.495 114.369 333.319 115.767 333.319 117.761C333.319 119.722 334.444 121.136 336.285 121.136ZM340.329 121H341.334V114.455H340.329V121ZM340.84 113.364C341.232 113.364 341.556 113.057 341.556 112.682C341.556 112.307 341.232 112 340.84 112C340.448 112 340.124 112.307 340.124 112.682C340.124 113.057 340.448 113.364 340.84 113.364ZM345.921 121.136C347.25 121.136 348.222 120.472 348.529 119.483L347.557 119.21C347.301 119.892 346.709 120.233 345.921 120.233C344.74 120.233 343.926 119.47 343.879 118.068H348.631V117.642C348.631 115.205 347.182 114.369 345.818 114.369C344.046 114.369 342.869 115.767 342.869 117.778C342.869 119.79 344.029 121.136 345.921 121.136ZM343.879 117.199C343.948 116.18 344.668 115.273 345.818 115.273C346.909 115.273 347.608 116.091 347.608 117.199H343.879ZM354.797 115.92C354.482 114.991 353.774 114.369 352.479 114.369C351.098 114.369 350.075 115.153 350.075 116.261C350.075 117.165 350.612 117.77 351.814 118.051L352.905 118.307C353.566 118.46 353.877 118.776 353.877 119.227C353.877 119.79 353.28 120.25 352.343 120.25C351.52 120.25 351.004 119.896 350.825 119.193L349.871 119.432C350.105 120.544 351.021 121.136 352.36 121.136C353.881 121.136 354.916 120.305 354.916 119.176C354.916 118.264 354.345 117.689 353.178 117.403L352.206 117.165C351.431 116.973 351.081 116.713 351.081 116.21C351.081 115.648 351.678 115.239 352.479 115.239C353.357 115.239 353.719 115.724 353.894 116.176L354.797 115.92Z" fill="#2E4F6B"/>
<path d="M415.752 109H418.906C420.968 109 421.82 107.994 421.82 106.682C421.82 105.301 420.866 104.551 420.065 104.5V104.415C420.815 104.21 421.479 103.716 421.479 102.591C421.479 101.312 420.627 100.273 418.803 100.273H415.752V109ZM416.809 108.062V105.028H418.957C420.099 105.028 420.815 105.795 420.815 106.682C420.815 107.449 420.286 108.062 418.906 108.062H416.809ZM416.809 104.108V101.21H418.803C419.962 101.21 420.474 101.824 420.474 102.591C420.474 103.511 419.724 104.108 418.769 104.108H416.809ZM427.545 106.324C427.545 107.551 426.608 108.114 425.858 108.114C425.023 108.114 424.426 107.5 424.426 106.545V102.455H423.42V106.614C423.42 108.284 424.307 109.085 425.534 109.085C426.523 109.085 427.17 108.557 427.477 107.892H427.545V109H428.551V102.455H427.545V106.324ZM431.041 111.438C431.949 111.438 432.592 110.956 432.967 109.955L435.754 102.472L434.654 102.455L432.848 107.67H432.779L430.973 102.455H429.882L432.302 109.034L432.115 109.545C431.757 110.526 431.297 110.619 430.564 110.432L430.308 111.318C430.41 111.369 430.7 111.438 431.041 111.438ZM442.386 109.153C443.528 109.153 444.124 108.54 444.329 108.114H444.38V109H445.386V104.688C445.386 102.608 443.8 102.369 442.965 102.369C441.977 102.369 440.852 102.71 440.34 103.903L441.295 104.244C441.516 103.767 442.04 103.256 442.999 103.256C443.924 103.256 444.38 103.746 444.38 104.585V104.619C444.38 105.105 443.886 105.062 442.692 105.216C441.478 105.374 440.153 105.642 440.153 107.142C440.153 108.42 441.141 109.153 442.386 109.153ZM442.539 108.25C441.738 108.25 441.158 107.892 441.158 107.193C441.158 106.426 441.857 106.188 442.641 106.085C443.067 106.034 444.21 105.915 444.38 105.71V106.631C444.38 107.449 443.732 108.25 442.539 108.25ZM448.227 105.062C448.227 103.92 448.934 103.273 449.897 103.273C450.831 103.273 451.397 103.882 451.397 104.909V109H452.403V104.841C452.403 103.17 451.512 102.369 450.187 102.369C449.199 102.369 448.585 102.812 448.278 103.477H448.193V102.455H447.221V109H448.227V105.062ZM456.712 109.136C457.974 109.136 458.4 108.352 458.621 107.994H458.741V109H459.712V100.273H458.707V103.494H458.621C458.4 103.153 458.008 102.369 456.729 102.369C455.076 102.369 453.934 103.682 453.934 105.744C453.934 107.824 455.076 109.136 456.712 109.136ZM456.849 108.233C455.587 108.233 454.94 107.125 454.94 105.727C454.94 104.347 455.57 103.273 456.849 103.273C458.076 103.273 458.724 104.261 458.724 105.727C458.724 107.21 458.059 108.233 456.849 108.233ZM469.705 103.92C469.39 102.991 468.683 102.369 467.387 102.369C466.006 102.369 464.984 103.153 464.984 104.261C464.984 105.165 465.521 105.77 466.722 106.051L467.813 106.307C468.474 106.46 468.785 106.776 468.785 107.227C468.785 107.79 468.188 108.25 467.251 108.25C466.428 108.25 465.913 107.896 465.734 107.193L464.779 107.432C465.013 108.544 465.93 109.136 467.268 109.136C468.789 109.136 469.825 108.305 469.825 107.176C469.825 106.264 469.254 105.689 468.086 105.403L467.114 105.165C466.339 104.973 465.989 104.713 465.989 104.21C465.989 103.648 466.586 103.239 467.387 103.239C468.265 103.239 468.627 103.724 468.802 104.176L469.705 103.92ZM474.083 109.136C475.412 109.136 476.384 108.472 476.691 107.483L475.719 107.21C475.463 107.892 474.871 108.233 474.083 108.233C472.902 108.233 472.088 107.47 472.042 106.068H476.793V105.642C476.793 103.205 475.344 102.369 473.98 102.369C472.208 102.369 471.032 103.767 471.032 105.778C471.032 107.79 472.191 109.136 474.083 109.136ZM472.042 105.199C472.11 104.18 472.83 103.273 473.98 103.273C475.071 103.273 475.77 104.091 475.77 105.199H472.042ZM479.328 100.273H478.323V109H479.328V100.273ZM482.176 100.273H481.17V109H482.176V100.273ZM487.393 111.455H488.399V107.994H488.484C488.706 108.352 489.132 109.136 490.393 109.136C492.029 109.136 493.172 107.824 493.172 105.744C493.172 103.682 492.029 102.369 490.376 102.369C489.098 102.369 488.706 103.153 488.484 103.494H488.365V102.455H487.393V111.455ZM488.382 105.727C488.382 104.261 489.029 103.273 490.257 103.273C491.535 103.273 492.166 104.347 492.166 105.727C492.166 107.125 491.518 108.233 490.257 108.233C489.047 108.233 488.382 107.21 488.382 105.727ZM497.365 109.136C499.137 109.136 500.331 107.79 500.331 105.761C500.331 103.716 499.137 102.369 497.365 102.369C495.592 102.369 494.399 103.716 494.399 105.761C494.399 107.79 495.592 109.136 497.365 109.136ZM497.365 108.233C496.018 108.233 495.404 107.074 495.404 105.761C495.404 104.449 496.018 103.273 497.365 103.273C498.711 103.273 499.325 104.449 499.325 105.761C499.325 107.074 498.711 108.233 497.365 108.233ZM501.866 111.455H502.871V107.994H502.957C503.178 108.352 503.604 109.136 504.866 109.136C506.502 109.136 507.644 107.824 507.644 105.744C507.644 103.682 506.502 102.369 504.849 102.369C503.57 102.369 503.178 103.153 502.957 103.494H502.837V102.455H501.866V111.455ZM502.854 105.727C502.854 104.261 503.502 103.273 504.729 103.273C506.008 103.273 506.638 104.347 506.638 105.727C506.638 107.125 505.991 108.233 504.729 108.233C503.519 108.233 502.854 107.21 502.854 105.727ZM513.303 106.324C513.303 107.551 512.366 108.114 511.616 108.114C510.781 108.114 510.184 107.5 510.184 106.545V102.455H509.178V106.614C509.178 108.284 510.065 109.085 511.292 109.085C512.281 109.085 512.928 108.557 513.235 107.892H513.303V109H514.309V102.455H513.303V106.324ZM517.157 100.273H516.151V109H517.157V100.273ZM520.925 109.153C522.067 109.153 522.663 108.54 522.868 108.114H522.919V109H523.925V104.688C523.925 102.608 522.339 102.369 521.504 102.369C520.516 102.369 519.391 102.71 518.879 103.903L519.834 104.244C520.055 103.767 520.58 103.256 521.538 103.256C522.463 103.256 522.919 103.746 522.919 104.585V104.619C522.919 105.105 522.425 105.062 521.232 105.216C520.017 105.374 518.692 105.642 518.692 107.142C518.692 108.42 519.68 109.153 520.925 109.153ZM521.078 108.25C520.277 108.25 519.697 107.892 519.697 107.193C519.697 106.426 520.396 106.188 521.18 106.085C521.607 106.034 522.749 105.915 522.919 105.71V106.631C522.919 107.449 522.271 108.25 521.078 108.25ZM525.76 109H526.766V104.858C526.766 103.972 527.465 103.324 528.419 103.324C528.688 103.324 528.965 103.375 529.033 103.392V102.369C528.918 102.361 528.654 102.352 528.505 102.352C527.721 102.352 527.039 102.795 526.8 103.443H526.732V102.455H525.76V109ZM426.882 121.136C428.144 121.136 428.57 120.352 428.791 119.994H428.911V121H429.882V112.273H428.877V115.494H428.791C428.57 115.153 428.178 114.369 426.899 114.369C425.246 114.369 424.104 115.682 424.104 117.744C424.104 119.824 425.246 121.136 426.882 121.136ZM427.019 120.233C425.757 120.233 425.11 119.125 425.11 117.727C425.11 116.347 425.74 115.273 427.019 115.273C428.246 115.273 428.894 116.261 428.894 117.727C428.894 119.21 428.229 120.233 427.019 120.233ZM431.864 121H432.869V114.455H431.864V121ZM432.375 113.364C432.767 113.364 433.091 113.057 433.091 112.682C433.091 112.307 432.767 112 432.375 112C431.983 112 431.659 112.307 431.659 112.682C431.659 113.057 431.983 113.364 432.375 113.364ZM437.354 123.591C438.922 123.591 440.183 122.875 440.183 121.188V114.455H439.211V115.494H439.109C438.888 115.153 438.479 114.369 437.2 114.369C435.547 114.369 434.405 115.682 434.405 117.693C434.405 119.739 435.598 120.898 437.183 120.898C438.461 120.898 438.871 120.148 439.092 119.79H439.177V121.119C439.177 122.21 438.41 122.705 437.354 122.705C436.165 122.705 435.747 122.078 435.479 121.716L434.677 122.278C435.086 122.964 435.892 123.591 437.354 123.591ZM437.319 119.994C436.058 119.994 435.41 119.04 435.41 117.676C435.41 116.347 436.041 115.273 437.319 115.273C438.547 115.273 439.194 116.261 439.194 117.676C439.194 119.125 438.53 119.994 437.319 119.994ZM442.024 121H443.03V114.455H442.024V121ZM442.535 113.364C442.927 113.364 443.251 113.057 443.251 112.682C443.251 112.307 442.927 112 442.535 112C442.143 112 441.819 112.307 441.819 112.682C441.819 113.057 442.143 113.364 442.535 113.364ZM447.718 114.455H446.32V112.886H445.315V114.455H444.326V115.307H445.315V119.398C445.315 120.54 446.235 121.085 447.088 121.085C447.463 121.085 447.701 121.017 447.838 120.966L447.633 120.062C447.548 120.08 447.411 120.114 447.19 120.114C446.747 120.114 446.32 119.977 446.32 119.125V115.307H447.718V114.455ZM451.157 121.153C452.299 121.153 452.896 120.54 453.1 120.114H453.151V121H454.157V116.688C454.157 114.608 452.572 114.369 451.737 114.369C450.748 114.369 449.623 114.71 449.112 115.903L450.066 116.244C450.288 115.767 450.812 115.256 451.771 115.256C452.695 115.256 453.151 115.746 453.151 116.585V116.619C453.151 117.105 452.657 117.062 451.464 117.216C450.249 117.374 448.924 117.642 448.924 119.142C448.924 120.42 449.913 121.153 451.157 121.153ZM451.311 120.25C450.509 120.25 449.93 119.892 449.93 119.193C449.93 118.426 450.629 118.188 451.413 118.085C451.839 118.034 452.981 117.915 453.151 117.71V118.631C453.151 119.449 452.504 120.25 451.311 120.25ZM456.998 112.273H455.993V121H456.998V112.273ZM464.874 121.136C466.323 121.136 467.278 120.25 467.448 119.091H466.443C466.255 119.807 465.659 120.233 464.874 120.233C463.681 120.233 462.914 119.244 462.914 117.727C462.914 116.244 463.698 115.273 464.874 115.273C465.761 115.273 466.289 115.818 466.443 116.415H467.448C467.278 115.188 466.238 114.369 464.857 114.369C463.085 114.369 461.909 115.767 461.909 117.761C461.909 119.722 463.034 121.136 464.874 121.136ZM473.044 118.324C473.044 119.551 472.106 120.114 471.356 120.114C470.521 120.114 469.924 119.5 469.924 118.545V114.455H468.919V118.614C468.919 120.284 469.805 121.085 471.032 121.085C472.021 121.085 472.669 120.557 472.975 119.892H473.044V121H474.049V114.455H473.044V118.324ZM475.891 121H476.897V116.858C476.897 115.972 477.596 115.324 478.55 115.324C478.819 115.324 479.096 115.375 479.164 115.392V114.369C479.049 114.361 478.785 114.352 478.635 114.352C477.851 114.352 477.17 114.795 476.931 115.443H476.863V114.455H475.891V121ZM480.356 121H481.362V116.858C481.362 115.972 482.061 115.324 483.015 115.324C483.284 115.324 483.561 115.375 483.629 115.392V114.369C483.514 114.361 483.249 114.352 483.1 114.352C482.316 114.352 481.634 114.795 481.396 115.443H481.328V114.455H480.356V121ZM487.366 121.136C488.695 121.136 489.667 120.472 489.974 119.483L489.002 119.21C488.747 119.892 488.154 120.233 487.366 120.233C486.186 120.233 485.372 119.47 485.325 118.068H490.076V117.642C490.076 115.205 488.627 114.369 487.264 114.369C485.491 114.369 484.315 115.767 484.315 117.778C484.315 119.79 485.474 121.136 487.366 121.136ZM485.325 117.199C485.393 116.18 486.113 115.273 487.264 115.273C488.355 115.273 489.053 116.091 489.053 117.199H485.325ZM492.612 117.062C492.612 115.92 493.319 115.273 494.282 115.273C495.215 115.273 495.782 115.882 495.782 116.909V121H496.788V116.841C496.788 115.17 495.897 114.369 494.572 114.369C493.583 114.369 492.97 114.812 492.663 115.477H492.578V114.455H491.606V121H492.612V117.062ZM501.285 121.136C502.733 121.136 503.688 120.25 503.858 119.091H502.853C502.665 119.807 502.069 120.233 501.285 120.233C500.091 120.233 499.324 119.244 499.324 117.727C499.324 116.244 500.108 115.273 501.285 115.273C502.171 115.273 502.699 115.818 502.853 116.415H503.858C503.688 115.188 502.648 114.369 501.268 114.369C499.495 114.369 498.319 115.767 498.319 117.761C498.319 119.722 499.444 121.136 501.285 121.136ZM505.329 121H506.334V114.455H505.329V121ZM505.84 113.364C506.232 113.364 506.556 113.057 506.556 112.682C506.556 112.307 506.232 112 505.84 112C505.448 112 505.124 112.307 505.124 112.682C505.124 113.057 505.448 113.364 505.84 113.364ZM510.921 121.136C512.25 121.136 513.222 120.472 513.529 119.483L512.557 119.21C512.301 119.892 511.709 120.233 510.921 120.233C509.74 120.233 508.926 119.47 508.879 118.068H513.631V117.642C513.631 115.205 512.182 114.369 510.818 114.369C509.046 114.369 507.869 115.767 507.869 117.778C507.869 119.79 509.029 121.136 510.921 121.136ZM508.879 117.199C508.948 116.18 509.668 115.273 510.818 115.273C511.909 115.273 512.608 116.091 512.608 117.199H508.879ZM519.797 115.92C519.482 114.991 518.774 114.369 517.479 114.369C516.098 114.369 515.075 115.153 515.075 116.261C515.075 117.165 515.612 117.77 516.814 118.051L517.905 118.307C518.566 118.46 518.877 118.776 518.877 119.227C518.877 119.79 518.28 120.25 517.343 120.25C516.52 120.25 516.004 119.896 515.825 119.193L514.871 119.432C515.105 120.544 516.021 121.136 517.36 121.136C518.881 121.136 519.916 120.305 519.916 119.176C519.916 118.264 519.345 117.689 518.178 117.403L517.206 117.165C516.431 116.973 516.081 116.713 516.081 116.21C516.081 115.648 516.678 115.239 517.479 115.239C518.357 115.239 518.719 115.724 518.894 116.176L519.797 115.92Z" fill="#2E4F6B"/>
<g opacity="0.3">
<path opacity="0.3" d="M534.981 91.6015H406.132C404.933 91.6015 403.734 90.7033 403.734 89.2062C403.734 88.0086 404.633 87.1104 406.132 87.1104H534.981C536.18 87.1104 537.378 88.0086 537.378 89.2062C537.079 90.7033 536.18 91.6015 534.981 91.6015Z" fill="#727E94"/>
<path opacity="0.3" d="M206.571 91.6015H77.7214C76.5228 91.6015 75.3242 90.7033 75.3242 89.2062C75.3242 88.0086 76.2232 87.1104 77.7214 87.1104H206.571C207.769 87.1104 208.968 88.0086 208.968 89.2062C208.968 90.7033 207.769 91.6015 206.571 91.6015Z" fill="#727E94"/>
<path opacity="0.3" d="M370.778 91.6015H241.928C240.73 91.6015 239.531 90.7033 239.531 89.2062C239.531 88.0086 240.43 87.1104 241.928 87.1104H370.778C371.977 87.1104 373.175 88.0086 373.175 89.2062C372.875 90.7033 371.977 91.6015 370.778 91.6015Z" fill="#727E94"/>
</g>
<defs>
<filter id="filter0_d" x="0" y="18" width="620" height="477" filterUnits="userSpaceOnUse" color-interpolation-filters="sRGB">
<feFlood flood-opacity="0" result="BackgroundImageFix"/>
<feColorMatrix in="SourceAlpha" type="matrix" values="0 0 0 0 0 0 0 0 0 0 0 0 0 0 0 0 0 0 127 0"/>
<feOffset dy="4"/>
<feGaussianBlur stdDeviation="30"/>
<feColorMatrix type="matrix" values="0 0 0 0 0.980392 0 0 0 0 0.639216 0 0 0 0 0.219608 0 0 0 0.3 0"/>
<feBlend mode="normal" in2="BackgroundImageFix" result="effect1_dropShadow"/>
<feBlend mode="normal" in="SourceGraphic" in2="effect1_dropShadow" result="shape"/>
</filter>
<filter id="filter1_d" x="10.0039" y="0" width="593" height="435" filterUnits="userSpaceOnUse" color-interpolation-filters="sRGB">
<feFlood flood-opacity="0" result="BackgroundImageFix"/>
<feColorMatrix in="SourceAlpha" type="matrix" values="0 0 0 0 0 0 0 0 0 0 0 0 0 0 0 0 0 0 127 0"/>
<feOffset/>
<feGaussianBlur stdDeviation="2"/>
<feColorMatrix type="matrix" values="0 0 0 0 0.980392 0 0 0 0 0.639216 0 0 0 0 0.219608 0 0 0 0.14 0"/>
<feBlend mode="normal" in2="BackgroundImageFix" result="effect1_dropShadow"/>
<feBlend mode="normal" in="SourceGraphic" in2="effect1_dropShadow" result="shape"/>
</filter>
<linearGradient id="paint0_linear" x1="67.3696" y1="393.385" x2="67.3696" y2="141.355" gradientUnits="userSpaceOnUse">
<stop stop-color="#727E94"/>
<stop offset="0.138" stop-color="#788498"/>
<stop offset="0.3169" stop-color="#8892A5"/>
<stop offset="0.5182" stop-color="#A2ABB9"/>
<stop offset="0.736" stop-color="#C8CDD5"/>
<stop offset="0.9647" stop-color="#F7F8F9"/>
<stop offset="1" stop-color="white"/>
</linearGradient>
<linearGradient id="paint1_linear" x1="120.478" y1="393.385" x2="120.478" y2="141.355" gradientUnits="userSpaceOnUse">
<stop stop-color="#727E94"/>
<stop offset="0.138" stop-color="#788498"/>
<stop offset="0.3169" stop-color="#8892A5"/>
<stop offset="0.5182" stop-color="#A2ABB9"/>
<stop offset="0.736" stop-color="#C8CDD5"/>
<stop offset="0.9647" stop-color="#F7F8F9"/>
<stop offset="1" stop-color="white"/>
</linearGradient>
<linearGradient id="paint2_linear" x1="173.59" y1="393.385" x2="173.59" y2="141.355" gradientUnits="userSpaceOnUse">
<stop stop-color="#727E94"/>
<stop offset="0.138" stop-color="#788498"/>
<stop offset="0.3169" stop-color="#8892A5"/>
<stop offset="0.5182" stop-color="#A2ABB9"/>
<stop offset="0.736" stop-color="#C8CDD5"/>
<stop offset="0.9647" stop-color="#F7F8F9"/>
<stop offset="1" stop-color="white"/>
</linearGradient>
<linearGradient id="paint3_linear" x1="226.695" y1="393.385" x2="226.695" y2="141.355" gradientUnits="userSpaceOnUse">
<stop stop-color="#727E94"/>
<stop offset="0.138" stop-color="#788498"/>
<stop offset="0.3169" stop-color="#8892A5"/>
<stop offset="0.5182" stop-color="#A2ABB9"/>
<stop offset="0.736" stop-color="#C8CDD5"/>
<stop offset="0.9647" stop-color="#F7F8F9"/>
<stop offset="1" stop-color="white"/>
</linearGradient>
<linearGradient id="paint4_linear" x1="279.802" y1="393.385" x2="279.802" y2="141.355" gradientUnits="userSpaceOnUse">
<stop stop-color="#727E94"/>
<stop offset="0.138" stop-color="#788498"/>
<stop offset="0.3169" stop-color="#8892A5"/>
<stop offset="0.5182" stop-color="#A2ABB9"/>
<stop offset="0.736" stop-color="#C8CDD5"/>
<stop offset="0.9647" stop-color="#F7F8F9"/>
<stop offset="1" stop-color="white"/>
</linearGradient>
<linearGradient id="paint5_linear" x1="332.902" y1="393.385" x2="332.902" y2="141.355" gradientUnits="userSpaceOnUse">
<stop stop-color="#727E94"/>
<stop offset="0.138" stop-color="#788498"/>
<stop offset="0.3169" stop-color="#8892A5"/>
<stop offset="0.5182" stop-color="#A2ABB9"/>
<stop offset="0.736" stop-color="#C8CDD5"/>
<stop offset="0.9647" stop-color="#F7F8F9"/>
<stop offset="1" stop-color="white"/>
</linearGradient>
<linearGradient id="paint6_linear" x1="386.019" y1="393.385" x2="386.019" y2="141.355" gradientUnits="userSpaceOnUse">
<stop stop-color="#727E94"/>
<stop offset="0.138" stop-color="#788498"/>
<stop offset="0.3169" stop-color="#8892A5"/>
<stop offset="0.5182" stop-color="#A2ABB9"/>
<stop offset="0.736" stop-color="#C8CDD5"/>
<stop offset="0.9647" stop-color="#F7F8F9"/>
<stop offset="1" stop-color="white"/>
</linearGradient>
<linearGradient id="paint7_linear" x1="439.117" y1="393.385" x2="439.117" y2="141.355" gradientUnits="userSpaceOnUse">
<stop stop-color="#727E94"/>
<stop offset="0.138" stop-color="#788498"/>
<stop offset="0.3169" stop-color="#8892A5"/>
<stop offset="0.5182" stop-color="#A2ABB9"/>
<stop offset="0.736" stop-color="#C8CDD5"/>
<stop offset="0.9647" stop-color="#F7F8F9"/>
<stop offset="1" stop-color="white"/>
</linearGradient>
<linearGradient id="paint8_linear" x1="492.225" y1="393.385" x2="492.225" y2="141.355" gradientUnits="userSpaceOnUse">
<stop stop-color="#727E94"/>
<stop offset="0.138" stop-color="#788498"/>
<stop offset="0.3169" stop-color="#8892A5"/>
<stop offset="0.5182" stop-color="#A2ABB9"/>
<stop offset="0.736" stop-color="#C8CDD5"/>
<stop offset="0.9647" stop-color="#F7F8F9"/>
<stop offset="1" stop-color="white"/>
</linearGradient>
<linearGradient id="paint9_linear" x1="545.331" y1="393.385" x2="545.331" y2="141.355" gradientUnits="userSpaceOnUse">
<stop stop-color="#727E94"/>
<stop offset="0.138" stop-color="#788498"/>
<stop offset="0.3169" stop-color="#8892A5"/>
<stop offset="0.5182" stop-color="#A2ABB9"/>
<stop offset="0.736" stop-color="#C8CDD5"/>
<stop offset="0.9647" stop-color="#F7F8F9"/>
<stop offset="1" stop-color="white"/>
</linearGradient>
<linearGradient id="paint10_linear" x1="13.8945" y1="293.635" x2="598.504" y2="293.635" gradientUnits="userSpaceOnUse">
<stop stop-color="#FFD364"/>
<stop offset="1" stop-color="#FAA136"/>
</linearGradient>
</defs>
</svg>
