<svg width="26" height="26" viewBox="0 0 26 26" fill="none" xmlns="http://www.w3.org/2000/svg">
<path d="M13 0C20.15 0 26 5.85 26 13C26 20.15 20.15 26 13 26C5.85 26 0 20.15 0 13C0 5.85 5.85 0 13 0Z" fill="#4598D8"/>
<path d="M19.7159 9.96667C19.7159 11.7 19.1742 13 18.0909 13.975C17.0076 14.95 15.4909 15.3833 13.4326 15.3833H11.9159V21.125H8.44922V4.875H13.6492C15.5992 4.875 17.1159 5.30833 18.1992 6.175C19.1742 7.04167 19.7159 8.23333 19.7159 9.96667ZM11.9159 12.5667H12.9992C14.0826 12.5667 14.8409 12.35 15.3826 11.9167C15.9242 11.4833 16.1409 10.9417 16.1409 10.075C16.1409 9.31667 15.9242 8.66667 15.4909 8.23333C15.0576 7.8 14.4076 7.69167 13.4326 7.69167H11.9159V12.5667Z" fill="white"/>
</svg>
