<svg width="52" height="52" viewBox="0 0 52 52" fill="none" xmlns="http://www.w3.org/2000/svg">
<path d="M18.3828 29.0469C19.2243 29.0469 19.9062 28.3649 19.9062 27.5234V25.7382C21.6796 25.1089 22.9531 23.4157 22.9531 21.4297C22.9531 18.9097 20.9028 16.8594 18.3828 16.8594C17.5429 16.8594 16.8594 16.1758 16.8594 15.3359C16.8594 14.4961 17.5429 13.8125 18.3828 13.8125C18.9251 13.8125 19.431 14.1049 19.7035 14.5754C20.1245 15.3038 21.0564 15.5526 21.7848 15.1312C22.5132 14.7099 22.7619 13.778 22.341 13.0496C21.7895 12.0966 20.9167 11.3889 19.9062 11.0302V9.24219C19.9062 8.40073 19.2243 7.71875 18.3828 7.71875C17.5414 7.71875 16.8594 8.40073 16.8594 9.24219V11.0275C15.086 11.6567 13.8125 13.3499 13.8125 15.3359C13.8125 17.856 15.8628 19.9062 18.3828 19.9062C19.2227 19.9062 19.9062 20.5898 19.9062 21.4297C19.9062 22.2696 19.2227 22.9531 18.3828 22.9531C17.8405 22.9531 17.3347 22.6607 17.0621 22.1902C16.6412 21.4622 15.7093 21.2131 14.9809 21.6344C14.2525 22.0557 14.0037 22.9876 14.4247 23.716C14.9761 24.669 15.8489 25.3767 16.8594 25.7354V27.5234C16.8594 28.3649 17.5414 29.0469 18.3828 29.0469Z" fill="#FAA338"/>
<path d="M36.4474 15.5541C35.0906 6.75589 27.5068 0 18.3828 0C8.27655 0 0 8.27814 0 18.3828C0 27.4314 6.70749 35.074 15.5541 36.4463C16.0128 39.4078 17.1855 42.2397 18.9378 44.6129L15.5918 49.6315C15.28 50.0989 15.251 50.6999 15.5161 51.1954C15.7815 51.6906 16.2976 52 16.8594 52H33.6172C43.7238 52 52 43.7219 52 33.6172C52 24.5262 45.2548 16.9213 36.4474 15.5541ZM3.04688 18.3828C3.04688 9.92654 9.92654 3.04688 18.3828 3.04688C26.7831 3.04688 33.6172 9.92654 33.6172 18.3828C33.6172 21.9819 32.3389 25.4743 30.0181 28.2173C29.5797 28.7354 29.5368 29.4817 29.9133 30.0466L32.2941 33.6172H17.3636C17.2775 33.5918 17.1339 33.5672 17.0629 33.5609C9.20331 32.8872 3.04688 26.2206 3.04688 18.3828ZM33.6172 48.9531H19.7059L22.0867 45.3822C22.4632 44.8172 22.4203 44.0714 21.9819 43.5533C20.3375 41.6097 19.1973 39.2107 18.6867 36.6641H35.1406C35.7024 36.6641 36.2185 36.3546 36.4839 35.8595C36.749 35.364 36.72 34.7629 36.4082 34.2956L33.0634 29.2782C35.3322 26.2214 36.597 22.5116 36.6609 18.6879C43.6778 20.1122 48.9531 26.3646 48.9531 33.6172C48.9531 42.0735 42.0735 48.9531 33.6172 48.9531Z" fill="#FAA338"/>
</svg>
