<svg width="118" height="36" viewBox="0 0 118 36" fill="none" xmlns="http://www.w3.org/2000/svg">
<path fill-rule="evenodd" clip-rule="evenodd" d="M32.343 29.153C32.087 31.027 30.808 32.649 29.017 33.369C28.14 33.73 27.19 33.839 26.24 33.73C25.325 33.621 24.412 33.333 23.462 32.793C22.146 32.072 20.831 30.955 19.295 29.297C21.708 26.379 23.169 23.712 23.718 21.333C23.9552 20.3302 24.0168 19.2938 23.9 18.27C23.7636 17.3883 23.4259 16.55 22.913 15.82C21.78 14.198 19.88 13.26 17.76 13.26C15.64 13.26 13.74 14.234 12.606 15.82C12.0931 16.55 11.7554 17.3883 11.619 18.27C11.4653 19.2926 11.5277 20.336 11.802 21.333C12.351 23.713 13.849 26.414 16.224 29.333C14.726 30.991 13.374 32.109 12.058 32.829C11.108 33.369 10.194 33.658 9.28001 33.766C8.33854 33.8698 7.38592 33.7463 6.50201 33.406C4.71201 32.684 3.43201 31.063 3.17601 29.189C3.05606 28.2394 3.16933 27.2749 3.50601 26.379C3.61501 26.017 3.79701 25.657 3.98001 25.225C4.23601 24.649 4.52901 24.035 4.82101 23.423L4.85701 23.351C7.41301 17.8968 10.094 12.502 12.898 7.171L13.008 6.955C13.301 6.414 13.593 5.838 13.886 5.297C14.178 4.721 14.507 4.179 14.909 3.711C15.676 2.847 16.699 2.378 17.833 2.378C18.966 2.378 19.99 2.847 20.757 3.711C21.159 4.179 21.487 4.721 21.781 5.297C22.073 5.837 22.365 6.414 22.658 6.955L22.768 7.17C25.5387 12.5247 28.2072 17.9317 30.772 23.388V23.423C31.064 24 31.32 24.649 31.612 25.225C31.795 25.657 31.978 26.017 32.087 26.379C32.379 27.316 32.49 28.216 32.343 29.153ZM17.76 27.459C15.786 25.009 14.507 22.703 14.068 20.757C13.885 19.927 13.848 19.207 13.958 18.558C14.031 17.982 14.251 17.478 14.543 17.045C15.238 16.072 16.407 15.459 17.76 15.459C19.111 15.459 20.318 16.036 20.976 17.045C21.268 17.478 21.488 17.982 21.561 18.558C21.671 19.208 21.634 19.964 21.451 20.757C21.012 22.667 19.734 24.973 17.76 27.459ZM34.244 25.585C34.061 25.153 33.879 24.685 33.694 24.288C33.403 23.64 33.111 23.026 32.855 22.451L32.818 22.414C30.2578 16.92 27.5644 11.489 24.74 6.126L24.63 5.91C24.3308 5.34912 24.0387 4.7844 23.754 4.216C23.389 3.566 23.024 2.882 22.438 2.234C21.268 0.793 19.588 0 17.797 0C15.969 0 14.325 0.793 13.118 2.162C12.57 2.81 12.168 3.495 11.803 4.144C11.5182 4.71251 11.2258 5.27723 10.926 5.838L10.816 6.053C8.00101 11.46 5.26001 16.936 2.73801 22.342L2.70001 22.414C2.44601 22.991 2.15301 23.604 1.86001 24.252C1.67801 24.648 1.49501 25.08 1.31301 25.549C0.837008 26.883 0.690008 28.144 0.873008 29.441C1.07407 30.7661 1.6185 32.0155 2.45218 33.065C3.28585 34.1144 4.37972 34.9274 5.62501 35.423C6.57501 35.82 7.56201 36 8.58501 36C8.90278 35.994 9.21996 35.97 9.53501 35.928C10.823 35.767 12.066 35.3505 13.191 34.703C14.689 33.873 16.115 32.684 17.724 30.955C19.331 32.685 20.794 33.874 22.256 34.703C23.3804 35.3503 24.6227 35.7667 25.91 35.928C26.202 35.964 26.569 36 26.86 36C27.884 36 28.907 35.82 29.821 35.423C31.0671 34.9287 32.1618 34.1161 32.9956 33.0664C33.8295 32.0167 34.3734 30.7666 34.573 29.441C34.865 28.181 34.719 26.919 34.243 25.585H34.244ZM70.684 12.9C71.744 12.9 72.292 13.08 72.292 13.08V16.288C72.292 16.288 69.369 15.316 67.54 17.368V26.847H64.032V13.26H66.992C67.1258 13.262 67.2537 13.3155 67.349 13.4094C67.4444 13.5032 67.4999 13.6303 67.504 13.764V14.341C68.163 13.584 69.588 12.899 70.684 12.899V12.9ZM80.187 23.891C78.835 23.891 77.775 23.207 77.227 22.414V17.585C77.775 16.865 78.945 16.108 80.187 16.108C82.527 16.108 84.317 17.55 84.317 20C84.317 22.45 82.527 23.891 80.187 23.891ZM80.772 12.901C78.36 12.901 77.227 14.342 77.227 14.342V6.738H73.717V26.811H76.677C76.8111 26.8092 76.9394 26.7557 77.035 26.6616C77.1306 26.5675 77.1861 26.4401 77.19 26.306V25.694C77.19 25.694 78.323 27.171 80.735 27.171C84.718 27.171 87.825 24.144 87.825 20.036C87.861 15.928 84.755 12.9 80.771 12.9L80.772 12.901ZM101.862 18.775V26.847H98.352V19.17C98.352 16.936 97.622 16.036 95.648 16.036C94.588 16.036 93.491 16.576 92.797 17.369V26.811H89.287V13.261H92.065C92.1988 13.263 92.3267 13.3165 92.422 13.4104C92.5174 13.5042 92.5729 13.6313 92.577 13.765V14.342C93.601 13.297 94.952 12.9 96.305 12.9C97.841 12.9 99.119 13.333 100.143 14.198C101.385 15.207 101.861 16.504 101.861 18.775H101.862ZM110.159 23.891C108.806 23.891 107.745 23.207 107.198 22.414V17.585C107.745 16.865 108.916 16.108 110.159 16.108C112.497 16.108 114.289 17.55 114.289 20C114.289 22.45 112.497 23.891 110.159 23.891ZM110.743 12.901C108.331 12.901 107.198 14.342 107.198 14.342V6.738H103.689V26.811H106.649C106.783 26.809 106.911 26.7554 107.006 26.6613C107.102 26.5672 107.157 26.4399 107.161 26.306V25.694C107.161 25.694 108.294 27.171 110.707 27.171C114.691 27.171 117.797 24.144 117.797 20.036C117.797 15.928 114.691 12.9 110.743 12.9V12.901ZM58.33 26.81H61.838V13.26H58.33V26.81ZM52.665 22.45C52.117 23.243 51.02 23.928 49.705 23.928C47.365 23.928 45.575 22.486 45.575 20.036C45.575 17.586 47.365 16.144 49.705 16.144C50.984 16.144 52.153 16.865 52.665 17.621V22.451V22.45ZM52.665 13.765V14.342C52.665 14.342 51.532 12.9 49.119 12.9C45.135 12.9 42.029 15.891 42.029 20.036C42.029 24.144 45.099 27.171 49.119 27.171C51.569 27.171 52.665 25.694 52.665 25.694V26.306C52.665 26.594 52.885 26.811 53.177 26.811H56.137V13.261H53.177C53.0432 13.263 52.9153 13.3165 52.82 13.4104C52.7246 13.5042 52.6691 13.6313 52.665 13.765ZM62.461 9.045C62.461 10.342 61.401 11.387 60.085 11.387C58.769 11.387 57.709 10.342 57.709 9.045C57.709 7.747 58.732 6.703 60.085 6.703C61.437 6.738 62.461 7.784 62.461 9.045Z" fill="#9BA2AA"/>
</svg>
