<svg width="46" height="46" viewBox="0 0 46 46" fill="none" xmlns="http://www.w3.org/2000/svg">
<path d="M23 0C10.264 0 0 10.3178 0 23C0 35.6822 10.3178 46 23 46C35.6822 46 46 35.6822 46 23C46 10.3178 35.736 0 23 0ZM33.3178 24.7734L26.493 28.6963C26.4393 28.6963 26.4393 28.75 26.3855 28.75L19.5607 32.6729C19.2383 32.8879 18.8084 33.0491 18.3785 33.0491C17.25 33.0491 16.2827 32.1355 16.2827 30.9533V23V14.993C16.2827 14.6168 16.3902 14.2944 16.5514 13.972C17.1425 13.0047 18.3785 12.6285 19.3995 13.2196L26.3318 17.1963L33.2103 21.1729C33.5327 21.3341 33.8014 21.6028 34.0164 21.9252C34.6612 22.9463 34.3388 24.236 33.3178 24.7734Z" fill="white"/>
</svg>
