<svg width="50" height="50" viewBox="0 0 50 50" fill="none" xmlns="http://www.w3.org/2000/svg">
<circle cx="25" cy="25" r="24.5" stroke="#E0EFFB"/>
<path d="M25 5C36 5 45 14 45 25C45 36 36 45 25 45C14 45 5 36 5 25C5 14 14 5 25 5Z" fill="#F7931A"/>
<path d="M34.1706 22.5003C34.5039 19.667 32.5039 18.167 29.5039 17.167L30.5039 13.3337L28.1706 12.8337L27.1706 16.5003C26.5039 16.3337 25.8372 16.167 25.3372 16.0003L26.3372 12.167L24.0039 11.667L23.0039 15.5003C22.5039 15.3337 18.3372 14.3337 18.3372 14.3337L17.8372 16.8337L19.5039 17.167C20.5039 17.5003 20.6706 18.0003 20.5039 18.5003L18.0039 29.0003C17.8372 29.3337 17.6706 29.667 17.0039 29.5003L15.3372 29.167L14.0039 31.667C14.0039 31.667 18.1706 32.667 18.6706 32.8337L17.6706 36.667L20.0039 37.3337L21.0039 33.5003C21.6706 33.667 22.3372 33.8337 22.8372 34.0003L21.8372 37.8337L24.1706 38.5003L25.1706 34.667C29.1706 35.3337 32.1706 35.167 33.3372 31.5003C34.3372 28.667 33.3372 27.0003 31.1706 25.8337C32.6706 25.667 33.8372 24.667 34.1706 22.5003ZM28.8372 30.0003C28.1706 32.8337 23.3372 31.3337 21.6706 31.0003L23.0039 25.8337C24.6706 26.167 29.6706 27.0003 28.8372 30.0003ZM29.6706 22.5003C29.0039 25.167 25.0039 23.8337 23.6706 23.5003L24.8372 18.8337C26.0039 19.167 30.3372 19.667 29.6706 22.5003Z" fill="white"/>
</svg>
