<svg width="33" height="30" viewBox="0 0 33 30" fill="none" xmlns="http://www.w3.org/2000/svg">
<g clip-path="url(#clip0)">
<path d="M23.8994 11.7799C21.2657 11.7799 18.9025 12.9053 17.2368 14.6859L17.4219 14.7856C18.874 16.3953 19.7567 18.5463 19.7567 20.8825C19.7567 23.2329 18.8598 25.3839 17.3934 26.9936L17.2795 27.1218C18.9452 28.8882 21.2942 29.9993 23.8994 29.9993C28.9249 29.9993 32.9965 25.911 32.9965 20.8825C32.9965 15.854 28.9249 11.7799 23.8994 11.7799Z" fill="#7692AB"/>
<path d="M17.2729 27.1372C15.7496 25.499 14.81 23.3053 14.81 20.8836C14.81 18.4904 15.7354 16.311 17.2444 14.687L17.2587 14.7013C17.2729 14.687 17.2729 14.6728 17.2871 14.6585C15.6215 12.8922 13.2725 11.7953 10.6672 11.7953C5.64175 11.7953 1.55591 15.8694 1.55591 20.8979C1.55591 25.9263 5.62752 30.0147 10.6672 30.0147C13.2725 30.0004 15.6072 28.9035 17.2729 27.1372Z" fill="#7692AB"/>
<path d="M3.33447 18.6051H4.13171L5.15673 21.155L6.06786 18.6051H6.90781V21.9954H6.25293V19.474L5.38451 21.9954H4.88624L4.01782 19.5168V21.9954H3.33447V18.6051Z" fill="white"/>
<path d="M10.2486 21.9938V19.4012H9.69336V21.9938H10.2486Z" fill="white"/>
<path d="M14.3659 19.401H13.9815V18.646H13.3978V19.401H13.0562V20.0135H13.3978V21.9936H13.9815V20.0135H14.3659V19.401Z" fill="white"/>
<path d="M26.3108 21.9938V19.4012H25.7556V21.9938H26.3108Z" fill="white"/>
<path d="M31.3467 21.9953V18.7474H30.7915V21.9953H31.3467Z" fill="white"/>
<path d="M18.7236 19.4023H18.1399V21.9949H18.7236V20.2712C18.8659 19.9863 19.2788 19.9293 19.3357 19.9293V19.3738C19.1934 19.3738 18.7236 19.4735 18.7093 19.7299L18.7236 19.4023Z" fill="#7692AB"/>
<path d="M27.5913 19.4023H27.0076V21.9949H27.6055V20.2712C27.7336 19.9863 28.1607 19.9293 28.2177 19.9293V19.3738C28.0895 19.3738 27.6197 19.4735 27.5913 19.7299V19.4023Z" fill="white"/>
<path d="M12.0019 20.143H12.5714C12.5714 19.6872 12.2867 19.4165 11.8026 19.4165C11.3186 19.4165 10.9485 19.6729 10.9485 20.2285C10.9485 20.784 11.5321 20.8695 11.6318 20.898C11.7457 20.9265 12.0731 20.9692 12.0731 21.3253C12.0731 21.4535 11.9165 21.4963 11.7742 21.4963C11.646 21.4963 11.5037 21.3966 11.5037 21.2399H10.863C10.863 21.8239 11.3186 22.0518 11.7742 22.0518C12.2297 22.0518 12.6568 21.6815 12.6568 21.2399C12.6568 20.8125 12.2297 20.5561 11.9023 20.4991C11.404 20.4279 11.4467 19.9863 11.7457 19.9863C12.0162 19.9721 12.0019 20.1003 12.0019 20.143Z" fill="white"/>
<path d="M22.4646 21.0695C22.2511 21.3259 21.9379 21.4968 21.582 21.4968C20.9556 21.4968 20.4573 20.9983 20.4573 20.3715C20.4573 19.7447 20.9556 19.2461 21.582 19.2461C21.9379 19.2461 22.2511 19.4028 22.4646 19.6735H23.1907C22.9202 19.0325 22.2938 18.6051 21.582 18.6051C20.5997 18.6051 19.8167 19.4028 19.8167 20.3715C19.8167 21.3401 20.6139 22.1379 21.582 22.1379C22.308 22.1379 22.9344 21.682 23.2049 21.0695H22.4646Z" fill="white"/>
<path d="M30.0072 22.0515C30.7475 22.0515 31.3597 21.439 31.3597 20.6982C31.3597 19.9433 30.7475 19.345 30.0072 19.345V19.9148C30.4343 19.9148 30.7902 20.2709 30.7902 20.6982C30.7902 21.1256 30.4343 21.4675 30.0072 21.4675V22.0515ZM30.0072 22.0515V21.4817C29.5802 21.4817 29.2242 21.1256 29.2242 20.7125C29.2242 20.2851 29.5802 19.929 30.0072 19.929V19.3592C29.267 19.3592 28.6548 19.9575 28.6548 20.7125C28.6548 21.4532 29.267 22.0515 30.0072 22.0515Z" fill="white"/>
<path d="M24.9727 19.345V19.9148C25.3997 19.9148 25.7557 20.2709 25.7557 20.6982C25.7557 21.1256 25.3997 21.4675 24.9727 21.4675V21.4817V22.0515C25.7272 22.0515 26.3251 21.439 26.3251 20.6982C26.3251 19.9433 25.7272 19.345 24.9727 19.345Z" fill="white"/>
<path d="M24.1896 20.7125C24.1896 20.2851 24.5455 19.929 24.9726 19.929V19.9148V19.345C24.2323 19.345 23.6201 19.9433 23.6201 20.6982C23.6201 21.439 24.2323 22.0515 24.9726 22.0515V21.4817C24.5455 21.4817 24.1896 21.1256 24.1896 20.7125Z" fill="white"/>
<path d="M8.91032 19.345C8.15579 19.3592 7.55786 19.9575 7.55786 20.7125C7.55786 21.4532 8.17003 22.0515 8.91032 22.0515C9.65061 22.0515 10.2628 21.439 10.2628 20.6982C10.2628 19.9433 9.65061 19.345 8.91032 19.345ZM8.91032 21.4675V21.4817C8.48323 21.4817 8.12732 21.1256 8.12732 20.7125C8.12732 20.2851 8.48323 19.929 8.91032 19.929V19.9148C9.33741 19.9148 9.69332 20.2709 9.69332 20.6982C9.69332 21.1256 9.33741 21.4675 8.91032 21.4675Z" fill="white"/>
<path d="M13.3694 0.299805L11.7322 9.45935H14.3232L15.9034 0.299805H13.3694Z" fill="#7692AB"/>
<path d="M23.1227 6.45299C23.1227 5.38461 22.4678 4.57265 20.9445 3.91738C20.0334 3.46154 19.4782 3.20513 19.4782 2.74929C19.4782 2.33618 19.9337 1.93732 20.9445 1.93732C21.8129 1.93732 22.4109 2.09402 22.8807 2.29345L23.1369 2.39316L23.5498 0.413105C23.023 0.19943 22.2115 0 21.1865 0C18.6524 0 16.8159 1.26781 16.8159 3.10541C16.8159 4.47293 18.083 5.18518 19.108 5.64103C19.8056 5.95442 20.1615 6.19658 20.3323 6.45299L20.1757 6.31054C20.2612 6.39601 20.3323 6.48148 20.375 6.55271C20.4178 6.63818 20.432 6.72365 20.432 6.82336C20.432 7.4359 19.6205 7.73504 18.9087 7.73504C17.8979 7.73504 17.3285 7.57835 16.4743 7.22222L16.1184 7.06553L15.7625 9.1453C15.7625 9.1453 15.7625 9.1453 15.7767 9.1453L15.7625 9.18803C16.3746 9.44444 17.4851 9.70085 18.6524 9.70085C20.2754 9.70085 21.5994 9.24501 22.3681 8.43305L22.3397 8.40456C22.8379 7.89174 23.1227 7.22222 23.1227 6.45299Z" fill="#7692AB"/>
<path d="M8.68421 8.61889L12.3999 0.356785H9.65229L7.88697 4.68727L7.87274 4.67302L7.06126 6.61035L6.86195 5.34254C6.81924 5.20009 6.77653 5.07188 6.71959 4.92943L5.89387 1.06904C5.73727 0.4565 5.28171 0.299805 4.72649 0.299805H0L0.455565 0.39952C1.50906 0.641685 2.44866 1.01206 3.28861 1.48214L5.53796 9.50208H8.28559L8.31406 9.44511H8.34254L8.68421 8.61889Z" fill="#7692AB"/>
<path d="M31.1543 5.7414L29.8873 0.299805H27.9084C27.2962 0.299805 26.8407 0.356785 26.5844 0.955075L22.769 9.4451H23.125H25.5167L26.0292 7.92089H29.2751L29.5741 9.4451H32.0085L31.1543 5.7414ZM28.2501 3.66163C28.2501 3.66163 28.7341 5.81262 28.848 6.41092H26.7268C26.9261 5.89809 27.7376 3.71861 27.7376 3.71861C27.7376 3.71861 27.7945 3.57616 27.8514 3.39097C27.8657 3.36248 27.8657 3.34824 27.8799 3.31975C27.9084 3.24852 27.9369 3.16305 27.9653 3.09183C28.008 2.99211 28.0508 2.8924 28.0792 2.79268L28.2501 3.66163Z" fill="#7692AB"/>
<path d="M16.3124 22.0786C15.5437 22.0786 14.96 21.5231 14.96 20.6826C14.96 19.8279 15.5152 19.2866 16.3124 19.2866C17.0812 19.2866 17.6222 19.8279 17.6222 20.6114C17.6222 20.7111 17.6222 20.7966 17.608 20.8821H15.5437C15.5864 21.3237 15.8996 21.5943 16.3124 21.5943C16.6541 21.5943 16.8534 21.4234 16.9531 21.2097H17.551C17.3944 21.7083 16.9673 22.0786 16.3124 22.0786ZM15.5437 20.4405H17.0385C17.0243 20.0274 16.6968 19.7567 16.284 19.7567C15.9138 19.7567 15.6006 20.0131 15.5437 20.4405Z" fill="#7692AB"/>
</g>
<defs>
<clipPath id="clip0">
<rect width="33" height="30" fill="white"/>
</clipPath>
</defs>
</svg>
