<svg width="26" height="26" viewBox="0 0 26 26" fill="none" xmlns="http://www.w3.org/2000/svg">
<path d="M13 0C20.15 0 26 5.85 26 13C26 20.15 20.15 26 13 26C5.85 26 0 20.15 0 13C0 5.85 5.85 0 13 0Z" fill="#A5A8A9"/>
<path d="M12.8891 13.1078L11.5891 17.4411H18.5224C18.7391 17.4411 18.8474 17.5495 18.8474 17.7661V17.8745L18.1974 19.9328C18.0891 20.1495 17.9807 20.2578 17.7641 20.2578H7.25573L8.98906 14.1911L7.03906 14.8411L7.4724 13.4328L9.4224 12.7828L11.9141 4.33281C12.0224 4.11615 12.1307 4.00781 12.3474 4.00781H15.1641C15.3807 4.00781 15.4891 4.11615 15.4891 4.33281V4.44115L13.4307 11.5911L15.3807 10.9411L14.9474 12.3495L12.8891 13.1078Z" fill="white"/>
</svg>
