<svg width="22" height="20" viewBox="0 0 22 20" fill="none" xmlns="http://www.w3.org/2000/svg">
<path d="M21.7 2.8C21.6 2.6 21.3 2.5 21.1 2.5H15.7V2.1C15.7 1 14.8 0 13.6 0H8.4C7.3 0 6.3 1 6.3 2.1V2.5H0.8H0.7C0.4 2.6 0 2.9 0 3.3V17.2C0 18.3 0.9 19.3 2.1 19.3H19.8C20.9 19.3 21.9 18.4 21.9 17.2V3.4C21.9 3.1 21.8 2.9 21.7 2.8ZM8.1 2.4V2.1C8.1 1.8 8.3 1.7 8.5 1.7H13.6C13.9 1.7 14 1.9 14 2.1V2.5H8.1V2.4ZM12.6 10.5V11.3H9.3V10.5H12.6ZM18.1 9.8C18 10 17.9 10 17.7 10H14.4V9.7C14.4 9.2 14 8.9 13.6 8.9H8.5C8.3 8.8 8.1 8.9 8 9C7.7 9.1 7.6 9.4 7.6 9.7V10.1H4.3C4.1 10.1 4 9.9 3.9 9.9L2.1 4.2H19.9L18.1 9.8ZM4.2 11.8H7.5V12.2C7.5 12.7 7.9 13 8.3 13H13.4C13.9 13 14.2 12.6 14.2 12.2V11.8H17.5C18.4 11.8 19.3 11.2 19.5 10.4L20 8.6V17.4H20.1C20 17.5 19.9 17.5 19.8 17.5H2.1C1.8 17.5 1.7 17.3 1.7 17.1V8.6L2.3 10.3C2.6 11.2 3.4 11.8 4.2 11.8Z" fill="#75BFEF"/>
</svg>
