<svg width="22" height="20" viewBox="0 0 22 20" fill="none" xmlns="http://www.w3.org/2000/svg">
<path fill-rule="evenodd" clip-rule="evenodd" d="M3 1.7H19C19.718 1.7 20.3 2.28203 20.3 3V11.5994L16.5219 7.82129L10.0219 13.8213L6.02911 9.82853L1.7 13.7247V3C1.7 2.28203 2.28203 1.7 3 1.7ZM1.7 16.0118V17C1.7 17.718 2.28203 18.3 3 18.3H19C19.718 18.3 20.3 17.718 20.3 17V14.0036L16.4747 10.1783L9.97475 16.1783L5.96751 12.1711L1.7 16.0118ZM0 3C0 1.34315 1.34315 0 3 0H19C20.6569 0 22 1.34315 22 3V17C22 18.6569 20.6569 20 19 20H3C1.34315 20 0 18.6569 0 17V3Z" fill="#75BFEF"/>
<path fill-rule="evenodd" clip-rule="evenodd" d="M9.60078 5.4998C8.99327 5.4998 8.50078 5.99229 8.50078 6.5998C8.50078 7.20732 8.99327 7.6998 9.60078 7.6998C10.2083 7.6998 10.7008 7.20732 10.7008 6.5998C10.7008 5.99229 10.2083 5.4998 9.60078 5.4998ZM11.9008 6.5998C11.9008 7.87006 10.871 8.89981 9.60078 8.89981C8.33053 8.89981 7.30078 7.87006 7.30078 6.5998C7.30078 5.32955 8.33053 4.2998 9.60078 4.2998C10.871 4.2998 11.9008 5.32955 11.9008 6.5998Z" fill="#75BFEF"/>
</svg>
