<svg width="22" height="16" viewBox="0 0 22 16" fill="none" xmlns="http://www.w3.org/2000/svg">
<path d="M18.9 0H3C1.3 0 0 1.3 0 3V12.7C0 14.3 1.3 15.7 3 15.7H19C20.6 15.7 22 14.4 22 12.7V3C22 1.3 20.6 0 18.9 0ZM20.4 12.6C20.3 13.3 19.8 14 18.9 14H3C2.3 14 1.7 13.4 1.7 12.6V7.3H20.4V12.6ZM1.6 2.8C1.7 2.2 2.2 1.6 3 1.6H19C19.7 1.6 20.2 2.1 20.3 2.8H1.6ZM20.3 4.4V5.7H1.6V4.4H20.3Z" fill="#75BFEF"/>
<path d="M8.1 8.5C7.5 8.5 7 8.7 6.6 9.1C6.2 8.7 5.7 8.5 5.1 8.5C4 8.5 3 9.4 3 10.5C3 11.6 3.9 12.6 5.1 12.6C5.7 12.6 6.2 12.4 6.6 12C7 12.4 7.5 12.6 8.1 12.6C9.3 12.6 10.2 11.7 10.2 10.5C10.2 9.3 9.3 8.5 8.1 8.5ZM5.1 11.1C4.8 11.1 4.5 10.8 4.5 10.5C4.5 10.2 4.8 9.9 5.1 9.9C5.4 9.9 5.7 10.2 5.7 10.5C5.7 10.9 5.5 11.1 5.1 11.1ZM8.1 11.1C7.8 11.1 7.5 10.8 7.5 10.5C7.5 10.2 7.8 9.9 8.1 9.9C8.4 9.9 8.7 10.2 8.7 10.5C8.7 10.9 8.4 11.1 8.1 11.1Z" fill="#75BFEF"/>
</svg>
