<svg width="22" height="22" viewBox="0 0 22 22" fill="none" xmlns="http://www.w3.org/2000/svg">
<path d="M11 0C4.9 0 0 4.9 0 11C0 17.1 4.9 22 11 22C17.1 22 22 17.1 22 11C22 4.9 17.1 0 11 0ZM11 1.7C16.1 1.7 20.3 5.9 20.3 11C20.3 12.8 19.8 14.5 18.8 16C16.8 13.9 14 12.7 11 12.7C11 12.7 11 12.7 10.9 12.7C7.9 12.7 5.1 13.9 3 16C2.1 14.4 1.6 12.8 1.6 11C1.7 5.8 5.8 1.7 11 1.7ZM17.9 17.4C16.1 19.3 13.6 20.4 11 20.4C11 20.4 11 20.4 10.9 20.4C8.3 20.4 5.9 19.3 4.2 17.4C6 15.5 8.5 14.4 11 14.4C13.6 14.4 16.1 15.5 17.9 17.4Z" fill="#2498FE"/>
<path d="M11 11.7996C13.2 11.7996 15 9.99961 15 7.79961V6.59961C15 4.39961 13.2 2.59961 11 2.59961C8.8 2.59961 7 4.39961 7 6.59961V7.89961C7 9.99961 8.8 11.7996 11 11.7996ZM11 4.19961C12.3 4.19961 13.4 5.29961 13.4 6.59961V7.89961C13.4 9.19961 12.3 10.2996 11 10.2996C9.7 10.2996 8.6 9.19961 8.6 7.89961V6.59961C8.6 5.29961 9.7 4.19961 11 4.19961Z" fill="#2498FE"/>
</svg>
