<svg width="22" height="22" viewBox="0 0 22 22" fill="none" xmlns="http://www.w3.org/2000/svg">
<path d="M19.1992 1.9002H17.3992V1.1002C17.3992 0.600195 16.9992 0.200195 16.4992 0.200195C15.9992 0.200195 15.5992 0.600195 15.5992 1.1002V2.0002H6.39922V1.1002C6.39922 0.600195 5.99922 0.200195 5.49922 0.200195C4.99922 0.200195 4.59922 0.600195 4.59922 1.1002V2.0002H2.79922C1.39922 2.0002 0.199219 3.2002 0.199219 4.7002V19.3002C0.199219 20.8002 1.29922 21.9002 2.79922 21.9002H19.1992C20.6992 21.9002 21.7992 20.8002 21.7992 19.3002V4.6002C21.7992 3.1002 20.5992 1.9002 19.1992 1.9002ZM1.89922 4.5002C1.89922 4.0002 2.29922 3.6002 2.79922 3.6002H4.59922V5.0002C4.59922 5.5002 4.99922 5.9002 5.49922 5.9002C5.99922 5.9002 6.39922 5.5002 6.39922 5.0002V3.7002H15.5992L10.9992 9.0002C10.9992 9.5002 15.9992 5.9002 16.4992 5.9002C16.9992 5.9002 17.3992 5.5002 17.3992 5.0002V3.7002H19.1992C19.6992 3.7002 20.0992 4.1002 20.0992 4.6002V7.3002H1.89922V4.5002ZM20.0992 9.0002V19.2002C20.0992 19.7002 19.6992 20.1002 19.1992 20.1002H2.79922C2.29922 20.1002 1.89922 19.7002 1.89922 19.2002V9.0002H20.0992Z" fill="#75BFEF"/>
<rect x="16" y="16" width="1.7" height="2" rx="0.85" fill="#75BFEF"/>
<rect x="12" y="16" width="1.7" height="2" rx="0.85" fill="#75BFEF"/>
<rect x="8" y="16" width="1.7" height="2" rx="0.85" fill="#75BFEF"/>
<rect x="4" y="16" width="1.7" height="2" rx="0.85" fill="#75BFEF"/>
<rect x="16" y="12" width="1.7" height="2" rx="0.85" fill="#75BFEF"/>
<rect x="12" y="12" width="1.7" height="2" rx="0.85" fill="#75BFEF"/>
<rect x="8" y="12" width="1.7" height="2" rx="0.85" fill="#75BFEF"/>
<rect x="4" y="12" width="1.7" height="2" rx="0.85" fill="#75BFEF"/>
</svg>
