<svg width="22" height="22" viewBox="0 0 22 22" fill="none" xmlns="http://www.w3.org/2000/svg">
<path d="M20.3 8.1L19.3 7.9C19.3 7.8 19.2 7.7 19.2 7.6C19.2 7.5 19.1 7.4 19.1 7.3L19.6 6.5C20.2 5.6 20.1 4.5 19.4 3.8L18.1 2.5C17.8 2.2 17.2 2 16.7 2C16.2 2 15.8 2.2 15.5 2.4L14.7 2.9C14.5 2.8 14.3 2.8 14.1 2.7L13.9 1.7C13.7 0.7 12.8 0 11.8 0H10C8.9 0 8 0.8 7.9 1.7L7.7 2.7C7.7 2.8 7.5 2.8 7.3 2.9L6.5 2.4C6.1 2.1 5.7 2 5.3 2C4.7 2 4.2 2.2 3.8 2.6L2.5 3.9C1.8 4.7 1.8 5.7 2.3 6.6L2.9 7.4C2.8 7.6 2.8 7.8 2.7 8L1.7 8.1C0.7 8.3 0 9.2 0 10.1V12C0 13 0.7 13.8 1.8 14.1L2.8 14.2C2.8 14.3 2.9 14.4 2.9 14.5C2.9 14.6 3 14.7 3 14.8L2.5 15.6C1.9 16.5 2 17.6 2.7 18.3L4 19.6C4.3 19.8 4.7 20 5.4 20C5.9 20 6.3 19.8 6.6 19.6L7.4 19.1C7.5 19.1 7.6 19.2 7.7 19.2C7.8 19.2 7.9 19.3 7.9 19.3L8.1 20.3C8.3 21.3 9.2 22 10.2 22H12C13 22 13.8 21.3 14.1 20.3L14.3 19.3C14.4 19.3 14.5 19.2 14.6 19.2C14.7 19.2 14.8 19.1 14.9 19.1L15.7 19.6C16.1 19.9 16.5 20 16.9 20C17.5 20 18 19.8 18.4 19.4L19.7 18.1C20.5 17.3 20.6 16.2 19.9 15.4L19.3 14.7C19.3 14.6 19.4 14.5 19.4 14.4C19.4 14.3 19.5 14.2 19.5 14.1L20.5 13.9C21.5 13.7 22.2 12.8 22.2 11.8V10C22 9.1 21.3 8.2 20.3 8.1ZM17.9 13.1C17.8 13.5 17.6 13.9 17.4 14.2C17.3 14.5 17.3 14.8 17.5 15.1L18.3 16.3C18.4 16.4 18.4 16.5 18.4 16.6C18.4 16.7 18.3 16.7 18.2 16.8L17 18.1C16.9 18.2 16.8 18.2 16.7 18.2C16.5 18.2 16.5 18.2 16.4 18.1L15.3 17.3C15 17 14.6 17 14.4 17.2C14 17.4 13.6 17.6 13.3 17.7C12.9 17.8 12.8 18.1 12.7 18.3L12.5 19.7C12.4 19.9 12.3 20.1 12.1 20.1H10.3C10.1 20.1 9.9 20 9.9 19.8L9.7 18.5C9.7 18.1 9.5 17.9 9.1 17.7C8.7 17.6 8.4 17.4 8 17.2C7.9 17.1 7.7 17.1 7.6 17.1C7.5 17.1 7.2 17.1 7.1 17.2L5.8 18C5.8 18 5.7 18 5.5 18C5.4 18 5.3 18 5.2 17.9L4 16.7C3.9 16.6 3.9 16.3 3.9 16.2L4.7 15C5 14.7 5 14.3 4.7 14.1C4.5 13.7 4.3 13.4 4.2 13C4.1 12.6 3.8 12.5 3.6 12.4L2.2 12.2C2 12 1.9 11.9 1.9 11.7V9.9C1.9 9.7 2 9.5 2.2 9.5L3.5 9.3C3.9 9.3 4.1 9.1 4.3 8.7C4.4 8.3 4.6 7.8 4.8 7.6L4.9 7.5L4.8 7.3V7.2C4.8 7.1 4.7 6.9 4.6 6.8L3.7 5.6C3.6 5.5 3.6 5.4 3.6 5.3C3.6 5.2 3.6 5.1 3.8 5L5 3.8C5.1 3.7 5.1 3.7 5.3 3.7C5.5 3.7 5.5 3.7 5.6 3.8L6.7 4.6C7 4.9 7.4 4.9 7.6 4.6C8 4.3 8.4 4.1 8.8 4C9.2 3.9 9.3 3.6 9.4 3.4L9.6 2C9.7 1.8 9.8 1.7 10 1.7H11.8C12 1.7 12.2 1.8 12.2 2L12.4 3.3C12.4 3.7 12.6 3.9 13 4.1C13.4 4.2 13.8 4.4 14.2 4.6C14.5 4.7 14.8 4.7 15.1 4.5L16.3 3.7C16.3 3.7 16.4 3.7 16.6 3.7C16.7 3.7 16.8 3.7 16.9 3.8L18.1 5C18.2 5.1 18.2 5.4 18.2 5.5L17.4 6.6C17.1 6.9 17.1 7.3 17.3 7.5C17.5 7.9 17.7 8.3 17.8 8.7C17.9 9.1 18.2 9.2 18.4 9.3L19.8 9.5C20 9.6 20.2 9.7 20.2 9.9L20.4 11.9V12C20.3 12.1 20.3 12.2 20.1 12.2L18.8 12.4C18.3 12.5 18 12.7 17.9 13.1Z" fill="#75BFEF"/>
<path d="M11.0016 6.59961C8.50156 6.59961 6.60156 8.49961 6.60156 10.9996C6.60156 13.4996 8.50156 15.3996 11.0016 15.3996C13.5016 15.3996 15.4016 13.4996 15.4016 10.9996C15.4016 8.49961 13.5016 6.59961 11.0016 6.59961ZM11.0016 13.6996C9.50156 13.6996 8.30156 12.4996 8.30156 10.9996C8.30156 9.39961 9.50156 8.29961 11.0016 8.29961C12.6016 8.29961 13.7016 9.49961 13.7016 10.9996C13.7016 12.4996 12.5016 13.6996 11.0016 13.6996Z" fill="#75BFEF"/>
</svg>
