<svg width="19" height="22" viewBox="0 0 19 22" fill="none" xmlns="http://www.w3.org/2000/svg">
<path d="M14.5016 14.6002C13.6016 14.6002 12.8016 14.9002 12.1016 15.6002L7.20156 12.3002C7.40156 11.9002 7.40156 11.5002 7.40156 11.1002C7.40156 10.7002 7.30156 10.3002 7.20156 10.0002L12.3016 6.6002C12.9016 7.1002 13.7016 7.4002 14.6016 7.4002C16.6016 7.4002 18.2016 5.8002 18.2016 3.8002C18.2016 1.8002 16.6016 0.200195 14.6016 0.200195C12.6016 0.200195 11.0016 1.8002 11.0016 3.8002C11.0016 4.4002 11.1016 4.9002 11.4016 5.3002L6.40156 8.6002C5.60156 7.9002 4.70156 7.5002 3.70156 7.5002C1.70156 7.5002 0.101562 9.1002 0.101562 11.1002C0.101562 13.1002 1.70156 14.7002 3.70156 14.7002C4.60156 14.7002 5.40156 14.4002 6.10156 13.7002L11.0016 16.9002C10.8016 17.3002 10.8016 17.7002 10.8016 18.1002C10.8016 20.1002 12.4016 21.7002 14.4016 21.7002C16.4016 21.7002 18.0016 20.1002 18.0016 18.1002C18.1016 16.2002 16.5016 14.6002 14.5016 14.6002ZM16.4016 18.2002C16.4016 19.2002 15.6016 20.1002 14.5016 20.1002C13.4016 20.1002 12.6016 19.3002 12.6016 18.2002C12.6016 17.2002 13.4016 16.3002 14.5016 16.3002C15.6016 16.3002 16.4016 17.2002 16.4016 18.2002ZM12.6016 3.8002C12.6016 2.8002 13.4016 1.9002 14.5016 1.9002C15.6016 1.9002 16.4016 2.7002 16.4016 3.8002C16.4016 4.8002 15.6016 5.7002 14.5016 5.7002C13.4016 5.7002 12.6016 4.8002 12.6016 3.8002ZM3.70156 9.2002C4.70156 9.2002 5.60156 10.0002 5.60156 11.1002C5.60156 12.1002 4.80156 13.0002 3.70156 13.0002C2.70156 13.0002 1.80156 12.2002 1.80156 11.1002C1.80156 10.1002 2.70156 9.2002 3.70156 9.2002Z" fill="white"/>
</svg>
