<svg width="20" height="20" viewBox="0 0 20 20" fill="none" xmlns="http://www.w3.org/2000/svg">
<path d="M19.6016 4.84183C18.923 5.13265 18.1475 5.32653 17.372 5.42347C18.1475 4.93878 18.8261 4.16327 19.1169 3.29082C18.3414 3.77551 17.5659 4.06633 16.5965 4.26021C15.9179 3.4847 14.8516 3 13.7852 3C11.6526 3 9.90768 4.7449 9.90768 6.87755C9.90768 7.16837 9.90769 7.45918 10.0046 7.75C6.80564 7.55612 3.89748 6.0051 1.9587 3.67857C1.66788 4.2602 1.47401 4.93877 1.47401 5.61735C1.47401 6.97449 2.15258 8.13776 3.21891 8.81633C2.54034 8.81633 1.9587 8.62245 1.47401 8.33163C1.47401 10.1735 2.83115 11.8214 4.57605 12.1122C4.28523 12.2092 3.89748 12.2092 3.50973 12.2092C3.21891 12.2092 3.02503 12.2092 2.73421 12.1122C3.21891 13.6633 4.67299 14.8265 6.41789 14.8265C5.06075 15.8929 3.41279 16.4745 1.57095 16.4745C1.28013 16.4745 0.989318 16.4745 0.601562 16.3776C2.34646 17.4439 4.38217 18.1225 6.61177 18.1225C13.7852 18.1225 17.6628 12.2092 17.6628 7.07143V6.58673C18.4383 6.29592 19.1169 5.61734 19.6016 4.84183Z" fill="#2E4F6B"/>
</svg>
