<svg width="46" height="40" viewBox="0 0 46 40" fill="none" xmlns="http://www.w3.org/2000/svg">
<path d="M39.8543 0.125H32.4784C29.0881 0.125 26.332 2.88375 26.332 6.27185V13.6477C26.332 17.0354 29.0881 19.7941 32.4784 19.7941H39.8543C40.2748 19.7941 40.6853 19.75 41.0838 19.6685V24.7115C41.0838 30.1349 36.6728 34.5458 31.2494 34.5458H28.7905C27.4309 34.5458 26.332 35.6474 26.332 37.0043C26.332 38.3616 27.4309 39.4632 28.7905 39.4632H31.2494C39.3847 39.4632 46.0011 32.8468 46.0011 24.7115V6.27185C46.0011 2.88375 43.2451 0.125 39.8543 0.125Z" fill="#9BB6CD"/>
<path d="M13.5223 0.125H6.1464C2.75604 0.125 0 2.88375 0 6.27185V13.6477C0 17.0354 2.75604 19.7941 6.1464 19.7941H13.5223C13.9427 19.7941 14.3533 19.75 14.7517 19.6685V24.7115C14.7517 30.1349 10.3408 34.5458 4.91739 34.5458H2.45847C1.09891 34.5458 0 35.6474 0 37.0043C0 38.3616 1.09891 39.4632 2.45847 39.4632H4.91739C13.0527 39.4632 19.6691 32.8468 19.6691 24.7115V6.27185C19.6691 2.88375 16.9131 0.125 13.5223 0.125Z" fill="#9BB6CD"/>
</svg>
