<svg width="20" height="20" viewBox="0 0 20 20" fill="none" xmlns="http://www.w3.org/2000/svg">
<path d="M9.94322 8.44167V12.4H15.3266C14.5349 14.5375 12.4766 15.9625 10.1016 15.9625C7.01406 15.9625 4.5599 13.5083 4.5599 10.4208C4.5599 7.33333 7.01406 4.87916 10.1016 4.87916C11.2891 4.87916 12.3974 5.275 13.3474 5.90833L13.6641 6.14583L16.0391 3.05833L15.7224 2.82083C14.0599 1.63333 12.1599 1 10.1016 1C4.87656 1 0.601562 5.275 0.601562 10.5C0.601562 15.725 4.87656 20 10.1016 20C15.3266 20 19.6016 15.725 19.6016 10.5V8.52083H9.94322V8.44167Z" fill="#9BB6CD"/>
</svg>
