<svg width="20" height="20" viewBox="0 0 20 20" fill="none" xmlns="http://www.w3.org/2000/svg">
<path d="M15.6069 2.9149C14.3303 1.63831 12.4952 1 10.5005 1C7.46858 1 5.63348 2.2766 4.59624 3.31384C3.31965 4.59044 2.60156 6.26596 2.60156 8.02128C2.60156 10.1755 3.47922 11.7713 4.99518 12.4096C5.07497 12.4894 5.23454 12.4894 5.31433 12.4894C5.63347 12.4894 5.87285 12.25 5.95264 11.9309C6.03243 11.7713 6.1122 11.2926 6.19199 11.0532C6.27178 10.6543 6.192 10.4947 5.95264 10.1755C5.5537 9.69681 5.31433 9.05852 5.31433 8.26065C5.31433 5.94682 7.06966 3.47341 10.2611 3.47341C12.8143 3.47341 14.4101 4.90958 14.4101 7.22341C14.4101 8.65958 14.0909 10.016 13.5324 11.0532C13.1335 11.7713 12.4154 12.5692 11.3782 12.5692C10.8994 12.5692 10.5005 12.4096 10.2611 12.0106C10.0218 11.6915 9.94198 11.2926 10.0218 10.8936C10.1016 10.4149 10.2611 9.93618 10.4207 9.45746C10.6601 8.5798 10.9792 7.70214 10.9792 7.06384C10.9792 5.94682 10.2611 5.14894 9.2239 5.14894C7.86751 5.14894 6.83028 6.50532 6.83028 8.18086C6.83028 9.05852 7.06966 9.61703 7.14945 9.85639C6.98987 10.5745 5.95263 14.8032 5.79305 15.5213C5.71327 16 4.99518 19.6702 6.1122 19.9096C7.30901 20.2287 8.42603 16.6383 8.50582 16.2394C8.5856 15.9202 8.90476 14.6436 9.06434 13.9255C9.62285 14.484 10.5803 14.883 11.5377 14.883C13.2931 14.883 14.809 14.0851 15.926 12.6489C16.9633 11.2926 17.6016 9.37767 17.6016 7.22341C17.5218 5.78724 16.8835 4.11171 15.6069 2.9149Z" fill="#9BB6CD"/>
</svg>
