<svg width="52" height="52" viewBox="0 0 52 52" fill="none" xmlns="http://www.w3.org/2000/svg">
<path d="M28.4226 31.0914C27.0117 31.0914 25.6008 31.0914 24.1898 31.0914C23.9875 31.0914 23.7851 31.0914 23.5828 31.0914C23.9492 31.4578 24.3101 31.8188 24.6765 32.1852C24.6219 31.4633 24.5672 30.7469 24.5125 30.025C24.3812 28.3078 24.2555 26.5907 24.1242 24.868C23.9656 22.7789 23.807 20.6953 23.6539 18.6063C23.5172 16.8071 23.3805 15.0078 23.2437 13.2086C23.1781 12.3336 23.1508 11.4422 23.0469 10.5672C23.0469 10.5563 23.0469 10.5399 23.0414 10.5289C22.675 10.8953 22.314 11.2563 21.9476 11.6227C24.3156 11.6227 26.689 11.6227 29.057 11.6227C29.3906 11.6227 29.7242 11.6227 30.0578 11.6227C29.6914 11.2563 29.3305 10.8953 28.964 10.5289C28.9094 11.2508 28.8547 11.9672 28.8 12.6891C28.6687 14.4063 28.5429 16.1235 28.4117 17.8461C28.2531 19.9352 28.0945 22.0188 27.9414 24.1078C27.8047 25.9071 27.668 27.7063 27.5312 29.5055C27.4656 30.3805 27.3617 31.2664 27.3344 32.1469C27.3344 32.1578 27.3344 32.1743 27.3289 32.1852C27.2851 32.7594 27.8648 33.3063 28.4226 33.2789C29.0515 33.2516 29.4726 32.7977 29.5164 32.1852C29.5711 31.4633 29.6258 30.7469 29.6804 30.025C29.8117 28.3078 29.9375 26.5907 30.0687 24.868C30.2273 22.7789 30.3859 20.6953 30.539 18.6063C30.6758 16.8071 30.8125 15.0078 30.9492 13.2086C31.0148 12.3336 31.1187 11.4477 31.1461 10.5672C31.1461 10.5563 31.1461 10.5399 31.1515 10.5289C31.1953 9.93831 30.6156 9.43518 30.0578 9.43518C27.6898 9.43518 25.3164 9.43518 22.9484 9.43518C22.6148 9.43518 22.2812 9.43518 21.9476 9.43518C21.3898 9.43518 20.8101 9.93831 20.8539 10.5289C20.9086 11.2508 20.9633 11.9672 21.018 12.6891C21.1492 14.4063 21.275 16.1235 21.4062 17.8461C21.5648 19.9352 21.7234 22.0188 21.8765 24.1078C22.0133 25.9071 22.15 27.7063 22.2867 29.5055C22.3523 30.386 22.407 31.2664 22.4836 32.1469C22.4836 32.1578 22.4836 32.1743 22.489 32.1852C22.5328 32.7758 22.9539 33.2789 23.5828 33.2789C24.9937 33.2789 26.4047 33.2789 27.8156 33.2789C28.018 33.2789 28.2203 33.2789 28.4226 33.2789C28.9969 33.2789 29.5437 32.7758 29.5164 32.1852C29.489 31.5946 29.0351 31.0914 28.4226 31.0914Z" fill="#FAA136"/>
<path d="M28.4226 40.3664C27.0117 40.3664 25.6008 40.3664 24.1898 40.3664C23.9875 40.3664 23.7851 40.3664 23.5828 40.3664C23.9492 40.7328 24.3101 41.0937 24.6765 41.4601C24.6765 40.0492 24.6765 38.6383 24.6765 37.2273C24.6765 37.025 24.6765 36.8226 24.6765 36.6203C24.3101 36.9867 23.9492 37.3476 23.5828 37.7141C24.9937 37.7141 26.4047 37.7141 27.8156 37.7141C28.018 37.7141 28.2203 37.7141 28.4226 37.7141C28.0562 37.3476 27.6953 36.9867 27.3289 36.6203C27.3289 38.0312 27.3289 39.4422 27.3289 40.8531C27.3289 41.0555 27.3289 41.2578 27.3289 41.4601C27.3289 42.0344 27.832 42.5812 28.4226 42.5539C29.0133 42.5266 29.5164 42.0726 29.5164 41.4601C29.5164 40.0492 29.5164 38.6383 29.5164 37.2273C29.5164 37.025 29.5164 36.8226 29.5164 36.6203C29.5164 36.0297 29.0133 35.5266 28.4226 35.5266C27.0117 35.5266 25.6008 35.5266 24.1898 35.5266C23.9875 35.5266 23.7851 35.5266 23.5828 35.5266C22.9922 35.5266 22.489 36.0297 22.489 36.6203C22.489 38.0312 22.489 39.4422 22.489 40.8531C22.489 41.0555 22.489 41.2578 22.489 41.4601C22.489 42.0508 22.9922 42.5539 23.5828 42.5539C24.9937 42.5539 26.4047 42.5539 27.8156 42.5539C28.018 42.5539 28.2203 42.5539 28.4226 42.5539C28.9969 42.5539 29.5437 42.0508 29.5164 41.4601C29.489 40.8695 29.0351 40.3664 28.4226 40.3664Z" fill="#FAA136"/>
<path d="M49.5812 26C49.5812 26.6508 49.5539 27.3016 49.5047 27.9524C49.4773 28.2805 49.4445 28.6086 49.4062 28.9313C49.3953 29.0078 49.3898 29.0789 49.3789 29.1555C49.3734 29.1938 49.368 29.232 49.3625 29.2649C49.3625 29.2649 49.3953 29.0352 49.3789 29.1609C49.357 29.3195 49.3297 29.4836 49.3078 29.6422C49.1109 30.8836 48.8156 32.1141 48.4273 33.3117C48.2359 33.9024 48.0226 34.4875 47.7875 35.0617C47.7711 35.1 47.6781 35.3188 47.7437 35.1656C47.8148 35.0016 47.7 35.2641 47.6836 35.3024C47.6234 35.4445 47.5578 35.5922 47.4922 35.7344C47.3664 36.0078 47.2351 36.2813 47.0984 36.5492C46.5406 37.6539 45.9008 38.7149 45.1844 39.7211C45.1023 39.8359 45.0148 39.9563 44.9328 40.0711C44.8508 40.1859 44.7633 40.3555 44.6539 40.443C44.6539 40.443 44.7906 40.268 44.7141 40.3609C44.6922 40.3883 44.6703 40.4156 44.6484 40.4484C44.6047 40.5031 44.5609 40.5633 44.5172 40.618C44.4133 40.7492 44.3094 40.8805 44.2 41.0063C43.8117 41.4766 43.4016 41.925 42.9805 42.368C42.5594 42.8055 42.1164 43.2266 41.6625 43.6313C41.4383 43.8281 41.2141 44.025 40.9844 44.2164C40.875 44.3094 40.7656 44.3969 40.6508 44.4899C40.5851 44.5445 40.5195 44.5938 40.4539 44.6484C40.4265 44.6703 40.3992 44.6922 40.3664 44.7141C40.2515 44.807 40.5359 44.5883 40.4156 44.6758C39.4312 45.4086 38.4195 46.0867 37.3476 46.6774C36.8117 46.9727 36.2594 47.2516 35.7015 47.5086C35.5703 47.5688 35.439 47.6289 35.3023 47.6836C35.2422 47.7109 35.1711 47.7547 35.1 47.7711C35.1 47.7711 35.3078 47.6836 35.193 47.7328C35.1492 47.7492 35.1055 47.7711 35.0562 47.7875C34.7664 47.9078 34.4711 48.0227 34.1703 48.132C32.9945 48.5641 31.7859 48.9031 30.5555 49.1438C30.2383 49.2094 29.9211 49.2641 29.5984 49.3133C29.4508 49.3352 29.3031 49.357 29.1555 49.3789C29.0297 49.3953 29.2648 49.3625 29.2594 49.3625C29.2211 49.368 29.1828 49.3734 29.15 49.3789C29.0625 49.3899 28.975 49.4008 28.8875 49.4117C28.2476 49.4883 27.6023 49.5375 26.957 49.5594C25.6609 49.6086 24.3539 49.5594 23.0633 49.4063C22.9758 49.3953 22.8883 49.3844 22.8008 49.3735C22.5875 49.3461 23.0031 49.4008 22.7953 49.3735C22.6367 49.3516 22.4726 49.3242 22.3141 49.3024C22.0078 49.2531 21.7015 49.1984 21.3953 49.1383C20.7664 49.0125 20.143 48.8594 19.525 48.6844C18.9234 48.5149 18.3328 48.318 17.7476 48.1047C17.4633 48.0008 17.1789 47.8914 16.9 47.7711C16.8672 47.7547 16.8344 47.7438 16.8015 47.7274C16.6867 47.6836 16.9 47.7656 16.8945 47.7656C16.8289 47.7492 16.7578 47.7055 16.6922 47.6781C16.539 47.6125 16.3805 47.5414 16.2273 47.4703C15.1117 46.9563 14.0398 46.3602 13.0117 45.6875C12.7601 45.5234 12.514 45.3539 12.268 45.1789C12.1422 45.0914 12.0164 44.9984 11.8906 44.9055C11.8305 44.8617 11.7758 44.818 11.7156 44.7742C11.6773 44.7469 11.464 44.5938 11.6008 44.6867C11.732 44.7797 11.5461 44.643 11.5133 44.6156C11.4586 44.5719 11.3984 44.5281 11.3437 44.4844C11.2234 44.3859 11.1031 44.2875 10.9828 44.1891C10.7422 43.9922 10.507 43.7899 10.2773 43.582C9.36952 42.7672 8.52733 41.8867 7.75077 40.9516C7.6578 40.8422 7.5703 40.7274 7.47733 40.618C7.43358 40.5633 7.38983 40.5031 7.34608 40.4484C7.3242 40.4211 7.30233 40.3938 7.28045 40.3609C7.19295 40.2516 7.44452 40.5797 7.29686 40.3828C7.11639 40.1422 6.94139 39.9016 6.76639 39.6609C6.41639 39.1633 6.07733 38.6492 5.76561 38.1242C5.44842 37.5992 5.15311 37.0578 4.87967 36.5109C4.73749 36.232 4.60077 35.9477 4.47499 35.6633C4.41483 35.532 4.35467 35.4008 4.29999 35.2641C4.28358 35.2258 4.19061 35.007 4.25624 35.1602C4.32186 35.3133 4.21796 35.0672 4.20155 35.0234C3.73124 33.8695 3.34842 32.6774 3.05858 31.4633C2.91092 30.8453 2.79061 30.2274 2.6867 29.6039C2.65936 29.4453 2.64296 29.2813 2.61561 29.1227C2.61561 29.1227 2.64295 29.3524 2.63202 29.2266C2.62655 29.1883 2.62108 29.15 2.61561 29.1172C2.60467 29.0297 2.59374 28.9422 2.5828 28.8547C2.54452 28.543 2.51717 28.2258 2.48983 27.9141C2.39139 26.6016 2.39139 25.2836 2.50077 23.9711C2.52811 23.6594 2.55545 23.3422 2.59374 23.0305C2.60467 22.9539 2.61014 22.8828 2.62108 22.8063C2.64842 22.593 2.59374 23.0086 2.62108 22.8008C2.64842 22.6258 2.6703 22.4563 2.69764 22.2813C2.80155 21.6578 2.92733 21.0344 3.07499 20.4219C3.3703 19.2078 3.76405 18.0266 4.23436 16.8727C4.2453 16.8399 4.25624 16.8016 4.27811 16.7742C4.27811 16.7742 4.19061 16.982 4.23983 16.8672C4.26717 16.8016 4.29452 16.7359 4.32733 16.6649C4.39295 16.5227 4.45311 16.375 4.51874 16.2328C4.64999 15.9484 4.78671 15.6641 4.92889 15.3852C5.2078 14.8383 5.50311 14.3024 5.82577 13.7774C6.14296 13.2524 6.47655 12.7438 6.83202 12.2461C6.91405 12.1313 7.00155 12.0109 7.08358 11.8961C7.12733 11.8359 7.17108 11.7813 7.21483 11.7211C7.24217 11.6828 7.27499 11.6445 7.30233 11.6063C7.38983 11.4914 7.29139 11.6063 7.26405 11.6555C7.4117 11.4094 7.64139 11.1797 7.82733 10.9555C8.60936 10.0203 9.45702 9.14532 10.3648 8.33595C10.5945 8.12813 10.8351 7.92579 11.0703 7.72891C11.1797 7.63595 11.2945 7.54845 11.4039 7.45548C11.4586 7.41173 11.5187 7.36798 11.5734 7.32423C11.6008 7.30235 11.6281 7.27501 11.6609 7.2586C11.6117 7.28595 11.4969 7.38438 11.6117 7.29688C12.0984 6.93048 12.5961 6.57501 13.1101 6.24142C14.1383 5.57423 15.2156 4.97813 16.3367 4.46954C16.4789 4.40391 16.6211 4.33829 16.7687 4.27813C16.8015 4.26173 16.8344 4.25079 16.8672 4.23438C16.982 4.18516 16.7687 4.27267 16.7742 4.27267C16.8398 4.22891 16.9383 4.20704 17.0094 4.17423C17.3047 4.05392 17.5945 3.94454 17.8953 3.83516C18.4805 3.62188 19.0765 3.43048 19.6781 3.26642C20.2851 3.09688 20.8976 2.9547 21.5156 2.82892C21.8219 2.76876 22.1281 2.71407 22.4344 2.66485C22.582 2.64298 22.7351 2.62657 22.8773 2.59923C22.85 2.6047 22.6148 2.63204 22.8117 2.61017C22.85 2.6047 22.8883 2.59923 22.9211 2.59376C23.0086 2.58282 23.0961 2.57188 23.1836 2.56095C24.4742 2.41329 25.7812 2.36954 27.0773 2.42423C27.7226 2.45157 28.368 2.50626 29.0078 2.58282C29.0844 2.59376 29.1555 2.59923 29.232 2.61017C29.3578 2.62657 29.1281 2.59376 29.1281 2.59376C29.1664 2.59923 29.2047 2.6047 29.2375 2.61017C29.3961 2.63204 29.5601 2.65938 29.7187 2.68126C30.0359 2.73595 30.3586 2.79063 30.6703 2.85626C31.8953 3.10782 33.1039 3.45235 34.2797 3.88438C34.575 3.99376 34.8703 4.1086 35.1601 4.22891C35.3516 4.30548 34.9797 4.14688 35.1656 4.23438C35.2312 4.26173 35.2969 4.29454 35.368 4.32188C35.5101 4.38751 35.6578 4.44766 35.8 4.51329C36.3578 4.77032 36.9047 5.04923 37.4406 5.35001C37.9766 5.64532 38.5016 5.96798 39.0101 6.30157C39.2726 6.4711 39.5242 6.65157 39.7812 6.83204C39.8961 6.91407 40.0164 7.00157 40.1312 7.0836C40.1914 7.12735 40.2461 7.1711 40.3062 7.21485C40.3336 7.23673 40.3609 7.2586 40.3937 7.28048C40.5086 7.36798 40.3937 7.26954 40.3445 7.2422C40.6016 7.39532 40.8422 7.63595 41.0719 7.82735C41.3015 8.01876 41.5258 8.21563 41.75 8.41251C42.2039 8.82267 42.6414 9.24376 43.0625 9.68126C43.4945 10.1297 43.9047 10.5945 44.2984 11.0758C44.3914 11.1852 44.4789 11.3 44.5664 11.4094C44.6101 11.4641 44.6539 11.5242 44.6976 11.5789C44.7141 11.6008 44.7906 11.7047 44.6976 11.5789C44.6047 11.4477 44.7031 11.5844 44.7195 11.6117C44.9055 11.8578 45.0914 12.1094 45.2719 12.3664C45.9773 13.3672 46.6062 14.4227 47.1531 15.5219C47.2898 15.7899 47.4156 16.0633 47.5414 16.3422C47.6016 16.4734 47.6617 16.6047 47.7164 16.7414C47.7328 16.7797 47.7656 16.8344 47.7711 16.8727C47.7711 16.8727 47.6836 16.6649 47.7328 16.7797C47.7656 16.8563 47.7984 16.9383 47.8312 17.0149C48.0664 17.5891 48.2742 18.1742 48.4656 18.7649C48.8484 19.9625 49.1383 21.193 49.3297 22.4399C49.3406 22.5164 49.3516 22.5875 49.3625 22.6641C49.368 22.7078 49.4117 22.9484 49.3789 22.7789C49.3516 22.6094 49.3898 22.85 49.3953 22.8938C49.4062 22.9703 49.4117 23.0414 49.4226 23.118C49.4609 23.4297 49.4883 23.7469 49.5156 24.0586C49.5539 24.7203 49.5758 25.3602 49.5812 26C49.5812 26.5742 50.0844 27.1211 50.675 27.0938C51.2656 27.0664 51.7687 26.6125 51.7687 26C51.7633 23.3203 51.3531 20.6242 50.5219 18.0703C49.718 15.6094 48.5531 13.2524 47.0492 11.1414C45.5125 8.98126 43.675 7.09454 41.575 5.48126C39.5187 3.90079 37.2219 2.66485 34.7937 1.77345C32.289 0.854696 29.6258 0.351571 26.9625 0.253134C24.2719 0.149227 21.543 0.471884 18.9508 1.21016C16.457 1.9211 14.0508 3.01485 11.8851 4.4422C9.74139 5.85313 7.79999 7.57579 6.1703 9.55548C4.48045 11.6063 3.13514 13.8649 2.12342 16.3203C1.10624 18.7813 0.515611 21.4008 0.307798 24.0477C0.0945172 26.7492 0.324205 29.4891 0.964049 32.1195C1.57655 34.6461 2.59374 37.0961 3.93905 39.3219C5.26795 41.5149 6.93045 43.5219 8.84452 45.2227C10.7695 46.9344 12.9406 48.3727 15.2922 49.4336C17.7805 50.5602 20.389 51.2766 23.1016 51.5938C25.8031 51.9109 28.5484 51.7688 31.2117 51.2328C33.7711 50.7133 36.2594 49.7781 38.5398 48.5094C40.7766 47.2625 42.8437 45.6602 44.6156 43.8063C46.3875 41.9469 47.9023 39.8195 49.0453 37.5172C50.2156 35.1602 51.0414 32.6391 51.4406 30.0359C51.643 28.6961 51.7633 27.3508 51.7633 25.9945C51.7633 25.4203 51.2601 24.8734 50.6695 24.9008C50.0789 24.9336 49.5812 25.3875 49.5812 26Z" fill="#FAA136"/>
</svg>
