<svg width="17" height="16" viewBox="0 0 17 16" fill="none" xmlns="http://www.w3.org/2000/svg">
<path d="M16.2112 7.789C16.2112 6.24825 15.7466 4.7421 14.8761 3.46102C14.0056 2.17994 12.7684 1.18148 11.3209 0.591908C9.87336 0.00233173 8.28055 -0.151877 6.7439 0.148782C5.20725 0.449441 3.79577 1.19146 2.68797 2.28101C1.58016 3.37056 0.825792 4.75869 0.520253 6.26987C0.214715 7.78104 0.371732 9.34738 0.971449 10.7708C1.57117 12.1942 2.58665 13.4108 3.88947 14.2666C5.19229 15.1225 6.72393 15.5792 8.2907 15.579C10.3906 15.5761 12.4037 14.7544 13.8884 13.2941C15.3732 11.8338 16.2085 9.85405 16.2112 7.789ZM1.50301 7.789C1.50321 6.4691 1.90139 5.17889 2.64719 4.08152C3.393 2.98414 4.45295 2.12887 5.69301 1.62386C6.93307 1.11884 8.29756 0.986761 9.61395 1.24431C10.9303 1.50186 12.1395 2.13748 13.0886 3.07079C14.0377 4.0041 14.684 5.1932 14.9459 6.48773C15.2078 7.78226 15.0735 9.12409 14.56 10.3436C14.0464 11.563 13.1767 12.6054 12.0608 13.3388C10.9449 14.0722 9.63289 14.4638 8.2907 14.464C6.49091 14.4627 4.76521 13.759 3.49257 12.5075C2.21992 11.2559 1.50436 9.55891 1.50301 7.789Z" fill="#0B3B65"/>
<path d="M7.12353 4.08405L6.32324 4.87105L9.2722 7.79007L6.32324 10.7091L7.12353 11.4961L10.8921 7.79007L7.12353 4.08405Z" fill="#0B3B65"/>
</svg>
