<svg width="17" height="16" viewBox="0 0 17 16" fill="none" xmlns="http://www.w3.org/2000/svg">
<path d="M16.6161 7.78897C16.6161 6.24821 16.151 4.74205 15.2795 3.46097C14.4081 2.17989 13.1696 1.18143 11.7205 0.591849C10.2714 0.00227165 8.67683 -0.151938 7.13851 0.148722C5.60019 0.449383 4.18718 1.19141 3.07818 2.28096C1.96917 3.37051 1.21398 4.75865 0.908114 6.26983C0.602244 7.78101 0.759432 9.34735 1.3598 10.7708C1.96017 12.1942 2.97675 13.4108 4.28098 14.2666C5.58521 15.1225 7.11852 15.5792 8.68699 15.579C10.7892 15.5761 12.8044 14.7544 14.2908 13.2941C15.7772 11.8338 16.6134 9.85403 16.6161 7.78897ZM1.89193 7.78897C1.89214 6.46906 2.29074 5.17885 3.03736 4.08147C3.78398 2.98409 4.84507 2.12882 6.08647 1.6238C7.32788 1.11879 8.69385 0.986705 10.0117 1.24425C11.3295 1.5018 12.54 2.13742 13.4901 3.07074C14.4402 4.00406 15.0872 5.19316 15.3494 6.48769C15.6116 7.78223 15.4771 9.12407 14.963 10.3435C14.4489 11.563 13.5783 12.6054 12.4612 13.3388C11.3441 14.0722 10.0306 14.4638 8.68699 14.464C6.88524 14.4627 5.15768 13.759 3.88365 12.5075C2.60962 11.2559 1.89328 9.55889 1.89193 7.78897Z" fill="#DDBE82"/>
<path d="M7.51795 4.08395L6.7168 4.87095L9.66896 7.78996L6.7168 10.709L7.51795 11.496L11.2906 7.78996L7.51795 4.08395Z" fill="#DDBE82"/>
</svg>
